<svg width="1065" height="715" viewBox="0 0 1065 715" fill="none" xmlns="http://www.w3.org/2000/svg">
<path d="M247.433 271.017H32.9334C18.4334 270.35 -6.66662 262.317 8.93338 235.517C24.5334 208.717 36.4334 213.017 40.4333 218.517C40.7667 211.017 45.1333 195.517 59.9333 193.517C61.2667 188.017 68.0333 177.917 84.4333 181.517C93.1 175.183 98.9333 164.017 116.433 175.017C125.6 164.683 144.433 146.717 170.433 171.517C179.767 169.35 215.433 158.517 225.933 193.517C232.933 196.183 244.833 204.917 236.433 218.517C243.767 221.517 256.233 230.417 247.433 242.017C254.6 246.517 264.633 258.617 247.433 271.017Z" fill="#45AAF2" fill-opacity="0.1"/>
<path d="M546.433 112.017H331.933C317.433 111.35 292.333 103.317 307.933 76.5166C323.533 49.7166 335.433 54.0167 339.433 59.5167C339.767 52.0166 344.133 36.5166 358.933 34.5166C360.267 29.0166 367.033 18.9166 383.433 22.5166C392.1 16.1833 397.933 5.01654 415.433 16.0167C424.6 5.68344 443.433 -12.2833 469.433 12.5167C478.767 10.3499 514.433 -0.483459 524.933 34.5166C531.933 37.1833 543.833 45.9167 535.433 59.5167C542.767 62.5166 555.233 71.4165 546.433 83.0165C553.6 87.5166 563.633 99.6167 546.433 112.017Z" fill="#45AAF2" fill-opacity="0.1"/>
<path d="M1055.43 286.017H840.933C826.433 285.35 801.333 277.317 816.933 250.517C832.533 223.717 844.433 228.017 848.433 233.517C848.767 226.017 853.133 210.517 867.933 208.517C869.267 203.017 876.033 192.917 892.433 196.517C901.1 190.183 906.933 179.017 924.433 190.017C933.6 179.683 952.433 161.717 978.433 186.517C987.767 184.35 1023.43 173.517 1033.93 208.517C1040.93 211.183 1052.83 219.917 1044.43 233.517C1051.77 236.517 1064.23 245.417 1055.43 257.017C1062.6 261.517 1072.63 273.617 1055.43 286.017Z" fill="#45AAF2" fill-opacity="0.1"/>
<path d="M371.416 198.75C371.416 189.576 378.853 182.14 388.026 182.14H893.778C902.952 182.14 910.388 189.576 910.388 198.75V198.75C910.388 207.923 902.952 215.36 893.778 215.36H388.026C378.853 215.36 371.416 207.923 371.416 198.75V198.75Z" fill="#A6D9FD" fill-opacity="0.1"/>
<path d="M439.835 245.922C439.835 237.116 446.974 229.977 455.78 229.977H859.535C868.342 229.977 875.481 237.116 875.481 245.922V245.922C875.481 254.729 868.342 261.868 859.535 261.868H455.781C446.974 261.868 439.835 254.729 439.835 245.922V245.922Z" fill="#A6D8FB" fill-opacity="0.1"/>
<path d="M411.909 294.423C411.909 285.25 419.345 277.813 428.519 277.813H941.253C950.426 277.813 957.863 285.25 957.863 294.423V294.423C957.863 303.597 950.426 311.033 941.253 311.033H428.519C419.345 311.033 411.909 303.597 411.909 294.423V294.423Z" fill="#A6D8FB" fill-opacity="0.1"/>
<path d="M344.887 343.256C344.887 334.266 352.175 326.979 361.164 326.979H720.271C729.261 326.979 736.549 334.266 736.549 343.256V343.256C736.549 352.246 729.261 359.534 720.272 359.534H361.164C352.175 359.534 344.887 352.246 344.887 343.256V343.256Z" fill="#A6D9FD" fill-opacity="0.1"/>
<path d="M343.49 386.774C343.49 377.968 350.629 370.829 359.436 370.829H823.232C832.038 370.829 839.177 377.968 839.177 386.774V386.774C839.177 395.581 832.038 402.72 823.232 402.72H359.436C350.629 402.72 343.49 395.581 343.49 386.774V386.774Z" fill="#7AC8FF" fill-opacity="0.1"/>
<path d="M386.556 428.299C386.556 419.309 393.843 412.021 402.833 412.021H792.18C801.17 412.021 808.458 419.309 808.458 428.299V428.299C808.458 437.289 801.17 444.577 792.18 444.577H402.833C393.843 444.577 386.556 437.289 386.556 428.299V428.299Z" fill="#58B3F4" fill-opacity="0.1"/>
<path d="M0 428.299C0 419.309 7.28778 412.021 16.2777 412.021H405.625C414.615 412.021 421.902 419.309 421.902 428.299V428.299C421.902 437.289 414.615 444.577 405.625 444.577H16.2777C7.28779 444.577 0 437.289 0 428.299V428.299Z" fill="#58B3F4" fill-opacity="0.1"/>
<path d="M406.213 513.342C406.213 504.352 413.501 497.064 422.491 497.064H734.234C743.224 497.064 750.512 504.352 750.512 513.342V513.342C750.512 522.332 743.224 529.62 734.234 529.62H422.491C413.501 529.62 406.213 522.332 406.213 513.342V513.342Z" fill="#48A8EC" fill-opacity="0.1"/>
<path d="M90.7598 513.342C90.7598 504.352 98.0475 497.064 107.037 497.064H418.781C427.771 497.064 435.058 504.352 435.058 513.342V513.342C435.058 522.332 427.771 529.62 418.781 529.62H107.037C98.0475 529.62 90.7598 522.332 90.7598 513.342V513.342Z" fill="#48A8EC" fill-opacity="0.1"/>
<path d="M406.213 555.864C406.213 546.874 413.501 539.586 422.491 539.586H734.234C743.224 539.586 750.512 546.874 750.512 555.864V555.864C750.512 564.854 743.224 572.141 734.234 572.141H422.491C413.501 572.141 406.213 564.854 406.213 555.864V555.864Z" fill="#7AC8FF" fill-opacity="0.1"/>
<path d="M90.7598 555.864C90.7598 546.874 98.0475 539.586 107.037 539.586H418.781C427.771 539.586 435.058 546.874 435.058 555.864V555.864C435.058 564.854 427.771 572.141 418.781 572.141H107.037C98.0475 572.141 90.7598 564.854 90.7598 555.864V555.864Z" fill="#7AC8FF" fill-opacity="0.1"/>
<path d="M368.513 595.727C368.513 586.737 375.801 579.449 384.791 579.449H696.534C705.524 579.449 712.812 586.737 712.812 595.727V595.727C712.812 604.717 705.524 612.005 696.534 612.005H384.791C375.801 612.005 368.513 604.717 368.513 595.727V595.727Z" fill="#56B9FF" fill-opacity="0.1"/>
<path d="M53.0596 595.727C53.0596 586.737 60.3474 579.449 69.3373 579.449H381.081C390.07 579.449 397.358 586.737 397.358 595.727V595.727C397.358 604.717 390.07 612.005 381.081 612.005H69.3373C60.3473 612.005 53.0596 604.717 53.0596 595.727V595.727Z" fill="#56B9FF" fill-opacity="0.1"/>
<path d="M403.201 470.82C403.201 461.83 410.488 454.542 419.478 454.542H761.462C770.452 454.542 777.739 461.83 777.739 470.82V470.82C777.739 479.81 770.452 487.098 761.462 487.098H419.478C410.488 487.098 403.201 479.81 403.201 470.82V470.82Z" fill="#7AC8FF" fill-opacity="0.1"/>
<path d="M60.041 470.82C60.041 461.83 67.3288 454.542 76.3187 454.542H418.302C427.292 454.542 434.58 461.83 434.58 470.82V470.82C434.58 479.81 427.292 487.098 418.302 487.098H76.3187C67.3288 487.098 60.041 479.81 60.041 470.82V470.82Z" fill="#7AC8FF" fill-opacity="0.1"/>
<path d="M746.649 127.104L737.565 122.056C738.136 117.703 738.136 113.297 737.565 108.944L746.649 103.896C749.317 102.413 750.604 99.3634 749.726 96.5213C746.603 86.3991 741.042 77.2878 733.699 69.8154C731.573 67.6514 728.179 67.1779 725.499 68.6672L716.429 73.7078C712.8 71.0498 708.838 68.8443 704.634 67.1436V57.0575C704.634 54.0731 702.503 51.479 699.485 50.7918C688.999 48.4029 678.003 48.4026 667.515 50.7918C664.497 51.479 662.366 54.0728 662.366 57.0575V67.1436C658.162 68.8442 654.2 71.0498 650.571 73.7078L641.501 68.6672C638.821 67.1779 635.427 67.6514 633.301 69.8154C625.958 77.2878 620.397 86.3994 617.274 96.5213C616.396 99.3634 617.683 102.413 620.351 103.896L629.435 108.944C628.864 113.297 628.864 117.703 629.435 122.056L620.351 127.104C617.683 128.587 616.396 131.637 617.274 134.479C620.397 144.601 625.958 153.712 633.301 161.185C635.427 163.349 638.821 163.822 641.501 162.333L650.571 157.292C654.2 159.95 658.162 162.156 662.366 163.856V173.942C662.366 176.927 664.497 179.521 667.515 180.208C678.001 182.597 688.997 182.597 699.485 180.208C702.503 179.521 704.634 176.927 704.634 173.942V163.856C708.837 162.156 712.8 159.95 716.429 157.292L725.499 162.333C728.179 163.822 731.573 163.349 733.699 161.185C741.042 153.712 746.603 144.601 749.726 134.479C750.604 131.637 749.317 128.587 746.649 127.104ZM728.409 154.043L715.509 146.872C707.991 153.059 705.325 154.615 695.72 157.882V172.222C687.658 173.823 679.342 173.823 671.28 172.222V157.882C661.914 154.697 659.203 153.218 651.491 146.872L638.591 154.043C633.1 148.119 628.928 141.175 626.354 133.675L639.259 126.505C637.439 117.008 637.438 113.997 639.259 104.495L626.354 97.3252C628.928 89.8255 633.101 82.8805 638.591 76.9545L651.491 84.1301C659.117 77.8463 661.815 76.3364 671.28 73.1176V58.7777C679.341 57.1742 687.659 57.1742 695.72 58.7777V73.1178C705.185 76.3369 707.884 77.8471 715.509 84.1303L728.409 76.9547C733.899 82.8805 738.072 89.8255 740.646 97.3255L727.741 104.496C729.561 113.995 729.562 117.003 727.741 126.505L740.646 133.675C738.072 141.175 733.9 148.12 728.409 154.043ZM683.5 89.7582C668.754 89.7582 656.758 101.306 656.758 115.5C656.758 129.694 668.754 141.242 683.5 141.242C698.246 141.242 710.242 129.694 710.242 115.5C710.242 101.306 698.246 89.7582 683.5 89.7582ZM683.5 132.661C673.669 132.661 665.672 124.963 665.672 115.5C665.672 106.037 673.669 98.3388 683.5 98.3388C693.331 98.3388 701.328 106.037 701.328 115.5C701.328 124.963 693.331 132.661 683.5 132.661Z" fill="#45AAF2" fill-opacity="0.1"/>
<path d="M315.892 128.959L315.94 129.007C319.834 127.683 323.369 125.485 326.273 122.582C329.177 119.68 331.371 116.151 332.686 112.269L372.251 151.661C374.423 153.888 375.627 156.877 375.605 159.981C375.582 163.086 374.333 166.057 372.129 168.252C369.924 170.447 366.941 171.69 363.823 171.713C360.706 171.736 357.704 170.536 355.468 168.373L315.892 128.962V128.959ZM363.857 164.447C364.738 164.447 365.598 164.187 366.33 163.7C367.062 163.213 367.632 162.521 367.969 161.711C368.306 160.901 368.394 160.01 368.223 159.151C368.051 158.291 367.627 157.501 367.004 156.881C366.382 156.262 365.589 155.84 364.726 155.669C363.862 155.498 362.967 155.585 362.154 155.921C361.341 156.256 360.646 156.824 360.157 157.553C359.668 158.282 359.407 159.139 359.407 160.015C359.407 161.191 359.876 162.318 360.71 163.149C361.545 163.98 362.677 164.447 363.857 164.447V164.447Z" fill="#07C5D0" fill-opacity="0.2"/>
<path d="M288.504 122.631C295.922 130.017 306.581 132.048 315.898 128.959L315.946 129.007C319.849 127.68 323.392 125.474 326.3 122.562C329.208 119.649 331.402 116.108 332.712 112.214L332.688 112.19C335.755 102.925 333.726 92.2998 326.359 84.9705C323.093 81.7204 319.04 79.3663 314.591 78.1367C310.142 76.9072 305.45 76.844 300.969 77.9534C300.584 78.045 300.23 78.2376 299.944 78.5112C299.658 78.7848 299.45 79.1296 299.343 79.5098C299.236 79.89 299.233 80.2918 299.334 80.6736C299.435 81.0555 299.637 81.4035 299.918 81.6817L313.739 95.4353L311.638 107.992L299.017 110.088L285.196 96.3273C284.918 96.0479 284.571 95.847 284.19 95.7453C283.808 95.6436 283.407 95.6447 283.026 95.7484C282.646 95.8521 282.299 96.0548 282.023 96.3357C281.747 96.6165 281.551 96.9654 281.455 97.3466C280.334 101.808 280.394 106.483 281.63 110.915C282.865 115.346 285.234 119.383 288.504 122.631V122.631Z" fill="#07C5D0" fill-opacity="0.2"/>
<path d="M269.39 188.844H277.177V190.813H269.39V199.286H267.263V190.813H259.634V188.844H267.263V180.653H269.39V188.844Z" fill="white"/>
<path d="M858.629 131.706H866.416V133.675H858.629V142.147H856.502V133.675H848.873V131.706H856.502V123.515H858.629V131.706Z" fill="#45AAF2" fill-opacity="0.1"/>
<path d="M987.089 244.654H994.876V246.623H987.089V255.095H984.962V246.623H977.333V244.654H984.962V236.462H987.089V244.654Z" fill="#45AAF2" fill-opacity="0.1"/>
<path d="M520.724 93.1711H528.511V95.1399H520.724V103.613H518.597V95.1399H510.968V93.1711H518.597V84.9797H520.724V93.1711Z" fill="#45AAF2" fill-opacity="0.3"/>
<path d="M121.307 251.173C130.825 251.173 140.048 254.235 147.405 259.837C154.762 265.438 159.798 273.234 161.655 281.894C163.512 290.554 162.074 299.544 157.588 307.331C153.101 315.119 145.843 321.222 137.05 324.601C128.256 327.98 118.472 328.426 109.364 325.863C100.257 323.299 92.3885 317.886 87.1007 310.544C81.813 303.202 79.4328 294.386 80.3658 285.598C81.2987 276.811 85.487 268.595 92.2171 262.352C96.0282 258.796 100.562 255.978 105.555 254.059C110.548 252.14 115.902 251.159 121.307 251.173V251.173ZM121.307 227.319C84.3846 227.319 54.4561 255.085 54.4561 289.34C54.4561 323.594 84.3846 351.36 121.307 351.36C158.229 351.36 188.158 323.594 188.158 289.34C188.158 255.085 158.229 227.319 121.307 227.319Z" fill="#00D5AE" fill-opacity="0.2"/>
<path d="M216.729 369.459L207.634 377.898C206.92 378.564 206.071 379.093 205.136 379.454C204.201 379.814 203.199 380 202.186 380C201.174 380 200.171 379.814 199.236 379.454C198.301 379.093 197.452 378.564 196.738 377.898L164.695 348.17C163.979 347.503 163.412 346.713 163.026 345.843C162.64 344.973 162.443 344.041 162.445 343.101V338.24L174.016 327.506H179.254C180.268 327.504 181.273 327.687 182.21 328.045C183.148 328.403 184 328.929 184.718 329.593L216.762 359.321C218.201 360.672 219.006 362.497 219 364.397C218.994 366.296 218.177 368.116 216.729 369.459V369.459Z" fill="#00D5AE" fill-opacity="0.2"/>
<path d="M873.736 353.135L905.024 371.265C906.583 372.175 908.461 372.666 910.389 372.666C912.317 372.666 914.195 372.175 915.753 371.265L947.042 353.135V328.39C947.042 327.091 946.398 325.845 945.252 324.926C944.107 324.007 942.553 323.49 940.933 323.49H879.845C878.224 323.49 876.671 324.007 875.525 324.926C874.379 325.845 873.736 327.091 873.736 328.39V353.135ZM892.062 338.19C892.062 337.54 892.384 336.917 892.957 336.458C893.53 335.998 894.307 335.74 895.117 335.74H925.661C926.471 335.74 927.248 335.998 927.821 336.458C928.393 336.917 928.715 337.54 928.715 338.19V340.64C928.715 341.29 928.393 341.913 927.821 342.373C927.248 342.832 926.471 343.09 925.661 343.09H895.117C894.307 343.09 893.53 342.832 892.957 342.373C892.384 341.913 892.062 341.29 892.062 340.64V338.19ZM892.062 350.44C892.062 349.79 892.384 349.167 892.957 348.708C893.53 348.248 894.307 347.99 895.117 347.99H925.661C926.471 347.99 927.248 348.248 927.821 348.708C928.393 349.167 928.715 349.79 928.715 350.44V352.89C928.715 353.54 928.393 354.163 927.821 354.622C927.248 355.082 926.471 355.34 925.661 355.34H895.117C894.307 355.34 893.53 355.082 892.957 354.622C892.384 354.163 892.062 353.54 892.062 352.89V350.44Z" fill="#F7E8B3" fill-opacity="0.15"/>
<path d="M928.715 338.189C928.715 337.539 928.393 336.916 927.82 336.457C927.248 335.997 926.471 335.739 925.661 335.739H895.117C894.306 335.739 893.53 335.997 892.957 336.457C892.384 336.916 892.062 337.539 892.062 338.189V340.639C892.062 341.289 892.384 341.912 892.957 342.371C893.53 342.831 894.306 343.089 895.117 343.089H925.661C926.471 343.089 927.248 342.831 927.82 342.371C928.393 341.912 928.715 341.289 928.715 340.639V338.189ZM925.661 347.989H895.117C894.306 347.989 893.53 348.247 892.957 348.706C892.384 349.166 892.062 349.789 892.062 350.439V352.889C892.062 353.538 892.384 354.162 892.957 354.621C893.53 355.081 894.306 355.339 895.117 355.339H925.661C926.471 355.339 927.248 355.081 927.82 354.621C928.393 354.162 928.715 353.538 928.715 352.889V350.439C928.715 349.789 928.393 349.166 927.82 348.706C927.248 348.247 926.471 347.989 925.661 347.989ZM924.401 320.029C921.194 318.16 914.817 313.643 910.389 313.689C905.96 313.643 899.584 318.16 896.377 320.029L890.535 323.489H930.242L924.401 320.029ZM873.736 333.442C869.173 336.152 865.584 338.281 865.031 338.648C863.939 339.334 863.055 340.211 862.446 341.211C861.838 342.211 861.521 343.308 861.518 344.421V346.059L873.736 353.134V333.442ZM955.747 338.648C955.193 338.296 951.604 336.152 947.042 333.457V353.134L959.259 346.059V344.421C959.257 343.308 958.939 342.211 958.331 341.211C957.722 340.211 956.839 339.334 955.747 338.648ZM910.389 377.557C907.173 377.556 904.04 376.742 901.435 375.229L861.518 352.108V384.738C861.518 386.688 862.483 388.557 864.202 389.935C865.92 391.314 868.251 392.088 870.681 392.088H950.096C952.526 392.088 954.857 391.314 956.575 389.935C958.294 388.557 959.259 386.688 959.259 384.738V352.108L919.342 375.229C916.737 376.742 913.604 377.556 910.389 377.557Z" fill="#F2C930" fill-opacity="0.4"/>
<path d="M234.579 297.115C234.579 291.592 239.056 287.115 244.579 287.115H646.262C651.784 287.115 656.262 291.592 656.262 297.115V516.298C656.262 521.82 651.784 526.298 646.262 526.298H244.579C239.056 526.298 234.579 521.82 234.579 516.298V297.115Z" fill="#1F1F1F"/>
<path d="M244.579 292.115H646.262C649.023 292.115 651.262 294.353 651.262 297.115V516.298C651.262 519.059 649.023 521.298 646.262 521.298H244.579C241.817 521.298 239.579 519.059 239.579 516.298V297.115C239.579 294.353 241.817 292.115 244.579 292.115Z" stroke="#959595" stroke-opacity="0.39" stroke-width="10"/>
<path d="M230.006 698.748L244.908 538.032C245.385 532.889 249.7 528.955 254.865 528.955H635.242C640.422 528.955 644.745 532.911 645.203 538.07L659.484 698.786C660.003 704.635 655.395 709.671 649.523 709.671H239.964C234.076 709.671 229.463 704.61 230.006 698.748Z" fill="#101010" fill-opacity="0.1" stroke="black" stroke-opacity="0.1" stroke-width="10"/>
<rect x="259.712" y="542.243" width="32.1149" height="13.2879" rx="3" fill="#0067B0" fill-opacity="0.1"/>
<rect x="301.601" y="542.243" width="32.1149" height="13.2879" rx="3" fill="#0067B0" fill-opacity="0.1"/>
<rect x="343.49" y="542.243" width="32.1149" height="13.2879" rx="3" fill="#0067B0" fill-opacity="0.1"/>
<rect x="385.379" y="542.243" width="32.1149" height="13.2879" rx="3" fill="#0067B0" fill-opacity="0.1"/>
<rect x="428.665" y="542.243" width="32.1149" height="13.2879" rx="3" fill="#0067B0" fill-opacity="0.1"/>
<rect x="471.95" y="542.243" width="32.1149" height="13.2879" rx="3" fill="#0067B0" fill-opacity="0.1"/>
<rect x="513.839" y="542.243" width="32.1149" height="13.2879" rx="3" fill="#0067B0" fill-opacity="0.1"/>
<rect x="555.728" y="542.243" width="32.1149" height="13.2879" rx="3" fill="#0067B0" fill-opacity="0.1"/>
<rect x="599.013" y="542.243" width="32.1149" height="13.2879" rx="3" fill="#0067B0" fill-opacity="0.1"/>
<rect x="258.315" y="560.846" width="32.1149" height="13.2879" rx="3" fill="#0067B0" fill-opacity="0.1"/>
<rect x="300.205" y="560.846" width="32.1149" height="13.2879" rx="3" fill="#0067B0" fill-opacity="0.1"/>
<rect x="342.093" y="560.846" width="32.1149" height="13.2879" rx="3" fill="#0067B0" fill-opacity="0.1"/>
<rect x="383.983" y="560.846" width="32.1149" height="13.2879" rx="3" fill="#0067B0" fill-opacity="0.1"/>
<rect x="427.268" y="560.846" width="32.1149" height="13.2879" rx="3" fill="#0067B0" fill-opacity="0.1"/>
<rect x="470.553" y="560.846" width="32.1149" height="13.2879" rx="3" fill="#0067B0" fill-opacity="0.1"/>
<rect x="512.442" y="560.846" width="32.1149" height="13.2879" rx="3" fill="#0067B0" fill-opacity="0.1"/>
<rect x="557.124" y="560.846" width="32.1149" height="13.2879" rx="3" fill="#0067B0" fill-opacity="0.1"/>
<rect x="600.409" y="560.846" width="32.1149" height="13.2879" rx="3" fill="#0067B0" fill-opacity="0.1"/>
<rect x="256.919" y="580.778" width="32.1149" height="13.2879" rx="3" fill="#0067B0" fill-opacity="0.1"/>
<rect x="298.809" y="580.778" width="32.1149" height="13.2879" rx="3" fill="#0067B0" fill-opacity="0.1"/>
<rect x="340.697" y="580.778" width="32.1149" height="13.2879" rx="3" fill="#0067B0" fill-opacity="0.1"/>
<rect x="382.586" y="580.778" width="32.1149" height="13.2879" rx="3" fill="#0067B0" fill-opacity="0.1"/>
<rect x="425.872" y="580.778" width="32.1149" height="13.2879" rx="3" fill="#0067B0" fill-opacity="0.1"/>
<rect x="469.157" y="580.778" width="32.1149" height="13.2879" rx="3" fill="#0067B0" fill-opacity="0.1"/>
<rect x="512.442" y="580.778" width="32.1149" height="13.2879" rx="3" fill="#0067B0" fill-opacity="0.1"/>
<rect x="555.728" y="580.778" width="32.1149" height="13.2879" rx="3" fill="#0067B0" fill-opacity="0.1"/>
<rect x="600.41" y="580.778" width="32.1149" height="13.2879" rx="3" fill="#0067B0" fill-opacity="0.1"/>
<rect x="255.523" y="600.71" width="32.1149" height="13.2879" rx="3" fill="#0067B0" fill-opacity="0.1"/>
<rect x="297.412" y="600.71" width="32.1149" height="13.2879" rx="3" fill="#0067B0" fill-opacity="0.1"/>
<path d="M339.301 603.71C339.301 602.053 340.644 600.71 342.301 600.71H368.416C370.073 600.71 371.416 602.053 371.416 603.71V610.998C371.416 612.655 370.073 613.998 368.416 613.998H342.301C340.644 613.998 339.301 612.655 339.301 610.998V603.71Z" fill="#0067B0" fill-opacity="0.1"/>
<rect x="381.19" y="600.71" width="32.1149" height="13.2879" rx="3" fill="#0067B0" fill-opacity="0.1"/>
<rect x="424.476" y="600.71" width="32.1149" height="13.2879" rx="3" fill="#0067B0" fill-opacity="0.1"/>
<rect x="467.761" y="600.71" width="32.1149" height="13.2879" rx="3" fill="#0067B0" fill-opacity="0.1"/>
<path d="M512.443 603.71C512.443 602.053 513.786 600.71 515.443 600.71H541.558C543.215 600.71 544.558 602.053 544.558 603.71V610.998C544.558 612.655 543.215 613.998 541.558 613.998H515.443C513.786 613.998 512.443 612.655 512.443 610.998V603.71Z" fill="#0067B0" fill-opacity="0.1"/>
<rect x="555.728" y="600.71" width="32.1149" height="13.2879" rx="3" fill="#0067B0" fill-opacity="0.1"/>
<rect x="600.41" y="600.71" width="32.1149" height="13.2879" rx="3" fill="#0067B0" fill-opacity="0.1"/>
<rect x="254.127" y="620.642" width="32.1149" height="13.2879" rx="3" fill="#0067B0" fill-opacity="0.1"/>
<rect x="296.016" y="620.642" width="32.1149" height="13.2879" rx="3" fill="#0067B0" fill-opacity="0.1"/>
<path d="M337.905 623.642C337.905 621.985 339.248 620.642 340.905 620.642H367.02C368.677 620.642 370.02 621.985 370.02 623.642V630.93C370.02 632.587 368.677 633.93 367.02 633.93H340.905C339.248 633.93 337.905 632.587 337.905 630.93V623.642Z" fill="#0067B0" fill-opacity="0.1"/>
<rect x="379.794" y="620.642" width="32.1149" height="13.2879" rx="3" fill="#0067B0" fill-opacity="0.1"/>
<rect x="423.08" y="620.642" width="32.1149" height="13.2879" rx="3" fill="#0067B0" fill-opacity="0.1"/>
<rect x="466.365" y="620.642" width="32.1149" height="13.2879" rx="3" fill="#0067B0" fill-opacity="0.1"/>
<path d="M511.046 623.642C511.046 621.985 512.39 620.642 514.046 620.642H540.161C541.818 620.642 543.161 621.985 543.161 623.642V630.93C543.161 632.587 541.818 633.93 540.161 633.93H514.046C512.39 633.93 511.046 632.587 511.046 630.93V623.642Z" fill="#0067B0" fill-opacity="0.1"/>
<rect x="555.728" y="620.642" width="32.1149" height="13.2879" rx="3" fill="#0067B0" fill-opacity="0.1"/>
<rect x="601.806" y="620.642" width="32.1149" height="13.2879" rx="3" fill="#0067B0" fill-opacity="0.1"/>
<rect x="252.73" y="640.574" width="32.1149" height="13.2879" rx="3" fill="#0067B0" fill-opacity="0.1"/>
<rect x="296.016" y="640.574" width="32.1149" height="13.2879" rx="3" fill="#0067B0" fill-opacity="0.1"/>
<rect x="554.332" y="640.574" width="32.1149" height="13.2879" rx="3" fill="#0067B0" fill-opacity="0.1"/>
<rect x="601.806" y="640.574" width="32.1149" height="13.2879" rx="3" fill="#0067B0" fill-opacity="0.1"/>
<path d="M342.094 644.238C342.094 642.581 343.437 641.238 345.094 641.238H535.972C537.629 641.238 538.972 642.581 538.972 644.238V650.197C538.972 651.854 537.629 653.197 535.972 653.197H345.094C343.437 653.197 342.094 651.854 342.094 650.197V644.238Z" fill="#0067B0" fill-opacity="0.1" stroke="#0067B0" stroke-opacity="0.1"/>
<path d="M411.027 664.638C411.13 663.061 412.44 661.834 414.02 661.834H471.933C473.513 661.834 474.823 663.061 474.926 664.638L476.627 690.529C476.741 692.259 475.368 693.726 473.633 693.726H412.32C410.585 693.726 409.212 692.259 409.326 690.529L411.027 664.638Z" fill="#0067B0" fill-opacity="0.1" stroke="#0067B0" stroke-opacity="0.1"/>
<ellipse cx="436.344" cy="709.007" rx="2.09445" ry="1.99319" fill="#FE0B0B"/>
<ellipse cx="446.118" cy="709.007" rx="2.09445" ry="1.99319" fill="#FEE60B"/>
<ellipse cx="455.892" cy="709.007" rx="2.09445" ry="1.99319" fill="#A1FE0B"/>
<rect x="265.297" y="397.405" width="13.963" height="13.2879" fill="#F1CB47" fill-opacity="0.4"/>
<rect x="265.297" y="414.679" width="13.963" height="13.2879" fill="#0067B0" fill-opacity="0.1"/>
<rect x="265.297" y="433.282" width="13.963" height="13.2879" fill="#0067B0" fill-opacity="0.1"/>
<path d="M265.297 450.557H279.26V463.845H265.297V450.557Z" fill="#0067B0" fill-opacity="0.1"/>
<rect x="265.297" y="467.831" width="13.963" height="13.2879" fill="#0067B0" fill-opacity="0.1"/>
<rect x="265.297" y="485.105" width="13.963" height="13.2879" fill="#0067B0" fill-opacity="0.1"/>
<rect x="312.771" y="433.282" width="13.963" height="13.2879" fill="#F1CB47" fill-opacity="0.4"/>
<path d="M312.771 451.885H326.734V465.173H312.771V451.885Z" fill="#0067B0" fill-opacity="0.1"/>
<rect x="312.771" y="469.16" width="13.963" height="13.2879" fill="#0067B0" fill-opacity="0.1"/>
<rect x="312.771" y="486.434" width="13.963" height="13.2879" fill="#0067B0" fill-opacity="0.1"/>
<rect x="189.897" y="449.228" width="13.963" height="13.2879" fill="#F1CB47" fill-opacity="0.4"/>
<rect x="189.897" y="467.831" width="13.963" height="13.2879" fill="#0067B0" fill-opacity="0.1"/>
<rect x="189.897" y="485.105" width="13.963" height="13.2879" fill="#0067B0" fill-opacity="0.1"/>
<rect x="357.453" y="451.885" width="13.963" height="13.2879" fill="#F1CB47" fill-opacity="0.4"/>
<rect x="357.453" y="470.488" width="13.963" height="13.2879" fill="#0067B0" fill-opacity="0.1"/>
<rect x="357.453" y="487.763" width="13.963" height="13.2879" fill="#0067B0" fill-opacity="0.1"/>
<rect x="238.768" y="427.967" width="13.963" height="13.2879" fill="#F1CB47" fill-opacity="0.4"/>
<path d="M238.768 447.899H252.731V461.187H238.768V447.899Z" fill="#0067B0" fill-opacity="0.1"/>
<rect x="238.768" y="466.502" width="13.963" height="13.2879" fill="#0067B0" fill-opacity="0.1"/>
<rect x="238.768" y="485.105" width="13.963" height="13.2879" fill="#0067B0" fill-opacity="0.1"/>
<rect x="379.794" y="430.625" width="13.963" height="13.2879" fill="#F1CB47" fill-opacity="0.4"/>
<path d="M379.794 450.556H393.757V463.844H379.794V450.556Z" fill="#0067B0" fill-opacity="0.1"/>
<rect x="379.794" y="469.16" width="13.963" height="13.2879" fill="#0067B0" fill-opacity="0.1"/>
<rect x="379.794" y="487.763" width="13.963" height="13.2879" fill="#0067B0" fill-opacity="0.1"/>
<rect x="335.112" y="413.35" width="13.963" height="13.2879" fill="#F1CB47" fill-opacity="0.4"/>
<path d="M335.112 449.228H349.075V462.515H335.112V449.228Z" fill="#0067B0" fill-opacity="0.1"/>
<path d="M335.112 430.625H349.075V443.912H335.112V430.625Z" fill="#0067B0" fill-opacity="0.1"/>
<rect x="335.112" y="467.831" width="13.963" height="13.2879" fill="#0067B0" fill-opacity="0.1"/>
<rect x="335.112" y="486.434" width="13.963" height="13.2879" fill="#0067B0" fill-opacity="0.1"/>
<rect x="212.238" y="397.405" width="13.963" height="13.2879" fill="#F1CB47" fill-opacity="0.4"/>
<rect x="212.238" y="414.679" width="13.963" height="13.2879" fill="#0067B0" fill-opacity="0.1"/>
<rect x="212.238" y="433.282" width="13.963" height="13.2879" fill="#0067B0" fill-opacity="0.1"/>
<path d="M212.238 450.557H226.201V463.845H212.238V450.557Z" fill="#0067B0" fill-opacity="0.1"/>
<rect x="212.238" y="467.831" width="13.963" height="13.2879" fill="#0067B0" fill-opacity="0.1"/>
<rect x="212.238" y="485.105" width="13.963" height="13.2879" fill="#0067B0" fill-opacity="0.1"/>
<rect x="289.034" y="486.434" width="13.963" height="13.2879" fill="#0067B0" fill-opacity="0.1"/>
<rect x="451.005" y="344.253" width="37.7001" height="9.30156" fill="#F1CB47" fill-opacity="0.4"/>
<rect x="451.005" y="356.212" width="37.7001" height="9.30156" fill="#F1CB47" fill-opacity="0.4"/>
<rect x="451.005" y="368.171" width="37.7001" height="9.30156" fill="#F1CB47" fill-opacity="0.4"/>
<rect x="451.005" y="380.13" width="37.7001" height="9.30156" fill="#F1CB47" fill-opacity="0.4"/>
<rect x="451.005" y="392.089" width="37.7001" height="9.30156" fill="#F1CB47" fill-opacity="0.4"/>
<rect x="451.005" y="404.048" width="37.7001" height="9.30156" fill="#F1CB47" fill-opacity="0.4"/>
<rect x="451.005" y="416.008" width="37.7001" height="9.30156" fill="#F1CB47" fill-opacity="0.4"/>
<rect x="451.005" y="427.967" width="37.7001" height="9.30156" fill="#F1CB47" fill-opacity="0.4"/>
<rect x="451.005" y="439.926" width="37.7001" height="9.30156" fill="#F1CB47" fill-opacity="0.4"/>
<rect x="451.005" y="451.885" width="37.7001" height="9.30156" fill="#F1CB47" fill-opacity="0.4"/>
<rect x="451.005" y="463.844" width="37.7001" height="9.30156" fill="#F1CB47" fill-opacity="0.4"/>
<rect x="513.839" y="344.253" width="54.4557" height="9.30156" fill="#0067B0" fill-opacity="0.1"/>
<rect x="513.839" y="356.212" width="54.4557" height="9.30156" fill="#0067B0" fill-opacity="0.1"/>
<rect x="513.839" y="368.171" width="54.4557" height="9.30156" fill="#0067B0" fill-opacity="0.1"/>
<rect x="513.839" y="380.13" width="54.4557" height="9.30156" fill="#0067B0" fill-opacity="0.1"/>
<rect x="513.839" y="392.089" width="54.4557" height="9.30156" fill="#0067B0" fill-opacity="0.1"/>
<rect x="513.839" y="404.048" width="54.4557" height="9.30156" fill="#0067B0" fill-opacity="0.1"/>
<rect x="513.839" y="416.008" width="54.4557" height="9.30156" fill="#0067B0" fill-opacity="0.1"/>
<rect x="513.839" y="427.967" width="54.4557" height="9.30156" fill="#0067B0" fill-opacity="0.1"/>
<rect x="513.839" y="439.926" width="54.4557" height="9.30156" fill="#0067B0" fill-opacity="0.1"/>
<rect x="513.839" y="451.885" width="54.4557" height="9.30156" fill="#0067B0" fill-opacity="0.1"/>
<rect x="513.839" y="463.844" width="54.4557" height="9.30156" fill="#0067B0" fill-opacity="0.1"/>
<rect x="578.069" y="344.253" width="54.4557" height="9.30156" fill="#0067B0" fill-opacity="0.1"/>
<rect x="578.069" y="356.212" width="54.4557" height="9.30156" fill="#0067B0" fill-opacity="0.1"/>
<rect x="578.069" y="368.171" width="54.4557" height="9.30156" fill="#0067B0" fill-opacity="0.1"/>
<rect x="578.069" y="380.13" width="54.4557" height="9.30156" fill="#0067B0" fill-opacity="0.1"/>
<rect x="578.069" y="392.089" width="54.4557" height="9.30156" fill="#0067B0" fill-opacity="0.1"/>
<rect x="578.069" y="404.048" width="54.4557" height="9.30156" fill="#0067B0" fill-opacity="0.1"/>
<rect x="578.069" y="416.008" width="54.4557" height="9.30156" fill="#0067B0" fill-opacity="0.1"/>
<rect x="578.069" y="427.967" width="54.4557" height="9.30156" fill="#0067B0" fill-opacity="0.1"/>
<rect x="578.069" y="439.926" width="54.4557" height="9.30156" fill="#0067B0" fill-opacity="0.1"/>
<rect x="578.069" y="451.885" width="54.4557" height="9.30156" fill="#0067B0" fill-opacity="0.1"/>
<rect x="578.069" y="463.844" width="54.4557" height="9.30156" fill="#0067B0" fill-opacity="0.1"/>
<rect x="647.884" y="344.253" width="54.4557" height="9.30156" fill="#0067B0" fill-opacity="0.1"/>
<rect x="647.884" y="356.212" width="54.4557" height="9.30156" fill="#0067B0" fill-opacity="0.1"/>
<rect x="647.884" y="368.171" width="54.4557" height="9.30156" fill="#0067B0" fill-opacity="0.1"/>
<rect x="647.884" y="380.13" width="54.4557" height="9.30156" fill="#0067B0" fill-opacity="0.1"/>
<rect x="647.884" y="392.089" width="54.4557" height="9.30156" fill="#0067B0" fill-opacity="0.1"/>
<rect x="647.884" y="404.048" width="54.4557" height="9.30156" fill="#0067B0" fill-opacity="0.1"/>
<rect x="647.884" y="416.008" width="54.4557" height="9.30156" fill="#0067B0" fill-opacity="0.1"/>
<rect x="647.884" y="427.967" width="54.4557" height="9.30156" fill="#0067B0" fill-opacity="0.1"/>
<rect x="647.884" y="439.926" width="54.4557" height="9.30156" fill="#0067B0" fill-opacity="0.1"/>
<rect x="647.884" y="451.885" width="54.4557" height="9.30156" fill="#0067B0" fill-opacity="0.1"/>
<rect x="647.884" y="463.844" width="54.4557" height="9.30156" fill="#0067B0" fill-opacity="0.1"/>
<rect x="717.699" y="344.253" width="54.4557" height="9.30156" fill="#0067B0" fill-opacity="0.1"/>
<rect x="717.699" y="356.212" width="54.4557" height="9.30156" fill="#0067B0" fill-opacity="0.1"/>
<rect x="717.699" y="368.171" width="37.7001" height="9.30156" fill="#F1CB47" fill-opacity="0.4"/>
<rect x="717.699" y="380.13" width="54.4557" height="9.30156" fill="#0067B0" fill-opacity="0.1"/>
<rect x="717.699" y="392.089" width="54.4557" height="9.30156" fill="#0067B0" fill-opacity="0.1"/>
<rect x="717.699" y="404.048" width="54.4557" height="9.30156" fill="#0067B0" fill-opacity="0.1"/>
<rect x="717.699" y="416.008" width="18.1519" height="9.30156" fill="#F1CB47" fill-opacity="0.4"/>
<rect x="717.699" y="427.967" width="54.4557" height="9.30156" fill="#0067B0" fill-opacity="0.1"/>
<rect x="717.699" y="439.926" width="46.0779" height="9.30156" fill="#F1CB47" fill-opacity="0.4"/>
<rect x="717.699" y="451.885" width="54.4557" height="9.30156" fill="#0067B0" fill-opacity="0.1"/>
<rect x="717.699" y="463.844" width="54.4557" height="9.30156" fill="#0067B0" fill-opacity="0.1"/>
<rect x="784.721" y="342.924" width="54.4557" height="9.30156" fill="#F1CB47" fill-opacity="0.4"/>
<rect x="784.721" y="366.842" width="37.7001" height="9.30156" fill="#F1CB47" fill-opacity="0.4"/>
<rect x="784.721" y="390.761" width="54.4557" height="9.30156" fill="#0067B0" fill-opacity="0.1"/>
<rect x="784.721" y="402.72" width="54.4557" height="9.30156" fill="#F1CB47" fill-opacity="0.4"/>
<rect x="784.721" y="414.679" width="18.1519" height="9.30156" fill="#F1CB47" fill-opacity="0.4"/>
<rect x="784.721" y="426.638" width="54.4557" height="9.30156" fill="#F1CB47" fill-opacity="0.4"/>
<rect x="784.721" y="450.557" width="54.4557" height="9.30156" fill="#F1CB47" fill-opacity="0.4"/>
<rect x="784.721" y="462.515" width="54.4557" height="9.30156" fill="#0067B0" fill-opacity="0.1"/>
<path d="M429.761 421.461C440.639 418.119 451.642 395.002 455.783 383.861L464.223 388.636L444.765 438.769L443.845 485.919H410.443L411.945 438.769L396.472 459.957L391.315 456.077L408.897 421.461C414.711 418.596 425.229 420.268 429.761 421.461Z" fill="#008AFA" fill-opacity="0.1"/>
<path d="M411.768 474.289L406.603 537.911H411.768C414.351 525.408 420.456 499.076 424.212 493.78C424.917 492.187 426.748 489.955 428.439 493.78C430.708 501.748 435.67 521.73 437.361 537.911H443.465V474.289H411.768Z" fill="#434343" fill-opacity="0.1" stroke="#434343" stroke-opacity="0.1"/>
<path d="M412.419 539.104C414.003 538.958 417.266 538.403 417.646 537.352C417.947 536.519 411.906 536.731 406.704 537.073C405.098 537.178 404.546 538.891 406.105 539.295C407.579 539.676 409.615 539.75 412.419 539.104Z" fill="#434343" fill-opacity="0.1" stroke="#434343" stroke-opacity="0.1"/>
<path d="M443.569 539.104C445.021 538.958 448.013 538.403 448.361 537.352C448.635 536.525 443.174 536.728 438.428 537.066C436.866 537.177 436.28 538.872 437.787 539.296C439.138 539.676 441.003 539.749 443.569 539.104Z" fill="#434343" fill-opacity="0.1" stroke="#434343" stroke-opacity="0.1"/>
<path d="M457.222 384.458C457.222 381.474 457.849 374.849 460.36 372.223C461.406 372.024 463.643 372.163 464.223 374.312C465.027 376.898 465.864 383.205 462.774 387.741L457.222 384.458Z" fill="#EDD991" fill-opacity="0.4"/>
<path d="M396.548 460.037C396.252 462.41 395.016 467.566 392.437 469.212C391.45 469.186 389.397 468.682 389.074 466.872C388.586 464.675 388.437 459.514 391.742 456.452L396.548 460.037Z" fill="#EDD991" fill-opacity="0.4"/>
<ellipse cx="428.011" cy="413.106" rx="7.24249" ry="9.54924" fill="#EDD991" fill-opacity="0.4"/>
<path d="M442.495 404.452C442.495 406.759 437.091 412.211 430.425 412.211C423.758 412.211 420.285 416.607 420.285 414.299C420.285 411.992 421.827 402.661 428.493 402.661C435.16 402.661 442.495 402.144 442.495 404.452Z" fill="#11A1BE" fill-opacity="0.1"/>
<path d="M136.083 549.387H139.013C138.919 550.504 138.607 551.5 138.076 552.375C137.544 553.242 136.798 553.926 135.837 554.426C134.876 554.926 133.708 555.176 132.333 555.176C131.279 555.176 130.33 554.988 129.486 554.613C128.642 554.23 127.919 553.691 127.318 552.996C126.716 552.293 126.255 551.445 125.935 550.453C125.623 549.461 125.466 548.352 125.466 547.125V545.707C125.466 544.48 125.626 543.371 125.947 542.379C126.275 541.387 126.744 540.539 127.353 539.836C127.962 539.125 128.693 538.582 129.544 538.207C130.404 537.832 131.369 537.645 132.439 537.645C133.798 537.645 134.947 537.895 135.884 538.395C136.822 538.895 137.548 539.586 138.064 540.469C138.587 541.352 138.908 542.363 139.025 543.504H136.095C136.017 542.77 135.845 542.141 135.58 541.617C135.322 541.094 134.939 540.695 134.431 540.422C133.923 540.141 133.259 540 132.439 540C131.767 540 131.181 540.125 130.681 540.375C130.181 540.625 129.763 540.992 129.427 541.477C129.091 541.961 128.837 542.559 128.666 543.27C128.501 543.973 128.419 544.777 128.419 545.684V547.125C128.419 547.984 128.494 548.766 128.642 549.469C128.798 550.164 129.033 550.762 129.345 551.262C129.666 551.762 130.072 552.148 130.564 552.422C131.056 552.695 131.646 552.832 132.333 552.832C133.169 552.832 133.845 552.699 134.361 552.434C134.884 552.168 135.279 551.781 135.544 551.273C135.818 550.758 135.998 550.129 136.083 549.387ZM150.662 550.547C150.662 550.195 150.607 549.883 150.498 549.609C150.396 549.336 150.212 549.086 149.947 548.859C149.681 548.633 149.306 548.414 148.822 548.203C148.345 547.984 147.736 547.762 146.994 547.535C146.181 547.285 145.431 547.008 144.744 546.703C144.064 546.391 143.47 546.031 142.962 545.625C142.455 545.211 142.06 544.738 141.779 544.207C141.498 543.668 141.357 543.047 141.357 542.344C141.357 541.648 141.501 541.016 141.791 540.445C142.087 539.875 142.505 539.383 143.044 538.969C143.591 538.547 144.236 538.223 144.978 537.996C145.72 537.762 146.541 537.645 147.439 537.645C148.705 537.645 149.794 537.879 150.708 538.348C151.63 538.816 152.337 539.445 152.83 540.234C153.33 541.023 153.58 541.895 153.58 542.848H150.662C150.662 542.285 150.541 541.789 150.298 541.359C150.064 540.922 149.705 540.578 149.22 540.328C148.744 540.078 148.138 539.953 147.404 539.953C146.708 539.953 146.13 540.059 145.669 540.27C145.208 540.48 144.865 540.766 144.638 541.125C144.412 541.484 144.298 541.891 144.298 542.344C144.298 542.664 144.373 542.957 144.521 543.223C144.669 543.48 144.896 543.723 145.201 543.949C145.505 544.168 145.888 544.375 146.349 544.57C146.81 544.766 147.353 544.953 147.978 545.133C148.923 545.414 149.748 545.727 150.451 546.07C151.154 546.406 151.74 546.789 152.208 547.219C152.677 547.648 153.029 548.137 153.263 548.684C153.498 549.223 153.615 549.836 153.615 550.523C153.615 551.242 153.47 551.891 153.181 552.469C152.892 553.039 152.478 553.527 151.939 553.934C151.408 554.332 150.767 554.641 150.017 554.859C149.275 555.07 148.447 555.176 147.533 555.176C146.712 555.176 145.904 555.066 145.107 554.848C144.318 554.629 143.599 554.297 142.951 553.852C142.302 553.398 141.787 552.836 141.404 552.164C141.021 551.484 140.83 550.691 140.83 549.785H143.771C143.771 550.34 143.865 550.812 144.052 551.203C144.248 551.594 144.517 551.914 144.861 552.164C145.205 552.406 145.603 552.586 146.056 552.703C146.517 552.82 147.009 552.879 147.533 552.879C148.22 552.879 148.794 552.781 149.255 552.586C149.724 552.391 150.076 552.117 150.31 551.766C150.544 551.414 150.662 551.008 150.662 550.547ZM165.193 550.547C165.193 550.195 165.138 549.883 165.029 549.609C164.927 549.336 164.744 549.086 164.478 548.859C164.212 548.633 163.837 548.414 163.353 548.203C162.876 547.984 162.267 547.762 161.525 547.535C160.712 547.285 159.962 547.008 159.275 546.703C158.595 546.391 158.001 546.031 157.494 545.625C156.986 545.211 156.591 544.738 156.31 544.207C156.029 543.668 155.888 543.047 155.888 542.344C155.888 541.648 156.033 541.016 156.322 540.445C156.619 539.875 157.037 539.383 157.576 538.969C158.123 538.547 158.767 538.223 159.509 537.996C160.251 537.762 161.072 537.645 161.97 537.645C163.236 537.645 164.326 537.879 165.24 538.348C166.162 538.816 166.869 539.445 167.361 540.234C167.861 541.023 168.111 541.895 168.111 542.848H165.193C165.193 542.285 165.072 541.789 164.83 541.359C164.595 540.922 164.236 540.578 163.751 540.328C163.275 540.078 162.669 539.953 161.935 539.953C161.24 539.953 160.662 540.059 160.201 540.27C159.74 540.48 159.396 540.766 159.169 541.125C158.943 541.484 158.83 541.891 158.83 542.344C158.83 542.664 158.904 542.957 159.052 543.223C159.201 543.48 159.427 543.723 159.732 543.949C160.037 544.168 160.419 544.375 160.88 544.57C161.341 544.766 161.884 544.953 162.509 545.133C163.455 545.414 164.279 545.727 164.982 546.07C165.685 546.406 166.271 546.789 166.74 547.219C167.208 547.648 167.56 548.137 167.794 548.684C168.029 549.223 168.146 549.836 168.146 550.523C168.146 551.242 168.001 551.891 167.712 552.469C167.423 553.039 167.009 553.527 166.47 553.934C165.939 554.332 165.298 554.641 164.548 554.859C163.806 555.07 162.978 555.176 162.064 555.176C161.244 555.176 160.435 555.066 159.638 554.848C158.849 554.629 158.13 554.297 157.482 553.852C156.833 553.398 156.318 552.836 155.935 552.164C155.552 551.484 155.361 550.691 155.361 549.785H158.302C158.302 550.34 158.396 550.812 158.583 551.203C158.779 551.594 159.048 551.914 159.392 552.164C159.736 552.406 160.134 552.586 160.587 552.703C161.048 552.82 161.541 552.879 162.064 552.879C162.751 552.879 163.326 552.781 163.787 552.586C164.255 552.391 164.607 552.117 164.841 551.766C165.076 551.414 165.193 551.008 165.193 550.547ZM173.619 545.133H175.306C175.962 545.133 176.505 545.02 176.935 544.793C177.373 544.566 177.697 544.254 177.908 543.855C178.119 543.457 178.224 543 178.224 542.484C178.224 541.945 178.126 541.484 177.931 541.102C177.744 540.711 177.455 540.41 177.064 540.199C176.681 539.988 176.193 539.883 175.599 539.883C175.099 539.883 174.646 539.984 174.24 540.188C173.841 540.383 173.525 540.664 173.291 541.031C173.056 541.391 172.939 541.82 172.939 542.32H170.103C170.103 541.414 170.341 540.609 170.818 539.906C171.294 539.203 171.943 538.652 172.763 538.254C173.591 537.848 174.521 537.645 175.552 537.645C176.654 537.645 177.615 537.828 178.435 538.195C179.263 538.555 179.908 539.094 180.369 539.812C180.83 540.531 181.06 541.422 181.06 542.484C181.06 542.969 180.947 543.461 180.72 543.961C180.494 544.461 180.158 544.918 179.712 545.332C179.267 545.738 178.712 546.07 178.048 546.328C177.384 546.578 176.615 546.703 175.74 546.703H173.619V545.133ZM173.619 547.336V545.789H175.74C176.74 545.789 177.591 545.906 178.294 546.141C179.005 546.375 179.583 546.699 180.029 547.113C180.474 547.52 180.798 547.984 181.001 548.508C181.212 549.031 181.318 549.586 181.318 550.172C181.318 550.969 181.173 551.68 180.884 552.305C180.603 552.922 180.201 553.445 179.677 553.875C179.154 554.305 178.541 554.629 177.837 554.848C177.142 555.066 176.384 555.176 175.564 555.176C174.83 555.176 174.126 555.074 173.455 554.871C172.783 554.668 172.181 554.367 171.65 553.969C171.119 553.562 170.697 553.059 170.384 552.457C170.08 551.848 169.927 551.145 169.927 550.348H172.751C172.751 550.855 172.869 551.305 173.103 551.695C173.345 552.078 173.681 552.379 174.111 552.598C174.548 552.816 175.048 552.926 175.611 552.926C176.205 552.926 176.716 552.82 177.146 552.609C177.576 552.398 177.904 552.086 178.13 551.672C178.365 551.258 178.482 550.758 178.482 550.172C178.482 549.508 178.353 548.969 178.095 548.555C177.837 548.141 177.47 547.836 176.994 547.641C176.517 547.438 175.955 547.336 175.306 547.336H173.619Z" fill="#F7F7F7" fill-opacity="0.45"/>
<path d="M307.829 526.797H310.758C310.665 527.915 310.352 528.911 309.821 529.786C309.29 530.653 308.543 531.336 307.583 531.836C306.622 532.336 305.454 532.586 304.079 532.586C303.024 532.586 302.075 532.399 301.231 532.024C300.387 531.641 299.665 531.102 299.063 530.407C298.461 529.704 298 528.856 297.68 527.864C297.368 526.872 297.211 525.762 297.211 524.536V523.118C297.211 521.891 297.372 520.782 297.692 519.79C298.02 518.797 298.489 517.95 299.098 517.247C299.708 516.536 300.438 515.993 301.29 515.618C302.149 515.243 303.114 515.055 304.184 515.055C305.543 515.055 306.692 515.305 307.629 515.805C308.567 516.305 309.293 516.997 309.809 517.879C310.333 518.762 310.653 519.774 310.77 520.915H307.84C307.762 520.18 307.59 519.551 307.325 519.028C307.067 518.504 306.684 518.106 306.176 517.833C305.668 517.551 305.004 517.411 304.184 517.411C303.512 517.411 302.926 517.536 302.426 517.786C301.926 518.036 301.508 518.403 301.172 518.887C300.836 519.372 300.583 519.969 300.411 520.68C300.247 521.383 300.165 522.188 300.165 523.094V524.536C300.165 525.395 300.239 526.176 300.387 526.879C300.543 527.575 300.778 528.172 301.09 528.672C301.411 529.172 301.817 529.559 302.309 529.833C302.801 530.106 303.391 530.243 304.079 530.243C304.915 530.243 305.59 530.11 306.106 529.844C306.629 529.579 307.024 529.192 307.29 528.684C307.563 528.168 307.743 527.54 307.829 526.797ZM324.165 523V525.543H312.469V523H324.165ZM319.688 518.219V530.641H316.958V518.219H319.688ZM337.5 523V525.543H325.805V523H337.5ZM333.024 518.219V530.641H330.293V518.219H333.024Z" fill="#F7F7F7" fill-opacity="0.45"/>
<path d="M498.02 616.987C498.02 616.635 497.965 616.323 497.856 616.049C497.754 615.776 497.571 615.526 497.305 615.299C497.04 615.073 496.665 614.854 496.18 614.643C495.704 614.424 495.094 614.202 494.352 613.975C493.54 613.725 492.79 613.448 492.102 613.143C491.422 612.831 490.829 612.471 490.321 612.065C489.813 611.651 489.418 611.178 489.137 610.647C488.856 610.108 488.715 609.487 488.715 608.784C488.715 608.088 488.86 607.456 489.149 606.885C489.446 606.315 489.864 605.823 490.403 605.409C490.95 604.987 491.594 604.663 492.336 604.436C493.079 604.202 493.899 604.084 494.797 604.084C496.063 604.084 497.153 604.319 498.067 604.788C498.989 605.256 499.696 605.885 500.188 606.674C500.688 607.463 500.938 608.334 500.938 609.288H498.02C498.02 608.725 497.899 608.229 497.657 607.799C497.422 607.362 497.063 607.018 496.579 606.768C496.102 606.518 495.497 606.393 494.762 606.393C494.067 606.393 493.489 606.499 493.028 606.709C492.567 606.92 492.223 607.206 491.997 607.565C491.77 607.924 491.657 608.331 491.657 608.784C491.657 609.104 491.731 609.397 491.879 609.663C492.028 609.92 492.254 610.163 492.559 610.389C492.864 610.608 493.247 610.815 493.708 611.01C494.168 611.206 494.711 611.393 495.336 611.573C496.282 611.854 497.106 612.167 497.809 612.51C498.512 612.846 499.098 613.229 499.567 613.659C500.036 614.088 500.387 614.577 500.622 615.124C500.856 615.663 500.973 616.276 500.973 616.963C500.973 617.682 500.829 618.331 500.54 618.909C500.25 619.479 499.836 619.967 499.297 620.374C498.766 620.772 498.125 621.081 497.375 621.299C496.633 621.51 495.805 621.616 494.891 621.616C494.071 621.616 493.262 621.506 492.465 621.288C491.676 621.069 490.958 620.737 490.309 620.292C489.661 619.838 489.145 619.276 488.762 618.604C488.379 617.924 488.188 617.131 488.188 616.225H491.129C491.129 616.78 491.223 617.252 491.411 617.643C491.606 618.034 491.875 618.354 492.219 618.604C492.563 618.846 492.961 619.026 493.415 619.143C493.875 619.26 494.368 619.319 494.891 619.319C495.579 619.319 496.153 619.221 496.614 619.026C497.083 618.831 497.434 618.557 497.668 618.206C497.903 617.854 498.02 617.448 498.02 616.987ZM507.852 617.549L511.25 604.319H513.032L512.833 607.729L509.2 621.381H507.348L507.852 617.549ZM505.309 604.319L508.063 617.444L508.309 621.381H506.34L502.391 604.319H505.309ZM516.887 617.409L519.606 604.319H522.536L518.586 621.381H516.618L516.887 617.409ZM513.723 604.319L517.086 617.584L517.579 621.381H515.727L512.153 607.729L511.965 604.319H513.723ZM527.856 604.319V621.381H524.915V604.319H527.856ZM534.454 604.319V621.381H531.512V604.319H534.454ZM541.415 611.784V614.116H533.704V611.784H541.415ZM542.387 604.319V606.663H533.704V604.319H542.387ZM551.985 604.319V621.381H549.067V604.319H551.985ZM557.34 604.319V606.663H543.758V604.319H557.34Z" fill="#F7F7F7" fill-opacity="0.45"/>
<path d="M496.92 254.915H492.479V252.583H496.92C497.694 252.583 498.319 252.458 498.795 252.208C499.272 251.958 499.62 251.614 499.838 251.177C500.065 250.731 500.178 250.224 500.178 249.653C500.178 249.114 500.065 248.61 499.838 248.142C499.62 247.665 499.272 247.282 498.795 246.993C498.319 246.704 497.694 246.56 496.92 246.56H493.381V261.278H490.44V244.216H496.92C498.241 244.216 499.362 244.45 500.284 244.919C501.213 245.38 501.92 246.021 502.405 246.841C502.889 247.653 503.131 248.583 503.131 249.63C503.131 250.731 502.889 251.677 502.405 252.466C501.92 253.255 501.213 253.86 500.284 254.282C499.362 254.704 498.241 254.915 496.92 254.915ZM517.042 251.341V253.673H507.983V251.341H517.042ZM508.709 244.216V261.278H505.768V244.216H508.709ZM519.303 244.216V261.278H516.374V244.216H519.303ZM524.108 244.216L528.069 252.36L532.03 244.216H535.288L529.545 254.997V261.278H526.581V254.997L520.838 244.216H524.108ZM544.381 244.216V261.278H541.463V244.216H544.381ZM549.737 244.216V246.56H536.155V244.216H549.737ZM563.26 251.341V253.673H554.202V251.341H563.26ZM554.928 244.216V261.278H551.987V244.216H554.928ZM565.522 244.216V261.278H562.592V244.216H565.522ZM582.631 252.278V253.216C582.631 254.505 582.463 255.661 582.127 256.685C581.792 257.708 581.311 258.579 580.686 259.298C580.069 260.017 579.327 260.567 578.459 260.95C577.592 261.325 576.631 261.513 575.577 261.513C574.53 261.513 573.573 261.325 572.706 260.95C571.846 260.567 571.1 260.017 570.467 259.298C569.834 258.579 569.342 257.708 568.991 256.685C568.647 255.661 568.475 254.505 568.475 253.216V252.278C568.475 250.989 568.647 249.837 568.991 248.821C569.334 247.798 569.819 246.927 570.444 246.208C571.077 245.481 571.823 244.931 572.682 244.556C573.549 244.173 574.506 243.981 575.553 243.981C576.608 243.981 577.569 244.173 578.436 244.556C579.303 244.931 580.049 245.481 580.674 246.208C581.299 246.927 581.78 247.798 582.116 248.821C582.459 249.837 582.631 250.989 582.631 252.278ZM579.69 253.216V252.255C579.69 251.302 579.596 250.462 579.409 249.735C579.229 249.001 578.959 248.388 578.6 247.896C578.249 247.396 577.815 247.021 577.299 246.771C576.784 246.513 576.202 246.384 575.553 246.384C574.905 246.384 574.327 246.513 573.819 246.771C573.311 247.021 572.877 247.396 572.518 247.896C572.167 248.388 571.897 249.001 571.709 249.735C571.522 250.462 571.428 251.302 571.428 252.255V253.216C571.428 254.169 571.522 255.013 571.709 255.747C571.897 256.481 572.17 257.103 572.53 257.61C572.897 258.11 573.334 258.489 573.842 258.747C574.35 258.997 574.928 259.122 575.577 259.122C576.233 259.122 576.815 258.997 577.323 258.747C577.831 258.489 578.26 258.11 578.612 257.61C578.963 257.103 579.229 256.481 579.409 255.747C579.596 255.013 579.69 254.169 579.69 253.216ZM599.108 244.216V261.278H596.167L588.514 249.056V261.278H585.573V244.216H588.514L596.19 256.462V244.216H599.108Z" fill="#F7F7F7" fill-opacity="0.45"/>
<path d="M223.746 244.216H229.781C231.078 244.216 232.184 244.411 233.098 244.802C234.012 245.192 234.711 245.771 235.195 246.536C235.688 247.294 235.934 248.231 235.934 249.349C235.934 250.2 235.777 250.95 235.465 251.599C235.152 252.247 234.711 252.794 234.141 253.239C233.57 253.677 232.891 254.017 232.102 254.259L231.211 254.692H225.785L225.762 252.36H229.828C230.531 252.36 231.117 252.235 231.586 251.985C232.055 251.735 232.406 251.396 232.641 250.966C232.883 250.528 233.004 250.036 233.004 249.489C233.004 248.896 232.887 248.38 232.652 247.942C232.426 247.497 232.074 247.157 231.598 246.923C231.121 246.681 230.516 246.56 229.781 246.56H226.688V261.278H223.746V244.216ZM233.484 261.278L229.477 253.614L232.559 253.603L236.625 261.126V261.278H233.484ZM248.438 244.216H251.367V255.618C251.367 256.915 251.086 258.001 250.523 258.876C249.961 259.751 249.195 260.411 248.227 260.856C247.266 261.294 246.191 261.513 245.004 261.513C243.777 261.513 242.684 261.294 241.723 260.856C240.762 260.411 240.004 259.751 239.449 258.876C238.902 258.001 238.629 256.915 238.629 255.618V244.216H241.559V255.618C241.559 256.438 241.699 257.114 241.98 257.646C242.262 258.169 242.66 258.556 243.176 258.806C243.691 259.056 244.301 259.181 245.004 259.181C245.707 259.181 246.312 259.056 246.82 258.806C247.336 258.556 247.734 258.169 248.016 257.646C248.297 257.114 248.438 256.438 248.438 255.618V244.216ZM260.965 253.567H256.617L256.594 251.423H260.391C261.031 251.423 261.574 251.329 262.02 251.142C262.473 250.946 262.816 250.669 263.051 250.31C263.285 249.942 263.402 249.501 263.402 248.985C263.402 248.415 263.293 247.95 263.074 247.591C262.855 247.231 262.52 246.97 262.066 246.806C261.621 246.642 261.051 246.56 260.355 246.56H257.508V261.278H254.566V244.216H260.355C261.293 244.216 262.129 244.306 262.863 244.485C263.605 244.665 264.234 244.946 264.75 245.329C265.273 245.704 265.668 246.181 265.934 246.759C266.207 247.337 266.344 248.024 266.344 248.821C266.344 249.524 266.176 250.169 265.84 250.755C265.504 251.333 265.008 251.806 264.352 252.173C263.695 252.54 262.879 252.759 261.902 252.829L260.965 253.567ZM260.836 261.278H255.691L257.016 258.946H260.836C261.5 258.946 262.055 258.837 262.5 258.618C262.945 258.392 263.277 258.083 263.496 257.692C263.723 257.294 263.836 256.829 263.836 256.298C263.836 255.743 263.738 255.263 263.543 254.856C263.348 254.442 263.039 254.126 262.617 253.907C262.195 253.681 261.645 253.567 260.965 253.567H257.66L257.684 251.423H261.984L262.652 252.231C263.59 252.263 264.359 252.47 264.961 252.853C265.57 253.235 266.023 253.731 266.32 254.341C266.617 254.95 266.766 255.606 266.766 256.31C266.766 257.396 266.527 258.306 266.051 259.04C265.582 259.774 264.906 260.333 264.023 260.716C263.141 261.091 262.078 261.278 260.836 261.278ZM270.703 244.216L274.664 252.36L278.625 244.216H281.883L276.141 254.997V261.278H273.176V254.997L267.434 244.216H270.703Z" fill="#F7F7F7" fill-opacity="0.45"/>
<path d="M458.594 217.405L452.847 223.456C451.805 224.541 450.158 224.559 449.083 223.527C424.55 199.733 386.693 199.733 362.177 223.527C361.102 224.577 359.455 224.541 358.413 223.456L352.666 217.405L352.582 217.316C351.574 216.177 351.641 214.379 352.734 213.312C382.458 184.16 428.751 184.142 458.526 213.312C458.56 213.347 458.594 213.365 458.61 213.4C459.652 214.522 459.635 216.301 458.594 217.405Z" fill="#686868"/>
<path d="M405.613 248.389C399.682 248.389 394.859 253.497 394.859 259.779C394.859 266.062 399.682 271.169 405.613 271.169C411.545 271.169 416.367 266.062 416.367 259.779C416.367 253.497 411.545 248.389 405.613 248.389ZM439.808 233.654L439.674 233.511C420.299 215.376 390.911 215.394 371.57 233.511C370.478 234.544 370.377 236.323 371.335 237.48C371.385 237.533 371.419 237.587 371.469 237.622L377.25 243.673C378.258 244.723 379.871 244.795 380.946 243.816C395.061 230.895 416.183 230.931 430.264 243.816C431.339 244.795 432.952 244.741 433.96 243.673L439.741 237.622C440.816 236.555 440.833 234.775 439.808 233.654Z" fill="#686868"/>
<path d="M552.049 491.464V497.804H549.084V480.741H555.612C557.518 480.741 559.03 481.237 560.147 482.229C561.272 483.222 561.834 484.534 561.834 486.167C561.834 487.839 561.284 489.14 560.182 490.069C559.088 490.999 557.553 491.464 555.577 491.464H552.049ZM552.049 489.085H555.612C556.667 489.085 557.471 488.839 558.026 488.347C558.581 487.847 558.858 487.128 558.858 486.19C558.858 485.269 558.577 484.534 558.014 483.987C557.452 483.433 556.678 483.147 555.694 483.132H552.049V489.085ZM577.983 497.804H575.03V490.222H567.401V497.804H564.436V480.741H567.401V487.843H575.03V480.741H577.983V497.804ZM584.463 491.464V497.804H581.499V480.741H588.026C589.932 480.741 591.444 481.237 592.561 482.229C593.686 483.222 594.249 484.534 594.249 486.167C594.249 487.839 593.698 489.14 592.596 490.069C591.502 490.999 589.967 491.464 587.991 491.464H584.463ZM584.463 489.085H588.026C589.081 489.085 589.885 488.839 590.44 488.347C590.995 487.847 591.272 487.128 591.272 486.19C591.272 485.269 590.991 484.534 590.428 483.987C589.866 483.433 589.092 483.147 588.108 483.132H584.463V489.085Z" fill="#0060EF" fill-opacity="0.1"/>
<path d="M300.127 331.704H297.174V324.122H289.545V331.704H286.58V314.642H289.545V321.743H297.174V314.642H300.127V331.704ZM315.619 317.032H310.299V331.704H307.357V317.032H302.084V314.642H315.619V317.032ZM321.713 314.642L326.635 327.72L331.545 314.642H335.377V331.704H332.424V326.079L332.717 318.556L327.678 331.704H325.557L320.529 318.568L320.822 326.079V331.704H317.869V314.642H321.713ZM341.857 329.337H349.604V331.704H338.893V314.642H341.857V329.337Z" fill="#0060EF" fill-opacity="0.1"/>
</svg>
