<svg width="1381" height="362" viewBox="0 0 1381 362" fill="none" xmlns="http://www.w3.org/2000/svg">
<path d="M38.4372 5.6425L12.8124 16.9282C16.2104 15.4316 20.0904 15.4065 23.5987 16.8583C27.1069 18.3101 29.9562 21.12 31.5196 24.6698L40.0343 44.0028C40.3817 44.7916 40.4149 45.6803 40.1266 46.4732C39.8383 47.2662 39.2521 47.8985 38.497 48.2311L64.1218 36.9453C64.877 36.6128 65.4631 35.9805 65.7514 35.1875C66.0397 34.3945 66.0065 33.5059 65.6591 32.7171L57.1444 13.384C55.581 9.83427 52.7318 7.02441 49.2235 5.57259C45.7152 4.12077 41.8353 4.14592 38.4372 5.6425ZM54.0699 21.8406C54.2436 22.235 54.2602 22.6793 54.1161 23.0758C53.9719 23.4723 53.6788 23.7885 53.3013 23.9547L50.4541 25.2087C50.0765 25.375 49.6454 25.3778 49.2556 25.2165C48.8658 25.0552 48.5492 24.743 48.3755 24.3485L46.4106 19.8871L41.428 22.0815C41.2392 22.1647 41.0236 22.1661 40.8287 22.0854C40.6338 22.0047 40.4755 21.8486 40.3887 21.6514L39.7337 20.1643C39.6468 19.9671 39.6385 19.7449 39.7106 19.5467C39.7827 19.3484 39.9292 19.1903 40.118 19.1072L49.3714 15.0318C49.749 14.8655 50.1801 14.8627 50.5699 15.024C50.9597 15.1854 51.2763 15.4976 51.45 15.892L54.0699 21.8406Z" fill="#4950C5" fill-opacity="0.42"/>
<path d="M12.8062 16.9312C5.7122 20.0555 2.68745 28.6733 5.95127 36.084L14.4095 55.2887C14.7569 56.0776 15.39 56.702 16.1697 57.0246C16.9493 57.3472 17.8115 57.3416 18.5666 57.0091L38.497 48.2313C39.2522 47.8987 39.8384 47.2664 40.1266 46.4734C40.4149 45.6805 40.3817 44.7918 40.0343 44.003L31.5196 24.67C30.7453 22.9118 29.6469 21.3168 28.2872 19.9763C26.9276 18.6357 25.3333 17.5759 23.5955 16.8572C21.8577 16.1385 20.0104 15.7752 18.1591 15.7879C16.3078 15.8006 14.4889 16.1891 12.8062 16.9312ZM27.1352 30.1522C27.3089 30.5466 27.3255 30.991 27.1813 31.3874C27.0372 31.7839 26.7441 32.1001 26.3665 32.2664L14.9777 37.2822C14.6002 37.4485 14.169 37.4513 13.7792 37.29C13.3894 37.1287 13.0728 36.8165 12.8991 36.4221L11.5892 33.4478C11.4155 33.0533 11.3989 32.609 11.543 32.2125C11.6872 31.8161 11.9803 31.4999 12.3578 31.3336L23.7466 26.3177C24.1242 26.1514 24.5553 26.1487 24.9451 26.31C25.3349 26.4713 25.6515 26.7835 25.8252 27.1779L27.1352 30.1522ZM49.3715 15.032L40.1181 19.1074C39.9293 19.1906 39.7827 19.3486 39.7107 19.5469C39.6386 19.7451 39.6469 19.9673 39.7337 20.1645L40.3887 21.6516C40.4756 21.8488 40.6339 22.0049 40.8288 22.0856C41.0237 22.1663 41.2392 22.1649 41.428 22.0817L46.4106 19.8873L48.3755 24.3487C48.5493 24.7432 48.8658 25.0554 49.2556 25.2167C49.6455 25.378 50.0766 25.3752 50.4541 25.2089L53.3013 23.9549C53.6789 23.7887 53.972 23.4725 54.1161 23.076C54.2603 22.6795 54.2437 22.2352 54.07 21.8408L51.4501 15.8922C51.2763 15.4978 50.9598 15.1856 50.5699 15.0242C50.1801 14.8629 49.749 14.8657 49.3715 15.032Z" fill="#7694FF" fill-opacity="0.17"/>
<path d="M518.437 162.642L492.812 173.928C496.21 172.432 500.09 172.406 503.599 173.858C507.107 175.31 509.956 178.12 511.52 181.67L520.034 201.003C520.382 201.792 520.415 202.68 520.127 203.473C519.838 204.266 519.252 204.898 518.497 205.231L544.122 193.945C544.877 193.613 545.463 192.98 545.751 192.187C546.04 191.395 546.007 190.506 545.659 189.717L537.144 170.384C535.581 166.834 532.732 164.024 529.224 162.573C525.715 161.121 521.835 161.146 518.437 162.642ZM534.07 178.841C534.244 179.235 534.26 179.679 534.116 180.076C533.972 180.472 533.679 180.788 533.301 180.955L530.454 182.209C530.077 182.375 529.645 182.378 529.256 182.216C528.866 182.055 528.549 181.743 528.375 181.349L526.411 176.887L521.428 179.082C521.239 179.165 521.024 179.166 520.829 179.085C520.634 179.005 520.476 178.849 520.389 178.651L519.734 177.164C519.647 176.967 519.639 176.745 519.711 176.547C519.783 176.348 519.929 176.19 520.118 176.107L529.371 172.032C529.749 171.866 530.18 171.863 530.57 172.024C530.96 172.185 531.276 172.498 531.45 172.892L534.07 178.841Z" fill="#69EC9D" fill-opacity="0.3"/>
<path d="M492.806 173.931C485.712 177.056 482.687 185.673 485.951 193.084L494.409 212.289C494.757 213.078 495.39 213.702 496.17 214.025C496.949 214.347 497.811 214.342 498.567 214.009L518.497 205.231C519.252 204.899 519.838 204.266 520.127 203.473C520.415 202.68 520.382 201.792 520.034 201.003L511.52 181.67C510.745 179.912 509.647 178.317 508.287 176.976C506.928 175.636 505.333 174.576 503.595 173.857C501.858 173.139 500.01 172.775 498.159 172.788C496.308 172.801 494.489 173.189 492.806 173.931ZM507.135 187.152C507.309 187.547 507.325 187.991 507.181 188.387C507.037 188.784 506.744 189.1 506.367 189.266L494.978 194.282C494.6 194.449 494.169 194.451 493.779 194.29C493.389 194.129 493.073 193.816 492.899 193.422L491.589 190.448C491.415 190.053 491.399 189.609 491.543 189.213C491.687 188.816 491.98 188.5 492.358 188.334L503.747 183.318C504.124 183.151 504.555 183.149 504.945 183.31C505.335 183.471 505.651 183.783 505.825 184.178L507.135 187.152ZM529.371 172.032L520.118 176.107C519.929 176.191 519.783 176.349 519.711 176.547C519.639 176.745 519.647 176.967 519.734 177.164L520.389 178.652C520.476 178.849 520.634 179.005 520.829 179.086C521.024 179.166 521.239 179.165 521.428 179.082L526.411 176.887L528.376 181.349C528.549 181.743 528.866 182.055 529.256 182.217C529.645 182.378 530.077 182.375 530.454 182.209L533.301 180.955C533.679 180.789 533.972 180.472 534.116 180.076C534.26 179.68 534.244 179.235 534.07 178.841L531.45 172.892C531.276 172.498 530.96 172.186 530.57 172.024C530.18 171.863 529.749 171.866 529.371 172.032Z" fill="#00CACA" fill-opacity="0.5"/>
<path d="M1381 43.1839C1380.07 26.9298 1365.72 13.8611 1347.86 13.0025C1347.62 12.9903 1347.39 13.0225 1347.16 13.097C1346.94 13.1715 1346.73 13.2868 1346.56 13.4359C1346.38 13.585 1346.24 13.7647 1346.15 13.9642C1346.05 14.1637 1346 14.3787 1346 14.5962V17.7439C1346 18.1493 1346.17 18.5399 1346.48 18.8348C1346.78 19.1297 1347.2 19.3062 1347.64 19.3277C1361.8 20.0249 1373.18 30.4838 1374 43.3831C1374.02 43.7866 1374.22 44.1654 1374.54 44.4428C1374.86 44.7202 1375.29 44.8755 1375.74 44.8773H1379.25C1379.49 44.8763 1379.72 44.831 1379.94 44.7443C1380.16 44.6575 1380.36 44.5311 1380.52 44.3727C1380.69 44.2143 1380.81 44.0272 1380.89 43.8229C1380.98 43.6185 1381.01 43.4011 1381 43.1839V43.1839ZM1347.9 22.5649C1347.65 22.5489 1347.41 22.5785 1347.18 22.6519C1346.95 22.7252 1346.74 22.8407 1346.57 22.9912C1346.39 23.1417 1346.25 23.324 1346.15 23.5266C1346.05 23.7291 1346 23.9477 1346 24.1686V27.3661C1346 27.7675 1346.17 28.1541 1346.47 28.448C1346.77 28.7418 1347.18 28.9211 1347.62 28.9499C1356.02 29.5774 1362.72 35.7432 1363.47 43.413C1363.51 43.8106 1363.71 44.1811 1364.03 44.452C1364.35 44.7228 1364.77 44.8745 1365.21 44.8773H1368.73C1368.98 44.8766 1369.22 44.8306 1369.44 44.7422C1369.66 44.6538 1369.86 44.5248 1370.03 44.3633C1370.19 44.2017 1370.32 44.0111 1370.4 43.8031C1370.48 43.5951 1370.51 43.3742 1370.5 43.1541C1369.58 32.1891 1359.94 23.4136 1347.9 22.5649Z" fill="#FC840D" fill-opacity="0.1"/>
<path d="M1343.84 35.5958C1352.1 37.0899 1358.05 44.4908 1356.14 52.7484C1354.9 58.1571 1350.09 62.5399 1344.14 63.6754C1333.98 65.6178 1325 58.5755 1325 49.6585V24.9556C1325 24.6414 1325.07 24.3302 1325.2 24.0398C1325.33 23.7494 1325.52 23.4855 1325.77 23.2634C1326.01 23.0412 1326.3 22.8652 1326.62 22.7453C1326.94 22.6255 1327.28 22.5642 1327.63 22.5649H1332.88C1333.22 22.5642 1333.56 22.6255 1333.88 22.7453C1334.2 22.8652 1334.49 23.0412 1334.73 23.2634C1334.98 23.4855 1335.17 23.7494 1335.3 24.0398C1335.44 24.3302 1335.5 24.6414 1335.5 24.9556V49.6585C1335.5 50.5319 1335.76 51.3886 1336.26 52.1357C1336.76 52.8827 1337.47 53.4916 1338.32 53.8961C1339.17 54.3006 1340.13 54.4854 1341.08 54.4303C1342.04 54.3753 1342.96 54.0825 1343.75 53.5838C1344.54 53.0851 1345.16 52.3995 1345.55 51.6015C1345.94 50.8034 1346.08 49.9234 1345.96 49.0569C1345.84 48.1905 1345.46 47.3707 1344.87 46.6865C1344.27 46.0024 1343.48 45.48 1342.58 45.1761C1341.53 44.8175 1340.75 44.0007 1340.75 42.9847V37.9645C1340.75 36.4803 1342.24 35.3049 1343.84 35.5938V35.5958Z" fill="#F1CB47" fill-opacity="0.4"/>
<path d="M682.997 341.184C682.067 324.93 667.715 311.861 649.863 311.003C649.624 310.99 649.385 311.022 649.161 311.097C648.937 311.172 648.731 311.287 648.557 311.436C648.383 311.585 648.244 311.765 648.149 311.964C648.054 312.164 648.004 312.379 648.003 312.596V315.744C648.001 316.149 648.17 316.54 648.475 316.835C648.781 317.13 649.199 317.306 649.644 317.328C663.799 318.025 675.176 328.484 675.996 341.383C676.024 341.787 676.219 342.165 676.542 342.443C676.865 342.72 677.292 342.876 677.736 342.877H681.247C681.486 342.876 681.722 342.831 681.941 342.744C682.16 342.658 682.358 342.531 682.521 342.373C682.685 342.214 682.812 342.027 682.893 341.823C682.975 341.619 683.011 341.401 682.997 341.184V341.184ZM649.896 320.565C649.654 320.549 649.411 320.579 649.182 320.652C648.953 320.725 648.743 320.841 648.565 320.991C648.388 321.142 648.246 321.324 648.15 321.527C648.053 321.729 648.003 321.948 648.003 322.169V325.366C648.003 325.768 648.17 326.154 648.47 326.448C648.771 326.742 649.182 326.921 649.622 326.95C658.023 327.577 664.718 333.743 665.473 341.413C665.51 341.811 665.709 342.181 666.031 342.452C666.353 342.723 666.774 342.875 667.212 342.877H670.735C670.977 342.877 671.216 342.831 671.438 342.742C671.66 342.654 671.86 342.525 672.025 342.363C672.19 342.202 672.317 342.011 672.398 341.803C672.479 341.595 672.512 341.374 672.496 341.154C671.577 330.189 661.939 321.414 649.896 320.565Z" fill="#CE2E6C" fill-opacity="0.25"/>
<path d="M645.837 333.596C654.096 335.09 660.047 342.491 658.144 350.748C656.897 356.157 652.094 360.54 646.143 361.675C635.981 363.618 627 356.575 627 347.659V322.956C626.999 322.641 627.066 322.33 627.198 322.04C627.33 321.749 627.523 321.486 627.767 321.263C628.011 321.041 628.301 320.865 628.62 320.745C628.939 320.625 629.28 320.564 629.625 320.565H634.876C635.221 320.564 635.563 320.625 635.882 320.745C636.201 320.865 636.491 321.041 636.735 321.263C636.978 321.486 637.172 321.749 637.303 322.04C637.435 322.33 637.502 322.641 637.502 322.956V347.659C637.502 348.532 637.764 349.389 638.261 350.136C638.758 350.883 639.47 351.492 640.32 351.896C641.17 352.301 642.126 352.485 643.083 352.43C644.041 352.375 644.963 352.083 645.75 351.584C646.538 351.085 647.16 350.4 647.55 349.601C647.94 348.803 648.082 347.923 647.961 347.057C647.841 346.19 647.462 345.371 646.865 344.687C646.269 344.002 645.478 343.48 644.579 343.176C643.529 342.818 642.752 342.001 642.752 340.985V335.964C642.752 334.48 644.24 333.305 645.837 333.594V333.596Z" fill="#CE2E6C" fill-opacity="0.4"/>
</svg>
