<svg width="1440" height="294" viewBox="0 0 1440 294" fill="none" xmlns="http://www.w3.org/2000/svg">
<path d="M0 0.725586H1440V269.726C1432.33 209.892 1352.87 35.0438 1130 90.2256C922 141.726 798.8 389.826 598 252.226C438 142.584 386 128 307.5 90.2256C196.87 36.9897 0 116.126 0 269.726V0.725586Z" fill="url(#paint0_linear_136:172)"/>
<rect x="1162.77" y="81" width="47" height="47" transform="rotate(-45 1162.77 81)" stroke="#FFB473" stroke-opacity="0.27" stroke-width="3"/>
<rect x="120.121" y="147.355" width="27" height="27" transform="rotate(-45 120.121 147.355)" stroke="#00CACA" stroke-opacity="0.1" stroke-width="3"/>
<circle cx="363" cy="46" r="25" fill="#86D800" fill-opacity="0.1"/>
<circle cx="1365" cy="236" r="25" fill="#86D800" fill-opacity="0.1"/>
<circle cx="940" cy="96" r="25" fill="#CE2E6C" fill-opacity="0.1"/>
<path d="M712 48.25C682.73 48.25 659 69.3475 659 95.375C659 106.603 663.433 116.898 670.801 124.996C668.205 136.394 659.559 146.578 659.455 146.691C659.233 146.949 659.084 147.271 659.028 147.62C658.971 147.969 659.009 148.328 659.136 148.653C659.264 148.978 659.476 149.256 659.746 149.451C660.016 149.645 660.333 149.75 660.656 149.75C674.374 149.75 684.672 142.557 689.765 138.109C696.875 141.026 704.407 142.513 712 142.5C741.272 142.5 765 121.402 765 95.375C765 69.3475 741.272 48.25 712 48.25ZM731.875 100.812C731.875 101.293 731.701 101.754 731.39 102.094C731.079 102.434 730.658 102.625 730.219 102.625H718.625V115.312C718.625 115.793 718.451 116.254 718.14 116.594C717.829 116.934 717.408 117.125 716.969 117.125H707.031C706.592 117.125 706.171 116.934 705.86 116.594C705.549 116.254 705.375 115.793 705.375 115.312V102.625H693.781C693.342 102.625 692.921 102.434 692.61 102.094C692.299 101.754 692.125 101.293 692.125 100.812V89.9375C692.125 89.4568 692.299 88.9958 692.61 88.6559C692.921 88.316 693.342 88.125 693.781 88.125H705.375V75.4375C705.375 74.9568 705.549 74.4958 705.86 74.1559C706.171 73.816 706.592 73.625 707.031 73.625H716.969C717.408 73.625 717.829 73.816 718.14 74.1559C718.451 74.4958 718.625 74.9568 718.625 75.4375V88.125H730.219C730.658 88.125 731.079 88.316 731.39 88.6559C731.701 88.9958 731.875 89.4568 731.875 89.9375V100.812Z" fill="#00CACA" fill-opacity="0.1"/>
<path d="M692.125 89.9375C692.125 89.4568 692.299 88.9958 692.61 88.6559C692.921 88.316 693.342 88.125 693.781 88.125H705.375V75.4375C705.375 74.9568 705.549 74.4958 705.86 74.1559C706.171 73.816 706.592 73.625 707.031 73.625H716.969C717.408 73.625 717.829 73.816 718.14 74.1559C718.451 74.4958 718.625 74.9568 718.625 75.4375V88.125H730.219C730.658 88.125 731.079 88.316 731.39 88.6559C731.701 88.9958 731.875 89.4568 731.875 89.9375V100.812C731.875 101.293 731.701 101.754 731.39 102.094C731.079 102.434 730.658 102.625 730.219 102.625H718.625V115.312C718.625 115.793 718.451 116.254 718.14 116.594C717.829 116.934 717.408 117.125 716.969 117.125H707.031C706.592 117.125 706.171 116.934 705.86 116.594C705.549 116.254 705.375 115.793 705.375 115.312V102.625H693.781C693.342 102.625 692.921 102.434 692.61 102.094C692.299 101.754 692.125 101.293 692.125 100.812V89.9375Z" fill="#00CACA" fill-opacity="0.37"/>
<path d="M91.8438 47.5H83.25V41.625C83.2517 40.0673 83.9766 38.5738 85.2655 37.4724C86.5545 36.3709 88.3022 35.7515 90.125 35.75H90.9844C91.3221 35.7507 91.6567 35.6946 91.969 35.5848C92.2813 35.4751 92.5653 35.3138 92.8047 35.1102C93.0441 34.9067 93.2343 34.6648 93.3643 34.3985C93.4943 34.1321 93.5617 33.8465 93.5625 33.5579V29.1406C93.5633 28.852 93.4977 28.5661 93.3692 28.2992C93.2408 28.0323 93.052 27.7896 92.8138 27.5851C92.5756 27.3805 92.2926 27.218 91.9809 27.1069C91.6692 26.9958 91.335 26.9382 90.9973 26.9375H90.125C85.5666 26.9375 81.1949 28.4849 77.9716 31.2394C74.7483 33.9938 72.9375 37.7296 72.9375 41.625V63.6562C72.9375 64.8249 73.4807 65.9456 74.4477 66.7719C75.4147 67.5983 76.7262 68.0625 78.0938 68.0625H91.8438C93.2113 68.0625 94.5228 67.5983 95.4898 66.7719C96.4568 65.9456 97 64.8249 97 63.6562V51.9062C97 50.7376 96.4568 49.6169 95.4898 48.7906C94.5228 47.9642 93.2113 47.5 91.8438 47.5Z" fill="#66CCFF" fill-opacity="0.39"/>
<path d="M60.9062 47.5H52.3125V41.625C52.3142 40.0673 53.0391 38.5738 54.328 37.4724C55.617 36.3709 57.3647 35.7515 59.1875 35.75H60.0469C60.3846 35.7507 60.7192 35.6946 61.0315 35.5848C61.3438 35.4751 61.6278 35.3138 61.8672 35.1102C62.1066 34.9067 62.2968 34.6648 62.4268 34.3985C62.5568 34.1321 62.6242 33.8465 62.625 33.5579V29.1406C62.6258 28.852 62.5602 28.5661 62.4317 28.2992C62.3033 28.0323 62.1145 27.7896 61.8763 27.5851C61.6381 27.3805 61.3551 27.218 61.0434 27.1069C60.7317 26.9958 60.3975 26.9382 60.0598 26.9375H59.1875C54.6291 26.9375 50.2574 28.4849 47.0341 31.2394C43.8108 33.9938 42 37.7296 42 41.625L42 63.6562C42 64.8249 42.5432 65.9456 43.5102 66.7719C44.4772 67.5983 45.7887 68.0625 47.1562 68.0625H60.9062C62.2738 68.0625 63.5853 67.5983 64.5523 66.7719C65.5193 65.9456 66.0625 64.8249 66.0625 63.6562V51.9062C66.0625 50.7376 65.5193 49.6169 64.5523 48.7906C63.5853 47.9642 62.2738 47.5 60.9062 47.5Z" fill="#66CCFF" fill-opacity="0.39"/>
<defs>
<linearGradient id="paint0_linear_136:172" x1="4.24805e-06" y1="80.0003" x2="1440" y2="80.0003" gradientUnits="userSpaceOnUse">
<stop stop-color="#07C5D0" stop-opacity="0.1"/>
<stop offset="1" stop-color="#FC840D" stop-opacity="0.1"/>
</linearGradient>
</defs>
</svg>
