<svg width="55" height="42" viewBox="0 0 55 42" fill="none" xmlns="http://www.w3.org/2000/svg">
<path d="M49.8438 20.5625H41.25V14.6875C41.2517 13.1298 41.9766 11.6363 43.2655 10.5349C44.5545 9.4334 46.3022 8.81396 48.125 8.8125H48.9844C49.3221 8.81322 49.6567 8.7571 49.969 8.64733C50.2813 8.53755 50.5653 8.37629 50.8047 8.17273C51.0441 7.96917 51.2343 7.72731 51.3643 7.46096C51.4943 7.19461 51.5617 6.90899 51.5625 6.62039V2.20312C51.5633 1.91453 51.4977 1.62862 51.3692 1.36171C51.2408 1.09481 51.052 0.852139 50.8138 0.64756C50.5756 0.44298 50.2926 0.280498 49.9809 0.16939C49.6692 0.058281 49.335 0.000722391 48.9973 0H48.125C43.5666 0 39.1949 1.54743 35.9716 4.30187C32.7483 7.05631 30.9375 10.7921 30.9375 14.6875V36.7188C30.9375 37.8874 31.4807 39.0081 32.4477 39.8344C33.4147 40.6608 34.7262 41.125 36.0938 41.125H49.8438C51.2113 41.125 52.5228 40.6608 53.4898 39.8344C54.4568 39.0081 55 37.8874 55 36.7188V24.9688C55 23.8001 54.4568 22.6794 53.4898 21.8531C52.5228 21.0267 51.2113 20.5625 49.8438 20.5625Z" fill="#07C5D0" fill-opacity="0.69"/>
<path d="M18.9062 20.5625H10.3125V14.6875C10.3142 13.1298 11.0391 11.6363 12.328 10.5349C13.617 9.4334 15.3647 8.81396 17.1875 8.8125H18.0469C18.3846 8.81322 18.7192 8.7571 19.0315 8.64733C19.3438 8.53755 19.6278 8.37629 19.8672 8.17273C20.1066 7.96917 20.2968 7.72731 20.4268 7.46096C20.5568 7.19461 20.6242 6.90899 20.625 6.62039V2.20312C20.6258 1.91453 20.5602 1.62862 20.4317 1.36171C20.3033 1.09481 20.1145 0.852139 19.8763 0.64756C19.6381 0.44298 19.3551 0.280498 19.0434 0.16939C18.7317 0.058281 18.3975 0.000722391 18.0598 0H17.1875C12.6291 0 8.25738 1.54743 5.0341 4.30187C1.81082 7.05631 0 10.7921 0 14.6875L0 36.7188C0 37.8874 0.543246 39.0081 1.51023 39.8344C2.47722 40.6608 3.78873 41.125 5.15625 41.125H18.9062C20.2738 41.125 21.5853 40.6608 22.5523 39.8344C23.5193 39.0081 24.0625 37.8874 24.0625 36.7188V24.9688C24.0625 23.8001 23.5193 22.6794 22.5523 21.8531C21.5853 21.0267 20.2738 20.5625 18.9062 20.5625Z" fill="#07C5D0"/>
</svg>
