<svg width="33" height="21" viewBox="0 0 33 21" fill="none" xmlns="http://www.w3.org/2000/svg">
<path d="M31.5 0H2.40121C1.57279 0 0.901215 0.671573 0.901215 1.5C0.901215 2.32843 1.57279 3 2.40121 3H31.5C32.3284 3 33 2.32843 33 1.5C33 0.671573 32.3284 0 31.5 0Z" fill="#41C1C1"/>
<path d="M31.0988 18H2C1.17157 18 0.5 18.6716 0.5 19.5C0.5 20.3284 1.17157 21 2 21H31.0988C31.9272 21 32.5988 20.3284 32.5988 19.5C32.5988 18.6716 31.9272 18 31.0988 18Z" fill="#41C1C1"/>
<path d="M31.0988 9H10.8271C9.99872 9 9.32715 9.67157 9.32715 10.5C9.32715 11.3284 9.99872 12 10.8271 12H31.0988C31.9272 12 32.5988 11.3284 32.5988 10.5C32.5988 9.67157 31.9272 9 31.0988 9Z" fill="#41C1C1"/>
</svg>
