<svg width="33" height="26" viewBox="0 0 33 26" fill="none" xmlns="http://www.w3.org/2000/svg">
<path d="M29.6079 6.47966C29.6289 6.76403 29.6289 7.04845 29.6289 7.33281C29.6289 16.0062 22.8237 26 10.3858 26C6.55394 26 2.99431 24.9234 0 23.0547C0.544438 23.1156 1.06786 23.1359 1.63325 23.1359C4.79501 23.1359 7.7056 22.1 10.0298 20.3328C7.05649 20.2719 4.56472 18.3828 3.7062 15.7828C4.12502 15.8437 4.54377 15.8843 4.98354 15.8843C5.59075 15.8843 6.19803 15.8031 6.76335 15.6609C3.66437 15.0515 1.34005 12.4109 1.34005 9.22186V9.14064C2.2404 9.62815 3.28744 9.93283 4.39714 9.97341C2.57543 8.79526 1.38194 6.78435 1.38194 4.50933C1.38194 3.2906 1.71691 2.17341 2.30324 1.19841C5.63258 5.17965 10.6371 7.77961 16.2487 8.06403C16.144 7.57653 16.0812 7.06877 16.0812 6.56095C16.0812 2.94528 19.0964 0 22.8445 0C24.7919 0 26.5507 0.792186 27.7862 2.07187C29.3147 1.78751 30.7804 1.23905 32.0787 0.487504C31.5761 2.01098 30.5082 3.29066 29.1053 4.10311C30.4664 3.96099 31.7856 3.59528 33 3.08752C32.0788 4.38747 30.9271 5.54524 29.6079 6.47966Z" fill="#55ADED"/>
</svg>
