<svg width="29" height="30" viewBox="0 0 29 30" fill="none" xmlns="http://www.w3.org/2000/svg">
<path d="M27.4978 17.937C27.6856 16.9993 27.8021 16.0013 27.8021 15.0033C27.8021 7.40121 21.8519 1.25251 14.5097 1.25251C13.545 1.25251 12.5867 1.36638 11.6738 1.56731C10.4436 0.58272 8.91559 0 7.2516 0C3.25027 0 0 3.36236 0 7.50167C0 9.22304 0.563294 10.8038 1.50859 12.0697C1.32083 13.0074 1.20428 14.0054 1.20428 15.0033C1.20428 22.6055 7.15448 28.7542 14.4967 28.7542C15.4615 28.7542 16.4197 28.6403 17.3326 28.4394C18.5628 29.4173 20.0908 30 21.7483 30C25.7497 30 28.9999 26.6376 28.9999 22.4983C29.0064 20.7837 28.4431 19.2029 27.4978 17.937ZM14.8982 24.0656C10.6508 24.0656 7.09621 22.1098 7.09621 19.712C7.09621 18.6403 7.67893 17.6624 9.00623 17.6624C11.0263 17.6624 11.2141 20.6698 14.7104 20.6698C16.3744 20.6698 17.4492 19.9062 17.4492 18.9082C17.4492 17.6557 16.4132 17.4615 14.7298 17.0328C10.6832 16.0013 7.10269 15.5593 7.10269 11.1922C7.10269 7.22706 10.8968 5.76021 14.1665 5.76021C17.7341 5.76021 21.3404 7.22706 21.3404 9.47086C21.3404 10.6028 20.6023 11.6008 19.3786 11.6008C17.5463 11.6008 17.488 9.357 14.5226 9.357C12.8586 9.357 11.8033 9.82585 11.8033 10.864C11.8033 12.1902 13.15 12.3242 16.2773 13.0743C18.9578 13.6973 22.1498 14.8694 22.1498 18.2719C22.1498 22.2304 18.4527 24.0656 14.8982 24.0656Z" fill="#04AEEB"/>
</svg>
