<svg width="18" height="18" viewBox="0 0 18 18" fill="none" xmlns="http://www.w3.org/2000/svg">
<path d="M8.71875 0C3.90234 0 0 3.90234 0 8.71875C0 13.5352 3.90234 17.4375 8.71875 17.4375C13.5352 17.4375 17.4375 13.5352 17.4375 8.71875C17.4375 3.90234 13.5352 0 8.71875 0ZM12.8366 12.1904C12.7807 12.2562 11.4384 13.7981 8.97469 13.7981C5.9973 13.7981 3.89531 11.5741 3.89531 8.68078C3.89531 5.82223 6.075 3.63937 8.94938 3.63937C11.3048 3.63937 12.5353 4.95105 12.5852 5.00695C12.648 5.07563 12.6863 5.16312 12.6942 5.25583C12.7021 5.34853 12.6791 5.44124 12.6288 5.51953L11.842 6.73945C11.7813 6.83344 11.6858 6.89946 11.5764 6.92299C11.467 6.94653 11.3528 6.92566 11.2588 6.86496C11.2383 6.8518 11.219 6.83686 11.2011 6.82031C11.1927 6.81293 10.2684 5.98078 9.02566 5.98078C7.40426 5.98078 6.42691 7.16133 6.42691 8.65547C6.42691 10.048 7.3241 11.4574 9.03832 11.4574C10.3989 11.4574 11.3333 10.4611 11.3425 10.4509C11.4181 10.3685 11.5234 10.3195 11.6351 10.3147C11.7468 10.3099 11.8559 10.3496 11.9384 10.4252H11.9401C11.9602 10.4438 11.9784 10.4643 11.9946 10.4864L12.8577 11.667C12.9133 11.7437 12.9415 11.8369 12.9377 11.9316C12.9339 12.0264 12.8983 12.117 12.8366 12.189V12.1904Z" fill="#00CACA"/>
</svg>
