<svg width="191" height="142" viewBox="0 0 191 142" fill="none" xmlns="http://www.w3.org/2000/svg">
<ellipse cx="58.75" cy="38.9705" rx="17.5" ry="15.4412" fill="#66CCFF"/>
<ellipse cx="57.5" cy="84.5586" rx="17.5" ry="15.4412" fill="#66CCFF"/>
<ellipse cx="122.5" cy="84.5586" rx="17.5" ry="15.4412" fill="#66CCFF"/>
<ellipse cx="120.833" cy="38.9705" rx="17.5" ry="15.4412" fill="#66CCFF"/>
<ellipse cx="120.833" cy="9.19118" rx="10.4167" ry="9.19118" fill="#FF0000"/>
<path d="M52.9166 53.3088V69.853H62.9166V53.3088H52.9166Z" fill="#66CCFF"/>
<path d="M87.0833 60.0686L109.328 40.4412L116.104 46.4204L93.8597 66.0478L87.0833 60.0686Z" fill="#66CCFF"/>
<path d="M90.5778 68.989L68.3334 49.3616L75.1098 43.3824L97.3542 63.0098L90.5778 68.989Z" fill="#66CCFF"/>
<path d="M120.049 25.3677C118.526 25.3677 117.292 24.1332 117.292 22.6104V22.6104C117.292 21.0875 118.526 19.853 120.049 19.853H122.034C123.557 19.853 124.792 21.0875 124.792 22.6104V22.6104C124.792 24.1332 123.557 25.3677 122.034 25.3677H120.049Z" fill="#66CCFF"/>
<path d="M25.6982 118.047L28.9521 126.168L32.2061 118.047H33.9082V128H32.5957V124.124L32.7188 119.94L29.4512 128H28.4463L25.1855 119.961L25.3154 124.124V128H24.0029V118.047H25.6982ZM40.5938 127.269C40.1016 127.847 39.3792 128.137 38.4268 128.137C37.6383 128.137 37.0368 127.909 36.6221 127.453C36.2119 126.993 36.0046 126.314 36 125.416V120.604H37.2646V125.382C37.2646 126.503 37.7204 127.063 38.6318 127.063C39.598 127.063 40.2406 126.703 40.5596 125.983V120.604H41.8242V128H40.6211L40.5938 127.269ZM45.4678 118.812V120.604H46.8486V121.581H45.4678V126.168C45.4678 126.464 45.5293 126.688 45.6523 126.838C45.7754 126.984 45.985 127.057 46.2812 127.057C46.4271 127.057 46.6276 127.029 46.8828 126.975V128C46.5501 128.091 46.2266 128.137 45.9121 128.137C45.347 128.137 44.9209 127.966 44.6338 127.624C44.3467 127.282 44.2031 126.797 44.2031 126.168V121.581H42.8564V120.604H44.2031V118.812H45.4678ZM50.0479 118.812V120.604H51.4287V121.581H50.0479V126.168C50.0479 126.464 50.1094 126.688 50.2324 126.838C50.3555 126.984 50.5651 127.057 50.8613 127.057C51.0072 127.057 51.2077 127.029 51.4629 126.975V128C51.1302 128.091 50.8066 128.137 50.4922 128.137C49.9271 128.137 49.501 127.966 49.2139 127.624C48.9268 127.282 48.7832 126.797 48.7832 126.168V121.581H47.4365V120.604H48.7832V118.812H50.0479ZM57.4785 128C57.4056 127.854 57.3464 127.594 57.3008 127.221C56.7129 127.831 56.0111 128.137 55.1953 128.137C54.4661 128.137 53.8669 127.932 53.3975 127.521C52.9326 127.107 52.7002 126.583 52.7002 125.949C52.7002 125.179 52.9919 124.582 53.5752 124.158C54.1631 123.73 54.988 123.516 56.0498 123.516H57.2803V122.935C57.2803 122.493 57.1481 122.142 56.8838 121.882C56.6195 121.618 56.2298 121.485 55.7148 121.485C55.2637 121.485 54.8854 121.599 54.5801 121.827C54.2747 122.055 54.1221 122.331 54.1221 122.654H52.8506C52.8506 122.285 52.9805 121.93 53.2402 121.588C53.5046 121.242 53.86 120.968 54.3066 120.768C54.7578 120.567 55.2523 120.467 55.79 120.467C56.6423 120.467 57.3099 120.681 57.793 121.109C58.276 121.533 58.5267 122.119 58.5449 122.866V126.271C58.5449 126.95 58.6315 127.49 58.8047 127.891V128H57.4785ZM55.3799 127.036C55.7764 127.036 56.1523 126.934 56.5078 126.729C56.8633 126.523 57.1208 126.257 57.2803 125.929V124.411H56.2891C54.7396 124.411 53.9648 124.865 53.9648 125.771C53.9648 126.168 54.097 126.478 54.3613 126.701C54.6257 126.924 54.9652 127.036 55.3799 127.036ZM60.2197 124.24C60.2197 123.078 60.4863 122.16 61.0195 121.485C61.5527 120.806 62.2682 120.467 63.166 120.467C64.041 120.467 64.7314 120.761 65.2373 121.349L65.292 120.604H66.4541V130.844H65.1895V127.316C64.679 127.863 64 128.137 63.1523 128.137C62.2591 128.137 61.5459 127.79 61.0127 127.098C60.484 126.4 60.2197 125.478 60.2197 124.329V124.24ZM61.4844 124.384C61.4844 125.231 61.6621 125.897 62.0176 126.38C62.3776 126.863 62.8607 127.104 63.4668 127.104C64.2188 127.104 64.793 126.772 65.1895 126.106V122.483C64.7884 121.832 64.2188 121.506 63.4805 121.506C62.8698 121.506 62.3844 121.75 62.0244 122.237C61.6644 122.72 61.4844 123.436 61.4844 124.384ZM75.0332 126.257L76.4551 120.604H77.7197L75.5664 128H74.541L72.7432 122.395L70.9932 128H69.9678L67.8213 120.604H69.0791L70.5352 126.141L72.2578 120.604H73.2764L75.0332 126.257ZM80.3857 128H79.1211V120.604H80.3857V128ZM79.0186 118.642C79.0186 118.437 79.0801 118.263 79.2031 118.122C79.3307 117.981 79.5176 117.91 79.7637 117.91C80.0098 117.91 80.1966 117.981 80.3242 118.122C80.4518 118.263 80.5156 118.437 80.5156 118.642C80.5156 118.847 80.4518 119.018 80.3242 119.154C80.1966 119.291 80.0098 119.359 79.7637 119.359C79.5176 119.359 79.3307 119.291 79.2031 119.154C79.0801 119.018 79.0186 118.847 79.0186 118.642ZM87.4951 128H86.1826V118.047H87.4951V128ZM90.8994 120.604L90.9404 121.533C91.5055 120.822 92.2438 120.467 93.1553 120.467C94.7184 120.467 95.5068 121.349 95.5205 123.112V128H94.2559V123.105C94.2513 122.572 94.1283 122.178 93.8867 121.923C93.6497 121.668 93.2783 121.54 92.7725 121.54C92.3623 121.54 92.0023 121.649 91.6924 121.868C91.3825 122.087 91.141 122.374 90.9678 122.729V128H89.7031V120.604H90.8994ZM100.395 127.104C100.846 127.104 101.24 126.968 101.577 126.694C101.914 126.421 102.101 126.079 102.138 125.669H103.334C103.311 126.093 103.165 126.496 102.896 126.879C102.628 127.262 102.268 127.567 101.816 127.795C101.37 128.023 100.896 128.137 100.395 128.137C99.3874 128.137 98.5853 127.802 97.9883 127.132C97.3958 126.457 97.0996 125.537 97.0996 124.37V124.158C97.0996 123.438 97.2318 122.798 97.4961 122.237C97.7604 121.677 98.1387 121.242 98.6309 120.932C99.1276 120.622 99.7132 120.467 100.388 120.467C101.217 120.467 101.905 120.715 102.452 121.212C103.004 121.709 103.298 122.354 103.334 123.146H102.138C102.101 122.668 101.919 122.276 101.591 121.971C101.267 121.661 100.866 121.506 100.388 121.506C99.7451 121.506 99.2461 121.738 98.8906 122.203C98.5397 122.663 98.3643 123.331 98.3643 124.206V124.445C98.3643 125.298 98.5397 125.954 98.8906 126.414C99.2415 126.874 99.7428 127.104 100.395 127.104ZM104.421 124.233C104.421 123.509 104.562 122.857 104.845 122.278C105.132 121.7 105.528 121.253 106.034 120.938C106.545 120.624 107.126 120.467 107.777 120.467C108.785 120.467 109.598 120.815 110.218 121.513C110.842 122.21 111.154 123.137 111.154 124.295V124.384C111.154 125.104 111.015 125.751 110.737 126.325C110.464 126.895 110.07 127.339 109.555 127.658C109.044 127.977 108.456 128.137 107.791 128.137C106.788 128.137 105.975 127.788 105.351 127.091C104.731 126.394 104.421 125.471 104.421 124.322V124.233ZM105.692 124.384C105.692 125.204 105.882 125.863 106.26 126.359C106.643 126.856 107.153 127.104 107.791 127.104C108.434 127.104 108.944 126.854 109.322 126.353C109.701 125.847 109.89 125.14 109.89 124.233C109.89 123.422 109.696 122.766 109.309 122.265C108.926 121.759 108.415 121.506 107.777 121.506C107.153 121.506 106.649 121.754 106.267 122.251C105.884 122.748 105.692 123.459 105.692 124.384ZM116.315 121.738C116.124 121.706 115.917 121.69 115.693 121.69C114.864 121.69 114.301 122.044 114.005 122.75V128H112.74V120.604H113.971L113.991 121.458C114.406 120.797 114.994 120.467 115.755 120.467C116.001 120.467 116.188 120.499 116.315 120.562V121.738ZM123.732 124.384C123.732 125.509 123.475 126.416 122.96 127.104C122.445 127.793 121.748 128.137 120.868 128.137C119.97 128.137 119.264 127.852 118.749 127.282V130.844H117.484V120.604H118.64L118.701 121.424C119.216 120.786 119.932 120.467 120.848 120.467C121.736 120.467 122.438 120.802 122.953 121.472C123.473 122.142 123.732 123.074 123.732 124.268V124.384ZM122.468 124.24C122.468 123.406 122.29 122.748 121.935 122.265C121.579 121.782 121.091 121.54 120.472 121.54C119.706 121.54 119.132 121.88 118.749 122.559V126.093C119.127 126.767 119.706 127.104 120.485 127.104C121.091 127.104 121.572 126.865 121.928 126.387C122.288 125.904 122.468 125.188 122.468 124.24ZM125.011 124.233C125.011 123.509 125.152 122.857 125.435 122.278C125.722 121.7 126.118 121.253 126.624 120.938C127.134 120.624 127.715 120.467 128.367 120.467C129.374 120.467 130.188 120.815 130.808 121.513C131.432 122.21 131.744 123.137 131.744 124.295V124.384C131.744 125.104 131.605 125.751 131.327 126.325C131.054 126.895 130.66 127.339 130.145 127.658C129.634 127.977 129.046 128.137 128.381 128.137C127.378 128.137 126.565 127.788 125.94 127.091C125.321 126.394 125.011 125.471 125.011 124.322V124.233ZM126.282 124.384C126.282 125.204 126.471 125.863 126.85 126.359C127.232 126.856 127.743 127.104 128.381 127.104C129.023 127.104 129.534 126.854 129.912 126.353C130.29 125.847 130.479 125.14 130.479 124.233C130.479 123.422 130.286 122.766 129.898 122.265C129.516 121.759 129.005 121.506 128.367 121.506C127.743 121.506 127.239 121.754 126.856 122.251C126.474 122.748 126.282 123.459 126.282 124.384ZM136.905 121.738C136.714 121.706 136.507 121.69 136.283 121.69C135.454 121.69 134.891 122.044 134.595 122.75V128H133.33V120.604H134.561L134.581 121.458C134.996 120.797 135.584 120.467 136.345 120.467C136.591 120.467 136.778 120.499 136.905 120.562V121.738ZM142.367 128C142.294 127.854 142.235 127.594 142.189 127.221C141.602 127.831 140.9 128.137 140.084 128.137C139.355 128.137 138.756 127.932 138.286 127.521C137.821 127.107 137.589 126.583 137.589 125.949C137.589 125.179 137.881 124.582 138.464 124.158C139.052 123.73 139.877 123.516 140.938 123.516H142.169V122.935C142.169 122.493 142.037 122.142 141.772 121.882C141.508 121.618 141.118 121.485 140.604 121.485C140.152 121.485 139.774 121.599 139.469 121.827C139.163 122.055 139.011 122.331 139.011 122.654H137.739C137.739 122.285 137.869 121.93 138.129 121.588C138.393 121.242 138.749 120.968 139.195 120.768C139.646 120.567 140.141 120.467 140.679 120.467C141.531 120.467 142.199 120.681 142.682 121.109C143.165 121.533 143.415 122.119 143.434 122.866V126.271C143.434 126.95 143.52 127.49 143.693 127.891V128H142.367ZM140.269 127.036C140.665 127.036 141.041 126.934 141.396 126.729C141.752 126.523 142.009 126.257 142.169 125.929V124.411H141.178C139.628 124.411 138.854 124.865 138.854 125.771C138.854 126.168 138.986 126.478 139.25 126.701C139.514 126.924 139.854 127.036 140.269 127.036ZM147.132 118.812V120.604H148.513V121.581H147.132V126.168C147.132 126.464 147.193 126.688 147.316 126.838C147.439 126.984 147.649 127.057 147.945 127.057C148.091 127.057 148.292 127.029 148.547 126.975V128C148.214 128.091 147.891 128.137 147.576 128.137C147.011 128.137 146.585 127.966 146.298 127.624C146.011 127.282 145.867 126.797 145.867 126.168V121.581H144.521V120.604H145.867V118.812H147.132ZM151.37 128H150.105V120.604H151.37V128ZM150.003 118.642C150.003 118.437 150.064 118.263 150.188 118.122C150.315 117.981 150.502 117.91 150.748 117.91C150.994 117.91 151.181 117.981 151.309 118.122C151.436 118.263 151.5 118.437 151.5 118.642C151.5 118.847 151.436 119.018 151.309 119.154C151.181 119.291 150.994 119.359 150.748 119.359C150.502 119.359 150.315 119.291 150.188 119.154C150.064 119.018 150.003 118.847 150.003 118.642ZM153.065 124.233C153.065 123.509 153.207 122.857 153.489 122.278C153.776 121.7 154.173 121.253 154.679 120.938C155.189 120.624 155.77 120.467 156.422 120.467C157.429 120.467 158.243 120.815 158.862 121.513C159.487 122.21 159.799 123.137 159.799 124.295V124.384C159.799 125.104 159.66 125.751 159.382 126.325C159.108 126.895 158.714 127.339 158.199 127.658C157.689 127.977 157.101 128.137 156.436 128.137C155.433 128.137 154.619 127.788 153.995 127.091C153.375 126.394 153.065 125.471 153.065 124.322V124.233ZM154.337 124.384C154.337 125.204 154.526 125.863 154.904 126.359C155.287 126.856 155.798 127.104 156.436 127.104C157.078 127.104 157.589 126.854 157.967 126.353C158.345 125.847 158.534 125.14 158.534 124.233C158.534 123.422 158.34 122.766 157.953 122.265C157.57 121.759 157.06 121.506 156.422 121.506C155.798 121.506 155.294 121.754 154.911 122.251C154.528 122.748 154.337 123.459 154.337 124.384ZM162.581 120.604L162.622 121.533C163.187 120.822 163.925 120.467 164.837 120.467C166.4 120.467 167.188 121.349 167.202 123.112V128H165.938V123.105C165.933 122.572 165.81 122.178 165.568 121.923C165.331 121.668 164.96 121.54 164.454 121.54C164.044 121.54 163.684 121.649 163.374 121.868C163.064 122.087 162.823 122.374 162.649 122.729V128H161.385V120.604H162.581Z" fill="#CE2E6C"/>
</svg>
