<svg width="391" height="642" viewBox="0 0 391 642" fill="none" xmlns="http://www.w3.org/2000/svg">
<rect y="546" width="4.07463" height="3.6" fill="#CE2E6C" fill-opacity="0.25"/>
<rect x="10.8657" y="546" width="4.07463" height="3.6" fill="#CE2E6C" fill-opacity="0.25"/>
<rect x="21.7313" y="546" width="4.07463" height="3.6" fill="#CE2E6C" fill-opacity="0.25"/>
<rect x="32.597" y="546" width="4.07463" height="3.6" fill="#CE2E6C" fill-opacity="0.25"/>
<rect x="43.4626" y="546" width="4.07463" height="3.6" fill="#CE2E6C" fill-opacity="0.25"/>
<rect x="54.3284" y="546" width="4.07463" height="3.6" fill="#CE2E6C" fill-opacity="0.25"/>
<rect x="65.1941" y="546" width="4.07463" height="3.6" fill="#CE2E6C" fill-opacity="0.25"/>
<rect x="76.0598" y="546" width="4.07463" height="3.6" fill="#CE2E6C" fill-opacity="0.25"/>
<rect x="86.9254" y="546" width="4.07463" height="3.6" fill="#CE2E6C" fill-opacity="0.25"/>
<rect y="554.4" width="4.07463" height="3.6" fill="#CE2E6C" fill-opacity="0.25"/>
<rect x="10.8657" y="554.4" width="4.07463" height="3.6" fill="#CE2E6C" fill-opacity="0.25"/>
<rect x="21.7313" y="554.4" width="4.07463" height="3.6" fill="#CE2E6C" fill-opacity="0.25"/>
<rect x="32.597" y="554.4" width="4.07463" height="3.6" fill="#CE2E6C" fill-opacity="0.25"/>
<rect x="43.4626" y="554.4" width="4.07463" height="3.6" fill="#CE2E6C" fill-opacity="0.25"/>
<rect x="54.3284" y="554.4" width="4.07463" height="3.6" fill="#CE2E6C" fill-opacity="0.25"/>
<rect x="65.1941" y="554.4" width="4.07463" height="3.6" fill="#CE2E6C" fill-opacity="0.25"/>
<rect x="76.0598" y="554.4" width="4.07463" height="3.6" fill="#CE2E6C" fill-opacity="0.25"/>
<rect x="86.9254" y="554.4" width="4.07463" height="3.6" fill="#CE2E6C" fill-opacity="0.25"/>
<rect y="562.8" width="4.07463" height="3.6" fill="#CE2E6C" fill-opacity="0.25"/>
<rect x="10.8657" y="562.8" width="4.07463" height="3.6" fill="#CE2E6C" fill-opacity="0.25"/>
<rect x="21.7313" y="562.8" width="4.07463" height="3.6" fill="#CE2E6C" fill-opacity="0.25"/>
<rect x="32.597" y="562.8" width="4.07463" height="3.6" fill="#CE2E6C" fill-opacity="0.25"/>
<rect x="43.4626" y="562.8" width="4.07463" height="3.6" fill="#CE2E6C" fill-opacity="0.25"/>
<rect x="54.3284" y="562.8" width="4.07463" height="3.6" fill="#CE2E6C" fill-opacity="0.25"/>
<rect x="65.1941" y="562.8" width="4.07463" height="3.6" fill="#CE2E6C" fill-opacity="0.25"/>
<rect x="76.0598" y="562.8" width="4.07463" height="3.6" fill="#CE2E6C" fill-opacity="0.25"/>
<rect x="86.9254" y="562.8" width="4.07463" height="3.6" fill="#CE2E6C" fill-opacity="0.25"/>
<rect y="571.2" width="4.07463" height="3.6" fill="#CE2E6C" fill-opacity="0.25"/>
<rect x="10.8657" y="571.2" width="4.07463" height="3.6" fill="#CE2E6C" fill-opacity="0.25"/>
<rect x="21.7313" y="571.2" width="4.07463" height="3.6" fill="#CE2E6C" fill-opacity="0.25"/>
<rect x="32.597" y="571.2" width="4.07463" height="3.6" fill="#CE2E6C" fill-opacity="0.25"/>
<rect x="43.4626" y="571.2" width="4.07463" height="3.6" fill="#CE2E6C" fill-opacity="0.25"/>
<rect x="54.3284" y="571.2" width="4.07463" height="3.6" fill="#CE2E6C" fill-opacity="0.25"/>
<rect x="65.1941" y="571.2" width="4.07463" height="3.6" fill="#CE2E6C" fill-opacity="0.25"/>
<rect x="76.0598" y="571.2" width="4.07463" height="3.6" fill="#CE2E6C" fill-opacity="0.25"/>
<rect x="86.9254" y="571.2" width="4.07463" height="3.6" fill="#CE2E6C" fill-opacity="0.25"/>
<rect y="579.6" width="4.07463" height="3.6" fill="#CE2E6C" fill-opacity="0.25"/>
<rect x="10.8657" y="579.6" width="4.07463" height="3.6" fill="#CE2E6C" fill-opacity="0.25"/>
<rect x="21.7313" y="579.6" width="4.07463" height="3.6" fill="#CE2E6C" fill-opacity="0.25"/>
<rect x="32.597" y="579.6" width="4.07463" height="3.6" fill="#CE2E6C" fill-opacity="0.25"/>
<rect x="43.4626" y="579.6" width="4.07463" height="3.6" fill="#CE2E6C" fill-opacity="0.25"/>
<rect x="54.3284" y="579.6" width="4.07463" height="3.6" fill="#CE2E6C" fill-opacity="0.25"/>
<rect x="65.1941" y="579.6" width="4.07463" height="3.6" fill="#CE2E6C" fill-opacity="0.25"/>
<rect x="76.0598" y="579.6" width="4.07463" height="3.6" fill="#CE2E6C" fill-opacity="0.25"/>
<rect x="86.9254" y="579.6" width="4.07463" height="3.6" fill="#CE2E6C" fill-opacity="0.25"/>
<rect y="588" width="4.07463" height="3.6" fill="#CE2E6C" fill-opacity="0.25"/>
<rect x="10.8657" y="588" width="4.07463" height="3.6" fill="#CE2E6C" fill-opacity="0.25"/>
<rect x="21.7313" y="588" width="4.07463" height="3.6" fill="#CE2E6C" fill-opacity="0.25"/>
<rect x="32.597" y="588" width="4.07463" height="3.6" fill="#CE2E6C" fill-opacity="0.25"/>
<rect x="43.4626" y="588" width="4.07463" height="3.6" fill="#CE2E6C" fill-opacity="0.25"/>
<rect x="54.3284" y="588" width="4.07463" height="3.6" fill="#CE2E6C" fill-opacity="0.25"/>
<rect x="65.1941" y="588" width="4.07463" height="3.6" fill="#CE2E6C" fill-opacity="0.25"/>
<rect x="76.0598" y="588" width="4.07463" height="3.6" fill="#CE2E6C" fill-opacity="0.25"/>
<rect x="86.9254" y="588" width="4.07463" height="3.6" fill="#CE2E6C" fill-opacity="0.25"/>
<rect y="596.4" width="4.07463" height="3.6" fill="#CE2E6C" fill-opacity="0.25"/>
<rect x="10.8657" y="596.4" width="4.07463" height="3.6" fill="#CE2E6C" fill-opacity="0.25"/>
<rect x="21.7313" y="596.4" width="4.07463" height="3.6" fill="#CE2E6C" fill-opacity="0.25"/>
<rect x="32.597" y="596.4" width="4.07463" height="3.6" fill="#CE2E6C" fill-opacity="0.25"/>
<rect x="43.4626" y="596.4" width="4.07463" height="3.6" fill="#CE2E6C" fill-opacity="0.25"/>
<rect x="54.3284" y="596.4" width="4.07463" height="3.6" fill="#CE2E6C" fill-opacity="0.25"/>
<rect x="65.1941" y="596.4" width="4.07463" height="3.6" fill="#CE2E6C" fill-opacity="0.25"/>
<rect x="76.0598" y="596.4" width="4.07463" height="3.6" fill="#CE2E6C" fill-opacity="0.25"/>
<rect x="86.9254" y="596.4" width="4.07463" height="3.6" fill="#CE2E6C" fill-opacity="0.25"/>
<rect y="604.8" width="4.07463" height="3.6" fill="#CE2E6C" fill-opacity="0.25"/>
<rect x="10.8657" y="604.8" width="4.07463" height="3.6" fill="#CE2E6C" fill-opacity="0.25"/>
<rect x="21.7313" y="604.8" width="4.07463" height="3.6" fill="#CE2E6C" fill-opacity="0.25"/>
<rect x="32.597" y="604.8" width="4.07463" height="3.6" fill="#CE2E6C" fill-opacity="0.25"/>
<rect x="43.4626" y="604.8" width="4.07463" height="3.6" fill="#CE2E6C" fill-opacity="0.25"/>
<rect x="54.3284" y="604.8" width="4.07463" height="3.6" fill="#CE2E6C" fill-opacity="0.25"/>
<rect x="65.1941" y="604.8" width="4.07463" height="3.6" fill="#CE2E6C" fill-opacity="0.25"/>
<rect x="76.0598" y="604.8" width="4.07463" height="3.6" fill="#CE2E6C" fill-opacity="0.25"/>
<rect x="86.9254" y="604.8" width="4.07463" height="3.6" fill="#CE2E6C" fill-opacity="0.25"/>
<rect y="613.2" width="4.07463" height="3.6" fill="#CE2E6C" fill-opacity="0.25"/>
<rect x="10.8657" y="613.2" width="4.07463" height="3.6" fill="#CE2E6C" fill-opacity="0.25"/>
<rect x="21.7313" y="613.2" width="4.07463" height="3.6" fill="#CE2E6C" fill-opacity="0.25"/>
<rect x="32.597" y="613.2" width="4.07463" height="3.6" fill="#CE2E6C" fill-opacity="0.25"/>
<rect x="43.4626" y="613.2" width="4.07463" height="3.6" fill="#CE2E6C" fill-opacity="0.25"/>
<rect x="54.3284" y="613.2" width="4.07463" height="3.6" fill="#CE2E6C" fill-opacity="0.25"/>
<rect x="65.1941" y="613.2" width="4.07463" height="3.6" fill="#CE2E6C" fill-opacity="0.25"/>
<rect x="76.0598" y="613.2" width="4.07463" height="3.6" fill="#CE2E6C" fill-opacity="0.25"/>
<rect x="86.9254" y="613.2" width="4.07463" height="3.6" fill="#CE2E6C" fill-opacity="0.25"/>
<rect y="621.6" width="4.07463" height="3.6" fill="#CE2E6C" fill-opacity="0.25"/>
<rect x="10.8657" y="621.6" width="4.07463" height="3.6" fill="#CE2E6C" fill-opacity="0.25"/>
<rect x="21.7313" y="621.6" width="4.07463" height="3.6" fill="#CE2E6C" fill-opacity="0.25"/>
<rect x="32.597" y="621.6" width="4.07463" height="3.6" fill="#CE2E6C" fill-opacity="0.25"/>
<rect x="43.4626" y="621.6" width="4.07463" height="3.6" fill="#CE2E6C" fill-opacity="0.25"/>
<rect x="54.3284" y="621.6" width="4.07463" height="3.6" fill="#CE2E6C" fill-opacity="0.25"/>
<rect x="65.1941" y="621.6" width="4.07463" height="3.6" fill="#CE2E6C" fill-opacity="0.25"/>
<rect x="76.0598" y="621.6" width="4.07463" height="3.6" fill="#CE2E6C" fill-opacity="0.25"/>
<rect x="86.9254" y="621.6" width="4.07463" height="3.6" fill="#CE2E6C" fill-opacity="0.25"/>
<rect y="630" width="4.07463" height="3.6" fill="#CE2E6C" fill-opacity="0.25"/>
<rect x="10.8657" y="630" width="4.07463" height="3.6" fill="#CE2E6C" fill-opacity="0.25"/>
<rect x="21.7313" y="630" width="4.07463" height="3.6" fill="#CE2E6C" fill-opacity="0.25"/>
<rect x="32.597" y="630" width="4.07463" height="3.6" fill="#CE2E6C" fill-opacity="0.25"/>
<rect x="43.4626" y="630" width="4.07463" height="3.6" fill="#CE2E6C" fill-opacity="0.25"/>
<rect x="54.3284" y="630" width="4.07463" height="3.6" fill="#CE2E6C" fill-opacity="0.25"/>
<rect x="65.1941" y="630" width="4.07463" height="3.6" fill="#CE2E6C" fill-opacity="0.25"/>
<rect x="76.0598" y="630" width="4.07463" height="3.6" fill="#CE2E6C" fill-opacity="0.25"/>
<rect x="86.9254" y="630" width="4.07463" height="3.6" fill="#CE2E6C" fill-opacity="0.25"/>
<rect y="638.4" width="4.07463" height="3.6" fill="#CE2E6C" fill-opacity="0.25"/>
<rect x="10.8657" y="638.4" width="4.07463" height="3.6" fill="#CE2E6C" fill-opacity="0.25"/>
<rect x="21.7313" y="638.4" width="4.07463" height="3.6" fill="#CE2E6C" fill-opacity="0.25"/>
<rect x="32.597" y="638.4" width="4.07463" height="3.6" fill="#CE2E6C" fill-opacity="0.25"/>
<rect x="43.4626" y="638.4" width="4.07463" height="3.6" fill="#CE2E6C" fill-opacity="0.25"/>
<rect x="54.3284" y="638.4" width="4.07463" height="3.6" fill="#CE2E6C" fill-opacity="0.25"/>
<rect x="65.1941" y="638.4" width="4.07463" height="3.6" fill="#CE2E6C" fill-opacity="0.25"/>
<rect x="76.0598" y="638.4" width="4.07463" height="3.6" fill="#CE2E6C" fill-opacity="0.25"/>
<rect x="86.9254" y="638.4" width="4.07463" height="3.6" fill="#CE2E6C" fill-opacity="0.25"/>
<circle cx="114" cy="25" r="25" fill="url(#paint0_linear_338:2)"/>
<circle cx="362" cy="461" r="25" fill="url(#paint1_linear_338:2)"/>
<path d="M339.5 55L289 105.5" stroke="url(#paint2_linear_338:2)" stroke-opacity="0.63"/>
<path d="M390 105L339.5 155.5" stroke="url(#paint3_linear_338:2)" stroke-opacity="0.63"/>
<path d="M343.5 55L289.5 109" stroke="url(#paint4_linear_338:2)" stroke-opacity="0.63"/>
<path d="M389.5 101L335.5 155" stroke="url(#paint5_linear_338:2)" stroke-opacity="0.63"/>
<path d="M346.5 56L290 112.5" stroke="url(#paint6_linear_338:2)" stroke-opacity="0.63"/>
<path d="M388 98L331.5 154.5" stroke="url(#paint7_linear_338:2)" stroke-opacity="0.63"/>
<path d="M350.5 56L290.5 116" stroke="url(#paint8_linear_338:2)" stroke-opacity="0.63"/>
<path d="M388.5 94L328.5 154" stroke="url(#paint9_linear_338:2)" stroke-opacity="0.63"/>
<path d="M353.5 57L291.5 119" stroke="url(#paint10_linear_338:2)" stroke-opacity="0.63"/>
<path d="M387.5 91L325.5 153" stroke="url(#paint11_linear_338:2)" stroke-opacity="0.63"/>
<path d="M356.5 58L292.5 122" stroke="url(#paint12_linear_338:2)" stroke-opacity="0.63"/>
<path d="M386.5 88L322.5 152" stroke="url(#paint13_linear_338:2)" stroke-opacity="0.63"/>
<path d="M359.5 59L293.5 125" stroke="url(#paint14_linear_338:2)" stroke-opacity="0.63"/>
<path d="M362 60.5L294.5 128" stroke="url(#paint15_linear_338:2)" stroke-opacity="0.63"/>
<path d="M364.5 62L296.5 130" stroke="url(#paint16_linear_338:2)" stroke-opacity="0.63"/>
<path d="M385.5 85L320.5 151" stroke="url(#paint17_linear_338:2)" stroke-opacity="0.63"/>
<path d="M367 63.5L297.5 133" stroke="url(#paint18_linear_338:2)" stroke-opacity="0.63"/>
<path d="M382.5 79L314.5 148" stroke="url(#paint19_linear_338:2)" stroke-opacity="0.63"/>
<path d="M384.5 82L317.5 150" stroke="url(#paint20_linear_338:2)" stroke-opacity="0.63"/>
<path d="M369 65L299.5 134.5" stroke="url(#paint21_linear_338:2)" stroke-opacity="0.63"/>
<path d="M380.5 77L311.5 147" stroke="url(#paint22_linear_338:2)" stroke-opacity="0.63"/>
<path d="M371.5 66L300.5 137" stroke="url(#paint23_linear_338:2)" stroke-opacity="0.63"/>
<path d="M373.5 68L302.5 139" stroke="url(#paint24_linear_338:2)" stroke-opacity="0.63"/>
<path d="M375.5 70L304.5 141" stroke="url(#paint25_linear_338:2)" stroke-opacity="0.63"/>
<path d="M377.5 72L306.5 143" stroke="url(#paint26_linear_338:2)" stroke-opacity="0.63"/>
<path d="M379.5 74L309.5 145" stroke="url(#paint27_linear_338:2)" stroke-opacity="0.63"/>
<path d="M311 64.5L298.5 77" stroke="url(#paint28_linear_338:2)" stroke-opacity="0.63"/>
<path d="M382 132L369.5 144.5" stroke="url(#paint29_linear_338:2)" stroke-opacity="0.63"/>
<path d="M318 60.5L294.5 84" stroke="url(#paint30_linear_338:2)" stroke-opacity="0.63"/>
<path d="M385 126L361.5 149.5" stroke="url(#paint31_linear_338:2)" stroke-opacity="0.63"/>
<path d="M325.5 58L292.5 90" stroke="url(#paint32_linear_338:2)" stroke-opacity="0.63"/>
<path d="M387.5 120L354.5 152" stroke="url(#paint33_linear_338:2)" stroke-opacity="0.63"/>
<path d="M332 55L290 96.5" stroke="url(#paint34_linear_338:2)" stroke-opacity="0.63"/>
<path d="M388.5 114L348.5 154" stroke="url(#paint35_linear_338:2)" stroke-opacity="0.63"/>
<path d="M335.5 55L289.5 101" stroke="url(#paint36_linear_338:2)" stroke-opacity="0.63"/>
<path d="M389.5 109L343.5 155" stroke="url(#paint37_linear_338:2)" stroke-opacity="0.63"/>
<defs>
<linearGradient id="paint0_linear_338:2" x1="114" y1="0" x2="114" y2="50" gradientUnits="userSpaceOnUse">
<stop stop-color="#00CACA" stop-opacity="0.24"/>
<stop offset="1" stop-color="#C4C4C4" stop-opacity="0"/>
</linearGradient>
<linearGradient id="paint1_linear_338:2" x1="362" y1="436" x2="362" y2="486" gradientUnits="userSpaceOnUse">
<stop stop-color="#00CACA" stop-opacity="0.24"/>
<stop offset="1" stop-color="#C4C4C4" stop-opacity="0"/>
</linearGradient>
<linearGradient id="paint2_linear_338:2" x1="314.25" y1="55" x2="314.25" y2="105.5" gradientUnits="userSpaceOnUse">
<stop offset="0.286458" stop-color="#CE2E6C"/>
<stop offset="0.3125" stop-color="#CE2E6C"/>
<stop offset="1" stop-color="#CE2E6C" stop-opacity="0"/>
</linearGradient>
<linearGradient id="paint3_linear_338:2" x1="364.75" y1="105" x2="364.75" y2="155.5" gradientUnits="userSpaceOnUse">
<stop offset="0.286458" stop-color="#CE2E6C"/>
<stop offset="0.3125" stop-color="#CE2E6C"/>
<stop offset="1" stop-color="#CE2E6C" stop-opacity="0"/>
</linearGradient>
<linearGradient id="paint4_linear_338:2" x1="316.5" y1="55" x2="316.5" y2="109" gradientUnits="userSpaceOnUse">
<stop offset="0.286458" stop-color="#CE2E6C"/>
<stop offset="0.3125" stop-color="#CE2E6C"/>
<stop offset="1" stop-color="#CE2E6C" stop-opacity="0"/>
</linearGradient>
<linearGradient id="paint5_linear_338:2" x1="362.5" y1="101" x2="362.5" y2="155" gradientUnits="userSpaceOnUse">
<stop offset="0.286458" stop-color="#CE2E6C"/>
<stop offset="0.3125" stop-color="#CE2E6C"/>
<stop offset="1" stop-color="#CE2E6C" stop-opacity="0"/>
</linearGradient>
<linearGradient id="paint6_linear_338:2" x1="318.25" y1="56" x2="318.25" y2="112.5" gradientUnits="userSpaceOnUse">
<stop offset="0.286458" stop-color="#CE2E6C"/>
<stop offset="0.3125" stop-color="#CE2E6C"/>
<stop offset="1" stop-color="#CE2E6C" stop-opacity="0"/>
</linearGradient>
<linearGradient id="paint7_linear_338:2" x1="359.75" y1="98" x2="359.75" y2="154.5" gradientUnits="userSpaceOnUse">
<stop offset="0.286458" stop-color="#CE2E6C"/>
<stop offset="0.3125" stop-color="#CE2E6C"/>
<stop offset="1" stop-color="#CE2E6C" stop-opacity="0"/>
</linearGradient>
<linearGradient id="paint8_linear_338:2" x1="320.5" y1="56" x2="320.5" y2="116" gradientUnits="userSpaceOnUse">
<stop offset="0.286458" stop-color="#CE2E6C"/>
<stop offset="0.3125" stop-color="#CE2E6C"/>
<stop offset="1" stop-color="#CE2E6C" stop-opacity="0"/>
</linearGradient>
<linearGradient id="paint9_linear_338:2" x1="358.5" y1="94" x2="358.5" y2="154" gradientUnits="userSpaceOnUse">
<stop offset="0.286458" stop-color="#CE2E6C"/>
<stop offset="0.3125" stop-color="#CE2E6C"/>
<stop offset="1" stop-color="#CE2E6C" stop-opacity="0"/>
</linearGradient>
<linearGradient id="paint10_linear_338:2" x1="322.5" y1="57" x2="322.5" y2="119" gradientUnits="userSpaceOnUse">
<stop offset="0.286458" stop-color="#CE2E6C"/>
<stop offset="0.3125" stop-color="#CE2E6C"/>
<stop offset="1" stop-color="#CE2E6C" stop-opacity="0"/>
</linearGradient>
<linearGradient id="paint11_linear_338:2" x1="356.5" y1="91" x2="356.5" y2="153" gradientUnits="userSpaceOnUse">
<stop offset="0.286458" stop-color="#CE2E6C"/>
<stop offset="0.3125" stop-color="#CE2E6C"/>
<stop offset="1" stop-color="#CE2E6C" stop-opacity="0"/>
</linearGradient>
<linearGradient id="paint12_linear_338:2" x1="324.5" y1="58" x2="324.5" y2="122" gradientUnits="userSpaceOnUse">
<stop offset="0.286458" stop-color="#CE2E6C"/>
<stop offset="0.3125" stop-color="#CE2E6C"/>
<stop offset="1" stop-color="#CE2E6C" stop-opacity="0"/>
</linearGradient>
<linearGradient id="paint13_linear_338:2" x1="354.5" y1="88" x2="354.5" y2="152" gradientUnits="userSpaceOnUse">
<stop offset="0.286458" stop-color="#CE2E6C"/>
<stop offset="0.3125" stop-color="#CE2E6C"/>
<stop offset="1" stop-color="#CE2E6C" stop-opacity="0"/>
</linearGradient>
<linearGradient id="paint14_linear_338:2" x1="326.5" y1="59" x2="326.5" y2="125" gradientUnits="userSpaceOnUse">
<stop offset="0.286458" stop-color="#CE2E6C"/>
<stop offset="0.3125" stop-color="#CE2E6C"/>
<stop offset="1" stop-color="#CE2E6C" stop-opacity="0"/>
</linearGradient>
<linearGradient id="paint15_linear_338:2" x1="328.25" y1="60.5" x2="328.25" y2="128" gradientUnits="userSpaceOnUse">
<stop offset="0.286458" stop-color="#CE2E6C"/>
<stop offset="0.3125" stop-color="#CE2E6C"/>
<stop offset="1" stop-color="#CE2E6C" stop-opacity="0"/>
</linearGradient>
<linearGradient id="paint16_linear_338:2" x1="330.5" y1="62" x2="330.5" y2="130" gradientUnits="userSpaceOnUse">
<stop offset="0.286458" stop-color="#CE2E6C"/>
<stop offset="0.3125" stop-color="#CE2E6C"/>
<stop offset="1" stop-color="#CE2E6C" stop-opacity="0"/>
</linearGradient>
<linearGradient id="paint17_linear_338:2" x1="353" y1="85" x2="353" y2="151" gradientUnits="userSpaceOnUse">
<stop offset="0.286458" stop-color="#CE2E6C"/>
<stop offset="0.3125" stop-color="#CE2E6C"/>
<stop offset="1" stop-color="#CE2E6C" stop-opacity="0"/>
</linearGradient>
<linearGradient id="paint18_linear_338:2" x1="332.25" y1="63.5" x2="332.25" y2="133" gradientUnits="userSpaceOnUse">
<stop offset="0.286458" stop-color="#CE2E6C"/>
<stop offset="0.3125" stop-color="#CE2E6C"/>
<stop offset="1" stop-color="#CE2E6C" stop-opacity="0"/>
</linearGradient>
<linearGradient id="paint19_linear_338:2" x1="348.5" y1="79" x2="348.5" y2="148" gradientUnits="userSpaceOnUse">
<stop offset="0.286458" stop-color="#CE2E6C"/>
<stop offset="0.3125" stop-color="#CE2E6C"/>
<stop offset="1" stop-color="#CE2E6C" stop-opacity="0"/>
</linearGradient>
<linearGradient id="paint20_linear_338:2" x1="351" y1="82" x2="351" y2="150" gradientUnits="userSpaceOnUse">
<stop offset="0.286458" stop-color="#CE2E6C"/>
<stop offset="0.3125" stop-color="#CE2E6C"/>
<stop offset="1" stop-color="#CE2E6C" stop-opacity="0"/>
</linearGradient>
<linearGradient id="paint21_linear_338:2" x1="334.25" y1="65" x2="334.25" y2="134.5" gradientUnits="userSpaceOnUse">
<stop offset="0.286458" stop-color="#CE2E6C"/>
<stop offset="0.3125" stop-color="#CE2E6C"/>
<stop offset="1" stop-color="#CE2E6C" stop-opacity="0"/>
</linearGradient>
<linearGradient id="paint22_linear_338:2" x1="346" y1="77" x2="346" y2="147" gradientUnits="userSpaceOnUse">
<stop offset="0.286458" stop-color="#CE2E6C"/>
<stop offset="0.3125" stop-color="#CE2E6C"/>
<stop offset="1" stop-color="#CE2E6C" stop-opacity="0"/>
</linearGradient>
<linearGradient id="paint23_linear_338:2" x1="336" y1="66" x2="336" y2="137" gradientUnits="userSpaceOnUse">
<stop offset="0.286458" stop-color="#CE2E6C"/>
<stop offset="0.3125" stop-color="#CE2E6C"/>
<stop offset="1" stop-color="#CE2E6C" stop-opacity="0"/>
</linearGradient>
<linearGradient id="paint24_linear_338:2" x1="338" y1="68" x2="338" y2="139" gradientUnits="userSpaceOnUse">
<stop offset="0.286458" stop-color="#CE2E6C"/>
<stop offset="0.3125" stop-color="#CE2E6C"/>
<stop offset="1" stop-color="#CE2E6C" stop-opacity="0"/>
</linearGradient>
<linearGradient id="paint25_linear_338:2" x1="340" y1="70" x2="340" y2="141" gradientUnits="userSpaceOnUse">
<stop offset="0.286458" stop-color="#CE2E6C"/>
<stop offset="0.3125" stop-color="#CE2E6C"/>
<stop offset="1" stop-color="#CE2E6C" stop-opacity="0"/>
</linearGradient>
<linearGradient id="paint26_linear_338:2" x1="342" y1="72" x2="342" y2="143" gradientUnits="userSpaceOnUse">
<stop offset="0.286458" stop-color="#CE2E6C"/>
<stop offset="0.3125" stop-color="#CE2E6C"/>
<stop offset="1" stop-color="#CE2E6C" stop-opacity="0"/>
</linearGradient>
<linearGradient id="paint27_linear_338:2" x1="344.5" y1="74" x2="344.5" y2="145" gradientUnits="userSpaceOnUse">
<stop offset="0.286458" stop-color="#CE2E6C"/>
<stop offset="0.3125" stop-color="#CE2E6C"/>
<stop offset="1" stop-color="#CE2E6C" stop-opacity="0"/>
</linearGradient>
<linearGradient id="paint28_linear_338:2" x1="304.75" y1="64.5" x2="304.75" y2="77" gradientUnits="userSpaceOnUse">
<stop offset="0.286458" stop-color="#CE2E6C"/>
<stop offset="0.3125" stop-color="#CE2E6C"/>
<stop offset="1" stop-color="#CE2E6C" stop-opacity="0"/>
</linearGradient>
<linearGradient id="paint29_linear_338:2" x1="375.75" y1="132" x2="375.75" y2="144.5" gradientUnits="userSpaceOnUse">
<stop offset="0.286458" stop-color="#CE2E6C"/>
<stop offset="0.3125" stop-color="#CE2E6C"/>
<stop offset="1" stop-color="#CE2E6C" stop-opacity="0"/>
</linearGradient>
<linearGradient id="paint30_linear_338:2" x1="306.25" y1="60.5" x2="306.25" y2="84" gradientUnits="userSpaceOnUse">
<stop offset="0.286458" stop-color="#CE2E6C"/>
<stop offset="0.3125" stop-color="#CE2E6C"/>
<stop offset="1" stop-color="#CE2E6C" stop-opacity="0"/>
</linearGradient>
<linearGradient id="paint31_linear_338:2" x1="373.25" y1="126" x2="373.25" y2="149.5" gradientUnits="userSpaceOnUse">
<stop offset="0.286458" stop-color="#CE2E6C"/>
<stop offset="0.3125" stop-color="#CE2E6C"/>
<stop offset="1" stop-color="#CE2E6C" stop-opacity="0"/>
</linearGradient>
<linearGradient id="paint32_linear_338:2" x1="309" y1="58" x2="309" y2="90" gradientUnits="userSpaceOnUse">
<stop offset="0.286458" stop-color="#CE2E6C"/>
<stop offset="0.3125" stop-color="#CE2E6C"/>
<stop offset="1" stop-color="#CE2E6C" stop-opacity="0"/>
</linearGradient>
<linearGradient id="paint33_linear_338:2" x1="371" y1="120" x2="371" y2="152" gradientUnits="userSpaceOnUse">
<stop offset="0.286458" stop-color="#CE2E6C"/>
<stop offset="0.3125" stop-color="#CE2E6C"/>
<stop offset="1" stop-color="#CE2E6C" stop-opacity="0"/>
</linearGradient>
<linearGradient id="paint34_linear_338:2" x1="311" y1="55" x2="311" y2="96.5" gradientUnits="userSpaceOnUse">
<stop offset="0.286458" stop-color="#CE2E6C"/>
<stop offset="0.3125" stop-color="#CE2E6C"/>
<stop offset="1" stop-color="#CE2E6C" stop-opacity="0"/>
</linearGradient>
<linearGradient id="paint35_linear_338:2" x1="368.5" y1="114" x2="368.5" y2="154" gradientUnits="userSpaceOnUse">
<stop offset="0.286458" stop-color="#CE2E6C"/>
<stop offset="0.3125" stop-color="#CE2E6C"/>
<stop offset="1" stop-color="#CE2E6C" stop-opacity="0"/>
</linearGradient>
<linearGradient id="paint36_linear_338:2" x1="312.5" y1="55" x2="312.5" y2="101" gradientUnits="userSpaceOnUse">
<stop offset="0.286458" stop-color="#CE2E6C"/>
<stop offset="0.3125" stop-color="#CE2E6C"/>
<stop offset="1" stop-color="#CE2E6C" stop-opacity="0"/>
</linearGradient>
<linearGradient id="paint37_linear_338:2" x1="366.5" y1="109" x2="366.5" y2="155" gradientUnits="userSpaceOnUse">
<stop offset="0.286458" stop-color="#CE2E6C"/>
<stop offset="0.3125" stop-color="#CE2E6C"/>
<stop offset="1" stop-color="#CE2E6C" stop-opacity="0"/>
</linearGradient>
</defs>
</svg>
