<svg width="14" height="20" viewBox="0 0 14 20" fill="none" xmlns="http://www.w3.org/2000/svg">
<path d="M7 0C3.15 0 0 3.375 0 7.5C0 10.5 0.933334 11.375 6.3 19.625C6.3815 19.7414 6.48719 19.8359 6.60869 19.901C6.73019 19.9661 6.86416 20 7 20C7.13584 20 7.26981 19.9661 7.39131 19.901C7.51281 19.8359 7.6185 19.7414 7.7 19.625C13.0667 11.375 14 10.5 14 7.5C14 3.375 10.85 0 7 0ZM9.33333 4.57656C9.52687 4.57656 9.71606 4.63805 9.87698 4.75326C10.0379 4.86846 10.1633 5.0322 10.2374 5.22378C10.3115 5.41536 10.3308 5.62616 10.2931 5.82954C10.2553 6.03292 10.1621 6.21973 10.0253 6.36636C9.88842 6.51298 9.71406 6.61284 9.52424 6.65329C9.33442 6.69375 9.13767 6.67298 8.95886 6.59363C8.78006 6.51428 8.62723 6.3799 8.5197 6.20748C8.41218 6.03507 8.35479 5.83236 8.35479 5.625C8.35479 5.34694 8.45789 5.08026 8.6414 4.88364C8.82491 4.68702 9.07381 4.57656 9.33333 4.57656ZM4.66667 4.57656C4.8602 4.57656 5.04939 4.63805 5.21031 4.75326C5.37124 4.86846 5.49666 5.0322 5.57072 5.22378C5.64478 5.41536 5.66416 5.62616 5.62641 5.82954C5.58865 6.03292 5.49545 6.21973 5.3586 6.36636C5.22175 6.51298 5.04739 6.61284 4.85757 6.65329C4.66775 6.69375 4.471 6.67298 4.29219 6.59363C4.11339 6.51428 3.96056 6.3799 3.85304 6.20748C3.74552 6.03507 3.68812 5.83236 3.68812 5.625C3.68812 5.34694 3.79122 5.08026 3.97473 4.88364C4.15825 4.68702 4.40714 4.57656 4.66667 4.57656ZM10.652 10.0844C10.1992 10.6466 9.63859 11.0976 9.00842 11.4068C8.37824 11.7159 7.69328 11.8759 7.00018 11.8759C6.30709 11.8759 5.62213 11.7159 4.99195 11.4068C4.36177 11.0976 3.80117 10.6466 3.34833 10.0844C3.2527 9.95777 3.20698 9.79617 3.2209 9.63398C3.23481 9.47179 3.30727 9.32183 3.42284 9.21603C3.53841 9.11022 3.68797 9.05694 3.83966 9.06752C3.99135 9.07809 4.1332 9.1517 4.235 9.27266C4.57831 9.69749 5.00289 10.0382 5.47994 10.2718C5.95698 10.5053 6.47533 10.6262 6.99982 10.6262C7.5243 10.6262 8.04265 10.5053 8.5197 10.2718C8.99675 10.0382 9.42132 9.69749 9.76463 9.27266C9.8144 9.21023 9.87516 9.15891 9.94344 9.12164C10.0117 9.08437 10.0862 9.06187 10.1626 9.05544C10.239 9.049 10.3158 9.05874 10.3887 9.08412C10.4616 9.10949 10.529 9.15 10.5873 9.20332C10.6456 9.25664 10.6935 9.32174 10.7283 9.3949C10.7631 9.46805 10.784 9.54783 10.7901 9.62968C10.7961 9.71153 10.787 9.79385 10.7633 9.87193C10.7396 9.95002 10.7018 10.0223 10.652 10.0848V10.0844Z" fill="#00CACA"/>
<path d="M9.3334 6.67341C9.52693 6.67341 9.71613 6.61192 9.87705 6.49672C10.038 6.38152 10.1634 6.21777 10.2375 6.0262C10.3115 5.83462 10.3309 5.62381 10.2931 5.42044C10.2554 5.21706 10.1622 5.03025 10.0253 4.88362C9.88848 4.73699 9.71412 4.63714 9.5243 4.59668C9.33448 4.55623 9.13773 4.57699 8.95893 4.65635C8.78012 4.7357 8.62729 4.87008 8.51977 5.0425C8.41225 5.21491 8.35486 5.41761 8.35486 5.62498C8.35486 5.90304 8.45795 6.16971 8.64146 6.36633C8.82498 6.56295 9.07387 6.67341 9.3334 6.67341ZM4.66673 6.67341C4.86027 6.67341 5.04946 6.61192 5.21038 6.49672C5.3713 6.38152 5.49672 6.21777 5.57078 6.0262C5.64485 5.83462 5.66423 5.62381 5.62647 5.42044C5.58871 5.21706 5.49551 5.03025 5.35866 4.88362C5.22181 4.73699 5.04745 4.63714 4.85763 4.59668C4.66781 4.55623 4.47106 4.57699 4.29226 4.65635C4.11345 4.7357 3.96062 4.87008 3.8531 5.0425C3.74558 5.21491 3.68819 5.41761 3.68819 5.62498C3.68819 5.90304 3.79128 6.16971 3.9748 6.36633C4.15831 6.56295 4.4072 6.67341 4.66673 6.67341ZM10.5872 9.20154C10.5289 9.14823 10.4614 9.10774 10.3886 9.08239C10.3157 9.05703 10.2389 9.0473 10.1625 9.05376C10.0861 9.06022 10.0117 9.08273 9.94343 9.12002C9.87517 9.15731 9.81444 9.20863 9.7647 9.27107C9.42139 9.69591 8.99681 10.0367 8.51976 10.2702C8.04272 10.5037 7.52437 10.6246 6.99988 10.6246C6.47539 10.6246 5.95705 10.5037 5.48 10.2702C5.00295 10.0367 4.57837 9.69591 4.23506 9.27107C4.13326 9.15011 3.99142 9.07651 3.83972 9.06593C3.68803 9.05535 3.53848 9.10864 3.4229 9.21444C3.30733 9.32024 3.23487 9.4702 3.22096 9.63239C3.20704 9.79458 3.25277 9.95618 3.3484 10.0828C3.80124 10.645 4.36183 11.096 4.99201 11.4052C5.62219 11.7143 6.30715 11.8744 7.00025 11.8744C7.69334 11.8744 8.3783 11.7143 9.00848 11.4052C9.63866 11.096 10.1993 10.645 10.6521 10.0828C10.7018 10.0204 10.7396 9.94805 10.7633 9.86998C10.787 9.7919 10.796 9.7096 10.79 9.62776C10.784 9.54593 10.763 9.46617 10.7282 9.39303C10.6934 9.3199 10.6455 9.25483 10.5872 9.20154Z" fill="#AAFFFF" fill-opacity="0.92"/>
</svg>
