<svg width="18" height="18" viewBox="0 0 18 18" fill="none" xmlns="http://www.w3.org/2000/svg">
<path d="M6.7214 5.43177C6.86357 5.31653 6.96424 5.15803 7.00809 4.98035C7.05193 4.80267 7.03657 4.61553 6.96434 4.44738L5.27678 0.509807C5.19772 0.328542 5.05788 0.180544 4.88138 0.0913347C4.70489 0.00212529 4.50279 -0.0227045 4.30995 0.0211269L3.72669 0.155426L6.17822 5.8751L6.7214 5.43177ZM12.1216 11.817L17.8456 14.2699L17.9792 13.6901C18.0228 13.4963 17.9975 13.2934 17.9076 13.1163C17.8178 12.9391 17.6691 12.7988 17.487 12.7194L13.5493 11.0319C13.3811 10.9603 13.1941 10.9452 13.0166 10.989C12.839 11.0328 12.6805 11.1331 12.5649 11.2748L12.1216 11.817ZM4.34703e-08 1.68721C4.34703e-08 10.7049 7.30923 18 16.3131 18C16.5039 18.0001 16.6891 17.9356 16.8385 17.8169C16.988 17.6982 17.0927 17.5323 17.1357 17.3464L17.5889 15.384L11.3798 12.723L10.8215 13.405C8.08427 12.1149 5.8815 9.91227 4.59121 7.1752L5.27362 6.61726L2.6136 0.412423L0.653577 0.864892C0.467719 0.907893 0.301917 1.01261 0.183221 1.16195C0.0645245 1.31129 -6.11681e-05 1.49645 4.34703e-08 1.68721Z" fill="#00CACA"/>
<path d="M2.61365 0.412392L5.27366 6.61723L6.18037 5.87507L3.72673 0.155396L2.61365 0.412392ZM12.1216 11.8169L11.3798 12.7229L17.5886 15.3839L17.8456 14.2698L12.1216 11.8169Z" fill="#AAFFFF"/>
</svg>
