<svg width="18" height="20" viewBox="0 0 18 20" fill="none" xmlns="http://www.w3.org/2000/svg">
<path d="M17.3535 6.36727C16.4784 5.60477 15.7535 4.98525 11.5808 1.62081C10.9898 1.13957 9.81563 -0.0135513 9 0.000120522C8.18437 -0.0135513 7.01051 1.13957 6.41918 1.61886C2.24613 4.98368 1.52227 5.60243 0.646523 6.36727C0.289687 6.67586 0 7.33718 0 7.8407V18.125C0 18.6223 0.17779 19.0992 0.494257 19.4508C0.810725 19.8025 1.23995 20 1.6875 20H16.3125C16.7601 20 17.1893 19.8025 17.5057 19.4508C17.8222 19.0992 18 18.6223 18 18.125V7.8407C18 7.33718 17.7103 6.67586 17.3535 6.36727ZM15.9472 11.3911C15.1425 12.0512 13.9975 12.9805 12.2449 14.3938C11.5312 14.97 10.2558 16.2594 9 16.25C7.74352 16.2594 6.46875 14.9692 5.75648 14.3918C4.00395 12.9786 2.85891 12.0481 2.05418 11.3891C2.02061 11.3582 1.99317 11.3198 1.97357 11.2766C1.95397 11.2333 1.94263 11.1859 1.94027 11.1376C1.94286 11.0749 1.9598 11.014 1.98949 10.9606L2.30871 10.445C2.3301 10.4105 2.35749 10.3812 2.38928 10.3587C2.42106 10.3363 2.45658 10.3211 2.49373 10.3142C2.53088 10.3073 2.56891 10.3087 2.60555 10.3184C2.64219 10.3281 2.6767 10.3459 2.70703 10.3708C3.51035 11.0297 4.65715 11.961 6.41918 13.3817C7.01156 13.8614 8.18402 15.0133 9 15C9.81563 15.0137 10.9895 13.8606 11.5808 13.3817C13.3429 11.9606 14.4896 11.0297 15.293 10.3708C15.3233 10.3459 15.3578 10.3281 15.3945 10.3184C15.4311 10.3087 15.4691 10.3073 15.5063 10.3142C15.5434 10.3211 15.5789 10.3363 15.6107 10.3587C15.6425 10.3812 15.6699 10.4105 15.6913 10.445L16.0105 10.9606C16.0402 11.014 16.0571 11.0749 16.0597 11.1376C16.0574 11.1859 16.046 11.2333 16.0264 11.2766C16.0068 11.3198 15.9794 11.3582 15.9458 11.3891L15.9472 11.3911Z" fill="#00CACA"/>
<path d="M16.0596 11.1384C16.0573 11.1868 16.0459 11.2341 16.0263 11.2774C16.0067 11.3207 15.9793 11.359 15.9457 11.39C15.141 12.0501 13.996 12.9794 12.2434 14.3927C11.5312 14.9708 10.2557 16.2602 8.99991 16.2509C7.74343 16.2602 6.46866 14.97 5.7564 14.3927C4.00386 12.9794 2.85882 12.0489 2.05409 11.39C2.02053 11.359 1.99308 11.3207 1.97348 11.2774C1.95388 11.2341 1.94254 11.1868 1.94019 11.1384C1.94278 11.0757 1.95972 11.0148 1.9894 10.9614L2.30862 10.4458C2.33001 10.4114 2.35741 10.382 2.38919 10.3596C2.42097 10.3371 2.45649 10.322 2.49364 10.315C2.5308 10.3081 2.56882 10.3096 2.60546 10.3193C2.6421 10.329 2.67661 10.3468 2.70694 10.3716C3.51026 11.0306 4.65706 11.9618 6.41909 13.3825C7.01147 13.8622 8.18393 15.0142 8.99991 15.0009C9.81554 15.0146 10.9894 13.8614 11.5807 13.3825C13.3428 11.9614 14.4896 11.0306 15.2929 10.3716C15.3232 10.3468 15.3577 10.329 15.3944 10.3193C15.431 10.3096 15.469 10.3081 15.5062 10.315C15.5433 10.322 15.5789 10.3371 15.6106 10.3596C15.6424 10.382 15.6698 10.4114 15.6912 10.4458L16.0104 10.9614C16.0401 11.0148 16.057 11.0757 16.0596 11.1384Z" fill="#AAFFFF"/>
</svg>
