<svg width="17" height="18" viewBox="0 0 17 18" fill="none" xmlns="http://www.w3.org/2000/svg">
<path d="M16.1158 10.4609C16.2259 9.91406 16.2942 9.33203 16.2942 8.75C16.2942 4.31641 12.8069 0.730469 8.50379 0.730469C7.93839 0.730469 7.37679 0.796875 6.84174 0.914063C6.12076 0.339844 5.22522 0 4.25 0C1.90491 0 0 1.96094 0 4.375C0 5.37891 0.330134 6.30078 0.884152 7.03906C0.774107 7.58594 0.705804 8.16797 0.705804 8.75C0.705804 13.1836 4.19308 16.7695 8.4962 16.7695C9.06161 16.7695 9.62321 16.7031 10.1583 16.5859C10.8792 17.1562 11.7748 17.4961 12.7462 17.4961C15.0913 17.4961 16.9962 15.5352 16.9962 13.1211C17 12.1211 16.6699 11.1992 16.1158 10.4609ZM8.73147 14.0352C6.24219 14.0352 4.15893 12.8945 4.15893 11.4961C4.15893 10.8711 4.50045 10.3008 5.27835 10.3008C6.46228 10.3008 6.57232 12.0547 8.62143 12.0547C9.59665 12.0547 10.2266 11.6094 10.2266 11.0273C10.2266 10.2969 9.61942 10.1836 8.63281 9.93359C6.26116 9.33203 4.16272 9.07422 4.16272 6.52734C4.16272 4.21484 6.38638 3.35938 8.30268 3.35938C10.3935 3.35938 12.5071 4.21484 12.5071 5.52344C12.5071 6.18359 12.0746 6.76562 11.3574 6.76562C10.2835 6.76562 10.2493 5.45703 8.51138 5.45703C7.53616 5.45703 6.91763 5.73047 6.91763 6.33594C6.91763 7.10938 7.70692 7.1875 9.53973 7.625C11.1107 7.98828 12.9815 8.67188 12.9815 10.6562C12.9815 12.9648 10.8147 14.0352 8.73147 14.0352Z" fill="#00CACA"/>
</svg>
