<svg width="27" height="27" viewBox="0 0 27 27" fill="none" xmlns="http://www.w3.org/2000/svg">
<path d="M6.04366 27H0.445982V8.97348H6.04366V27ZM3.24181 6.5145C1.45185 6.5145 0 5.03188 0 3.24188C1.28117e-08 2.38208 0.341547 1.5575 0.949504 0.949525C1.55746 0.341554 2.38203 0 3.24181 0C4.10159 0 4.92616 0.341554 5.53411 0.949525C6.14207 1.5575 6.48362 2.38208 6.48362 3.24188C6.48362 5.03188 5.03116 6.5145 3.24181 6.5145ZM26.994 27H21.4083V18.2248C21.4083 16.1335 21.3662 13.4515 18.498 13.4515C15.5877 13.4515 15.1417 15.7236 15.1417 18.0741V27H9.55005V8.97348H14.9187V11.4325H14.9971C15.7444 10.0161 17.5699 8.52146 20.2934 8.52146C25.9586 8.52146 27 12.2521 27 17.0978V27H26.994Z" fill="#0073B1"/>
</svg>
