<svg width="32" height="33" viewBox="0 0 32 33" fill="none" xmlns="http://www.w3.org/2000/svg">
<path d="M13.9353 0.413524C10.7833 0.820508 7.82502 2.1607 5.44053 4.2619L10.5947 9.41608C12.758 6.91659 13.9445 3.71915 13.9353 0.413524ZM12.0573 10.8787L15.9999 14.8212L26.5592 4.2619C23.6428 1.69145 19.8874 0.275737 15.9999 0.281266V0.410298C16.0108 4.26461 14.6081 7.98915 12.0573 10.8787ZM18.0644 32.1522C21.2167 31.7443 24.1751 30.4029 26.5592 28.3006L21.405 23.1464C19.2413 25.6469 18.0547 28.8455 18.0644 32.1522ZM28.0192 5.7219L17.4599 16.2812L21.4024 20.2238C24.2921 17.6733 28.0165 16.2706 31.8708 16.2812H31.9998C32.0054 12.3937 30.5896 8.6383 28.0192 5.7219ZM28.0192 26.8406C30.1216 24.4565 31.4629 21.4981 31.8708 18.3457C28.5652 18.3366 25.3677 19.5231 22.8682 21.6864L28.0192 26.8406ZM19.9424 21.6838L15.9999 17.7412L5.44053 28.3006C8.35693 30.871 12.1124 32.2867 15.9999 32.2812V32.1522C15.9889 28.2978 17.3916 24.5733 19.9424 21.6838ZM3.98053 5.7219C1.87933 8.10639 0.539136 11.0647 0.132152 14.2167C3.43778 14.2259 6.63522 13.0394 9.13471 10.8761L3.98053 5.7219ZM10.5973 12.3387C7.70778 14.8895 3.98324 16.2922 0.128926 16.2812H-0.000105937C-0.00563476 20.1687 1.41008 23.9242 3.98053 26.8406L14.5399 16.2812L10.5973 12.3387Z" fill="#EA4C89"/>
<path d="M18.0646 32.1524C17.3799 32.2395 16.6903 32.2826 16.0001 32.2814V32.1524C15.9891 28.2981 17.3918 24.5735 19.9427 21.684L16.0001 17.7414L5.44075 28.3008C4.9233 27.8459 4.43563 27.3582 3.98076 26.8408L14.5401 16.2815L10.5975 12.3389C7.70801 14.8897 3.98347 16.2924 0.129154 16.2815H0.000122491C-3.52034e-05 15.5912 0.0441416 14.9016 0.13238 14.2169C3.43801 14.2261 6.63544 13.0396 9.13494 10.8763L3.98076 5.72213C4.43563 5.20467 4.9233 4.717 5.44075 4.26213L10.5949 9.41631C12.7582 6.91682 13.9447 3.71938 13.9356 0.413752C14.6202 0.325514 15.3098 0.281337 16.0001 0.281495V0.410526C16.011 4.26484 14.6083 7.98938 12.0575 10.8789L16.0001 14.8215L26.5594 4.26213C27.0769 4.717 27.5645 5.20467 28.0194 5.72213L17.4601 16.2815L21.4026 20.224C24.2923 17.6735 28.0168 16.2708 31.871 16.2815H32C32.0013 16.9717 31.9582 17.6613 31.871 18.346C28.5654 18.3368 25.3679 19.5233 22.8685 21.6866L28.0226 26.8408C27.5678 27.3582 27.0801 27.8459 26.5626 28.3008L21.4085 23.1466C19.2436 25.6466 18.0559 28.8453 18.0646 32.1524Z" fill="#CE2E6C"/>
</svg>
