<svg width="91" height="96" viewBox="0 0 91 96" fill="none" xmlns="http://www.w3.org/2000/svg">
<rect width="4.07463" height="3.6" fill="#CE2E6C" fill-opacity="0.25"/>
<rect x="10.8657" width="4.07463" height="3.6" fill="#CE2E6C" fill-opacity="0.25"/>
<rect x="21.7313" width="4.07463" height="3.6" fill="#CE2E6C" fill-opacity="0.25"/>
<rect x="32.597" width="4.07463" height="3.6" fill="#CE2E6C" fill-opacity="0.25"/>
<rect x="43.4626" width="4.07463" height="3.6" fill="#CE2E6C" fill-opacity="0.25"/>
<rect x="54.3284" width="4.07463" height="3.6" fill="#CE2E6C" fill-opacity="0.25"/>
<rect x="65.1941" width="4.07463" height="3.6" fill="#CE2E6C" fill-opacity="0.25"/>
<rect x="76.0598" width="4.07463" height="3.6" fill="#CE2E6C" fill-opacity="0.25"/>
<rect x="86.9254" width="4.07463" height="3.6" fill="#CE2E6C" fill-opacity="0.25"/>
<rect y="8.40002" width="4.07463" height="3.6" fill="#CE2E6C" fill-opacity="0.25"/>
<rect x="10.8657" y="8.40002" width="4.07463" height="3.6" fill="#CE2E6C" fill-opacity="0.25"/>
<rect x="21.7313" y="8.40002" width="4.07463" height="3.6" fill="#CE2E6C" fill-opacity="0.25"/>
<rect x="32.597" y="8.40002" width="4.07463" height="3.6" fill="#CE2E6C" fill-opacity="0.25"/>
<rect x="43.4626" y="8.40002" width="4.07463" height="3.6" fill="#CE2E6C" fill-opacity="0.25"/>
<rect x="54.3284" y="8.40002" width="4.07463" height="3.6" fill="#CE2E6C" fill-opacity="0.25"/>
<rect x="65.1941" y="8.40002" width="4.07463" height="3.6" fill="#CE2E6C" fill-opacity="0.25"/>
<rect x="76.0598" y="8.40002" width="4.07463" height="3.6" fill="#CE2E6C" fill-opacity="0.25"/>
<rect x="86.9254" y="8.40002" width="4.07463" height="3.6" fill="#CE2E6C" fill-opacity="0.25"/>
<rect y="16.8" width="4.07463" height="3.6" fill="#CE2E6C" fill-opacity="0.25"/>
<rect x="10.8657" y="16.8" width="4.07463" height="3.6" fill="#CE2E6C" fill-opacity="0.25"/>
<rect x="21.7313" y="16.8" width="4.07463" height="3.6" fill="#CE2E6C" fill-opacity="0.25"/>
<rect x="32.597" y="16.8" width="4.07463" height="3.6" fill="#CE2E6C" fill-opacity="0.25"/>
<rect x="43.4626" y="16.8" width="4.07463" height="3.6" fill="#CE2E6C" fill-opacity="0.25"/>
<rect x="54.3284" y="16.8" width="4.07463" height="3.6" fill="#CE2E6C" fill-opacity="0.25"/>
<rect x="65.1941" y="16.8" width="4.07463" height="3.6" fill="#CE2E6C" fill-opacity="0.25"/>
<rect x="76.0598" y="16.8" width="4.07463" height="3.6" fill="#CE2E6C" fill-opacity="0.25"/>
<rect x="86.9254" y="16.8" width="4.07463" height="3.6" fill="#CE2E6C" fill-opacity="0.25"/>
<rect y="25.2" width="4.07463" height="3.6" fill="#CE2E6C" fill-opacity="0.25"/>
<rect x="10.8657" y="25.2" width="4.07463" height="3.6" fill="#CE2E6C" fill-opacity="0.25"/>
<rect x="21.7313" y="25.2" width="4.07463" height="3.6" fill="#CE2E6C" fill-opacity="0.25"/>
<rect x="32.597" y="25.2" width="4.07463" height="3.6" fill="#CE2E6C" fill-opacity="0.25"/>
<rect x="43.4626" y="25.2" width="4.07463" height="3.6" fill="#CE2E6C" fill-opacity="0.25"/>
<rect x="54.3284" y="25.2" width="4.07463" height="3.6" fill="#CE2E6C" fill-opacity="0.25"/>
<rect x="65.1941" y="25.2" width="4.07463" height="3.6" fill="#CE2E6C" fill-opacity="0.25"/>
<rect x="76.0598" y="25.2" width="4.07463" height="3.6" fill="#CE2E6C" fill-opacity="0.25"/>
<rect x="86.9254" y="25.2" width="4.07463" height="3.6" fill="#CE2E6C" fill-opacity="0.25"/>
<rect y="33.6" width="4.07463" height="3.6" fill="#CE2E6C" fill-opacity="0.25"/>
<rect x="10.8657" y="33.6" width="4.07463" height="3.6" fill="#CE2E6C" fill-opacity="0.25"/>
<rect x="21.7313" y="33.6" width="4.07463" height="3.6" fill="#CE2E6C" fill-opacity="0.25"/>
<rect x="32.597" y="33.6" width="4.07463" height="3.6" fill="#CE2E6C" fill-opacity="0.25"/>
<rect x="43.4626" y="33.6" width="4.07463" height="3.6" fill="#CE2E6C" fill-opacity="0.25"/>
<rect x="54.3284" y="33.6" width="4.07463" height="3.6" fill="#CE2E6C" fill-opacity="0.25"/>
<rect x="65.1941" y="33.6" width="4.07463" height="3.6" fill="#CE2E6C" fill-opacity="0.25"/>
<rect x="76.0598" y="33.6" width="4.07463" height="3.6" fill="#CE2E6C" fill-opacity="0.25"/>
<rect x="86.9254" y="33.6" width="4.07463" height="3.6" fill="#CE2E6C" fill-opacity="0.25"/>
<rect y="42" width="4.07463" height="3.6" fill="#CE2E6C" fill-opacity="0.25"/>
<rect x="10.8657" y="42" width="4.07463" height="3.6" fill="#CE2E6C" fill-opacity="0.25"/>
<rect x="21.7313" y="42" width="4.07463" height="3.6" fill="#CE2E6C" fill-opacity="0.25"/>
<rect x="32.597" y="42" width="4.07463" height="3.6" fill="#CE2E6C" fill-opacity="0.25"/>
<rect x="43.4626" y="42" width="4.07463" height="3.6" fill="#CE2E6C" fill-opacity="0.25"/>
<rect x="54.3284" y="42" width="4.07463" height="3.6" fill="#CE2E6C" fill-opacity="0.25"/>
<rect x="65.1941" y="42" width="4.07463" height="3.6" fill="#CE2E6C" fill-opacity="0.25"/>
<rect x="76.0598" y="42" width="4.07463" height="3.6" fill="#CE2E6C" fill-opacity="0.25"/>
<rect x="86.9254" y="42" width="4.07463" height="3.6" fill="#CE2E6C" fill-opacity="0.25"/>
<rect y="50.4" width="4.07463" height="3.6" fill="#CE2E6C" fill-opacity="0.25"/>
<rect x="10.8657" y="50.4" width="4.07463" height="3.6" fill="#CE2E6C" fill-opacity="0.25"/>
<rect x="21.7313" y="50.4" width="4.07463" height="3.6" fill="#CE2E6C" fill-opacity="0.25"/>
<rect x="32.597" y="50.4" width="4.07463" height="3.6" fill="#CE2E6C" fill-opacity="0.25"/>
<rect x="43.4626" y="50.4" width="4.07463" height="3.6" fill="#CE2E6C" fill-opacity="0.25"/>
<rect x="54.3284" y="50.4" width="4.07463" height="3.6" fill="#CE2E6C" fill-opacity="0.25"/>
<rect x="65.1941" y="50.4" width="4.07463" height="3.6" fill="#CE2E6C" fill-opacity="0.25"/>
<rect x="76.0598" y="50.4" width="4.07463" height="3.6" fill="#CE2E6C" fill-opacity="0.25"/>
<rect x="86.9254" y="50.4" width="4.07463" height="3.6" fill="#CE2E6C" fill-opacity="0.25"/>
<rect y="58.8" width="4.07463" height="3.6" fill="#CE2E6C" fill-opacity="0.25"/>
<rect x="10.8657" y="58.8" width="4.07463" height="3.6" fill="#CE2E6C" fill-opacity="0.25"/>
<rect x="21.7313" y="58.8" width="4.07463" height="3.6" fill="#CE2E6C" fill-opacity="0.25"/>
<rect x="32.597" y="58.8" width="4.07463" height="3.6" fill="#CE2E6C" fill-opacity="0.25"/>
<rect x="43.4626" y="58.8" width="4.07463" height="3.6" fill="#CE2E6C" fill-opacity="0.25"/>
<rect x="54.3284" y="58.8" width="4.07463" height="3.6" fill="#CE2E6C" fill-opacity="0.25"/>
<rect x="65.1941" y="58.8" width="4.07463" height="3.6" fill="#CE2E6C" fill-opacity="0.25"/>
<rect x="76.0598" y="58.8" width="4.07463" height="3.6" fill="#CE2E6C" fill-opacity="0.25"/>
<rect x="86.9254" y="58.8" width="4.07463" height="3.6" fill="#CE2E6C" fill-opacity="0.25"/>
<rect y="67.2" width="4.07463" height="3.6" fill="#CE2E6C" fill-opacity="0.25"/>
<rect x="10.8657" y="67.2" width="4.07463" height="3.6" fill="#CE2E6C" fill-opacity="0.25"/>
<rect x="21.7313" y="67.2" width="4.07463" height="3.6" fill="#CE2E6C" fill-opacity="0.25"/>
<rect x="32.597" y="67.2" width="4.07463" height="3.6" fill="#CE2E6C" fill-opacity="0.25"/>
<rect x="43.4626" y="67.2" width="4.07463" height="3.6" fill="#CE2E6C" fill-opacity="0.25"/>
<rect x="54.3284" y="67.2" width="4.07463" height="3.6" fill="#CE2E6C" fill-opacity="0.25"/>
<rect x="65.1941" y="67.2" width="4.07463" height="3.6" fill="#CE2E6C" fill-opacity="0.25"/>
<rect x="76.0598" y="67.2" width="4.07463" height="3.6" fill="#CE2E6C" fill-opacity="0.25"/>
<rect x="86.9254" y="67.2" width="4.07463" height="3.6" fill="#CE2E6C" fill-opacity="0.25"/>
<rect y="75.6" width="4.07463" height="3.6" fill="#CE2E6C" fill-opacity="0.25"/>
<rect x="10.8657" y="75.6" width="4.07463" height="3.6" fill="#CE2E6C" fill-opacity="0.25"/>
<rect x="21.7313" y="75.6" width="4.07463" height="3.6" fill="#CE2E6C" fill-opacity="0.25"/>
<rect x="32.597" y="75.6" width="4.07463" height="3.6" fill="#CE2E6C" fill-opacity="0.25"/>
<rect x="43.4626" y="75.6" width="4.07463" height="3.6" fill="#CE2E6C" fill-opacity="0.25"/>
<rect x="54.3284" y="75.6" width="4.07463" height="3.6" fill="#CE2E6C" fill-opacity="0.25"/>
<rect x="65.1941" y="75.6" width="4.07463" height="3.6" fill="#CE2E6C" fill-opacity="0.25"/>
<rect x="76.0598" y="75.6" width="4.07463" height="3.6" fill="#CE2E6C" fill-opacity="0.25"/>
<rect x="86.9254" y="75.6" width="4.07463" height="3.6" fill="#CE2E6C" fill-opacity="0.25"/>
<rect y="84" width="4.07463" height="3.6" fill="#CE2E6C" fill-opacity="0.25"/>
<rect x="10.8657" y="84" width="4.07463" height="3.6" fill="#CE2E6C" fill-opacity="0.25"/>
<rect x="21.7313" y="84" width="4.07463" height="3.6" fill="#CE2E6C" fill-opacity="0.25"/>
<rect x="32.597" y="84" width="4.07463" height="3.6" fill="#CE2E6C" fill-opacity="0.25"/>
<rect x="43.4626" y="84" width="4.07463" height="3.6" fill="#CE2E6C" fill-opacity="0.25"/>
<rect x="54.3284" y="84" width="4.07463" height="3.6" fill="#CE2E6C" fill-opacity="0.25"/>
<rect x="65.1941" y="84" width="4.07463" height="3.6" fill="#CE2E6C" fill-opacity="0.25"/>
<rect x="76.0598" y="84" width="4.07463" height="3.6" fill="#CE2E6C" fill-opacity="0.25"/>
<rect x="86.9254" y="84" width="4.07463" height="3.6" fill="#CE2E6C" fill-opacity="0.25"/>
<rect y="92.4" width="4.07463" height="3.6" fill="#CE2E6C" fill-opacity="0.25"/>
<rect x="10.8657" y="92.4" width="4.07463" height="3.6" fill="#CE2E6C" fill-opacity="0.25"/>
<rect x="21.7313" y="92.4" width="4.07463" height="3.6" fill="#CE2E6C" fill-opacity="0.25"/>
<rect x="32.597" y="92.4" width="4.07463" height="3.6" fill="#CE2E6C" fill-opacity="0.25"/>
<rect x="43.4626" y="92.4" width="4.07463" height="3.6" fill="#CE2E6C" fill-opacity="0.25"/>
<rect x="54.3284" y="92.4" width="4.07463" height="3.6" fill="#CE2E6C" fill-opacity="0.25"/>
<rect x="65.1941" y="92.4" width="4.07463" height="3.6" fill="#CE2E6C" fill-opacity="0.25"/>
<rect x="76.0598" y="92.4" width="4.07463" height="3.6" fill="#CE2E6C" fill-opacity="0.25"/>
<rect x="86.9254" y="92.4" width="4.07463" height="3.6" fill="#CE2E6C" fill-opacity="0.25"/>
</svg>
