<svg width="1413" height="828" viewBox="0 0 1413 828" fill="none" xmlns="http://www.w3.org/2000/svg">
<path d="M728.613 727.277C729.66 725.995 731.275 725.314 732.925 725.46L757.548 727.637C761.52 727.988 763.503 732.619 761.016 735.736L713.423 795.377C712.377 796.687 710.744 797.386 709.074 797.239L683.405 794.969C679.407 794.616 677.434 789.934 679.973 786.825L728.613 727.277Z" fill="#FC840D" fill-opacity="0.1"/>
<path d="M346.613 689.277C347.66 687.995 349.275 687.314 350.925 687.46L375.548 689.637C379.52 689.988 381.503 694.619 379.016 697.736L331.423 757.377C330.377 758.687 328.744 759.386 327.074 759.239L301.405 756.969C297.407 756.616 295.434 751.934 297.973 748.825L346.613 689.277Z" fill="#07C5D0" fill-opacity="0.1"/>
<path d="M894 484C894 539.702 873.338 593.424 836.013 634.77C798.688 676.116 747.353 702.148 691.942 707.827L684.932 639.442C723.414 635.498 759.065 617.42 784.986 588.706C810.908 559.992 825.257 522.683 825.257 484H894Z" fill="#CE2E6C" fill-opacity="0.1"/>
<path d="M669 259C638.416 259 608.152 265.235 580.059 277.325C551.966 289.415 526.632 307.105 505.606 329.316C484.579 351.526 468.302 377.79 457.768 406.503C447.233 435.215 442.663 465.775 444.337 496.313C446.011 526.852 453.893 556.728 467.502 584.118C481.111 611.508 500.162 635.835 523.489 655.615C546.817 675.394 573.932 690.21 603.178 699.157C632.425 708.104 663.188 710.995 693.589 707.652L686.011 638.72C664.98 641.032 643.698 639.032 623.465 632.843C603.233 626.653 584.475 616.404 568.337 602.721C552.2 589.038 539.021 572.208 529.606 553.26C520.192 534.313 514.739 513.644 513.581 492.518C512.423 471.392 515.585 450.251 522.872 430.388C530.159 410.525 541.42 392.356 555.966 376.991C570.512 361.626 588.037 349.388 607.472 341.025C626.906 332.661 647.842 328.348 669 328.348V259Z" fill="#00CACA" fill-opacity="0.1"/>
<path d="M669 259C698.547 259 727.806 264.82 755.104 276.127C782.402 287.434 807.206 304.008 828.099 324.901C848.992 345.794 865.566 370.598 876.873 397.896C888.18 425.195 894 454.453 894 484L806.016 484C806.016 466.007 802.472 448.19 795.586 431.566C788.7 414.943 778.608 399.838 765.885 387.115C753.162 374.392 738.057 364.3 721.434 357.414C704.81 350.528 686.993 346.984 669 346.984V259Z" fill="#FC840D" fill-opacity="0.1"/>
<rect x="560" y="461" width="20" height="20" fill="#CE2E6C" fill-opacity="0.1"/>
<path d="M596.448 477H588.063V475.831L592.493 470.909C593.149 470.165 593.601 469.562 593.847 469.099C594.099 468.63 594.225 468.146 594.225 467.648C594.225 466.98 594.022 466.433 593.618 466.005C593.214 465.577 592.675 465.363 592.001 465.363C591.192 465.363 590.562 465.595 590.111 466.058C589.666 466.515 589.443 467.153 589.443 467.974H587.817C587.817 466.796 588.195 465.844 588.951 465.117C589.713 464.391 590.729 464.027 592.001 464.027C593.19 464.027 594.131 464.341 594.822 464.968C595.514 465.589 595.859 466.418 595.859 467.455C595.859 468.715 595.057 470.215 593.451 471.955L590.023 475.673H596.448V477ZM606.433 465.117L601.133 477H599.428L604.71 465.539H597.784V464.203H606.433V465.117ZM608.138 466.664C608.138 465.896 608.381 465.264 608.867 464.766C609.359 464.268 609.989 464.019 610.757 464.019C611.536 464.019 612.166 464.271 612.646 464.774C613.133 465.272 613.376 465.92 613.376 466.717V467.341C613.376 468.114 613.13 468.747 612.638 469.239C612.151 469.726 611.53 469.969 610.774 469.969C610.013 469.969 609.383 469.726 608.885 469.239C608.387 468.747 608.138 468.094 608.138 467.279V466.664ZM609.351 467.341C609.351 467.798 609.479 468.176 609.737 468.475C609.995 468.768 610.341 468.914 610.774 468.914C611.19 468.914 611.524 468.771 611.776 468.483C612.034 468.196 612.163 467.804 612.163 467.306V466.664C612.163 466.207 612.037 465.829 611.785 465.53C611.533 465.231 611.19 465.082 610.757 465.082C610.323 465.082 609.98 465.231 609.729 465.53C609.477 465.829 609.351 466.219 609.351 466.699V467.341ZM614.369 473.862C614.369 473.095 614.612 472.465 615.099 471.973C615.591 471.475 616.221 471.226 616.988 471.226C617.756 471.226 618.386 471.472 618.878 471.964C619.37 472.456 619.616 473.109 619.616 473.924V474.548C619.616 475.315 619.37 475.948 618.878 476.446C618.392 476.938 617.768 477.185 617.006 477.185C616.244 477.185 615.614 476.941 615.116 476.455C614.618 475.963 614.369 475.31 614.369 474.495V473.862ZM615.582 474.548C615.582 475.011 615.711 475.392 615.969 475.69C616.227 475.983 616.572 476.13 617.006 476.13C617.428 476.13 617.765 475.986 618.017 475.699C618.269 475.406 618.395 475.011 618.395 474.513V473.862C618.395 473.399 618.266 473.021 618.008 472.729C617.756 472.436 617.416 472.289 616.988 472.289C616.572 472.289 616.232 472.436 615.969 472.729C615.711 473.016 615.582 473.405 615.582 473.897V474.548ZM611.144 476.033L610.221 475.453L616.47 465.451L617.393 466.031L611.144 476.033ZM628.036 471.99V477H626.349V464.203H631.068C632.469 464.203 633.564 464.561 634.355 465.275C635.152 465.99 635.551 466.937 635.551 468.114C635.551 469.356 635.161 470.314 634.382 470.988C633.608 471.656 632.498 471.99 631.051 471.99H628.036ZM628.036 470.61H631.068C631.971 470.61 632.662 470.399 633.143 469.978C633.623 469.55 633.863 468.935 633.863 468.132C633.863 467.37 633.623 466.761 633.143 466.304C632.662 465.847 632.003 465.609 631.165 465.592H628.036V470.61ZM642.046 468.949C641.8 468.908 641.533 468.888 641.246 468.888C640.18 468.888 639.456 469.342 639.075 470.25V477H637.449V467.49H639.031L639.058 468.589C639.591 467.739 640.347 467.314 641.325 467.314C641.642 467.314 641.882 467.355 642.046 467.438V468.949ZM642.942 472.157C642.942 471.226 643.124 470.388 643.487 469.644C643.856 468.899 644.366 468.325 645.017 467.921C645.673 467.517 646.42 467.314 647.258 467.314C648.553 467.314 649.599 467.763 650.396 468.659C651.198 469.556 651.6 470.748 651.6 472.236V472.351C651.6 473.276 651.421 474.108 651.063 474.847C650.712 475.579 650.205 476.15 649.543 476.561C648.887 476.971 648.131 477.176 647.275 477.176C645.986 477.176 644.94 476.728 644.138 475.831C643.341 474.935 642.942 473.748 642.942 472.271V472.157ZM644.577 472.351C644.577 473.405 644.82 474.252 645.307 474.891C645.799 475.529 646.455 475.849 647.275 475.849C648.102 475.849 648.758 475.526 649.244 474.882C649.73 474.231 649.974 473.323 649.974 472.157C649.974 471.114 649.725 470.271 649.227 469.626C648.734 468.976 648.078 468.65 647.258 468.65C646.455 468.65 645.808 468.97 645.315 469.608C644.823 470.247 644.577 471.161 644.577 472.351ZM655.845 465.188V467.49H657.62V468.747H655.845V474.645C655.845 475.025 655.924 475.312 656.082 475.506C656.24 475.693 656.51 475.787 656.891 475.787C657.078 475.787 657.336 475.752 657.664 475.682V477C657.236 477.117 656.82 477.176 656.416 477.176C655.689 477.176 655.142 476.956 654.772 476.517C654.403 476.077 654.219 475.453 654.219 474.645V468.747H652.487V467.49H654.219V465.188H655.845ZM658.921 472.157C658.921 471.226 659.103 470.388 659.466 469.644C659.835 468.899 660.345 468.325 660.995 467.921C661.651 467.517 662.398 467.314 663.236 467.314C664.531 467.314 665.577 467.763 666.374 468.659C667.177 469.556 667.578 470.748 667.578 472.236V472.351C667.578 473.276 667.399 474.108 667.042 474.847C666.69 475.579 666.184 476.15 665.521 476.561C664.865 476.971 664.109 477.176 663.254 477.176C661.965 477.176 660.919 476.728 660.116 475.831C659.319 474.935 658.921 473.748 658.921 472.271V472.157ZM660.556 472.351C660.556 473.405 660.799 474.252 661.285 474.891C661.777 475.529 662.434 475.849 663.254 475.849C664.08 475.849 664.736 475.526 665.223 474.882C665.709 474.231 665.952 473.323 665.952 472.157C665.952 471.114 665.703 470.271 665.205 469.626C664.713 468.976 664.057 468.65 663.236 468.65C662.434 468.65 661.786 468.97 661.294 469.608C660.802 470.247 660.556 471.161 660.556 472.351ZM671.823 465.188V467.49H673.599V468.747H671.823V474.645C671.823 475.025 671.902 475.312 672.061 475.506C672.219 475.693 672.488 475.787 672.869 475.787C673.057 475.787 673.314 475.752 673.643 475.682V477C673.215 477.117 672.799 477.176 672.395 477.176C671.668 477.176 671.12 476.956 670.751 476.517C670.382 476.077 670.197 475.453 670.197 474.645V468.747H668.466V467.49H670.197V465.188H671.823ZM677.272 477H675.646V467.49H677.272V477ZM675.515 464.968C675.515 464.704 675.594 464.481 675.752 464.3C675.916 464.118 676.156 464.027 676.473 464.027C676.789 464.027 677.029 464.118 677.193 464.3C677.357 464.481 677.439 464.704 677.439 464.968C677.439 465.231 677.357 465.451 677.193 465.627C677.029 465.803 676.789 465.891 676.473 465.891C676.156 465.891 675.916 465.803 675.752 465.627C675.594 465.451 675.515 465.231 675.515 464.968ZM687.916 472.351C687.916 473.798 687.585 474.964 686.923 475.849C686.261 476.733 685.364 477.176 684.233 477.176C683.079 477.176 682.171 476.81 681.509 476.077V480.656H679.883V467.49H681.368L681.447 468.545C682.109 467.725 683.029 467.314 684.207 467.314C685.35 467.314 686.252 467.745 686.914 468.606C687.582 469.468 687.916 470.666 687.916 472.201V472.351ZM686.29 472.166C686.29 471.094 686.062 470.247 685.604 469.626C685.147 469.005 684.521 468.694 683.724 468.694C682.739 468.694 682.001 469.131 681.509 470.004V474.548C681.995 475.415 682.739 475.849 683.741 475.849C684.521 475.849 685.139 475.541 685.596 474.926C686.059 474.305 686.29 473.385 686.29 472.166ZM693.937 477.176C692.647 477.176 691.599 476.754 690.79 475.91C689.981 475.061 689.577 473.927 689.577 472.509V472.21C689.577 471.267 689.756 470.426 690.113 469.688C690.477 468.943 690.98 468.363 691.625 467.947C692.275 467.525 692.979 467.314 693.734 467.314C694.971 467.314 695.932 467.722 696.617 468.536C697.303 469.351 697.646 470.517 697.646 472.034V472.711H691.203C691.227 473.648 691.499 474.407 692.021 474.987C692.548 475.562 693.216 475.849 694.024 475.849C694.599 475.849 695.085 475.731 695.483 475.497C695.882 475.263 696.23 474.952 696.529 474.565L697.522 475.339C696.726 476.563 695.53 477.176 693.937 477.176ZM693.734 468.65C693.078 468.65 692.527 468.891 692.082 469.371C691.637 469.846 691.361 470.514 691.256 471.375H696.02V471.252C695.973 470.426 695.75 469.787 695.352 469.336C694.953 468.879 694.414 468.65 693.734 468.65Z" fill="black" fill-opacity="0.1"/>
<rect x="560" y="490" width="20" height="20" fill="#00CACA" fill-opacity="0.1"/>
<path d="M588.811 499.584L589.461 493.203H596.018V494.706H590.841L590.454 498.195C591.081 497.826 591.793 497.642 592.59 497.642C593.756 497.642 594.682 498.028 595.367 498.802C596.053 499.569 596.396 500.609 596.396 501.922C596.396 503.24 596.038 504.28 595.323 505.042C594.614 505.798 593.621 506.176 592.344 506.176C591.213 506.176 590.29 505.862 589.575 505.235C588.86 504.608 588.453 503.741 588.354 502.634H589.892C589.991 503.366 590.252 503.92 590.674 504.295C591.096 504.664 591.652 504.849 592.344 504.849C593.1 504.849 593.691 504.591 594.119 504.075C594.553 503.56 594.77 502.848 594.77 501.939C594.77 501.084 594.535 500.398 594.066 499.883C593.604 499.361 592.985 499.101 592.212 499.101C591.503 499.101 590.946 499.256 590.542 499.566L590.111 499.918L588.811 499.584ZM606.195 500.542C606.195 502.446 605.87 503.861 605.22 504.787C604.569 505.713 603.553 506.176 602.17 506.176C600.805 506.176 599.794 505.725 599.138 504.822C598.481 503.914 598.142 502.561 598.118 500.762V498.591C598.118 496.71 598.443 495.312 599.094 494.398C599.744 493.484 600.764 493.027 602.152 493.027C603.529 493.027 604.543 493.47 605.193 494.354C605.844 495.233 606.178 496.593 606.195 498.433V500.542ZM604.569 498.318C604.569 496.941 604.376 495.939 603.989 495.312C603.603 494.68 602.99 494.363 602.152 494.363C601.32 494.363 600.714 494.677 600.333 495.304C599.952 495.931 599.756 496.895 599.744 498.195V500.797C599.744 502.18 599.943 503.202 600.342 503.864C600.746 504.521 601.355 504.849 602.17 504.849C602.973 504.849 603.567 504.538 603.954 503.917C604.347 503.296 604.552 502.317 604.569 500.981V498.318ZM608.138 495.664C608.138 494.896 608.381 494.264 608.867 493.766C609.359 493.268 609.989 493.019 610.757 493.019C611.536 493.019 612.166 493.271 612.646 493.774C613.133 494.272 613.376 494.92 613.376 495.717V496.341C613.376 497.114 613.13 497.747 612.638 498.239C612.151 498.726 611.53 498.969 610.774 498.969C610.013 498.969 609.383 498.726 608.885 498.239C608.387 497.747 608.138 497.094 608.138 496.279V495.664ZM609.351 496.341C609.351 496.798 609.479 497.176 609.737 497.475C609.995 497.768 610.341 497.914 610.774 497.914C611.19 497.914 611.524 497.771 611.776 497.483C612.034 497.196 612.163 496.804 612.163 496.306V495.664C612.163 495.207 612.037 494.829 611.785 494.53C611.533 494.231 611.19 494.082 610.757 494.082C610.323 494.082 609.98 494.231 609.729 494.53C609.477 494.829 609.351 495.219 609.351 495.699V496.341ZM614.369 502.862C614.369 502.095 614.612 501.465 615.099 500.973C615.591 500.475 616.221 500.226 616.988 500.226C617.756 500.226 618.386 500.472 618.878 500.964C619.37 501.456 619.616 502.109 619.616 502.924V503.548C619.616 504.315 619.37 504.948 618.878 505.446C618.392 505.938 617.768 506.185 617.006 506.185C616.244 506.185 615.614 505.941 615.116 505.455C614.618 504.963 614.369 504.31 614.369 503.495V502.862ZM615.582 503.548C615.582 504.011 615.711 504.392 615.969 504.69C616.227 504.983 616.572 505.13 617.006 505.13C617.428 505.13 617.765 504.986 618.017 504.699C618.269 504.406 618.395 504.011 618.395 503.513V502.862C618.395 502.399 618.266 502.021 618.008 501.729C617.756 501.436 617.416 501.289 616.988 501.289C616.572 501.289 616.232 501.436 615.969 501.729C615.711 502.016 615.582 502.405 615.582 502.897V503.548ZM611.144 505.033L610.221 504.453L616.47 494.451L617.393 495.031L611.144 505.033ZM626.349 506V493.203H629.961C631.074 493.203 632.059 493.449 632.914 493.941C633.77 494.434 634.429 495.134 634.892 496.042C635.36 496.95 635.598 497.993 635.604 499.171V499.988C635.604 501.195 635.369 502.253 634.9 503.161C634.438 504.069 633.772 504.767 632.905 505.253C632.044 505.739 631.039 505.988 629.891 506H626.349ZM628.036 494.592V504.62H629.812C631.112 504.62 632.123 504.216 632.844 503.407C633.57 502.599 633.934 501.447 633.934 499.953V499.206C633.934 497.753 633.591 496.625 632.905 495.822C632.226 495.014 631.259 494.604 630.005 494.592H628.036ZM641.853 506.176C640.563 506.176 639.515 505.754 638.706 504.91C637.897 504.061 637.493 502.927 637.493 501.509V501.21C637.493 500.267 637.672 499.426 638.029 498.688C638.393 497.943 638.896 497.363 639.541 496.947C640.191 496.525 640.895 496.314 641.65 496.314C642.887 496.314 643.848 496.722 644.533 497.536C645.219 498.351 645.562 499.517 645.562 501.034V501.711H639.119C639.143 502.648 639.415 503.407 639.937 503.987C640.464 504.562 641.132 504.849 641.94 504.849C642.515 504.849 643.001 504.731 643.399 504.497C643.798 504.263 644.146 503.952 644.445 503.565L645.438 504.339C644.642 505.563 643.446 506.176 641.853 506.176ZM641.65 497.65C640.994 497.65 640.443 497.891 639.998 498.371C639.553 498.846 639.277 499.514 639.172 500.375H643.936V500.252C643.889 499.426 643.666 498.787 643.268 498.336C642.869 497.879 642.33 497.65 641.65 497.65ZM650.466 503.794L652.821 496.49H654.482L651.072 506H649.833L646.388 496.49H648.049L650.466 503.794ZM659.87 506.176C658.581 506.176 657.532 505.754 656.724 504.91C655.915 504.061 655.511 502.927 655.511 501.509V501.21C655.511 500.267 655.689 499.426 656.047 498.688C656.41 497.943 656.914 497.363 657.559 496.947C658.209 496.525 658.912 496.314 659.668 496.314C660.904 496.314 661.865 496.722 662.551 497.536C663.236 498.351 663.579 499.517 663.579 501.034V501.711H657.137C657.16 502.648 657.433 503.407 657.954 503.987C658.481 504.562 659.149 504.849 659.958 504.849C660.532 504.849 661.019 504.731 661.417 504.497C661.815 504.263 662.164 503.952 662.463 503.565L663.456 504.339C662.659 505.563 661.464 506.176 659.87 506.176ZM659.668 497.65C659.012 497.65 658.461 497.891 658.016 498.371C657.57 498.846 657.295 499.514 657.189 500.375H661.953V500.252C661.906 499.426 661.684 498.787 661.285 498.336C660.887 497.879 660.348 497.65 659.668 497.65ZM667.235 506H665.609V492.5H667.235V506ZM669.415 501.157C669.415 500.226 669.597 499.388 669.96 498.644C670.329 497.899 670.839 497.325 671.489 496.921C672.146 496.517 672.893 496.314 673.73 496.314C675.025 496.314 676.071 496.763 676.868 497.659C677.671 498.556 678.072 499.748 678.072 501.236V501.351C678.072 502.276 677.894 503.108 677.536 503.847C677.185 504.579 676.678 505.15 676.016 505.561C675.359 505.971 674.604 506.176 673.748 506.176C672.459 506.176 671.413 505.728 670.61 504.831C669.813 503.935 669.415 502.748 669.415 501.271V501.157ZM671.05 501.351C671.05 502.405 671.293 503.252 671.779 503.891C672.271 504.529 672.928 504.849 673.748 504.849C674.574 504.849 675.23 504.526 675.717 503.882C676.203 503.231 676.446 502.323 676.446 501.157C676.446 500.114 676.197 499.271 675.699 498.626C675.207 497.976 674.551 497.65 673.73 497.65C672.928 497.65 672.28 497.97 671.788 498.608C671.296 499.247 671.05 500.161 671.05 501.351ZM688.145 501.351C688.145 502.798 687.813 503.964 687.151 504.849C686.489 505.733 685.593 506.176 684.462 506.176C683.308 506.176 682.399 505.81 681.737 505.077V509.656H680.111V496.49H681.597L681.676 497.545C682.338 496.725 683.258 496.314 684.436 496.314C685.578 496.314 686.48 496.745 687.143 497.606C687.811 498.468 688.145 499.666 688.145 501.201V501.351ZM686.519 501.166C686.519 500.094 686.29 499.247 685.833 498.626C685.376 498.005 684.749 497.694 683.952 497.694C682.968 497.694 682.229 498.131 681.737 499.004V503.548C682.224 504.415 682.968 504.849 683.97 504.849C684.749 504.849 685.367 504.541 685.824 503.926C686.287 503.305 686.519 502.385 686.519 501.166ZM691.748 496.49L691.792 497.545C692.489 496.725 693.43 496.314 694.613 496.314C695.943 496.314 696.849 496.824 697.329 497.844C697.646 497.387 698.056 497.018 698.56 496.736C699.069 496.455 699.67 496.314 700.361 496.314C702.447 496.314 703.508 497.419 703.543 499.628V506H701.917V499.725C701.917 499.045 701.762 498.538 701.451 498.204C701.141 497.864 700.619 497.694 699.887 497.694C699.283 497.694 698.782 497.876 698.384 498.239C697.985 498.597 697.754 499.08 697.689 499.689V506H696.055V499.769C696.055 498.386 695.378 497.694 694.024 497.694C692.958 497.694 692.229 498.148 691.836 499.057V506H690.21V496.49H691.748ZM709.95 506.176C708.661 506.176 707.612 505.754 706.804 504.91C705.995 504.061 705.591 502.927 705.591 501.509V501.21C705.591 500.267 705.77 499.426 706.127 498.688C706.49 497.943 706.994 497.363 707.639 496.947C708.289 496.525 708.992 496.314 709.748 496.314C710.984 496.314 711.945 496.722 712.631 497.536C713.316 498.351 713.659 499.517 713.659 501.034V501.711H707.217C707.24 502.648 707.513 503.407 708.034 503.987C708.562 504.562 709.229 504.849 710.038 504.849C710.612 504.849 711.099 504.731 711.497 504.497C711.896 504.263 712.244 503.952 712.543 503.565L713.536 504.339C712.739 505.563 711.544 506.176 709.95 506.176ZM709.748 497.65C709.092 497.65 708.541 497.891 708.096 498.371C707.65 498.846 707.375 499.514 707.27 500.375H712.033V500.252C711.986 499.426 711.764 498.787 711.365 498.336C710.967 497.879 710.428 497.65 709.748 497.65ZM717.087 496.49L717.14 497.686C717.866 496.771 718.815 496.314 719.987 496.314C721.997 496.314 723.011 497.448 723.028 499.716V506H721.402V499.707C721.396 499.021 721.238 498.515 720.928 498.187C720.623 497.858 720.146 497.694 719.495 497.694C718.968 497.694 718.505 497.835 718.106 498.116C717.708 498.397 717.397 498.767 717.175 499.224V506H715.549V496.49H717.087ZM727.687 494.188V496.49H729.462V497.747H727.687V503.645C727.687 504.025 727.766 504.312 727.924 504.506C728.082 504.693 728.352 504.787 728.732 504.787C728.92 504.787 729.178 504.752 729.506 504.682V506C729.078 506.117 728.662 506.176 728.258 506.176C727.531 506.176 726.983 505.956 726.614 505.517C726.245 505.077 726.061 504.453 726.061 503.645V497.747H724.329V496.49H726.061V494.188H727.687Z" fill="black" fill-opacity="0.1"/>
<rect x="560" y="433" width="20" height="20" fill="#FC840D" fill-opacity="0.1"/>
<path d="M596.448 449H588.063V447.831L592.493 442.909C593.149 442.165 593.601 441.562 593.847 441.099C594.099 440.63 594.225 440.146 594.225 439.648C594.225 438.98 594.022 438.433 593.618 438.005C593.214 437.577 592.675 437.363 592.001 437.363C591.192 437.363 590.562 437.595 590.111 438.058C589.666 438.515 589.443 439.153 589.443 439.974H587.817C587.817 438.796 588.195 437.844 588.951 437.117C589.713 436.391 590.729 436.027 592.001 436.027C593.19 436.027 594.131 436.341 594.822 436.968C595.514 437.589 595.859 438.418 595.859 439.455C595.859 440.715 595.057 442.215 593.451 443.955L590.023 447.673H596.448V449ZM600.535 441.811H601.757C602.524 441.799 603.128 441.597 603.567 441.204C604.007 440.812 604.227 440.281 604.227 439.613C604.227 438.113 603.479 437.363 601.985 437.363C601.282 437.363 600.72 437.565 600.298 437.97C599.882 438.368 599.674 438.898 599.674 439.561H598.048C598.048 438.547 598.417 437.706 599.155 437.038C599.899 436.364 600.843 436.027 601.985 436.027C603.192 436.027 604.139 436.347 604.824 436.985C605.51 437.624 605.853 438.512 605.853 439.648C605.853 440.205 605.671 440.744 605.308 441.266C604.95 441.787 604.461 442.177 603.84 442.435C604.543 442.657 605.085 443.026 605.466 443.542C605.853 444.058 606.046 444.688 606.046 445.432C606.046 446.58 605.671 447.491 604.921 448.165C604.171 448.839 603.195 449.176 601.994 449.176C600.793 449.176 599.814 448.851 599.059 448.2C598.309 447.55 597.934 446.691 597.934 445.625H599.568C599.568 446.299 599.788 446.838 600.228 447.242C600.667 447.646 601.256 447.849 601.994 447.849C602.779 447.849 603.38 447.644 603.796 447.233C604.212 446.823 604.42 446.234 604.42 445.467C604.42 444.723 604.191 444.151 603.734 443.753C603.277 443.354 602.618 443.149 601.757 443.138H600.535V441.811ZM608.138 438.664C608.138 437.896 608.381 437.264 608.867 436.766C609.359 436.268 609.989 436.019 610.757 436.019C611.536 436.019 612.166 436.271 612.646 436.774C613.133 437.272 613.376 437.92 613.376 438.717V439.341C613.376 440.114 613.13 440.747 612.638 441.239C612.151 441.726 611.53 441.969 610.774 441.969C610.013 441.969 609.383 441.726 608.885 441.239C608.387 440.747 608.138 440.094 608.138 439.279V438.664ZM609.351 439.341C609.351 439.798 609.479 440.176 609.737 440.475C609.995 440.768 610.341 440.914 610.774 440.914C611.19 440.914 611.524 440.771 611.776 440.483C612.034 440.196 612.163 439.804 612.163 439.306V438.664C612.163 438.207 612.037 437.829 611.785 437.53C611.533 437.231 611.19 437.082 610.757 437.082C610.323 437.082 609.98 437.231 609.729 437.53C609.477 437.829 609.351 438.219 609.351 438.699V439.341ZM614.369 445.862C614.369 445.095 614.612 444.465 615.099 443.973C615.591 443.475 616.221 443.226 616.988 443.226C617.756 443.226 618.386 443.472 618.878 443.964C619.37 444.456 619.616 445.109 619.616 445.924V446.548C619.616 447.315 619.37 447.948 618.878 448.446C618.392 448.938 617.768 449.185 617.006 449.185C616.244 449.185 615.614 448.941 615.116 448.455C614.618 447.963 614.369 447.31 614.369 446.495V445.862ZM615.582 446.548C615.582 447.011 615.711 447.392 615.969 447.69C616.227 447.983 616.572 448.13 617.006 448.13C617.428 448.13 617.765 447.986 618.017 447.699C618.269 447.406 618.395 447.011 618.395 446.513V445.862C618.395 445.399 618.266 445.021 618.008 444.729C617.756 444.436 617.416 444.289 616.988 444.289C616.572 444.289 616.232 444.436 615.969 444.729C615.711 445.016 615.582 445.405 615.582 445.897V446.548ZM611.144 448.033L610.221 447.453L616.47 437.451L617.393 438.031L611.144 448.033ZM626.349 449V436.203H629.961C631.074 436.203 632.059 436.449 632.914 436.941C633.77 437.434 634.429 438.134 634.892 439.042C635.36 439.95 635.598 440.993 635.604 442.171V442.988C635.604 444.195 635.369 445.253 634.9 446.161C634.438 447.069 633.772 447.767 632.905 448.253C632.044 448.739 631.039 448.988 629.891 449H626.349ZM628.036 437.592V447.62H629.812C631.112 447.62 632.123 447.216 632.844 446.407C633.57 445.599 633.934 444.447 633.934 442.953V442.206C633.934 440.753 633.591 439.625 632.905 438.822C632.226 438.014 631.259 437.604 630.005 437.592H628.036ZM641.853 449.176C640.563 449.176 639.515 448.754 638.706 447.91C637.897 447.061 637.493 445.927 637.493 444.509V444.21C637.493 443.267 637.672 442.426 638.029 441.688C638.393 440.943 638.896 440.363 639.541 439.947C640.191 439.525 640.895 439.314 641.65 439.314C642.887 439.314 643.848 439.722 644.533 440.536C645.219 441.351 645.562 442.517 645.562 444.034V444.711H639.119C639.143 445.648 639.415 446.407 639.937 446.987C640.464 447.562 641.132 447.849 641.94 447.849C642.515 447.849 643.001 447.731 643.399 447.497C643.798 447.263 644.146 446.952 644.445 446.565L645.438 447.339C644.642 448.563 643.446 449.176 641.853 449.176ZM641.65 440.65C640.994 440.65 640.443 440.891 639.998 441.371C639.553 441.846 639.277 442.514 639.172 443.375H643.936V443.252C643.889 442.426 643.666 441.787 643.268 441.336C642.869 440.879 642.33 440.65 641.65 440.65ZM652.988 446.478C652.988 446.038 652.821 445.698 652.487 445.458C652.159 445.212 651.582 445.001 650.756 444.825C649.936 444.649 649.282 444.438 648.796 444.192C648.315 443.946 647.958 443.653 647.724 443.313C647.495 442.974 647.381 442.569 647.381 442.101C647.381 441.321 647.709 440.662 648.365 440.123C649.027 439.584 649.871 439.314 650.896 439.314C651.975 439.314 652.848 439.593 653.516 440.149C654.189 440.706 654.526 441.418 654.526 442.285H652.892C652.892 441.84 652.701 441.456 652.32 441.134C651.945 440.812 651.471 440.65 650.896 440.65C650.305 440.65 649.842 440.779 649.508 441.037C649.174 441.295 649.007 441.632 649.007 442.048C649.007 442.44 649.162 442.736 649.473 442.936C649.783 443.135 650.343 443.325 651.151 443.507C651.966 443.688 652.625 443.905 653.129 444.157C653.633 444.409 654.005 444.714 654.245 445.071C654.491 445.423 654.614 445.854 654.614 446.363C654.614 447.213 654.274 447.896 653.595 448.411C652.915 448.921 652.033 449.176 650.949 449.176C650.188 449.176 649.514 449.041 648.928 448.771C648.342 448.502 647.882 448.127 647.548 447.646C647.22 447.16 647.056 446.636 647.056 446.073H648.682C648.711 446.618 648.928 447.052 649.332 447.374C649.742 447.69 650.281 447.849 650.949 447.849C651.564 447.849 652.057 447.726 652.426 447.479C652.801 447.228 652.988 446.894 652.988 446.478ZM658.499 449H656.873V439.49H658.499V449ZM656.741 436.968C656.741 436.704 656.82 436.481 656.979 436.3C657.143 436.118 657.383 436.027 657.699 436.027C658.016 436.027 658.256 436.118 658.42 436.3C658.584 436.481 658.666 436.704 658.666 436.968C658.666 437.231 658.584 437.451 658.42 437.627C658.256 437.803 658.016 437.891 657.699 437.891C657.383 437.891 657.143 437.803 656.979 437.627C656.82 437.451 656.741 437.231 656.741 436.968ZM660.723 444.166C660.723 442.684 661.065 441.506 661.751 440.633C662.437 439.754 663.345 439.314 664.476 439.314C665.636 439.314 666.541 439.725 667.191 440.545L667.271 439.49H668.756V448.771C668.756 450.002 668.39 450.972 667.657 451.681C666.931 452.39 665.952 452.744 664.722 452.744C664.036 452.744 663.365 452.598 662.709 452.305C662.053 452.012 661.552 451.61 661.206 451.101L662.05 450.125C662.747 450.986 663.6 451.417 664.607 451.417C665.398 451.417 666.014 451.194 666.453 450.749C666.898 450.304 667.121 449.677 667.121 448.868V448.051C666.471 448.801 665.583 449.176 664.458 449.176C663.345 449.176 662.442 448.728 661.751 447.831C661.065 446.935 660.723 445.713 660.723 444.166ZM662.357 444.351C662.357 445.423 662.577 446.267 663.017 446.882C663.456 447.491 664.071 447.796 664.862 447.796C665.888 447.796 666.641 447.33 667.121 446.398V442.057C666.623 441.148 665.876 440.694 664.88 440.694C664.089 440.694 663.471 441.002 663.025 441.617C662.58 442.232 662.357 443.144 662.357 444.351ZM672.755 439.49L672.808 440.686C673.534 439.771 674.483 439.314 675.655 439.314C677.665 439.314 678.679 440.448 678.696 442.716V449H677.07V442.707C677.064 442.021 676.906 441.515 676.596 441.187C676.291 440.858 675.813 440.694 675.163 440.694C674.636 440.694 674.173 440.835 673.774 441.116C673.376 441.397 673.065 441.767 672.843 442.224V449H671.217V439.49H672.755Z" fill="black" fill-opacity="0.1"/>
<path d="M1359.5 238L959 639.5" stroke="#CE2E6C" stroke-opacity="0.1" stroke-width="3"/>
<path d="M695.5 176L295 577.5" stroke="#CE2E6C" stroke-opacity="0.1" stroke-width="3"/>
<path d="M1012.54 432.898C1013.59 431.615 1015.2 430.935 1016.85 431.08L1041.48 433.257C1045.45 433.608 1047.43 438.24 1044.94 441.357L997.35 500.997C996.304 502.308 994.672 503.007 993.002 502.859L967.332 500.59C963.334 500.236 961.361 495.554 963.9 492.446L1012.54 432.898Z" fill="#D72F70" fill-opacity="0.1"/>
<path d="M365.613 299.277C366.66 297.995 368.275 297.314 369.925 297.46L394.548 299.637C398.52 299.988 400.503 304.619 398.016 307.736L350.423 367.377C349.377 368.687 347.744 369.386 346.074 369.239L320.405 366.969C316.407 366.616 314.434 361.934 316.973 358.825L365.613 299.277Z" fill="#D72F70" fill-opacity="0.1"/>
<path d="M1260.5 1L1327 67.3278" stroke="url(#paint0_linear_342:79)" stroke-opacity="0.63"/>
<path d="M1194 66.6724L1260.5 133" stroke="url(#paint1_linear_342:79)" stroke-opacity="0.63"/>
<path d="M1255.23 1L1326.34 71.9248" stroke="url(#paint2_linear_342:79)" stroke-opacity="0.63"/>
<path d="M1194.66 61.415L1265.77 132.34" stroke="url(#paint3_linear_342:79)" stroke-opacity="0.63"/>
<path d="M1251.28 2.31006L1325.68 76.5184" stroke="url(#paint4_linear_342:79)" stroke-opacity="0.63"/>
<path d="M1196.63 57.4751L1271.03 131.683" stroke="url(#paint5_linear_342:79)" stroke-opacity="0.63"/>
<path d="M1246.01 2.31006L1325.02 81.1153" stroke="url(#paint6_linear_342:79)" stroke-opacity="0.63"/>
<path d="M1195.98 52.2256L1274.99 131.031" stroke="url(#paint7_linear_342:79)" stroke-opacity="0.63"/>
<path d="M1242.06 3.62939L1323.71 85.0615" stroke="url(#paint8_linear_342:79)" stroke-opacity="0.63"/>
<path d="M1197.29 48.2861L1278.94 129.718" stroke="url(#paint9_linear_342:79)" stroke-opacity="0.63"/>
<path d="M1238.11 4.93896L1322.39 88.998" stroke="url(#paint10_linear_342:79)" stroke-opacity="0.63"/>
<path d="M1198.61 44.3472L1282.89 128.406" stroke="url(#paint11_linear_342:79)" stroke-opacity="0.63"/>
<path d="M1234.16 6.2583L1321.07 92.9441" stroke="url(#paint12_linear_342:79)" stroke-opacity="0.63"/>
<path d="M1230.87 8.22314L1319.76 96.8791" stroke="url(#paint13_linear_342:79)" stroke-opacity="0.63"/>
<path d="M1227.58 10.1973L1317.12 99.5099" stroke="url(#paint14_linear_342:79)" stroke-opacity="0.63"/>
<path d="M1199.93 40.3999L1285.52 127.086" stroke="url(#paint15_linear_342:79)" stroke-opacity="0.63"/>
<path d="M1224.29 12.1621L1315.81 103.445" stroke="url(#paint16_linear_342:79)" stroke-opacity="0.63"/>
<path d="M1203.88 32.5215L1293.42 123.148" stroke="url(#paint17_linear_342:79)" stroke-opacity="0.63"/>
<path d="M1201.24 36.4609L1289.47 125.774" stroke="url(#paint18_linear_342:79)" stroke-opacity="0.63"/>
<path d="M1221.65 14.1362L1313.17 105.419" stroke="url(#paint19_linear_342:79)" stroke-opacity="0.63"/>
<path d="M1206.51 29.8926L1297.37 121.832" stroke="url(#paint20_linear_342:79)" stroke-opacity="0.63"/>
<path d="M1218.36 15.4463L1311.86 108.699" stroke="url(#paint21_linear_342:79)" stroke-opacity="0.63"/>
<path d="M1215.73 18.0757L1309.22 111.329" stroke="url(#paint22_linear_342:79)" stroke-opacity="0.63"/>
<path d="M1213.09 20.7041L1306.59 113.957" stroke="url(#paint23_linear_342:79)" stroke-opacity="0.63"/>
<path d="M1210.46 23.3247L1303.96 116.578" stroke="url(#paint24_linear_342:79)" stroke-opacity="0.63"/>
<path d="M1207.83 25.9531L1300 119.206" stroke="url(#paint25_linear_342:79)" stroke-opacity="0.63"/>
<path d="M1298.03 13.481L1314.49 29.8987" stroke="url(#paint26_linear_342:79)" stroke-opacity="0.63"/>
<path d="M1204.53 102.132L1221 118.55" stroke="url(#paint27_linear_342:79)" stroke-opacity="0.63"/>
<path d="M1288.81 8.22314L1319.76 39.0886" stroke="url(#paint28_linear_342:79)" stroke-opacity="0.63"/>
<path d="M1200.58 94.2549L1231.53 125.12" stroke="url(#paint29_linear_342:79)" stroke-opacity="0.63"/>
<path d="M1278.94 4.93896L1322.39 46.9685" stroke="url(#paint30_linear_342:79)" stroke-opacity="0.63"/>
<path d="M1197.29 86.3735L1240.75 128.403" stroke="url(#paint31_linear_342:79)" stroke-opacity="0.63"/>
<path d="M1270.38 1L1325.68 55.507" stroke="url(#paint32_linear_342:79)" stroke-opacity="0.63"/>
<path d="M1195.98 78.4902L1248.65 131.027" stroke="url(#paint33_linear_342:79)" stroke-opacity="0.63"/>
<path d="M1265.77 1L1326.34 61.4174" stroke="url(#paint34_linear_342:79)" stroke-opacity="0.63"/>
<path d="M1194.66 71.9229L1255.23 132.34" stroke="url(#paint35_linear_342:79)" stroke-opacity="0.63"/>
<path d="M1408.5 695L1475 761.328" stroke="url(#paint36_linear_342:79)" stroke-opacity="0.63"/>
<path d="M1342 760.672L1408.5 827" stroke="url(#paint37_linear_342:79)" stroke-opacity="0.63"/>
<path d="M1403.23 695L1474.34 765.925" stroke="url(#paint38_linear_342:79)" stroke-opacity="0.63"/>
<path d="M1342.66 755.415L1413.77 826.34" stroke="url(#paint39_linear_342:79)" stroke-opacity="0.63"/>
<path d="M1399.28 696.31L1473.68 770.518" stroke="url(#paint40_linear_342:79)" stroke-opacity="0.63"/>
<path d="M1344.63 751.475L1419.03 825.683" stroke="url(#paint41_linear_342:79)" stroke-opacity="0.63"/>
<path d="M1394.01 696.31L1473.02 775.115" stroke="url(#paint42_linear_342:79)" stroke-opacity="0.63"/>
<path d="M1343.98 746.226L1422.99 825.031" stroke="url(#paint43_linear_342:79)" stroke-opacity="0.63"/>
<path d="M1390.06 697.629L1471.71 779.062" stroke="url(#paint44_linear_342:79)" stroke-opacity="0.63"/>
<path d="M1345.29 742.286L1426.94 823.718" stroke="url(#paint45_linear_342:79)" stroke-opacity="0.63"/>
<path d="M1386.11 698.939L1470.39 782.998" stroke="url(#paint46_linear_342:79)" stroke-opacity="0.63"/>
<path d="M1346.61 738.347L1430.89 822.406" stroke="url(#paint47_linear_342:79)" stroke-opacity="0.63"/>
<path d="M1382.16 700.258L1469.07 786.944" stroke="url(#paint48_linear_342:79)" stroke-opacity="0.63"/>
<path d="M1378.87 702.223L1467.76 790.879" stroke="url(#paint49_linear_342:79)" stroke-opacity="0.63"/>
<path d="M1375.58 704.197L1465.12 793.51" stroke="url(#paint50_linear_342:79)" stroke-opacity="0.63"/>
<path d="M1347.93 734.4L1433.52 821.086" stroke="url(#paint51_linear_342:79)" stroke-opacity="0.63"/>
<path d="M1372.29 706.162L1463.81 797.445" stroke="url(#paint52_linear_342:79)" stroke-opacity="0.63"/>
<path d="M1351.88 726.521L1441.42 817.148" stroke="url(#paint53_linear_342:79)" stroke-opacity="0.63"/>
<path d="M1349.24 730.461L1437.47 819.774" stroke="url(#paint54_linear_342:79)" stroke-opacity="0.63"/>
<path d="M1369.65 708.136L1461.17 799.419" stroke="url(#paint55_linear_342:79)" stroke-opacity="0.63"/>
<path d="M1354.51 723.893L1445.37 815.832" stroke="url(#paint56_linear_342:79)" stroke-opacity="0.63"/>
<path d="M1366.36 709.446L1459.86 802.699" stroke="url(#paint57_linear_342:79)" stroke-opacity="0.63"/>
<path d="M1363.73 712.076L1457.22 805.329" stroke="url(#paint58_linear_342:79)" stroke-opacity="0.63"/>
<path d="M1361.09 714.704L1454.59 807.957" stroke="url(#paint59_linear_342:79)" stroke-opacity="0.63"/>
<path d="M1358.46 717.325L1451.96 810.578" stroke="url(#paint60_linear_342:79)" stroke-opacity="0.63"/>
<path d="M1355.83 719.953L1448 813.206" stroke="url(#paint61_linear_342:79)" stroke-opacity="0.63"/>
<path d="M1352.53 796.132L1369 812.55" stroke="url(#paint62_linear_342:79)" stroke-opacity="0.63"/>
<path d="M1348.58 788.255L1379.53 819.12" stroke="url(#paint63_linear_342:79)" stroke-opacity="0.63"/>
<path d="M1345.29 780.374L1388.75 822.403" stroke="url(#paint64_linear_342:79)" stroke-opacity="0.63"/>
<path d="M1343.98 772.49L1396.65 825.027" stroke="url(#paint65_linear_342:79)" stroke-opacity="0.63"/>
<path d="M1342.66 765.923L1403.23 826.34" stroke="url(#paint66_linear_342:79)" stroke-opacity="0.63"/>
<path d="M67.5 441L134 507.328" stroke="url(#paint67_linear_342:79)" stroke-opacity="0.63"/>
<path d="M0.999999 506.672L67.5 573" stroke="url(#paint68_linear_342:79)" stroke-opacity="0.63"/>
<path d="M62.2326 441L133.342 511.925" stroke="url(#paint69_linear_342:79)" stroke-opacity="0.63"/>
<path d="M1.65842 501.415L72.7673 572.34" stroke="url(#paint70_linear_342:79)" stroke-opacity="0.63"/>
<path d="M58.2821 442.31L132.683 516.518" stroke="url(#paint71_linear_342:79)" stroke-opacity="0.63"/>
<path d="M3.63368 497.475L78.0347 571.683" stroke="url(#paint72_linear_342:79)" stroke-opacity="0.63"/>
<path d="M53.0149 442.31L132.025 521.115" stroke="url(#paint73_linear_342:79)" stroke-opacity="0.63"/>
<path d="M2.97521 492.226L81.9851 571.031" stroke="url(#paint74_linear_342:79)" stroke-opacity="0.63"/>
<path d="M49.0643 443.629L130.708 525.062" stroke="url(#paint75_linear_342:79)" stroke-opacity="0.63"/>
<path d="M4.29211 488.286L85.9357 569.718" stroke="url(#paint76_linear_342:79)" stroke-opacity="0.63"/>
<path d="M45.1139 444.939L129.391 528.998" stroke="url(#paint77_linear_342:79)" stroke-opacity="0.63"/>
<path d="M5.60888 484.347L89.8861 568.406" stroke="url(#paint78_linear_342:79)" stroke-opacity="0.63"/>
<path d="M41.1633 446.258L128.074 532.944" stroke="url(#paint79_linear_342:79)" stroke-opacity="0.63"/>
<path d="M37.8713 448.223L126.757 536.879" stroke="url(#paint80_linear_342:79)" stroke-opacity="0.63"/>
<path d="M34.5792 450.197L124.124 539.51" stroke="url(#paint81_linear_342:79)" stroke-opacity="0.63"/>
<path d="M6.92571 480.4L92.5198 567.086" stroke="url(#paint82_linear_342:79)" stroke-opacity="0.63"/>
<path d="M31.2871 452.162L122.807 543.445" stroke="url(#paint83_linear_342:79)" stroke-opacity="0.63"/>
<path d="M10.8762 472.521L100.421 563.148" stroke="url(#paint84_linear_342:79)" stroke-opacity="0.63"/>
<path d="M8.2426 476.461L96.4703 565.774" stroke="url(#paint85_linear_342:79)" stroke-opacity="0.63"/>
<path d="M28.6535 454.136L120.173 545.419" stroke="url(#paint86_linear_342:79)" stroke-opacity="0.63"/>
<path d="M13.51 469.893L104.371 561.832" stroke="url(#paint87_linear_342:79)" stroke-opacity="0.63"/>
<path d="M25.3614 455.446L118.856 548.699" stroke="url(#paint88_linear_342:79)" stroke-opacity="0.63"/>
<path d="M22.7277 458.076L116.223 551.329" stroke="url(#paint89_linear_342:79)" stroke-opacity="0.63"/>
<path d="M20.0941 460.704L113.589 553.957" stroke="url(#paint90_linear_342:79)" stroke-opacity="0.63"/>
<path d="M17.4604 463.325L110.955 556.578" stroke="url(#paint91_linear_342:79)" stroke-opacity="0.63"/>
<path d="M14.8267 465.953L107.005 559.206" stroke="url(#paint92_linear_342:79)" stroke-opacity="0.63"/>
<path d="M105.03 453.481L121.49 469.899" stroke="url(#paint93_linear_342:79)" stroke-opacity="0.63"/>
<path d="M11.5347 542.132L27.9951 558.55" stroke="url(#paint94_linear_342:79)" stroke-opacity="0.63"/>
<path d="M95.8119 448.223L126.757 479.089" stroke="url(#paint95_linear_342:79)" stroke-opacity="0.63"/>
<path d="M7.58412 534.255L38.5297 565.12" stroke="url(#paint96_linear_342:79)" stroke-opacity="0.63"/>
<path d="M85.9357 444.939L129.391 486.968" stroke="url(#paint97_linear_342:79)" stroke-opacity="0.63"/>
<path d="M4.29211 526.374L47.7476 568.403" stroke="url(#paint98_linear_342:79)" stroke-opacity="0.63"/>
<path d="M77.3762 441L132.683 495.507" stroke="url(#paint99_linear_342:79)" stroke-opacity="0.63"/>
<path d="M2.97517 518.49L55.6484 571.027" stroke="url(#paint100_linear_342:79)" stroke-opacity="0.63"/>
<path d="M72.7673 441L133.342 501.417" stroke="url(#paint101_linear_342:79)" stroke-opacity="0.63"/>
<path d="M1.65841 511.923L62.2327 572.34" stroke="url(#paint102_linear_342:79)" stroke-opacity="0.63"/>
<defs>
<linearGradient id="paint0_linear_342:79" x1="1293.75" y1="1" x2="1293.75" y2="67.3278" gradientUnits="userSpaceOnUse">
<stop offset="0.359375" stop-color="#07C5D0"/>
<stop offset="1" stop-color="#00CACA" stop-opacity="0"/>
</linearGradient>
<linearGradient id="paint1_linear_342:79" x1="1227.25" y1="66.6724" x2="1227.25" y2="133" gradientUnits="userSpaceOnUse">
<stop offset="0.359375" stop-color="#07C5D0"/>
<stop offset="1" stop-color="#00CACA" stop-opacity="0"/>
</linearGradient>
<linearGradient id="paint2_linear_342:79" x1="1290.79" y1="1" x2="1290.79" y2="71.9248" gradientUnits="userSpaceOnUse">
<stop offset="0.359375" stop-color="#07C5D0"/>
<stop offset="1" stop-color="#00CACA" stop-opacity="0"/>
</linearGradient>
<linearGradient id="paint3_linear_342:79" x1="1230.21" y1="61.415" x2="1230.21" y2="132.34" gradientUnits="userSpaceOnUse">
<stop offset="0.359375" stop-color="#07C5D0"/>
<stop offset="1" stop-color="#00CACA" stop-opacity="0"/>
</linearGradient>
<linearGradient id="paint4_linear_342:79" x1="1288.48" y1="2.31006" x2="1288.48" y2="76.5184" gradientUnits="userSpaceOnUse">
<stop offset="0.359375" stop-color="#07C5D0"/>
<stop offset="1" stop-color="#00CACA" stop-opacity="0"/>
</linearGradient>
<linearGradient id="paint5_linear_342:79" x1="1233.83" y1="57.4751" x2="1233.83" y2="131.683" gradientUnits="userSpaceOnUse">
<stop offset="0.359375" stop-color="#07C5D0"/>
<stop offset="1" stop-color="#00CACA" stop-opacity="0"/>
</linearGradient>
<linearGradient id="paint6_linear_342:79" x1="1285.52" y1="2.31006" x2="1285.52" y2="81.1153" gradientUnits="userSpaceOnUse">
<stop offset="0.359375" stop-color="#07C5D0"/>
<stop offset="1" stop-color="#00CACA" stop-opacity="0"/>
</linearGradient>
<linearGradient id="paint7_linear_342:79" x1="1235.48" y1="52.2256" x2="1235.48" y2="131.031" gradientUnits="userSpaceOnUse">
<stop offset="0.359375" stop-color="#07C5D0"/>
<stop offset="1" stop-color="#00CACA" stop-opacity="0"/>
</linearGradient>
<linearGradient id="paint8_linear_342:79" x1="1282.89" y1="3.62939" x2="1282.89" y2="85.0615" gradientUnits="userSpaceOnUse">
<stop offset="0.359375" stop-color="#07C5D0"/>
<stop offset="1" stop-color="#00CACA" stop-opacity="0"/>
</linearGradient>
<linearGradient id="paint9_linear_342:79" x1="1238.11" y1="48.2861" x2="1238.11" y2="129.718" gradientUnits="userSpaceOnUse">
<stop offset="0.359375" stop-color="#07C5D0"/>
<stop offset="1" stop-color="#00CACA" stop-opacity="0"/>
</linearGradient>
<linearGradient id="paint10_linear_342:79" x1="1280.25" y1="4.93896" x2="1280.25" y2="88.998" gradientUnits="userSpaceOnUse">
<stop offset="0.359375" stop-color="#07C5D0"/>
<stop offset="1" stop-color="#00CACA" stop-opacity="0"/>
</linearGradient>
<linearGradient id="paint11_linear_342:79" x1="1240.75" y1="44.3472" x2="1240.75" y2="128.406" gradientUnits="userSpaceOnUse">
<stop offset="0.359375" stop-color="#07C5D0"/>
<stop offset="1" stop-color="#00CACA" stop-opacity="0"/>
</linearGradient>
<linearGradient id="paint12_linear_342:79" x1="1277.62" y1="6.2583" x2="1277.62" y2="92.9441" gradientUnits="userSpaceOnUse">
<stop offset="0.359375" stop-color="#07C5D0"/>
<stop offset="1" stop-color="#00CACA" stop-opacity="0"/>
</linearGradient>
<linearGradient id="paint13_linear_342:79" x1="1275.31" y1="8.22314" x2="1275.31" y2="96.8791" gradientUnits="userSpaceOnUse">
<stop offset="0.359375" stop-color="#07C5D0"/>
<stop offset="1" stop-color="#00CACA" stop-opacity="0"/>
</linearGradient>
<linearGradient id="paint14_linear_342:79" x1="1272.35" y1="10.1973" x2="1272.35" y2="99.5099" gradientUnits="userSpaceOnUse">
<stop offset="0.359375" stop-color="#07C5D0"/>
<stop offset="1" stop-color="#00CACA" stop-opacity="0"/>
</linearGradient>
<linearGradient id="paint15_linear_342:79" x1="1242.72" y1="40.3999" x2="1242.72" y2="127.086" gradientUnits="userSpaceOnUse">
<stop offset="0.359375" stop-color="#07C5D0"/>
<stop offset="1" stop-color="#00CACA" stop-opacity="0"/>
</linearGradient>
<linearGradient id="paint16_linear_342:79" x1="1270.05" y1="12.1621" x2="1270.05" y2="103.445" gradientUnits="userSpaceOnUse">
<stop offset="0.359375" stop-color="#07C5D0"/>
<stop offset="1" stop-color="#00CACA" stop-opacity="0"/>
</linearGradient>
<linearGradient id="paint17_linear_342:79" x1="1248.65" y1="32.5215" x2="1248.65" y2="123.148" gradientUnits="userSpaceOnUse">
<stop offset="0.359375" stop-color="#07C5D0"/>
<stop offset="1" stop-color="#00CACA" stop-opacity="0"/>
</linearGradient>
<linearGradient id="paint18_linear_342:79" x1="1245.36" y1="36.4609" x2="1245.36" y2="125.774" gradientUnits="userSpaceOnUse">
<stop offset="0.359375" stop-color="#07C5D0"/>
<stop offset="1" stop-color="#00CACA" stop-opacity="0"/>
</linearGradient>
<linearGradient id="paint19_linear_342:79" x1="1267.41" y1="14.1362" x2="1267.41" y2="105.419" gradientUnits="userSpaceOnUse">
<stop offset="0.359375" stop-color="#07C5D0"/>
<stop offset="1" stop-color="#00CACA" stop-opacity="0"/>
</linearGradient>
<linearGradient id="paint20_linear_342:79" x1="1251.94" y1="29.8926" x2="1251.94" y2="121.832" gradientUnits="userSpaceOnUse">
<stop offset="0.359375" stop-color="#07C5D0"/>
<stop offset="1" stop-color="#00CACA" stop-opacity="0"/>
</linearGradient>
<linearGradient id="paint21_linear_342:79" x1="1265.11" y1="15.4463" x2="1265.11" y2="108.699" gradientUnits="userSpaceOnUse">
<stop offset="0.359375" stop-color="#07C5D0"/>
<stop offset="1" stop-color="#00CACA" stop-opacity="0"/>
</linearGradient>
<linearGradient id="paint22_linear_342:79" x1="1262.48" y1="18.0757" x2="1262.48" y2="111.329" gradientUnits="userSpaceOnUse">
<stop offset="0.359375" stop-color="#07C5D0"/>
<stop offset="1" stop-color="#00CACA" stop-opacity="0"/>
</linearGradient>
<linearGradient id="paint23_linear_342:79" x1="1259.84" y1="20.7041" x2="1259.84" y2="113.957" gradientUnits="userSpaceOnUse">
<stop offset="0.359375" stop-color="#07C5D0"/>
<stop offset="1" stop-color="#00CACA" stop-opacity="0"/>
</linearGradient>
<linearGradient id="paint24_linear_342:79" x1="1257.21" y1="23.3247" x2="1257.21" y2="116.578" gradientUnits="userSpaceOnUse">
<stop offset="0.359375" stop-color="#07C5D0"/>
<stop offset="1" stop-color="#00CACA" stop-opacity="0"/>
</linearGradient>
<linearGradient id="paint25_linear_342:79" x1="1253.92" y1="25.9531" x2="1253.92" y2="119.206" gradientUnits="userSpaceOnUse">
<stop offset="0.359375" stop-color="#07C5D0"/>
<stop offset="1" stop-color="#00CACA" stop-opacity="0"/>
</linearGradient>
<linearGradient id="paint26_linear_342:79" x1="1306.26" y1="13.481" x2="1306.26" y2="29.8987" gradientUnits="userSpaceOnUse">
<stop offset="0.359375" stop-color="#07C5D0"/>
<stop offset="1" stop-color="#00CACA" stop-opacity="0"/>
</linearGradient>
<linearGradient id="paint27_linear_342:79" x1="1212.76" y1="102.132" x2="1212.76" y2="118.55" gradientUnits="userSpaceOnUse">
<stop offset="0.359375" stop-color="#07C5D0"/>
<stop offset="1" stop-color="#00CACA" stop-opacity="0"/>
</linearGradient>
<linearGradient id="paint28_linear_342:79" x1="1304.28" y1="8.22314" x2="1304.28" y2="39.0886" gradientUnits="userSpaceOnUse">
<stop offset="0.359375" stop-color="#07C5D0"/>
<stop offset="1" stop-color="#00CACA" stop-opacity="0"/>
</linearGradient>
<linearGradient id="paint29_linear_342:79" x1="1216.06" y1="94.2549" x2="1216.06" y2="125.12" gradientUnits="userSpaceOnUse">
<stop offset="0.359375" stop-color="#07C5D0"/>
<stop offset="1" stop-color="#00CACA" stop-opacity="0"/>
</linearGradient>
<linearGradient id="paint30_linear_342:79" x1="1300.66" y1="4.93896" x2="1300.66" y2="46.9685" gradientUnits="userSpaceOnUse">
<stop offset="0.359375" stop-color="#07C5D0"/>
<stop offset="1" stop-color="#00CACA" stop-opacity="0"/>
</linearGradient>
<linearGradient id="paint31_linear_342:79" x1="1219.02" y1="86.3735" x2="1219.02" y2="128.403" gradientUnits="userSpaceOnUse">
<stop offset="0.359375" stop-color="#07C5D0"/>
<stop offset="1" stop-color="#00CACA" stop-opacity="0"/>
</linearGradient>
<linearGradient id="paint32_linear_342:79" x1="1298.03" y1="1" x2="1298.03" y2="55.507" gradientUnits="userSpaceOnUse">
<stop offset="0.359375" stop-color="#07C5D0"/>
<stop offset="1" stop-color="#00CACA" stop-opacity="0"/>
</linearGradient>
<linearGradient id="paint33_linear_342:79" x1="1222.31" y1="78.4902" x2="1222.31" y2="131.027" gradientUnits="userSpaceOnUse">
<stop offset="0.359375" stop-color="#07C5D0"/>
<stop offset="1" stop-color="#00CACA" stop-opacity="0"/>
</linearGradient>
<linearGradient id="paint34_linear_342:79" x1="1296.05" y1="1" x2="1296.05" y2="61.4174" gradientUnits="userSpaceOnUse">
<stop offset="0.359375" stop-color="#07C5D0"/>
<stop offset="1" stop-color="#00CACA" stop-opacity="0"/>
</linearGradient>
<linearGradient id="paint35_linear_342:79" x1="1224.95" y1="71.9229" x2="1224.95" y2="132.34" gradientUnits="userSpaceOnUse">
<stop offset="0.359375" stop-color="#07C5D0"/>
<stop offset="1" stop-color="#00CACA" stop-opacity="0"/>
</linearGradient>
<linearGradient id="paint36_linear_342:79" x1="1441.75" y1="695" x2="1441.75" y2="761.328" gradientUnits="userSpaceOnUse">
<stop offset="0.359375" stop-color="#0067B0" stop-opacity="0.4"/>
<stop offset="1" stop-color="#00CACA" stop-opacity="0"/>
</linearGradient>
<linearGradient id="paint37_linear_342:79" x1="1375.25" y1="760.672" x2="1375.25" y2="827" gradientUnits="userSpaceOnUse">
<stop offset="0.359375" stop-color="#0067B0" stop-opacity="0.4"/>
<stop offset="1" stop-color="#00CACA" stop-opacity="0"/>
</linearGradient>
<linearGradient id="paint38_linear_342:79" x1="1438.79" y1="695" x2="1438.79" y2="765.925" gradientUnits="userSpaceOnUse">
<stop offset="0.359375" stop-color="#0067B0" stop-opacity="0.4"/>
<stop offset="1" stop-color="#00CACA" stop-opacity="0"/>
</linearGradient>
<linearGradient id="paint39_linear_342:79" x1="1378.21" y1="755.415" x2="1378.21" y2="826.34" gradientUnits="userSpaceOnUse">
<stop offset="0.359375" stop-color="#0067B0" stop-opacity="0.4"/>
<stop offset="1" stop-color="#00CACA" stop-opacity="0"/>
</linearGradient>
<linearGradient id="paint40_linear_342:79" x1="1436.48" y1="696.31" x2="1436.48" y2="770.518" gradientUnits="userSpaceOnUse">
<stop offset="0.359375" stop-color="#0067B0" stop-opacity="0.4"/>
<stop offset="1" stop-color="#00CACA" stop-opacity="0"/>
</linearGradient>
<linearGradient id="paint41_linear_342:79" x1="1381.83" y1="751.475" x2="1381.83" y2="825.683" gradientUnits="userSpaceOnUse">
<stop offset="0.359375" stop-color="#0067B0" stop-opacity="0.4"/>
<stop offset="1" stop-color="#00CACA" stop-opacity="0"/>
</linearGradient>
<linearGradient id="paint42_linear_342:79" x1="1433.52" y1="696.31" x2="1433.52" y2="775.115" gradientUnits="userSpaceOnUse">
<stop offset="0.359375" stop-color="#0067B0" stop-opacity="0.4"/>
<stop offset="1" stop-color="#00CACA" stop-opacity="0"/>
</linearGradient>
<linearGradient id="paint43_linear_342:79" x1="1383.48" y1="746.226" x2="1383.48" y2="825.031" gradientUnits="userSpaceOnUse">
<stop offset="0.359375" stop-color="#0067B0" stop-opacity="0.4"/>
<stop offset="1" stop-color="#00CACA" stop-opacity="0"/>
</linearGradient>
<linearGradient id="paint44_linear_342:79" x1="1430.89" y1="697.629" x2="1430.89" y2="779.062" gradientUnits="userSpaceOnUse">
<stop offset="0.359375" stop-color="#0067B0" stop-opacity="0.4"/>
<stop offset="1" stop-color="#00CACA" stop-opacity="0"/>
</linearGradient>
<linearGradient id="paint45_linear_342:79" x1="1386.11" y1="742.286" x2="1386.11" y2="823.718" gradientUnits="userSpaceOnUse">
<stop offset="0.359375" stop-color="#0067B0" stop-opacity="0.4"/>
<stop offset="1" stop-color="#00CACA" stop-opacity="0"/>
</linearGradient>
<linearGradient id="paint46_linear_342:79" x1="1428.25" y1="698.939" x2="1428.25" y2="782.998" gradientUnits="userSpaceOnUse">
<stop offset="0.359375" stop-color="#0067B0" stop-opacity="0.4"/>
<stop offset="1" stop-color="#00CACA" stop-opacity="0"/>
</linearGradient>
<linearGradient id="paint47_linear_342:79" x1="1388.75" y1="738.347" x2="1388.75" y2="822.406" gradientUnits="userSpaceOnUse">
<stop offset="0.359375" stop-color="#0067B0" stop-opacity="0.4"/>
<stop offset="1" stop-color="#00CACA" stop-opacity="0"/>
</linearGradient>
<linearGradient id="paint48_linear_342:79" x1="1425.62" y1="700.258" x2="1425.62" y2="786.944" gradientUnits="userSpaceOnUse">
<stop offset="0.359375" stop-color="#0067B0" stop-opacity="0.4"/>
<stop offset="1" stop-color="#00CACA" stop-opacity="0"/>
</linearGradient>
<linearGradient id="paint49_linear_342:79" x1="1423.31" y1="702.223" x2="1423.31" y2="790.879" gradientUnits="userSpaceOnUse">
<stop offset="0.359375" stop-color="#0067B0" stop-opacity="0.4"/>
<stop offset="1" stop-color="#00CACA" stop-opacity="0"/>
</linearGradient>
<linearGradient id="paint50_linear_342:79" x1="1420.35" y1="704.197" x2="1420.35" y2="793.51" gradientUnits="userSpaceOnUse">
<stop offset="0.359375" stop-color="#0067B0" stop-opacity="0.4"/>
<stop offset="1" stop-color="#00CACA" stop-opacity="0"/>
</linearGradient>
<linearGradient id="paint51_linear_342:79" x1="1390.72" y1="734.4" x2="1390.72" y2="821.086" gradientUnits="userSpaceOnUse">
<stop offset="0.359375" stop-color="#0067B0" stop-opacity="0.4"/>
<stop offset="1" stop-color="#00CACA" stop-opacity="0"/>
</linearGradient>
<linearGradient id="paint52_linear_342:79" x1="1418.05" y1="706.162" x2="1418.05" y2="797.445" gradientUnits="userSpaceOnUse">
<stop offset="0.359375" stop-color="#0067B0" stop-opacity="0.4"/>
<stop offset="1" stop-color="#00CACA" stop-opacity="0"/>
</linearGradient>
<linearGradient id="paint53_linear_342:79" x1="1396.65" y1="726.521" x2="1396.65" y2="817.148" gradientUnits="userSpaceOnUse">
<stop offset="0.359375" stop-color="#0067B0" stop-opacity="0.4"/>
<stop offset="1" stop-color="#00CACA" stop-opacity="0"/>
</linearGradient>
<linearGradient id="paint54_linear_342:79" x1="1393.36" y1="730.461" x2="1393.36" y2="819.774" gradientUnits="userSpaceOnUse">
<stop offset="0.359375" stop-color="#0067B0" stop-opacity="0.4"/>
<stop offset="1" stop-color="#00CACA" stop-opacity="0"/>
</linearGradient>
<linearGradient id="paint55_linear_342:79" x1="1415.41" y1="708.136" x2="1415.41" y2="799.419" gradientUnits="userSpaceOnUse">
<stop offset="0.359375" stop-color="#0067B0" stop-opacity="0.4"/>
<stop offset="1" stop-color="#00CACA" stop-opacity="0"/>
</linearGradient>
<linearGradient id="paint56_linear_342:79" x1="1399.94" y1="723.893" x2="1399.94" y2="815.832" gradientUnits="userSpaceOnUse">
<stop offset="0.359375" stop-color="#0067B0" stop-opacity="0.4"/>
<stop offset="1" stop-color="#00CACA" stop-opacity="0"/>
</linearGradient>
<linearGradient id="paint57_linear_342:79" x1="1413.11" y1="709.446" x2="1413.11" y2="802.699" gradientUnits="userSpaceOnUse">
<stop offset="0.359375" stop-color="#0067B0" stop-opacity="0.4"/>
<stop offset="1" stop-color="#00CACA" stop-opacity="0"/>
</linearGradient>
<linearGradient id="paint58_linear_342:79" x1="1410.48" y1="712.076" x2="1410.48" y2="805.329" gradientUnits="userSpaceOnUse">
<stop offset="0.359375" stop-color="#0067B0" stop-opacity="0.4"/>
<stop offset="1" stop-color="#00CACA" stop-opacity="0"/>
</linearGradient>
<linearGradient id="paint59_linear_342:79" x1="1407.84" y1="714.704" x2="1407.84" y2="807.957" gradientUnits="userSpaceOnUse">
<stop offset="0.359375" stop-color="#0067B0" stop-opacity="0.4"/>
<stop offset="1" stop-color="#00CACA" stop-opacity="0"/>
</linearGradient>
<linearGradient id="paint60_linear_342:79" x1="1405.21" y1="717.325" x2="1405.21" y2="810.578" gradientUnits="userSpaceOnUse">
<stop offset="0.359375" stop-color="#0067B0" stop-opacity="0.4"/>
<stop offset="1" stop-color="#00CACA" stop-opacity="0"/>
</linearGradient>
<linearGradient id="paint61_linear_342:79" x1="1401.92" y1="719.953" x2="1401.92" y2="813.206" gradientUnits="userSpaceOnUse">
<stop offset="0.359375" stop-color="#0067B0" stop-opacity="0.4"/>
<stop offset="1" stop-color="#00CACA" stop-opacity="0"/>
</linearGradient>
<linearGradient id="paint62_linear_342:79" x1="1360.76" y1="796.132" x2="1360.76" y2="812.55" gradientUnits="userSpaceOnUse">
<stop offset="0.359375" stop-color="#0067B0" stop-opacity="0.4"/>
<stop offset="1" stop-color="#00CACA" stop-opacity="0"/>
</linearGradient>
<linearGradient id="paint63_linear_342:79" x1="1364.06" y1="788.255" x2="1364.06" y2="819.12" gradientUnits="userSpaceOnUse">
<stop offset="0.359375" stop-color="#0067B0" stop-opacity="0.4"/>
<stop offset="1" stop-color="#00CACA" stop-opacity="0"/>
</linearGradient>
<linearGradient id="paint64_linear_342:79" x1="1367.02" y1="780.374" x2="1367.02" y2="822.403" gradientUnits="userSpaceOnUse">
<stop offset="0.359375" stop-color="#0067B0" stop-opacity="0.4"/>
<stop offset="1" stop-color="#00CACA" stop-opacity="0"/>
</linearGradient>
<linearGradient id="paint65_linear_342:79" x1="1370.31" y1="772.49" x2="1370.31" y2="825.027" gradientUnits="userSpaceOnUse">
<stop offset="0.359375" stop-color="#0067B0" stop-opacity="0.4"/>
<stop offset="1" stop-color="#00CACA" stop-opacity="0"/>
</linearGradient>
<linearGradient id="paint66_linear_342:79" x1="1372.95" y1="765.923" x2="1372.95" y2="826.34" gradientUnits="userSpaceOnUse">
<stop offset="0.359375" stop-color="#0067B0" stop-opacity="0.4"/>
<stop offset="1" stop-color="#00CACA" stop-opacity="0"/>
</linearGradient>
<linearGradient id="paint67_linear_342:79" x1="100.75" y1="441" x2="100.75" y2="507.328" gradientUnits="userSpaceOnUse">
<stop offset="0.359375" stop-color="#FC840D" stop-opacity="0.98"/>
<stop offset="1" stop-color="#FC840D" stop-opacity="0.1"/>
</linearGradient>
<linearGradient id="paint68_linear_342:79" x1="34.25" y1="506.672" x2="34.25" y2="573" gradientUnits="userSpaceOnUse">
<stop offset="0.359375" stop-color="#FC840D" stop-opacity="0.98"/>
<stop offset="1" stop-color="#FC840D" stop-opacity="0.1"/>
</linearGradient>
<linearGradient id="paint69_linear_342:79" x1="97.7871" y1="441" x2="97.7871" y2="511.925" gradientUnits="userSpaceOnUse">
<stop offset="0.359375" stop-color="#FC840D" stop-opacity="0.98"/>
<stop offset="1" stop-color="#FC840D" stop-opacity="0.1"/>
</linearGradient>
<linearGradient id="paint70_linear_342:79" x1="37.2129" y1="501.415" x2="37.2129" y2="572.34" gradientUnits="userSpaceOnUse">
<stop offset="0.359375" stop-color="#FC840D" stop-opacity="0.98"/>
<stop offset="1" stop-color="#FC840D" stop-opacity="0.1"/>
</linearGradient>
<linearGradient id="paint71_linear_342:79" x1="95.4826" y1="442.31" x2="95.4826" y2="516.518" gradientUnits="userSpaceOnUse">
<stop offset="0.359375" stop-color="#FC840D" stop-opacity="0.98"/>
<stop offset="1" stop-color="#FC840D" stop-opacity="0.1"/>
</linearGradient>
<linearGradient id="paint72_linear_342:79" x1="40.8342" y1="497.475" x2="40.8342" y2="571.683" gradientUnits="userSpaceOnUse">
<stop offset="0.359375" stop-color="#FC840D" stop-opacity="0.98"/>
<stop offset="1" stop-color="#FC840D" stop-opacity="0.1"/>
</linearGradient>
<linearGradient id="paint73_linear_342:79" x1="92.5198" y1="442.31" x2="92.5198" y2="521.115" gradientUnits="userSpaceOnUse">
<stop offset="0.359375" stop-color="#FC840D" stop-opacity="0.98"/>
<stop offset="1" stop-color="#FC840D" stop-opacity="0.1"/>
</linearGradient>
<linearGradient id="paint74_linear_342:79" x1="42.4802" y1="492.226" x2="42.4802" y2="571.031" gradientUnits="userSpaceOnUse">
<stop offset="0.359375" stop-color="#FC840D" stop-opacity="0.98"/>
<stop offset="1" stop-color="#FC840D" stop-opacity="0.1"/>
</linearGradient>
<linearGradient id="paint75_linear_342:79" x1="89.8861" y1="443.629" x2="89.8861" y2="525.062" gradientUnits="userSpaceOnUse">
<stop offset="0.359375" stop-color="#FC840D" stop-opacity="0.98"/>
<stop offset="1" stop-color="#FC840D" stop-opacity="0.1"/>
</linearGradient>
<linearGradient id="paint76_linear_342:79" x1="45.1139" y1="488.286" x2="45.1139" y2="569.718" gradientUnits="userSpaceOnUse">
<stop offset="0.359375" stop-color="#FC840D" stop-opacity="0.98"/>
<stop offset="1" stop-color="#FC840D" stop-opacity="0.1"/>
</linearGradient>
<linearGradient id="paint77_linear_342:79" x1="87.2525" y1="444.939" x2="87.2525" y2="528.998" gradientUnits="userSpaceOnUse">
<stop offset="0.359375" stop-color="#FC840D" stop-opacity="0.98"/>
<stop offset="1" stop-color="#FC840D" stop-opacity="0.1"/>
</linearGradient>
<linearGradient id="paint78_linear_342:79" x1="47.7475" y1="484.347" x2="47.7475" y2="568.406" gradientUnits="userSpaceOnUse">
<stop offset="0.359375" stop-color="#FC840D" stop-opacity="0.98"/>
<stop offset="1" stop-color="#FC840D" stop-opacity="0.1"/>
</linearGradient>
<linearGradient id="paint79_linear_342:79" x1="84.6188" y1="446.258" x2="84.6188" y2="532.944" gradientUnits="userSpaceOnUse">
<stop offset="0.359375" stop-color="#FC840D" stop-opacity="0.98"/>
<stop offset="1" stop-color="#FC840D" stop-opacity="0.1"/>
</linearGradient>
<linearGradient id="paint80_linear_342:79" x1="82.3144" y1="448.223" x2="82.3144" y2="536.879" gradientUnits="userSpaceOnUse">
<stop offset="0.359375" stop-color="#FC840D" stop-opacity="0.98"/>
<stop offset="1" stop-color="#FC840D" stop-opacity="0.1"/>
</linearGradient>
<linearGradient id="paint81_linear_342:79" x1="79.3515" y1="450.197" x2="79.3515" y2="539.51" gradientUnits="userSpaceOnUse">
<stop offset="0.359375" stop-color="#FC840D" stop-opacity="0.98"/>
<stop offset="1" stop-color="#FC840D" stop-opacity="0.1"/>
</linearGradient>
<linearGradient id="paint82_linear_342:79" x1="49.7227" y1="480.4" x2="49.7227" y2="567.086" gradientUnits="userSpaceOnUse">
<stop offset="0.359375" stop-color="#FC840D" stop-opacity="0.98"/>
<stop offset="1" stop-color="#FC840D" stop-opacity="0.1"/>
</linearGradient>
<linearGradient id="paint83_linear_342:79" x1="77.047" y1="452.162" x2="77.047" y2="543.445" gradientUnits="userSpaceOnUse">
<stop offset="0.359375" stop-color="#FC840D" stop-opacity="0.98"/>
<stop offset="1" stop-color="#FC840D" stop-opacity="0.1"/>
</linearGradient>
<linearGradient id="paint84_linear_342:79" x1="55.6485" y1="472.521" x2="55.6485" y2="563.148" gradientUnits="userSpaceOnUse">
<stop offset="0.359375" stop-color="#FC840D" stop-opacity="0.98"/>
<stop offset="1" stop-color="#FC840D" stop-opacity="0.1"/>
</linearGradient>
<linearGradient id="paint85_linear_342:79" x1="52.3565" y1="476.461" x2="52.3565" y2="565.774" gradientUnits="userSpaceOnUse">
<stop offset="0.359375" stop-color="#FC840D" stop-opacity="0.98"/>
<stop offset="1" stop-color="#FC840D" stop-opacity="0.1"/>
</linearGradient>
<linearGradient id="paint86_linear_342:79" x1="74.4134" y1="454.136" x2="74.4134" y2="545.419" gradientUnits="userSpaceOnUse">
<stop offset="0.359375" stop-color="#FC840D" stop-opacity="0.98"/>
<stop offset="1" stop-color="#FC840D" stop-opacity="0.1"/>
</linearGradient>
<linearGradient id="paint87_linear_342:79" x1="58.9406" y1="469.893" x2="58.9406" y2="561.832" gradientUnits="userSpaceOnUse">
<stop offset="0.359375" stop-color="#FC840D" stop-opacity="0.98"/>
<stop offset="1" stop-color="#FC840D" stop-opacity="0.1"/>
</linearGradient>
<linearGradient id="paint88_linear_342:79" x1="72.1089" y1="455.446" x2="72.1089" y2="548.699" gradientUnits="userSpaceOnUse">
<stop offset="0.359375" stop-color="#FC840D" stop-opacity="0.98"/>
<stop offset="1" stop-color="#FC840D" stop-opacity="0.1"/>
</linearGradient>
<linearGradient id="paint89_linear_342:79" x1="69.4753" y1="458.076" x2="69.4753" y2="551.329" gradientUnits="userSpaceOnUse">
<stop offset="0.359375" stop-color="#FC840D" stop-opacity="0.98"/>
<stop offset="1" stop-color="#FC840D" stop-opacity="0.1"/>
</linearGradient>
<linearGradient id="paint90_linear_342:79" x1="66.8416" y1="460.704" x2="66.8416" y2="553.957" gradientUnits="userSpaceOnUse">
<stop offset="0.359375" stop-color="#FC840D" stop-opacity="0.98"/>
<stop offset="1" stop-color="#FC840D" stop-opacity="0.1"/>
</linearGradient>
<linearGradient id="paint91_linear_342:79" x1="64.2079" y1="463.325" x2="64.2079" y2="556.578" gradientUnits="userSpaceOnUse">
<stop offset="0.359375" stop-color="#FC840D" stop-opacity="0.98"/>
<stop offset="1" stop-color="#FC840D" stop-opacity="0.1"/>
</linearGradient>
<linearGradient id="paint92_linear_342:79" x1="60.9158" y1="465.953" x2="60.9158" y2="559.206" gradientUnits="userSpaceOnUse">
<stop offset="0.359375" stop-color="#FC840D" stop-opacity="0.98"/>
<stop offset="1" stop-color="#FC840D" stop-opacity="0.1"/>
</linearGradient>
<linearGradient id="paint93_linear_342:79" x1="113.26" y1="453.481" x2="113.26" y2="469.899" gradientUnits="userSpaceOnUse">
<stop offset="0.359375" stop-color="#FC840D" stop-opacity="0.98"/>
<stop offset="1" stop-color="#FC840D" stop-opacity="0.1"/>
</linearGradient>
<linearGradient id="paint94_linear_342:79" x1="19.7649" y1="542.132" x2="19.7649" y2="558.55" gradientUnits="userSpaceOnUse">
<stop offset="0.359375" stop-color="#FC840D" stop-opacity="0.98"/>
<stop offset="1" stop-color="#FC840D" stop-opacity="0.1"/>
</linearGradient>
<linearGradient id="paint95_linear_342:79" x1="111.285" y1="448.223" x2="111.285" y2="479.089" gradientUnits="userSpaceOnUse">
<stop offset="0.359375" stop-color="#FC840D" stop-opacity="0.98"/>
<stop offset="1" stop-color="#FC840D" stop-opacity="0.1"/>
</linearGradient>
<linearGradient id="paint96_linear_342:79" x1="23.0569" y1="534.255" x2="23.0569" y2="565.12" gradientUnits="userSpaceOnUse">
<stop offset="0.359375" stop-color="#FC840D" stop-opacity="0.98"/>
<stop offset="1" stop-color="#FC840D" stop-opacity="0.1"/>
</linearGradient>
<linearGradient id="paint97_linear_342:79" x1="107.663" y1="444.939" x2="107.663" y2="486.968" gradientUnits="userSpaceOnUse">
<stop offset="0.359375" stop-color="#FC840D" stop-opacity="0.98"/>
<stop offset="1" stop-color="#FC840D" stop-opacity="0.1"/>
</linearGradient>
<linearGradient id="paint98_linear_342:79" x1="26.0198" y1="526.374" x2="26.0198" y2="568.403" gradientUnits="userSpaceOnUse">
<stop offset="0.359375" stop-color="#FC840D" stop-opacity="0.98"/>
<stop offset="1" stop-color="#FC840D" stop-opacity="0.1"/>
</linearGradient>
<linearGradient id="paint99_linear_342:79" x1="105.03" y1="441" x2="105.03" y2="495.507" gradientUnits="userSpaceOnUse">
<stop offset="0.359375" stop-color="#FC840D" stop-opacity="0.98"/>
<stop offset="1" stop-color="#FC840D" stop-opacity="0.1"/>
</linearGradient>
<linearGradient id="paint100_linear_342:79" x1="29.3118" y1="518.49" x2="29.3118" y2="571.027" gradientUnits="userSpaceOnUse">
<stop offset="0.359375" stop-color="#FC840D" stop-opacity="0.98"/>
<stop offset="1" stop-color="#FC840D" stop-opacity="0.1"/>
</linearGradient>
<linearGradient id="paint101_linear_342:79" x1="103.054" y1="441" x2="103.054" y2="501.417" gradientUnits="userSpaceOnUse">
<stop offset="0.359375" stop-color="#FC840D" stop-opacity="0.98"/>
<stop offset="1" stop-color="#FC840D" stop-opacity="0.1"/>
</linearGradient>
<linearGradient id="paint102_linear_342:79" x1="31.9455" y1="511.923" x2="31.9455" y2="572.34" gradientUnits="userSpaceOnUse">
<stop offset="0.359375" stop-color="#FC840D" stop-opacity="0.98"/>
<stop offset="1" stop-color="#FC840D" stop-opacity="0.1"/>
</linearGradient>
</defs>
</svg>
