<svg width="25" height="25" viewBox="0 0 25 25" fill="none" xmlns="http://www.w3.org/2000/svg">
<path d="M10.887 0.103339C8.42453 0.421293 6.11336 1.46832 4.25049 3.10987L8.27717 7.13656C9.96722 5.18383 10.8942 2.68585 10.887 0.103339ZM9.4198 8.27919L12.4999 11.3593L20.7494 3.10987C18.4709 1.10172 15.537 -0.00430677 12.4999 1.26037e-05V0.100818C12.5085 3.11199 11.4126 6.02177 9.4198 8.27919ZM14.1128 24.899C16.5756 24.5804 18.8868 23.5324 20.7494 21.89L16.7227 17.8633C15.0322 19.8168 14.1053 22.3157 14.1128 24.899ZM21.89 4.25049L13.6405 12.4999L16.7207 15.58C18.9782 13.5874 21.8879 12.4916 24.899 12.4999H24.9998C25.0042 9.46284 23.8981 6.52892 21.89 4.25049ZM21.89 20.7494C23.5324 18.8868 24.5804 16.5756 24.899 14.1128C22.3165 14.1057 19.8185 15.0326 17.8658 16.7227L21.89 20.7494ZM15.58 16.7207L12.4999 13.6405L4.25049 21.89C6.52892 23.8981 9.46283 25.0042 12.4999 24.9998V24.899C12.4914 21.8879 13.5872 18.9781 15.58 16.7207ZM3.10987 4.25049C1.46832 6.11336 0.421293 8.42454 0.103338 10.887C2.68585 10.8942 5.18383 9.96723 7.13655 8.27717L3.10987 4.25049ZM8.27919 9.41981C6.02177 11.4126 3.11199 12.5085 0.100818 12.4999H1.26037e-05C-0.00430677 15.537 1.10172 18.4709 3.10987 20.7494L11.3593 12.4999L8.27919 9.41981Z" fill="#EA4C89"/>
<path d="M14.113 24.899C13.5781 24.9671 13.0394 25.0008 12.5002 24.9998V24.899C12.4916 21.8879 13.5875 18.9781 15.5803 16.7207L12.5002 13.6405L4.25072 21.89C3.84646 21.5346 3.46547 21.1536 3.1101 20.7494L11.3595 12.4999L8.27942 9.41979C6.022 11.4126 3.11222 12.5085 0.10105 12.4999H0.000244469C0.000121271 11.9606 0.0346343 11.4219 0.10357 10.887C2.68608 10.8942 5.18406 9.96722 7.13678 8.27716L3.1101 4.25048C3.46547 3.84622 3.84646 3.46523 4.25072 3.10986L8.2774 7.13654C9.96745 5.18382 10.8944 2.68584 10.8873 0.103326C11.4221 0.0343901 11.9609 -0.00012287 12.5002 3.28656e-07V0.100806C12.5087 3.11197 11.4128 6.02176 9.42003 8.27918L12.5002 11.3593L20.7496 3.10986C21.1538 3.46523 21.5348 3.84622 21.8902 4.25048L13.6408 12.4999L16.7209 15.58C18.9784 13.5874 21.8881 12.4916 24.8993 12.4999H25.0001C25.001 13.0391 24.9674 13.5779 24.8993 14.1128C22.3167 14.1057 19.8188 15.0326 17.866 16.7227L21.8927 20.7494C21.5374 21.1536 21.1564 21.5346 20.7521 21.89L16.7254 17.8633C15.0341 19.8164 14.1063 22.3154 14.113 24.899Z" fill="#CE2E6C"/>
</svg>
