<svg width="26" height="24" viewBox="0 0 26 24" fill="none" xmlns="http://www.w3.org/2000/svg">
<path d="M2.25799 11.8402L4.14233 10.1013C4.64197 9.64006 5.50213 9.9466 5.52803 10.5981C5.56081 11.4395 5.72657 12.272 6.02006 13.0692C6.07026 13.2025 6.07888 13.3462 6.04495 13.4839C6.01102 13.6215 5.93589 13.7476 5.82812 13.8477L5.16345 14.4613C3.74169 15.7737 3.696 17.9139 5.10506 19.2422C5.44353 19.5603 5.84685 19.8133 6.29178 19.9868C6.73671 20.1603 7.21444 20.2507 7.69742 20.2529C8.1804 20.2552 8.65908 20.1691 9.10586 19.9997C9.55264 19.8304 9.95868 19.581 10.3006 19.2661L13.7107 16.1149C14.3959 15.4821 14.7807 14.624 14.7807 13.7294C14.7807 12.8347 14.3959 11.9767 13.7107 11.3438C13.549 11.1958 13.3733 11.0614 13.1857 10.9422C13.081 10.876 12.9946 10.7881 12.9333 10.6856C12.872 10.583 12.8376 10.4686 12.8328 10.3516C12.8219 10.0931 12.8693 9.8354 12.9719 9.59472C13.0745 9.35405 13.2301 9.13566 13.4289 8.95339L14.4983 7.96908C14.6343 7.84422 14.8136 7.76759 15.0047 7.75268C15.1958 7.73776 15.3865 7.78551 15.5433 7.88752C16.4662 8.48235 17.237 9.25625 17.8018 10.155C18.3665 11.0538 18.7116 12.0557 18.8127 13.0905C18.9139 14.1253 18.7687 15.168 18.3873 16.1455C18.006 17.1231 17.3977 18.0119 16.605 18.7496L16.5868 18.7669L13.1745 21.9167C10.165 24.6948 5.26856 24.6943 2.25748 21.9167C-0.753594 19.1391 -0.751563 14.6178 2.25799 11.8402Z" fill="white"/>
<path d="M20.8363 9.53882C22.258 8.22641 22.3037 6.08624 20.8947 4.7579C20.5561 4.43991 20.1528 4.18692 19.7078 4.01353C19.2628 3.84014 18.7851 3.74977 18.3021 3.74763C17.8191 3.7455 17.3405 3.83164 16.8937 4.00109C16.447 4.17054 16.041 4.41995 15.6992 4.73493L12.289 7.88518C11.6039 8.51801 11.219 9.37606 11.219 10.2707C11.219 11.1654 11.6039 12.0234 12.289 12.6563C12.4507 12.8043 12.6265 12.9387 12.814 13.058C12.9186 13.1242 13.005 13.2121 13.0662 13.3146C13.1274 13.4172 13.1617 13.5315 13.1664 13.6485C13.1775 13.907 13.1303 14.1647 13.0278 14.4054C12.9253 14.6461 12.7696 14.8645 12.5708 15.0467L11.5014 16.0334C11.3654 16.1582 11.1861 16.2347 10.995 16.2496C10.8039 16.2645 10.6132 16.2169 10.4564 16.1149C9.53314 15.5201 8.76194 14.7461 8.19691 13.8471C7.63188 12.9482 7.28668 11.946 7.18552 10.9109C7.08436 9.87578 7.22969 8.83276 7.61131 7.85496C7.99293 6.87717 8.60162 5.98825 9.3947 5.25052L9.41298 5.23318L12.8252 2.08339C15.8347 -0.694699 20.7312 -0.69423 23.7423 2.08339C26.7533 4.86101 26.7518 9.38133 23.7423 12.1608L21.8579 13.8998C21.3583 14.361 20.4981 14.0544 20.4722 13.4029C20.4394 12.5615 20.2737 11.729 19.9802 10.9318C19.93 10.7985 19.9214 10.6548 19.9553 10.5172C19.9892 10.3795 20.0644 10.2535 20.1721 10.1533L20.8363 9.53882Z" fill="#E8E7E7"/>
</svg>
