<svg width="31" height="21" viewBox="0 0 31 21" fill="none" xmlns="http://www.w3.org/2000/svg">
<path d="M30.8127 9.70156C27.8941 3.91508 22.116 0 15.5 0C8.88396 0 3.10428 3.91781 0.187263 9.70211C0.064146 9.94958 0 10.223 0 10.5003C0 10.7776 0.064146 11.051 0.187263 11.2984C3.1059 17.0849 8.88396 21 15.5 21C22.116 21 27.8957 17.0822 30.8127 11.2979C30.9359 11.0504 31 10.777 31 10.4997C31 10.2224 30.9359 9.94903 30.8127 9.70156ZM15.5075 18.375H15.5C13.4459 18.374 11.4763 17.544 10.0243 16.0676C8.5724 14.5911 7.75702 12.5891 7.75752 10.5019C7.75802 8.41468 8.57436 6.41311 10.027 4.93739C11.4797 3.46168 13.4497 2.63266 15.5038 2.63266C17.5579 2.63266 19.5279 3.46168 20.9805 4.93739C22.4332 6.41311 23.2495 8.41468 23.25 10.5019C23.2505 12.5891 22.4351 14.5911 20.9832 16.0676C19.5312 17.544 17.5616 18.374 15.5075 18.375Z" fill="white"/>
<path d="M20.4869 11.8603C20.3111 12.5258 20.0078 13.1496 19.5943 13.6958C19.1809 14.242 18.6654 14.6999 18.0775 15.0433C17.4896 15.3868 16.8407 15.609 16.1681 15.6972C15.4956 15.7854 14.8125 15.7378 14.158 15.5573C13.5035 15.3768 12.8906 15.0669 12.3542 14.6452C11.8178 14.2236 11.3686 13.6985 11.0322 13.1002C10.6959 12.5018 10.479 11.8419 10.3941 11.1582C10.3092 10.4746 10.3578 9.78061 10.5373 9.11609C11.0333 9.48699 11.6438 9.66498 12.2579 9.61777C12.872 9.57057 13.4491 9.30129 13.8846 8.85879C14.3201 8.41628 14.5851 7.82984 14.6315 7.20583C14.678 6.58181 14.5028 5.96154 14.1378 5.4575C15.0139 5.20339 15.9408 5.19099 16.8231 5.42156C17.7055 5.65214 18.5115 6.11737 19.1582 6.76941C19.8049 7.42145 20.2691 8.23677 20.5029 9.13152C20.7367 10.0263 20.7317 10.9682 20.4885 11.8603H20.4869Z" fill="white"/>
</svg>
