<svg width="1065" height="715" viewBox="0 0 1065 715" fill="none" xmlns="http://www.w3.org/2000/svg">
<path d="M247.433 271.017H32.9333C18.4333 270.35 -6.66674 262.317 8.93326 235.517C24.5333 208.717 36.4332 213.017 40.4332 218.517C40.7666 211.017 45.1332 195.517 59.9332 193.517C61.2666 188.017 68.0332 177.917 84.4332 181.517C93.0999 175.183 98.9332 164.017 116.433 175.017C125.6 164.683 144.433 146.717 170.433 171.517C179.767 169.35 215.433 158.517 225.933 193.517C232.933 196.183 244.833 204.917 236.433 218.517C243.767 221.517 256.233 230.417 247.433 242.017C254.6 246.517 264.633 258.617 247.433 271.017Z" fill="#45AAF2" fill-opacity="0.1"/>
<path d="M546.433 112.017H331.933C317.433 111.35 292.333 103.317 307.933 76.5166C323.533 49.7166 335.433 54.0167 339.433 59.5167C339.767 52.0166 344.133 36.5166 358.933 34.5166C360.267 29.0166 367.033 18.9166 383.433 22.5166C392.1 16.1833 397.933 5.01654 415.433 16.0167C424.6 5.68344 443.433 -12.2833 469.433 12.5167C478.767 10.3499 514.433 -0.483459 524.933 34.5166C531.933 37.1833 543.833 45.9167 535.433 59.5167C542.767 62.5166 555.233 71.4165 546.433 83.0165C553.6 87.5166 563.633 99.6167 546.433 112.017Z" fill="#45AAF2" fill-opacity="0.1"/>
<path d="M1055.43 286.017H840.933C826.433 285.35 801.333 277.317 816.933 250.517C832.533 223.717 844.433 228.017 848.433 233.517C848.767 226.017 853.133 210.517 867.933 208.517C869.267 203.017 876.033 192.917 892.433 196.517C901.1 190.183 906.933 179.017 924.433 190.017C933.6 179.683 952.433 161.717 978.433 186.517C987.767 184.35 1023.43 173.517 1033.93 208.517C1040.93 211.183 1052.83 219.917 1044.43 233.517C1051.77 236.517 1064.23 245.417 1055.43 257.017C1062.6 261.517 1072.63 273.617 1055.43 286.017Z" fill="#45AAF2" fill-opacity="0.1"/>
<path d="M371.416 198.75C371.416 189.576 378.853 182.14 388.026 182.14H893.778C902.952 182.14 910.388 189.576 910.388 198.75V198.75C910.388 207.923 902.952 215.36 893.778 215.36H388.026C378.853 215.36 371.416 207.923 371.416 198.75V198.75Z" fill="#A6D9FD" fill-opacity="0.1"/>
<path d="M439.835 245.922C439.835 237.116 446.974 229.977 455.78 229.977H859.535C868.342 229.977 875.481 237.116 875.481 245.922V245.922C875.481 254.729 868.342 261.868 859.535 261.868H455.78C446.974 261.868 439.835 254.729 439.835 245.922V245.922Z" fill="#A6D8FB" fill-opacity="0.1"/>
<path d="M411.909 294.423C411.909 285.25 419.345 277.813 428.519 277.813H941.253C950.426 277.813 957.863 285.25 957.863 294.423V294.423C957.863 303.597 950.426 311.033 941.253 311.033H428.519C419.345 311.033 411.909 303.597 411.909 294.423V294.423Z" fill="#A6D8FB" fill-opacity="0.1"/>
<path d="M344.886 343.256C344.886 334.266 352.174 326.979 361.164 326.979H720.271C729.261 326.979 736.549 334.266 736.549 343.256V343.256C736.549 352.246 729.261 359.534 720.271 359.534H361.164C352.174 359.534 344.886 352.246 344.886 343.256V343.256Z" fill="#A6D9FD" fill-opacity="0.1"/>
<path d="M343.49 386.774C343.49 377.968 350.629 370.829 359.436 370.829H823.232C832.038 370.829 839.177 377.968 839.177 386.774V386.774C839.177 395.581 832.038 402.72 823.232 402.72H359.436C350.629 402.72 343.49 395.581 343.49 386.774V386.774Z" fill="#7AC8FF" fill-opacity="0.1"/>
<path d="M386.556 428.299C386.556 419.309 393.844 412.021 402.834 412.021H792.181C801.17 412.021 808.458 419.309 808.458 428.299V428.299C808.458 437.289 801.17 444.577 792.181 444.577H402.834C393.844 444.577 386.556 437.289 386.556 428.299V428.299Z" fill="#58B3F4" fill-opacity="0.1"/>
<path d="M0 428.299C0 419.309 7.28778 412.021 16.2777 412.021H405.625C414.615 412.021 421.902 419.309 421.902 428.299V428.299C421.902 437.289 414.615 444.577 405.625 444.577H16.2777C7.28779 444.577 0 437.289 0 428.299V428.299Z" fill="#58B3F4" fill-opacity="0.1"/>
<path d="M406.213 513.342C406.213 504.352 413.501 497.064 422.491 497.064H734.234C743.224 497.064 750.512 504.352 750.512 513.342V513.342C750.512 522.332 743.224 529.62 734.234 529.62H422.491C413.501 529.62 406.213 522.332 406.213 513.342V513.342Z" fill="#48A8EC" fill-opacity="0.1"/>
<path d="M90.7595 513.342C90.7595 504.352 98.0473 497.064 107.037 497.064H418.78C427.77 497.064 435.058 504.352 435.058 513.342V513.342C435.058 522.332 427.77 529.62 418.78 529.62H107.037C98.0473 529.62 90.7595 522.332 90.7595 513.342V513.342Z" fill="#48A8EC" fill-opacity="0.1"/>
<path d="M406.213 555.864C406.213 546.874 413.501 539.586 422.491 539.586H734.234C743.224 539.586 750.512 546.874 750.512 555.864V555.864C750.512 564.854 743.224 572.141 734.234 572.141H422.491C413.501 572.141 406.213 564.854 406.213 555.864V555.864Z" fill="#7AC8FF" fill-opacity="0.1"/>
<path d="M90.7595 555.864C90.7595 546.874 98.0473 539.586 107.037 539.586H418.78C427.77 539.586 435.058 546.874 435.058 555.864V555.864C435.058 564.854 427.77 572.141 418.78 572.141H107.037C98.0473 572.141 90.7595 564.854 90.7595 555.864V555.864Z" fill="#7AC8FF" fill-opacity="0.1"/>
<path d="M368.513 595.727C368.513 586.737 375.801 579.449 384.791 579.449H696.534C705.524 579.449 712.812 586.737 712.812 595.727V595.727C712.812 604.717 705.524 612.005 696.534 612.005H384.791C375.801 612.005 368.513 604.717 368.513 595.727V595.727Z" fill="#56B9FF" fill-opacity="0.1"/>
<path d="M53.0594 595.727C53.0594 586.737 60.3472 579.449 69.3372 579.449H381.08C390.07 579.449 397.358 586.737 397.358 595.727V595.727C397.358 604.717 390.07 612.005 381.08 612.005H69.3372C60.3472 612.005 53.0594 604.717 53.0594 595.727V595.727Z" fill="#56B9FF" fill-opacity="0.1"/>
<path d="M403.201 470.82C403.201 461.83 410.489 454.542 419.479 454.542H761.462C770.452 454.542 777.74 461.83 777.74 470.82V470.82C777.74 479.81 770.452 487.098 761.462 487.098H419.479C410.489 487.098 403.201 479.81 403.201 470.82V470.82Z" fill="#7AC8FF" fill-opacity="0.1"/>
<path d="M60.041 470.82C60.041 461.83 67.3288 454.542 76.3187 454.542H418.302C427.292 454.542 434.58 461.83 434.58 470.82V470.82C434.58 479.81 427.292 487.098 418.302 487.098H76.3187C67.3288 487.098 60.041 479.81 60.041 470.82V470.82Z" fill="#7AC8FF" fill-opacity="0.1"/>
<path d="M746.649 127.104L737.565 122.056C738.136 117.703 738.136 113.297 737.565 108.944L746.649 103.896C749.317 102.413 750.604 99.3634 749.726 96.5213C746.603 86.3991 741.042 77.2878 733.699 69.8154C731.573 67.6514 728.179 67.1779 725.499 68.6672L716.429 73.7078C712.8 71.0498 708.838 68.8443 704.634 67.1436V57.0575C704.634 54.0731 702.503 51.479 699.485 50.7918C688.999 48.4029 678.003 48.4026 667.515 50.7918C664.497 51.479 662.366 54.0728 662.366 57.0575V67.1436C658.162 68.8442 654.2 71.0498 650.571 73.7078L641.501 68.6672C638.821 67.1779 635.427 67.6514 633.301 69.8154C625.958 77.2878 620.397 86.3994 617.274 96.5213C616.396 99.3634 617.683 102.413 620.351 103.896L629.435 108.944C628.864 113.297 628.864 117.703 629.435 122.056L620.351 127.104C617.683 128.587 616.396 131.637 617.274 134.479C620.397 144.601 625.958 153.712 633.301 161.185C635.427 163.349 638.821 163.822 641.501 162.333L650.571 157.292C654.2 159.95 658.162 162.156 662.366 163.856V173.942C662.366 176.927 664.497 179.521 667.515 180.208C678.001 182.597 688.997 182.597 699.485 180.208C702.503 179.521 704.634 176.927 704.634 173.942V163.856C708.837 162.156 712.8 159.95 716.429 157.292L725.499 162.333C728.179 163.822 731.573 163.349 733.699 161.185C741.042 153.712 746.603 144.601 749.726 134.479C750.604 131.637 749.317 128.587 746.649 127.104ZM728.409 154.043L715.509 146.872C707.991 153.059 705.325 154.615 695.72 157.882V172.222C687.658 173.823 679.342 173.823 671.28 172.222V157.882C661.914 154.697 659.203 153.218 651.491 146.872L638.591 154.043C633.1 148.119 628.928 141.175 626.354 133.675L639.259 126.505C637.439 117.008 637.438 113.997 639.259 104.495L626.354 97.3252C628.928 89.8255 633.101 82.8805 638.591 76.9545L651.491 84.1301C659.117 77.8463 661.815 76.3364 671.28 73.1176V58.7777C679.341 57.1742 687.659 57.1742 695.72 58.7777V73.1178C705.185 76.3369 707.884 77.8471 715.509 84.1303L728.409 76.9547C733.899 82.8805 738.072 89.8255 740.646 97.3255L727.741 104.496C729.561 113.995 729.562 117.003 727.741 126.505L740.646 133.675C738.072 141.175 733.9 148.12 728.409 154.043ZM683.5 89.7582C668.754 89.7582 656.758 101.306 656.758 115.5C656.758 129.694 668.754 141.242 683.5 141.242C698.246 141.242 710.242 129.694 710.242 115.5C710.242 101.306 698.246 89.7582 683.5 89.7582ZM683.5 132.661C673.669 132.661 665.672 124.963 665.672 115.5C665.672 106.037 673.669 98.3388 683.5 98.3388C693.331 98.3388 701.328 106.037 701.328 115.5C701.328 124.963 693.331 132.661 683.5 132.661Z" fill="#45AAF2" fill-opacity="0.1"/>
<path d="M315.892 128.959L315.94 129.007C319.834 127.683 323.369 125.485 326.273 122.582C329.177 119.68 331.371 116.151 332.686 112.269L372.251 151.661C374.423 153.888 375.627 156.877 375.605 159.981C375.582 163.086 374.333 166.057 372.129 168.252C369.924 170.447 366.941 171.69 363.823 171.713C360.706 171.736 357.704 170.536 355.468 168.373L315.892 128.962V128.959ZM363.857 164.447C364.738 164.447 365.598 164.187 366.33 163.7C367.062 163.213 367.632 162.521 367.969 161.711C368.306 160.901 368.394 160.01 368.223 159.151C368.051 158.291 367.627 157.501 367.004 156.881C366.382 156.262 365.589 155.84 364.726 155.669C363.862 155.498 362.967 155.585 362.154 155.921C361.341 156.256 360.646 156.824 360.157 157.553C359.668 158.282 359.407 159.139 359.407 160.015C359.407 161.191 359.876 162.318 360.71 163.149C361.545 163.98 362.677 164.447 363.857 164.447V164.447Z" fill="#07C5D0" fill-opacity="0.2"/>
<path d="M288.504 122.631C295.922 130.017 306.581 132.048 315.898 128.959L315.946 129.007C319.849 127.68 323.392 125.474 326.3 122.562C329.208 119.649 331.402 116.108 332.712 112.214L332.688 112.19C335.755 102.925 333.726 92.2998 326.359 84.9705C323.093 81.7204 319.039 79.3663 314.591 78.1367C310.142 76.9072 305.45 76.844 300.969 77.9534C300.584 78.045 300.229 78.2376 299.944 78.5112C299.658 78.7848 299.45 79.1296 299.343 79.5098C299.236 79.89 299.233 80.2918 299.334 80.6736C299.435 81.0555 299.636 81.4035 299.918 81.6817L313.739 95.4353L311.638 107.992L299.017 110.088L285.195 96.3273C284.918 96.0479 284.571 95.847 284.19 95.7453C283.808 95.6436 283.407 95.6447 283.026 95.7484C282.645 95.8521 282.299 96.0548 282.023 96.3357C281.747 96.6165 281.551 96.9654 281.455 97.3466C280.334 101.808 280.394 106.483 281.629 110.915C282.865 115.346 285.233 119.383 288.504 122.631V122.631Z" fill="#07C5D0" fill-opacity="0.2"/>
<path d="M269.39 188.844H277.177V190.813H269.39V199.286H267.263V190.813H259.634V188.844H267.263V180.653H269.39V188.844Z" fill="white"/>
<path d="M858.629 131.706H866.416V133.675H858.629V142.147H856.502V133.675H848.873V131.706H856.502V123.515H858.629V131.706Z" fill="#45AAF2" fill-opacity="0.1"/>
<path d="M987.089 244.654H994.876V246.623H987.089V255.095H984.962V246.623H977.333V244.654H984.962V236.462H987.089V244.654Z" fill="#45AAF2" fill-opacity="0.1"/>
<path d="M520.724 93.1711H528.511V95.1399H520.724V103.613H518.597V95.1399H510.968V93.1711H518.597V84.9797H520.724V93.1711Z" fill="#45AAF2" fill-opacity="0.3"/>
<path d="M121.307 251.173C130.824 251.173 140.048 254.235 147.405 259.837C154.762 265.438 159.798 273.234 161.655 281.894C163.512 290.554 162.074 299.544 157.588 307.331C153.101 315.119 145.843 321.222 137.049 324.601C128.256 327.98 118.472 328.426 109.364 325.863C100.256 323.299 92.3883 317.886 87.1006 310.544C81.8129 303.202 79.4327 294.386 80.3657 285.598C81.2986 276.811 85.4869 268.595 92.217 262.352C96.0281 258.796 100.561 255.978 105.555 254.059C110.548 252.14 115.902 251.159 121.307 251.173V251.173ZM121.307 227.319C84.3845 227.319 54.4559 255.085 54.4559 289.34C54.4559 323.594 84.3845 351.36 121.307 351.36C158.229 351.36 188.157 323.594 188.157 289.34C188.157 255.085 158.229 227.319 121.307 227.319Z" fill="#00D5AE" fill-opacity="0.2"/>
<path d="M216.73 369.459L207.634 377.898C206.92 378.564 206.071 379.093 205.136 379.454C204.201 379.814 203.199 380 202.186 380C201.174 380 200.171 379.814 199.236 379.454C198.301 379.093 197.452 378.564 196.739 377.898L164.695 348.17C163.98 347.503 163.412 346.713 163.026 345.843C162.64 344.973 162.443 344.041 162.445 343.101V338.24L174.016 327.506H179.255C180.268 327.504 181.273 327.687 182.21 328.045C183.148 328.403 184 328.929 184.718 329.593L216.762 359.321C218.201 360.672 219.006 362.497 219 364.397C218.994 366.296 218.178 368.116 216.73 369.459V369.459Z" fill="#00D5AE" fill-opacity="0.2"/>
<path d="M873.736 353.135L905.024 371.265C906.582 372.175 908.461 372.666 910.388 372.666C912.316 372.666 914.195 372.175 915.753 371.265L947.041 353.135V328.39C947.041 327.091 946.398 325.845 945.252 324.926C944.106 324.007 942.553 323.49 940.933 323.49H879.844C878.224 323.49 876.67 324.007 875.525 324.926C874.379 325.845 873.736 327.091 873.736 328.39V353.135ZM892.062 338.19C892.062 337.54 892.384 336.917 892.957 336.458C893.529 335.998 894.306 335.74 895.116 335.74H925.66C926.471 335.74 927.247 335.998 927.82 336.458C928.393 336.917 928.715 337.54 928.715 338.19V340.64C928.715 341.29 928.393 341.913 927.82 342.373C927.247 342.832 926.471 343.09 925.66 343.09H895.116C894.306 343.09 893.529 342.832 892.957 342.373C892.384 341.913 892.062 341.29 892.062 340.64V338.19ZM892.062 350.44C892.062 349.79 892.384 349.167 892.957 348.708C893.529 348.248 894.306 347.99 895.116 347.99H925.66C926.471 347.99 927.247 348.248 927.82 348.708C928.393 349.167 928.715 349.79 928.715 350.44V352.89C928.715 353.54 928.393 354.163 927.82 354.622C927.247 355.082 926.471 355.34 925.66 355.34H895.116C894.306 355.34 893.529 355.082 892.957 354.622C892.384 354.163 892.062 353.54 892.062 352.89V350.44Z" fill="#F7E8B3" fill-opacity="0.15"/>
<path d="M928.715 338.189C928.715 337.539 928.393 336.916 927.82 336.457C927.248 335.997 926.471 335.739 925.661 335.739H895.116C894.306 335.739 893.529 335.997 892.957 336.457C892.384 336.916 892.062 337.539 892.062 338.189V340.639C892.062 341.289 892.384 341.912 892.957 342.371C893.529 342.831 894.306 343.089 895.116 343.089H925.661C926.471 343.089 927.248 342.831 927.82 342.371C928.393 341.912 928.715 341.289 928.715 340.639V338.189ZM925.661 347.989H895.116C894.306 347.989 893.529 348.247 892.957 348.706C892.384 349.166 892.062 349.789 892.062 350.439V352.889C892.062 353.538 892.384 354.162 892.957 354.621C893.529 355.081 894.306 355.339 895.116 355.339H925.661C926.471 355.339 927.248 355.081 927.82 354.621C928.393 354.162 928.715 353.538 928.715 352.889V350.439C928.715 349.789 928.393 349.166 927.82 348.706C927.248 348.247 926.471 347.989 925.661 347.989ZM924.401 320.029C921.193 318.16 914.817 313.643 910.388 313.689C905.96 313.643 899.584 318.16 896.376 320.029L890.535 323.489H930.242L924.401 320.029ZM873.736 333.442C869.173 336.152 865.584 338.281 865.031 338.648C863.938 339.334 863.055 340.211 862.446 341.211C861.838 342.211 861.52 343.308 861.518 344.421V346.059L873.736 353.134V333.442ZM955.746 338.648C955.193 338.296 951.604 336.152 947.041 333.457V353.134L959.259 346.059V344.421C959.257 343.308 958.939 342.211 958.331 341.211C957.722 340.211 956.839 339.334 955.746 338.648ZM910.388 377.557C907.173 377.556 904.04 376.742 901.435 375.229L861.518 352.108V384.738C861.518 386.688 862.483 388.557 864.202 389.935C865.92 391.314 868.251 392.088 870.681 392.088H950.096C952.526 392.088 954.857 391.314 956.575 389.935C958.294 388.557 959.259 386.688 959.259 384.738V352.108L919.342 375.229C916.737 376.742 913.604 377.556 910.388 377.557Z" fill="#F2C930" fill-opacity="0.4"/>
<path d="M234.579 297.115C234.579 291.592 239.056 287.115 244.579 287.115H646.262C651.784 287.115 656.262 291.592 656.262 297.115V516.298C656.262 521.82 651.784 526.298 646.262 526.298H244.579C239.056 526.298 234.579 521.82 234.579 516.298V297.115Z" fill="#D6ECFB"/>
<path d="M244.579 292.115H646.262C649.023 292.115 651.262 294.353 651.262 297.115V516.298C651.262 519.059 649.023 521.298 646.262 521.298H244.579C241.817 521.298 239.579 519.059 239.579 516.298V297.115C239.579 294.353 241.817 292.115 244.579 292.115Z" stroke="black" stroke-opacity="0.1" stroke-width="10"/>
<path d="M230.006 698.748L244.907 538.032C245.384 532.889 249.7 528.955 254.865 528.955H635.242C640.422 528.955 644.745 532.911 645.203 538.07L659.483 698.786C660.003 704.635 655.395 709.671 649.523 709.671H239.963C234.076 709.671 229.463 704.61 230.006 698.748Z" fill="#101010" fill-opacity="0.1" stroke="black" stroke-opacity="0.1" stroke-width="10"/>
<rect x="259.712" y="542.243" width="32.1149" height="13.2879" rx="3" fill="#0067B0" fill-opacity="0.1"/>
<rect x="301.601" y="542.243" width="32.1149" height="13.2879" rx="3" fill="#0067B0" fill-opacity="0.1"/>
<rect x="343.49" y="542.243" width="32.1149" height="13.2879" rx="3" fill="#0067B0" fill-opacity="0.1"/>
<rect x="385.379" y="542.243" width="32.1149" height="13.2879" rx="3" fill="#0067B0" fill-opacity="0.1"/>
<rect x="428.665" y="542.243" width="32.1149" height="13.2879" rx="3" fill="#0067B0" fill-opacity="0.1"/>
<rect x="471.95" y="542.243" width="32.1149" height="13.2879" rx="3" fill="#0067B0" fill-opacity="0.1"/>
<rect x="513.839" y="542.243" width="32.1149" height="13.2879" rx="3" fill="#0067B0" fill-opacity="0.1"/>
<rect x="555.728" y="542.243" width="32.1149" height="13.2879" rx="3" fill="#0067B0" fill-opacity="0.1"/>
<rect x="599.013" y="542.243" width="32.1149" height="13.2879" rx="3" fill="#0067B0" fill-opacity="0.1"/>
<rect x="258.316" y="560.846" width="32.1149" height="13.2879" rx="3" fill="#0067B0" fill-opacity="0.1"/>
<rect x="300.205" y="560.846" width="32.1149" height="13.2879" rx="3" fill="#0067B0" fill-opacity="0.1"/>
<rect x="342.094" y="560.846" width="32.1149" height="13.2879" rx="3" fill="#0067B0" fill-opacity="0.1"/>
<rect x="383.983" y="560.846" width="32.1149" height="13.2879" rx="3" fill="#0067B0" fill-opacity="0.1"/>
<rect x="427.268" y="560.846" width="32.1149" height="13.2879" rx="3" fill="#0067B0" fill-opacity="0.1"/>
<rect x="470.553" y="560.846" width="32.1149" height="13.2879" rx="3" fill="#0067B0" fill-opacity="0.1"/>
<rect x="512.443" y="560.846" width="32.1149" height="13.2879" rx="3" fill="#0067B0" fill-opacity="0.1"/>
<rect x="557.124" y="560.846" width="32.1149" height="13.2879" rx="3" fill="#0067B0" fill-opacity="0.1"/>
<rect x="600.409" y="560.846" width="32.1149" height="13.2879" rx="3" fill="#0067B0" fill-opacity="0.1"/>
<rect x="256.919" y="580.778" width="32.1149" height="13.2879" rx="3" fill="#0067B0" fill-opacity="0.1"/>
<rect x="298.808" y="580.778" width="32.1149" height="13.2879" rx="3" fill="#0067B0" fill-opacity="0.1"/>
<rect x="340.698" y="580.778" width="32.1149" height="13.2879" rx="3" fill="#0067B0" fill-opacity="0.1"/>
<rect x="382.587" y="580.778" width="32.1149" height="13.2879" rx="3" fill="#0067B0" fill-opacity="0.1"/>
<rect x="425.872" y="580.778" width="32.1149" height="13.2879" rx="3" fill="#0067B0" fill-opacity="0.1"/>
<rect x="469.157" y="580.778" width="32.1149" height="13.2879" rx="3" fill="#0067B0" fill-opacity="0.1"/>
<rect x="512.443" y="580.778" width="32.1149" height="13.2879" rx="3" fill="#0067B0" fill-opacity="0.1"/>
<rect x="555.728" y="580.778" width="32.1149" height="13.2879" rx="3" fill="#0067B0" fill-opacity="0.1"/>
<rect x="600.409" y="580.778" width="32.1149" height="13.2879" rx="3" fill="#0067B0" fill-opacity="0.1"/>
<rect x="255.523" y="600.71" width="32.1149" height="13.2879" rx="3" fill="#0067B0" fill-opacity="0.1"/>
<rect x="297.412" y="600.71" width="32.1149" height="13.2879" rx="3" fill="#0067B0" fill-opacity="0.1"/>
<path d="M339.301 603.71C339.301 602.053 340.644 600.71 342.301 600.71H368.416C370.073 600.71 371.416 602.053 371.416 603.71V610.998C371.416 612.655 370.073 613.998 368.416 613.998H342.301C340.644 613.998 339.301 612.655 339.301 610.998V603.71Z" fill="#0067B0" fill-opacity="0.1"/>
<rect x="381.19" y="600.71" width="32.1149" height="13.2879" rx="3" fill="#0067B0" fill-opacity="0.1"/>
<rect x="424.475" y="600.71" width="32.1149" height="13.2879" rx="3" fill="#0067B0" fill-opacity="0.1"/>
<rect x="467.761" y="600.71" width="32.1149" height="13.2879" rx="3" fill="#0067B0" fill-opacity="0.1"/>
<path d="M512.443 603.71C512.443 602.053 513.786 600.71 515.443 600.71H541.557C543.214 600.71 544.557 602.053 544.557 603.71V610.998C544.557 612.655 543.214 613.998 541.557 613.998H515.443C513.786 613.998 512.443 612.655 512.443 610.998V603.71Z" fill="#0067B0" fill-opacity="0.1"/>
<rect x="555.728" y="600.71" width="32.1149" height="13.2879" rx="3" fill="#0067B0" fill-opacity="0.1"/>
<rect x="600.409" y="600.71" width="32.1149" height="13.2879" rx="3" fill="#0067B0" fill-opacity="0.1"/>
<rect x="254.127" y="620.642" width="32.1149" height="13.2879" rx="3" fill="#0067B0" fill-opacity="0.1"/>
<rect x="296.016" y="620.642" width="32.1149" height="13.2879" rx="3" fill="#0067B0" fill-opacity="0.1"/>
<path d="M337.905 623.642C337.905 621.985 339.248 620.642 340.905 620.642H367.02C368.677 620.642 370.02 621.985 370.02 623.642V630.93C370.02 632.587 368.677 633.93 367.02 633.93H340.905C339.248 633.93 337.905 632.587 337.905 630.93V623.642Z" fill="#0067B0" fill-opacity="0.1"/>
<rect x="379.794" y="620.642" width="32.1149" height="13.2879" rx="3" fill="#0067B0" fill-opacity="0.1"/>
<rect x="423.079" y="620.642" width="32.1149" height="13.2879" rx="3" fill="#0067B0" fill-opacity="0.1"/>
<rect x="466.365" y="620.642" width="32.1149" height="13.2879" rx="3" fill="#0067B0" fill-opacity="0.1"/>
<path d="M511.046 623.642C511.046 621.985 512.389 620.642 514.046 620.642H540.161C541.818 620.642 543.161 621.985 543.161 623.642V630.93C543.161 632.587 541.818 633.93 540.161 633.93H514.046C512.389 633.93 511.046 632.587 511.046 630.93V623.642Z" fill="#0067B0" fill-opacity="0.1"/>
<rect x="555.728" y="620.642" width="32.1149" height="13.2879" rx="3" fill="#0067B0" fill-opacity="0.1"/>
<rect x="601.806" y="620.642" width="32.1149" height="13.2879" rx="3" fill="#0067B0" fill-opacity="0.1"/>
<rect x="252.73" y="640.574" width="32.1149" height="13.2879" rx="3" fill="#0067B0" fill-opacity="0.1"/>
<rect x="296.016" y="640.574" width="32.1149" height="13.2879" rx="3" fill="#0067B0" fill-opacity="0.1"/>
<rect x="554.332" y="640.574" width="32.1149" height="13.2879" rx="3" fill="#0067B0" fill-opacity="0.1"/>
<rect x="601.806" y="640.574" width="32.1149" height="13.2879" rx="3" fill="#0067B0" fill-opacity="0.1"/>
<path d="M342.094 644.238C342.094 642.581 343.437 641.238 345.094 641.238H535.972C537.629 641.238 538.972 642.581 538.972 644.238V650.197C538.972 651.854 537.629 653.197 535.972 653.197H345.094C343.437 653.197 342.094 651.854 342.094 650.197V644.238Z" fill="#0067B0" fill-opacity="0.1" stroke="#0067B0" stroke-opacity="0.1"/>
<path d="M411.027 664.638C411.13 663.061 412.44 661.834 414.02 661.834H471.933C473.513 661.834 474.823 663.061 474.926 664.638L476.627 690.529C476.741 692.259 475.368 693.726 473.633 693.726H412.32C410.585 693.726 409.212 692.259 409.326 690.529L411.027 664.638Z" fill="#0067B0" fill-opacity="0.1" stroke="#0067B0" stroke-opacity="0.1"/>
<ellipse cx="436.344" cy="709.007" rx="2.09445" ry="1.99319" fill="#FE0B0B"/>
<ellipse cx="446.118" cy="709.007" rx="2.09445" ry="1.99319" fill="#FEE60B"/>
<ellipse cx="455.892" cy="709.007" rx="2.09445" ry="1.99319" fill="#A1FE0B"/>
<rect x="265.297" y="397.405" width="13.963" height="13.2879" fill="#F1CB47" fill-opacity="0.4"/>
<rect x="265.297" y="414.679" width="13.963" height="13.2879" fill="#0067B0" fill-opacity="0.1"/>
<rect x="265.297" y="433.282" width="13.963" height="13.2879" fill="#0067B0" fill-opacity="0.1"/>
<path d="M265.297 450.557H279.26V463.845H265.297V450.557Z" fill="#0067B0" fill-opacity="0.1"/>
<rect x="265.297" y="467.831" width="13.963" height="13.2879" fill="#0067B0" fill-opacity="0.1"/>
<rect x="265.297" y="485.105" width="13.963" height="13.2879" fill="#0067B0" fill-opacity="0.1"/>
<rect x="312.771" y="433.282" width="13.963" height="13.2879" fill="#F1CB47" fill-opacity="0.4"/>
<path d="M312.771 451.885H326.734V465.173H312.771V451.885Z" fill="#0067B0" fill-opacity="0.1"/>
<rect x="312.771" y="469.16" width="13.963" height="13.2879" fill="#0067B0" fill-opacity="0.1"/>
<rect x="312.771" y="486.434" width="13.963" height="13.2879" fill="#0067B0" fill-opacity="0.1"/>
<rect x="189.897" y="449.228" width="13.963" height="13.2879" fill="#F1CB47" fill-opacity="0.4"/>
<rect x="189.897" y="467.831" width="13.963" height="13.2879" fill="#0067B0" fill-opacity="0.1"/>
<rect x="189.897" y="485.105" width="13.963" height="13.2879" fill="#0067B0" fill-opacity="0.1"/>
<rect x="357.453" y="451.885" width="13.963" height="13.2879" fill="#F1CB47" fill-opacity="0.4"/>
<rect x="357.453" y="470.488" width="13.963" height="13.2879" fill="#0067B0" fill-opacity="0.1"/>
<rect x="357.453" y="487.763" width="13.963" height="13.2879" fill="#0067B0" fill-opacity="0.1"/>
<rect x="238.768" y="427.967" width="13.963" height="13.2879" fill="#F1CB47" fill-opacity="0.4"/>
<path d="M238.768 447.899H252.731V461.187H238.768V447.899Z" fill="#0067B0" fill-opacity="0.1"/>
<rect x="238.768" y="466.502" width="13.963" height="13.2879" fill="#0067B0" fill-opacity="0.1"/>
<rect x="238.768" y="485.105" width="13.963" height="13.2879" fill="#0067B0" fill-opacity="0.1"/>
<rect x="379.794" y="430.625" width="13.963" height="13.2879" fill="#F1CB47" fill-opacity="0.4"/>
<path d="M379.794 450.556H393.757V463.844H379.794V450.556Z" fill="#0067B0" fill-opacity="0.1"/>
<rect x="379.794" y="469.16" width="13.963" height="13.2879" fill="#0067B0" fill-opacity="0.1"/>
<rect x="379.794" y="487.763" width="13.963" height="13.2879" fill="#0067B0" fill-opacity="0.1"/>
<rect x="335.112" y="413.35" width="13.963" height="13.2879" fill="#F1CB47" fill-opacity="0.4"/>
<path d="M335.112 449.228H349.075V462.515H335.112V449.228Z" fill="#0067B0" fill-opacity="0.1"/>
<path d="M335.112 430.625H349.075V443.912H335.112V430.625Z" fill="#0067B0" fill-opacity="0.1"/>
<rect x="335.112" y="467.831" width="13.963" height="13.2879" fill="#0067B0" fill-opacity="0.1"/>
<rect x="335.112" y="486.434" width="13.963" height="13.2879" fill="#0067B0" fill-opacity="0.1"/>
<rect x="212.238" y="397.405" width="13.963" height="13.2879" fill="#F1CB47" fill-opacity="0.4"/>
<rect x="212.238" y="414.679" width="13.963" height="13.2879" fill="#0067B0" fill-opacity="0.1"/>
<rect x="212.238" y="433.282" width="13.963" height="13.2879" fill="#0067B0" fill-opacity="0.1"/>
<path d="M212.238 450.557H226.201V463.845H212.238V450.557Z" fill="#0067B0" fill-opacity="0.1"/>
<rect x="212.238" y="467.831" width="13.963" height="13.2879" fill="#0067B0" fill-opacity="0.1"/>
<rect x="212.238" y="485.105" width="13.963" height="13.2879" fill="#0067B0" fill-opacity="0.1"/>
<rect x="289.034" y="486.434" width="13.963" height="13.2879" fill="#0067B0" fill-opacity="0.1"/>
<rect x="451.005" y="344.253" width="37.7001" height="9.30156" fill="#F1CB47" fill-opacity="0.4"/>
<rect x="451.005" y="356.212" width="37.7001" height="9.30156" fill="#F1CB47" fill-opacity="0.4"/>
<rect x="451.005" y="368.171" width="37.7001" height="9.30156" fill="#F1CB47" fill-opacity="0.4"/>
<rect x="451.005" y="380.13" width="37.7001" height="9.30156" fill="#F1CB47" fill-opacity="0.4"/>
<rect x="451.005" y="392.089" width="37.7001" height="9.30156" fill="#F1CB47" fill-opacity="0.4"/>
<rect x="451.005" y="404.048" width="37.7001" height="9.30156" fill="#F1CB47" fill-opacity="0.4"/>
<rect x="451.005" y="416.008" width="37.7001" height="9.30156" fill="#F1CB47" fill-opacity="0.4"/>
<rect x="451.005" y="427.967" width="37.7001" height="9.30156" fill="#F1CB47" fill-opacity="0.4"/>
<rect x="451.005" y="439.926" width="37.7001" height="9.30156" fill="#F1CB47" fill-opacity="0.4"/>
<rect x="451.005" y="451.885" width="37.7001" height="9.30156" fill="#F1CB47" fill-opacity="0.4"/>
<rect x="451.005" y="463.844" width="37.7001" height="9.30156" fill="#F1CB47" fill-opacity="0.4"/>
<rect x="513.839" y="344.253" width="54.4557" height="9.30156" fill="#0067B0" fill-opacity="0.1"/>
<rect x="513.839" y="356.212" width="54.4557" height="9.30156" fill="#0067B0" fill-opacity="0.1"/>
<rect x="513.839" y="368.171" width="54.4557" height="9.30156" fill="#0067B0" fill-opacity="0.1"/>
<rect x="513.839" y="380.13" width="54.4557" height="9.30156" fill="#0067B0" fill-opacity="0.1"/>
<rect x="513.839" y="392.089" width="54.4557" height="9.30156" fill="#0067B0" fill-opacity="0.1"/>
<rect x="513.839" y="404.048" width="54.4557" height="9.30156" fill="#0067B0" fill-opacity="0.1"/>
<rect x="513.839" y="416.008" width="54.4557" height="9.30156" fill="#0067B0" fill-opacity="0.1"/>
<rect x="513.839" y="427.967" width="54.4557" height="9.30156" fill="#0067B0" fill-opacity="0.1"/>
<rect x="513.839" y="439.926" width="54.4557" height="9.30156" fill="#0067B0" fill-opacity="0.1"/>
<rect x="513.839" y="451.885" width="54.4557" height="9.30156" fill="#0067B0" fill-opacity="0.1"/>
<rect x="513.839" y="463.844" width="54.4557" height="9.30156" fill="#0067B0" fill-opacity="0.1"/>
<rect x="578.069" y="344.253" width="54.4557" height="9.30156" fill="#0067B0" fill-opacity="0.1"/>
<rect x="578.069" y="356.212" width="54.4557" height="9.30156" fill="#0067B0" fill-opacity="0.1"/>
<rect x="578.069" y="368.171" width="54.4557" height="9.30156" fill="#0067B0" fill-opacity="0.1"/>
<rect x="578.069" y="380.13" width="54.4557" height="9.30156" fill="#0067B0" fill-opacity="0.1"/>
<rect x="578.069" y="392.089" width="54.4557" height="9.30156" fill="#0067B0" fill-opacity="0.1"/>
<rect x="578.069" y="404.048" width="54.4557" height="9.30156" fill="#0067B0" fill-opacity="0.1"/>
<rect x="578.069" y="416.008" width="54.4557" height="9.30156" fill="#0067B0" fill-opacity="0.1"/>
<rect x="578.069" y="427.967" width="54.4557" height="9.30156" fill="#0067B0" fill-opacity="0.1"/>
<rect x="578.069" y="439.926" width="54.4557" height="9.30156" fill="#0067B0" fill-opacity="0.1"/>
<rect x="578.069" y="451.885" width="54.4557" height="9.30156" fill="#0067B0" fill-opacity="0.1"/>
<rect x="578.069" y="463.844" width="54.4557" height="9.30156" fill="#0067B0" fill-opacity="0.1"/>
<rect x="647.884" y="344.253" width="54.4557" height="9.30156" fill="#0067B0" fill-opacity="0.1"/>
<rect x="647.884" y="356.212" width="54.4557" height="9.30156" fill="#0067B0" fill-opacity="0.1"/>
<rect x="647.884" y="368.171" width="54.4557" height="9.30156" fill="#0067B0" fill-opacity="0.1"/>
<rect x="647.884" y="380.13" width="54.4557" height="9.30156" fill="#0067B0" fill-opacity="0.1"/>
<rect x="647.884" y="392.089" width="54.4557" height="9.30156" fill="#0067B0" fill-opacity="0.1"/>
<rect x="647.884" y="404.048" width="54.4557" height="9.30156" fill="#0067B0" fill-opacity="0.1"/>
<rect x="647.884" y="416.008" width="54.4557" height="9.30156" fill="#0067B0" fill-opacity="0.1"/>
<rect x="647.884" y="427.967" width="54.4557" height="9.30156" fill="#0067B0" fill-opacity="0.1"/>
<rect x="647.884" y="439.926" width="54.4557" height="9.30156" fill="#0067B0" fill-opacity="0.1"/>
<rect x="647.884" y="451.885" width="54.4557" height="9.30156" fill="#0067B0" fill-opacity="0.1"/>
<rect x="647.884" y="463.844" width="54.4557" height="9.30156" fill="#0067B0" fill-opacity="0.1"/>
<rect x="717.699" y="344.253" width="54.4557" height="9.30156" fill="#0067B0" fill-opacity="0.1"/>
<rect x="717.699" y="356.212" width="54.4557" height="9.30156" fill="#0067B0" fill-opacity="0.1"/>
<rect x="717.699" y="368.171" width="37.7001" height="9.30156" fill="#F1CB47" fill-opacity="0.4"/>
<rect x="717.699" y="380.13" width="54.4557" height="9.30156" fill="#0067B0" fill-opacity="0.1"/>
<rect x="717.699" y="392.089" width="54.4557" height="9.30156" fill="#0067B0" fill-opacity="0.1"/>
<rect x="717.699" y="404.048" width="54.4557" height="9.30156" fill="#0067B0" fill-opacity="0.1"/>
<rect x="717.699" y="416.008" width="18.1519" height="9.30156" fill="#F1CB47" fill-opacity="0.4"/>
<rect x="717.699" y="427.967" width="54.4557" height="9.30156" fill="#0067B0" fill-opacity="0.1"/>
<rect x="717.699" y="439.926" width="46.0779" height="9.30156" fill="#F1CB47" fill-opacity="0.4"/>
<rect x="717.699" y="451.885" width="54.4557" height="9.30156" fill="#0067B0" fill-opacity="0.1"/>
<rect x="717.699" y="463.844" width="54.4557" height="9.30156" fill="#0067B0" fill-opacity="0.1"/>
<rect x="784.721" y="342.924" width="54.4557" height="9.30156" fill="#F1CB47" fill-opacity="0.4"/>
<rect x="784.721" y="366.842" width="37.7001" height="9.30156" fill="#F1CB47" fill-opacity="0.4"/>
<rect x="784.721" y="390.761" width="54.4557" height="9.30156" fill="#0067B0" fill-opacity="0.1"/>
<rect x="784.721" y="402.72" width="54.4557" height="9.30156" fill="#F1CB47" fill-opacity="0.4"/>
<rect x="784.721" y="414.679" width="18.1519" height="9.30156" fill="#F1CB47" fill-opacity="0.4"/>
<rect x="784.721" y="426.638" width="54.4557" height="9.30156" fill="#F1CB47" fill-opacity="0.4"/>
<rect x="784.721" y="450.557" width="54.4557" height="9.30156" fill="#F1CB47" fill-opacity="0.4"/>
<rect x="784.721" y="462.515" width="54.4557" height="9.30156" fill="#0067B0" fill-opacity="0.1"/>
<path d="M429.761 421.461C440.639 418.119 451.641 395.002 455.783 383.861L464.223 388.636L444.765 438.769L443.845 485.919H410.443L411.945 438.769L396.472 459.957L391.315 456.077L408.897 421.461C414.711 418.596 425.229 420.268 429.761 421.461Z" fill="#008AFA" fill-opacity="0.1"/>
<path d="M411.768 474.289L406.603 537.911H411.768C414.351 525.408 420.456 499.076 424.212 493.78C424.917 492.187 426.748 489.955 428.438 493.78C430.708 501.748 435.67 521.73 437.361 537.911H443.465V474.289H411.768Z" fill="#434343" fill-opacity="0.1" stroke="#434343" stroke-opacity="0.1"/>
<path d="M412.419 539.104C414.003 538.958 417.266 538.403 417.646 537.352C417.947 536.519 411.906 536.731 406.704 537.073C405.097 537.178 404.546 538.891 406.105 539.295C407.579 539.676 409.615 539.75 412.419 539.104Z" fill="#434343" fill-opacity="0.1" stroke="#434343" stroke-opacity="0.1"/>
<path d="M443.569 539.104C445.021 538.958 448.012 538.403 448.361 537.352C448.635 536.525 443.173 536.728 438.427 537.066C436.866 537.177 436.28 538.872 437.787 539.296C439.137 539.676 441.003 539.749 443.569 539.104Z" fill="#434343" fill-opacity="0.1" stroke="#434343" stroke-opacity="0.1"/>
<path d="M457.222 384.458C457.222 381.474 457.849 374.849 460.36 372.223C461.406 372.024 463.643 372.163 464.223 374.312C465.028 376.898 465.865 383.205 462.774 387.741L457.222 384.458Z" fill="#EDD991" fill-opacity="0.4"/>
<path d="M396.547 460.037C396.252 462.41 395.016 467.566 392.436 469.212C391.45 469.186 389.397 468.682 389.074 466.872C388.586 464.675 388.437 459.514 391.742 456.452L396.547 460.037Z" fill="#EDD991" fill-opacity="0.4"/>
<ellipse cx="428.01" cy="413.106" rx="7.24249" ry="9.54924" fill="#EDD991" fill-opacity="0.4"/>
<path d="M442.495 404.452C442.495 406.759 437.091 412.211 430.424 412.211C423.758 412.211 420.285 416.607 420.285 414.299C420.285 411.992 421.827 402.661 428.493 402.661C435.16 402.661 442.495 402.144 442.495 404.452Z" fill="#11A1BE" fill-opacity="0.1"/>
<path d="M139.025 549.387C138.853 551.207 138.181 552.629 137.009 553.652C135.837 554.668 134.279 555.176 132.333 555.176C130.974 555.176 129.775 554.855 128.736 554.215C127.704 553.566 126.908 552.648 126.345 551.461C125.783 550.273 125.49 548.895 125.466 547.324V545.73C125.466 544.121 125.751 542.703 126.322 541.477C126.892 540.25 127.708 539.305 128.771 538.641C129.841 537.977 131.076 537.645 132.474 537.645C134.357 537.645 135.872 538.156 137.021 539.18C138.169 540.203 138.837 541.648 139.025 543.516H136.072C135.931 542.289 135.572 541.406 134.994 540.867C134.423 540.32 133.583 540.047 132.474 540.047C131.185 540.047 130.193 540.52 129.497 541.465C128.81 542.402 128.458 543.781 128.443 545.602V547.113C128.443 548.957 128.771 550.363 129.427 551.332C130.091 552.301 131.06 552.785 132.333 552.785C133.497 552.785 134.372 552.523 134.958 552C135.544 551.477 135.915 550.605 136.072 549.387H139.025ZM150.603 550.547C150.603 549.797 150.337 549.219 149.806 548.812C149.283 548.406 148.333 547.996 146.958 547.582C145.583 547.168 144.49 546.707 143.677 546.199C142.122 545.223 141.345 543.949 141.345 542.379C141.345 541.004 141.904 539.871 143.021 538.98C144.146 538.09 145.603 537.645 147.392 537.645C148.579 537.645 149.638 537.863 150.568 538.301C151.497 538.738 152.228 539.363 152.759 540.176C153.29 540.98 153.556 541.875 153.556 542.859H150.603C150.603 541.969 150.322 541.273 149.759 540.773C149.204 540.266 148.408 540.012 147.369 540.012C146.4 540.012 145.646 540.219 145.107 540.633C144.576 541.047 144.31 541.625 144.31 542.367C144.31 542.992 144.599 543.516 145.177 543.938C145.755 544.352 146.708 544.758 148.036 545.156C149.365 545.547 150.431 545.996 151.236 546.504C152.04 547.004 152.63 547.582 153.005 548.238C153.38 548.887 153.568 549.648 153.568 550.523C153.568 551.945 153.021 553.078 151.927 553.922C150.841 554.758 149.365 555.176 147.497 555.176C146.263 555.176 145.126 554.949 144.087 554.496C143.056 554.035 142.251 553.402 141.673 552.598C141.103 551.793 140.818 550.855 140.818 549.785H143.783C143.783 550.754 144.103 551.504 144.744 552.035C145.384 552.566 146.302 552.832 147.497 552.832C148.529 552.832 149.302 552.625 149.818 552.211C150.341 551.789 150.603 551.234 150.603 550.547ZM165.087 550.547C165.087 549.797 164.822 549.219 164.29 548.812C163.767 548.406 162.818 547.996 161.443 547.582C160.068 547.168 158.974 546.707 158.161 546.199C156.607 545.223 155.829 543.949 155.829 542.379C155.829 541.004 156.388 539.871 157.505 538.98C158.63 538.09 160.087 537.645 161.876 537.645C163.064 537.645 164.122 537.863 165.052 538.301C165.982 538.738 166.712 539.363 167.244 540.176C167.775 540.98 168.04 541.875 168.04 542.859H165.087C165.087 541.969 164.806 541.273 164.244 540.773C163.689 540.266 162.892 540.012 161.853 540.012C160.884 540.012 160.13 540.219 159.591 540.633C159.06 541.047 158.794 541.625 158.794 542.367C158.794 542.992 159.083 543.516 159.661 543.938C160.24 544.352 161.193 544.758 162.521 545.156C163.849 545.547 164.915 545.996 165.72 546.504C166.525 547.004 167.115 547.582 167.49 548.238C167.865 548.887 168.052 549.648 168.052 550.523C168.052 551.945 167.505 553.078 166.411 553.922C165.326 554.758 163.849 555.176 161.982 555.176C160.747 555.176 159.611 554.949 158.572 554.496C157.54 554.035 156.736 553.402 156.158 552.598C155.587 551.793 155.302 550.855 155.302 549.785H158.267C158.267 550.754 158.587 551.504 159.228 552.035C159.869 552.566 160.786 552.832 161.982 552.832C163.013 552.832 163.786 552.625 164.302 552.211C164.826 551.789 165.087 551.234 165.087 550.547ZM173.49 545.109H175.224C176.099 545.102 176.79 544.875 177.298 544.43C177.814 543.984 178.072 543.34 178.072 542.496C178.072 541.684 177.857 541.055 177.427 540.609C177.005 540.156 176.357 539.93 175.482 539.93C174.716 539.93 174.087 540.152 173.595 540.598C173.103 541.035 172.857 541.609 172.857 542.32H170.009C170.009 541.445 170.24 540.648 170.701 539.93C171.169 539.211 171.818 538.652 172.646 538.254C173.482 537.848 174.415 537.645 175.447 537.645C177.15 537.645 178.486 538.074 179.454 538.934C180.431 539.785 180.919 540.973 180.919 542.496C180.919 543.262 180.673 543.984 180.181 544.664C179.697 545.336 179.068 545.844 178.294 546.188C179.232 546.508 179.943 547.012 180.427 547.699C180.919 548.387 181.165 549.207 181.165 550.16C181.165 551.691 180.638 552.91 179.583 553.816C178.536 554.723 177.158 555.176 175.447 555.176C173.806 555.176 172.462 554.738 171.415 553.863C170.369 552.988 169.845 551.824 169.845 550.371H172.693C172.693 551.121 172.943 551.73 173.443 552.199C173.951 552.668 174.63 552.902 175.482 552.902C176.365 552.902 177.06 552.668 177.568 552.199C178.076 551.73 178.329 551.051 178.329 550.16C178.329 549.262 178.064 548.57 177.533 548.086C177.001 547.602 176.212 547.359 175.165 547.359H173.49V545.109Z" fill="#F7F7F7"/>
<path d="M310.77 526.797C310.598 528.618 309.926 530.04 308.754 531.063C307.582 532.079 306.024 532.586 304.078 532.586C302.719 532.586 301.52 532.266 300.481 531.625C299.449 530.977 298.653 530.059 298.09 528.872C297.528 527.684 297.235 526.305 297.211 524.735V523.141C297.211 521.532 297.496 520.114 298.067 518.887C298.637 517.661 299.453 516.715 300.516 516.051C301.586 515.387 302.821 515.055 304.219 515.055C306.102 515.055 307.617 515.567 308.766 516.59C309.914 517.614 310.582 519.059 310.77 520.926H307.817C307.676 519.7 307.317 518.817 306.739 518.278C306.168 517.731 305.328 517.458 304.219 517.458C302.93 517.458 301.938 517.93 301.242 518.875C300.555 519.813 300.203 521.192 300.188 523.012V524.524C300.188 526.368 300.516 527.774 301.172 528.743C301.836 529.711 302.805 530.196 304.078 530.196C305.242 530.196 306.117 529.934 306.703 529.411C307.289 528.887 307.66 528.016 307.817 526.797H310.77ZM319.735 522.965H324.188V525.567H319.735V530.641H316.969V525.567H312.492V522.965H316.969V518.219H319.735V522.965ZM333.117 522.965H337.571V525.567H333.117V530.641H330.352V525.567H325.875V522.965H330.352V518.219H333.117V522.965Z" fill="#F7F7F7"/>
<path d="M497.961 616.987C497.961 616.237 497.696 615.659 497.164 615.252C496.641 614.846 495.692 614.436 494.317 614.022C492.942 613.608 491.848 613.147 491.036 612.639C489.481 611.663 488.703 610.389 488.703 608.819C488.703 607.444 489.262 606.311 490.379 605.42C491.504 604.53 492.961 604.084 494.75 604.084C495.938 604.084 496.996 604.303 497.926 604.741C498.856 605.178 499.586 605.803 500.118 606.616C500.649 607.42 500.914 608.315 500.914 609.299H497.961C497.961 608.409 497.68 607.713 497.118 607.213C496.563 606.706 495.766 606.452 494.727 606.452C493.758 606.452 493.004 606.659 492.465 607.073C491.934 607.487 491.668 608.065 491.668 608.807C491.668 609.432 491.957 609.956 492.536 610.377C493.114 610.792 494.067 611.198 495.395 611.596C496.723 611.987 497.789 612.436 498.594 612.944C499.399 613.444 499.989 614.022 500.364 614.678C500.739 615.327 500.926 616.088 500.926 616.963C500.926 618.385 500.379 619.518 499.286 620.362C498.2 621.198 496.723 621.616 494.856 621.616C493.621 621.616 492.485 621.389 491.446 620.936C490.414 620.475 489.61 619.842 489.032 619.038C488.461 618.233 488.176 617.295 488.176 616.225H491.141C491.141 617.194 491.461 617.944 492.102 618.475C492.743 619.006 493.661 619.272 494.856 619.272C495.887 619.272 496.661 619.065 497.176 618.651C497.7 618.229 497.961 617.674 497.961 616.987ZM516.911 617.163L519.536 604.319H522.477L518.539 621.381H515.703L512.457 608.924L509.141 621.381H506.293L502.356 604.319H505.297L507.946 617.139L511.203 604.319H513.688L516.911 617.163ZM527.774 621.381H524.821V604.319H527.774V621.381ZM541.25 614.151H534.383V621.381H531.418V604.319H542.258V606.709H534.383V611.784H541.25V614.151ZM557.176 606.709H551.856V621.381H548.914V606.709H543.641V604.319H557.176V606.709Z" fill="#F7F7F7"/>
<path d="M493.405 254.938V261.278H490.44V244.216H496.967C498.874 244.216 500.385 244.712 501.502 245.704C502.627 246.696 503.19 248.009 503.19 249.642C503.19 251.313 502.639 252.614 501.538 253.544C500.444 254.474 498.909 254.938 496.932 254.938H493.405ZM493.405 252.56H496.967C498.022 252.56 498.827 252.313 499.381 251.821C499.936 251.321 500.213 250.603 500.213 249.665C500.213 248.743 499.932 248.009 499.37 247.462C498.807 246.907 498.034 246.622 497.049 246.606H493.405V252.56ZM519.338 261.278H516.385V253.696H508.756V261.278H505.792V244.216H508.756V251.317H516.385V244.216H519.338V261.278ZM528.092 252.302L532.018 244.216H535.299L529.581 254.997V261.278H526.604V254.997L520.874 244.216H524.167L528.092 252.302ZM549.69 246.606H544.37V261.278H541.428V246.606H536.155V244.216H549.69V246.606ZM565.487 261.278H562.534V253.696H554.905V261.278H551.94V244.216H554.905V251.317H562.534V244.216H565.487V261.278ZM582.62 253.192C582.62 254.864 582.331 256.333 581.752 257.599C581.174 258.856 580.346 259.825 579.268 260.505C578.198 261.177 576.963 261.513 575.565 261.513C574.182 261.513 572.948 261.177 571.862 260.505C570.784 259.825 569.948 258.86 569.354 257.61C568.768 256.36 568.471 254.919 568.463 253.286V252.325C568.463 250.661 568.756 249.192 569.342 247.919C569.936 246.646 570.768 245.673 571.838 245.001C572.917 244.321 574.151 243.981 575.542 243.981C576.932 243.981 578.163 244.317 579.233 244.989C580.311 245.653 581.143 246.614 581.729 247.872C582.315 249.122 582.612 250.579 582.62 252.243V253.192ZM579.655 252.302C579.655 250.411 579.295 248.962 578.577 247.954C577.866 246.946 576.854 246.442 575.542 246.442C574.26 246.442 573.256 246.946 572.53 247.954C571.811 248.954 571.444 250.372 571.428 252.208V253.192C571.428 255.067 571.792 256.517 572.518 257.54C573.252 258.563 574.268 259.075 575.565 259.075C576.877 259.075 577.885 258.575 578.588 257.575C579.299 256.575 579.655 255.114 579.655 253.192V252.302ZM599.108 261.278H596.143L588.538 249.173V261.278H585.573V244.216H588.538L596.167 256.368V244.216H599.108V261.278Z" fill="#F7F7F7"/>
<path d="M230.016 254.704H226.711V261.278H223.746V244.216H229.746C231.715 244.216 233.234 244.657 234.305 245.54C235.375 246.423 235.91 247.7 235.91 249.372C235.91 250.513 235.633 251.47 235.078 252.243C234.531 253.009 233.766 253.599 232.781 254.013L236.613 261.126V261.278H233.438L230.016 254.704ZM226.711 252.325H229.758C230.758 252.325 231.539 252.075 232.102 251.575C232.664 251.067 232.945 250.376 232.945 249.501C232.945 248.587 232.684 247.88 232.16 247.38C231.645 246.88 230.871 246.622 229.84 246.606H226.711V252.325ZM251.203 244.216V255.618C251.203 257.431 250.621 258.868 249.457 259.931C248.301 260.985 246.758 261.513 244.828 261.513C242.875 261.513 241.324 260.993 240.176 259.954C239.027 258.907 238.453 257.458 238.453 255.606V244.216H241.406V255.63C241.406 256.771 241.695 257.642 242.274 258.243C242.852 258.845 243.703 259.146 244.828 259.146C247.109 259.146 248.25 257.942 248.25 255.536V244.216H251.203ZM254.379 261.278V244.216H260.227C262.156 244.216 263.625 244.603 264.633 245.376C265.641 246.149 266.145 247.302 266.145 248.833C266.145 249.614 265.934 250.317 265.512 250.942C265.09 251.567 264.473 252.052 263.66 252.396C264.582 252.646 265.293 253.118 265.793 253.813C266.301 254.501 266.555 255.329 266.555 256.298C266.555 257.899 266.039 259.13 265.008 259.989C263.984 260.849 262.516 261.278 260.602 261.278H254.379ZM257.344 253.579V258.911H260.637C261.567 258.911 262.293 258.681 262.817 258.22C263.34 257.759 263.602 257.118 263.602 256.298C263.602 254.524 262.695 253.618 260.883 253.579H257.344ZM257.344 251.399H260.25C261.172 251.399 261.891 251.192 262.406 250.778C262.93 250.356 263.192 249.763 263.192 248.997C263.192 248.153 262.949 247.544 262.465 247.169C261.988 246.794 261.242 246.606 260.227 246.606H257.344V251.399ZM274.43 252.302L278.356 244.216H281.637L275.918 254.997V261.278H272.942V254.997L267.211 244.216H270.504L274.43 252.302Z" fill="#F7F7F7"/>
<path d="M458.593 217.405L452.847 223.456C451.805 224.541 450.158 224.559 449.083 223.527C424.55 199.733 386.693 199.733 362.177 223.527C361.101 224.577 359.455 224.541 358.413 223.456L352.666 217.405L352.582 217.316C351.574 216.177 351.641 214.379 352.733 213.312C382.458 184.16 428.751 184.142 458.526 213.312C458.56 213.347 458.593 213.365 458.61 213.4C459.652 214.522 459.635 216.301 458.593 217.405Z" fill="#F5F5F5"/>
<path d="M405.613 248.389C399.681 248.389 394.859 253.497 394.859 259.779C394.859 266.062 399.681 271.169 405.613 271.169C411.545 271.169 416.367 266.062 416.367 259.779C416.367 253.497 411.545 248.389 405.613 248.389ZM439.807 233.654L439.673 233.511C420.299 215.376 390.91 215.394 371.57 233.511C370.478 234.544 370.377 236.323 371.335 237.48C371.385 237.533 371.419 237.587 371.469 237.622L377.249 243.673C378.257 244.723 379.871 244.795 380.946 243.816C395.061 230.895 416.182 230.931 430.263 243.816C431.339 244.795 432.952 244.741 433.96 243.673L439.74 237.622C440.816 236.555 440.832 234.775 439.807 233.654Z" fill="#F5F5F5"/>
<path d="M552.049 491.464V497.804H549.084V480.741H555.612C557.518 480.741 559.03 481.237 560.147 482.229C561.272 483.222 561.834 484.534 561.834 486.167C561.834 487.839 561.284 489.14 560.182 490.069C559.088 490.999 557.553 491.464 555.577 491.464H552.049ZM552.049 489.085H555.612C556.667 489.085 557.471 488.839 558.026 488.347C558.581 487.847 558.858 487.128 558.858 486.19C558.858 485.269 558.577 484.534 558.014 483.987C557.452 483.433 556.678 483.147 555.694 483.132H552.049V489.085ZM577.983 497.804H575.03V490.222H567.401V497.804H564.436V480.741H567.401V487.843H575.03V480.741H577.983V497.804ZM584.463 491.464V497.804H581.499V480.741H588.026C589.932 480.741 591.444 481.237 592.561 482.229C593.686 483.222 594.249 484.534 594.249 486.167C594.249 487.839 593.698 489.14 592.596 490.069C591.502 490.999 589.967 491.464 587.991 491.464H584.463ZM584.463 489.085H588.026C589.081 489.085 589.885 488.839 590.44 488.347C590.995 487.847 591.272 487.128 591.272 486.19C591.272 485.269 590.991 484.534 590.428 483.987C589.866 483.433 589.092 483.147 588.108 483.132H584.463V489.085Z" fill="#0060EF" fill-opacity="0.1"/>
<path d="M300.127 331.704H297.174V324.122H289.545V331.704H286.58V314.642H289.545V321.743H297.174V314.642H300.127V331.704ZM315.619 317.032H310.299V331.704H307.357V317.032H302.084V314.642H315.619V317.032ZM321.713 314.642L326.635 327.72L331.545 314.642H335.377V331.704H332.424V326.079L332.717 318.556L327.678 331.704H325.557L320.529 318.568L320.822 326.079V331.704H317.869V314.642H321.713ZM341.857 329.337H349.603V331.704H338.892V314.642H341.857V329.337Z" fill="#0060EF" fill-opacity="0.1"/>
</svg>
