<svg width="166" height="180" viewBox="0 0 166 180" fill="none" xmlns="http://www.w3.org/2000/svg">
<path d="M82.5 23C63.4333 23 51.5167 34.3333 46.75 57C53.9 45.6667 62.2417 41.4167 71.775 44.25C77.2143 45.8666 81.102 50.5576 85.4053 55.7505C92.4155 64.2096 100.529 74 118.25 74C137.317 74 149.233 62.6667 154 40C146.85 51.3333 138.508 55.5833 128.975 52.75C123.536 51.1334 119.648 46.4424 115.345 41.2495C108.335 32.7904 100.221 23 82.5 23ZM46.75 74C27.6833 74 15.7667 85.3333 11 108C18.15 96.6667 26.4917 92.4167 36.025 95.25C41.4643 96.8666 45.352 101.558 49.6553 106.751C56.6655 115.21 64.7789 125 82.5 125C101.567 125 113.483 113.667 118.25 91C111.1 102.333 102.758 106.583 93.225 103.75C87.7857 102.133 83.898 97.4424 79.5947 92.2495C72.5845 83.7904 64.4711 74 46.75 74Z" fill="url(#paint0_linear_186:538)"/>
<path d="M26.5078 152.785H21.2812V167H17.7656V152.785H12.6094V149.938H26.5078V152.785ZM33.6797 167C33.5234 166.695 33.4102 166.316 33.3398 165.863C32.5195 166.777 31.4531 167.234 30.1406 167.234C28.8984 167.234 27.8672 166.875 27.0469 166.156C26.2344 165.438 25.8281 164.531 25.8281 163.438C25.8281 162.094 26.3242 161.062 27.3164 160.344C28.3164 159.625 29.7578 159.262 31.6406 159.254H33.1992V158.527C33.1992 157.941 33.0469 157.473 32.7422 157.121C32.4453 156.77 31.9727 156.594 31.3242 156.594C30.7539 156.594 30.3047 156.73 29.9766 157.004C29.6562 157.277 29.4961 157.652 29.4961 158.129H26.1094C26.1094 157.395 26.3359 156.715 26.7891 156.09C27.2422 155.465 27.8828 154.977 28.7109 154.625C29.5391 154.266 30.4688 154.086 31.5 154.086C33.0625 154.086 34.3008 154.48 35.2148 155.27C36.1367 156.051 36.5977 157.152 36.5977 158.574V164.07C36.6055 165.273 36.7734 166.184 37.1016 166.801V167H33.6797ZM30.8789 164.645C31.3789 164.645 31.8398 164.535 32.2617 164.316C32.6836 164.09 32.9961 163.789 33.1992 163.414V161.234H31.9336C30.2383 161.234 29.3359 161.82 29.2266 162.992L29.2148 163.191C29.2148 163.613 29.3633 163.961 29.6602 164.234C29.957 164.508 30.3633 164.645 30.8789 164.645ZM42.7734 167H39.375V154.32H42.7734V167ZM39.1758 151.039C39.1758 150.531 39.3438 150.113 39.6797 149.785C40.0234 149.457 40.4883 149.293 41.0742 149.293C41.6523 149.293 42.1133 149.457 42.457 149.785C42.8008 150.113 42.9727 150.531 42.9727 151.039C42.9727 151.555 42.7969 151.977 42.4453 152.305C42.1016 152.633 41.6445 152.797 41.0742 152.797C40.5039 152.797 40.043 152.633 39.6914 152.305C39.3477 151.977 39.1758 151.555 39.1758 151.039ZM49.1484 167H45.75V149H49.1484V167ZM62.9766 162.395L64.6406 154.32H67.9102L64.6758 167H61.8398L59.4375 159.02L57.0352 167H54.2109L50.9766 154.32H54.2461L55.8984 162.383L58.2188 154.32H60.668L62.9766 162.395ZM73.1719 167H69.7734V154.32H73.1719V167ZM69.5742 151.039C69.5742 150.531 69.7422 150.113 70.0781 149.785C70.4219 149.457 70.8867 149.293 71.4727 149.293C72.0508 149.293 72.5117 149.457 72.8555 149.785C73.1992 150.113 73.3711 150.531 73.3711 151.039C73.3711 151.555 73.1953 151.977 72.8438 152.305C72.5 152.633 72.043 152.797 71.4727 152.797C70.9023 152.797 70.4414 152.633 70.0898 152.305C69.7461 151.977 69.5742 151.555 69.5742 151.039ZM79.0898 154.32L79.1953 155.785C80.1016 154.652 81.3164 154.086 82.8398 154.086C84.1836 154.086 85.1836 154.48 85.8398 155.27C86.4961 156.059 86.832 157.238 86.8477 158.809V167H83.4609V158.891C83.4609 158.172 83.3047 157.652 82.9922 157.332C82.6797 157.004 82.1602 156.84 81.4336 156.84C80.4805 156.84 79.7656 157.246 79.2891 158.059V167H75.9023V154.32H79.0898ZM88.8984 160.566C88.8984 158.59 89.3398 157.016 90.2227 155.844C91.1133 154.672 92.3281 154.086 93.8672 154.086C95.1016 154.086 96.1211 154.547 96.9258 155.469V149H100.324V167H97.2656L97.1016 165.652C96.2578 166.707 95.1719 167.234 93.8438 167.234C92.3516 167.234 91.1523 166.648 90.2461 165.477C89.3477 164.297 88.8984 162.66 88.8984 160.566ZM92.2852 160.812C92.2852 162 92.4922 162.91 92.9062 163.543C93.3203 164.176 93.9219 164.492 94.7109 164.492C95.7578 164.492 96.4961 164.051 96.9258 163.168V158.164C96.5039 157.281 95.7734 156.84 94.7344 156.84C93.1016 156.84 92.2852 158.164 92.2852 160.812ZM122.543 161.316C122.41 163.152 121.73 164.598 120.504 165.652C119.285 166.707 117.676 167.234 115.676 167.234C113.488 167.234 111.766 166.5 110.508 165.031C109.258 163.555 108.633 161.531 108.633 158.961V157.918C108.633 156.277 108.922 154.832 109.5 153.582C110.078 152.332 110.902 151.375 111.973 150.711C113.051 150.039 114.301 149.703 115.723 149.703C117.691 149.703 119.277 150.23 120.48 151.285C121.684 152.34 122.379 153.82 122.566 155.727H119.051C118.965 154.625 118.656 153.828 118.125 153.336C117.602 152.836 116.801 152.586 115.723 152.586C114.551 152.586 113.672 153.008 113.086 153.852C112.508 154.688 112.211 155.988 112.195 157.754V159.043C112.195 160.887 112.473 162.234 113.027 163.086C113.59 163.938 114.473 164.363 115.676 164.363C116.762 164.363 117.57 164.117 118.102 163.625C118.641 163.125 118.949 162.355 119.027 161.316H122.543ZM133.699 162.523C133.699 161.859 133.465 161.352 132.996 161C132.527 160.641 131.684 160.266 130.465 159.875C129.246 159.477 128.281 159.086 127.57 158.703C125.633 157.656 124.664 156.246 124.664 154.473C124.664 153.551 124.922 152.73 125.438 152.012C125.961 151.285 126.707 150.719 127.676 150.312C128.652 149.906 129.746 149.703 130.957 149.703C132.176 149.703 133.262 149.926 134.215 150.371C135.168 150.809 135.906 151.43 136.43 152.234C136.961 153.039 137.227 153.953 137.227 154.977H133.711C133.711 154.195 133.465 153.59 132.973 153.16C132.48 152.723 131.789 152.504 130.898 152.504C130.039 152.504 129.371 152.688 128.895 153.055C128.418 153.414 128.18 153.891 128.18 154.484C128.18 155.039 128.457 155.504 129.012 155.879C129.574 156.254 130.398 156.605 131.484 156.934C133.484 157.535 134.941 158.281 135.855 159.172C136.77 160.062 137.227 161.172 137.227 162.5C137.227 163.977 136.668 165.137 135.551 165.98C134.434 166.816 132.93 167.234 131.039 167.234C129.727 167.234 128.531 166.996 127.453 166.52C126.375 166.035 125.551 165.375 124.98 164.539C124.418 163.703 124.137 162.734 124.137 161.633H127.664C127.664 163.516 128.789 164.457 131.039 164.457C131.875 164.457 132.527 164.289 132.996 163.953C133.465 163.609 133.699 163.133 133.699 162.523ZM148.465 162.523C148.465 161.859 148.23 161.352 147.762 161C147.293 160.641 146.449 160.266 145.23 159.875C144.012 159.477 143.047 159.086 142.336 158.703C140.398 157.656 139.43 156.246 139.43 154.473C139.43 153.551 139.688 152.73 140.203 152.012C140.727 151.285 141.473 150.719 142.441 150.312C143.418 149.906 144.512 149.703 145.723 149.703C146.941 149.703 148.027 149.926 148.98 150.371C149.934 150.809 150.672 151.43 151.195 152.234C151.727 153.039 151.992 153.953 151.992 154.977H148.477C148.477 154.195 148.23 153.59 147.738 153.16C147.246 152.723 146.555 152.504 145.664 152.504C144.805 152.504 144.137 152.688 143.66 153.055C143.184 153.414 142.945 153.891 142.945 154.484C142.945 155.039 143.223 155.504 143.777 155.879C144.34 156.254 145.164 156.605 146.25 156.934C148.25 157.535 149.707 158.281 150.621 159.172C151.535 160.062 151.992 161.172 151.992 162.5C151.992 163.977 151.434 165.137 150.316 165.98C149.199 166.816 147.695 167.234 145.805 167.234C144.492 167.234 143.297 166.996 142.219 166.52C141.141 166.035 140.316 165.375 139.746 164.539C139.184 163.703 138.902 162.734 138.902 161.633H142.43C142.43 163.516 143.555 164.457 145.805 164.457C146.641 164.457 147.293 164.289 147.762 163.953C148.23 163.609 148.465 163.133 148.465 162.523Z" fill="#16BEB9"/>
<defs>
<linearGradient id="paint0_linear_186:538" x1="82.5" y1="23" x2="82.5" y2="125" gradientUnits="userSpaceOnUse">
<stop stop-color="#1FA4BC"/>
<stop offset="1" stop-color="#12CAB7"/>
</linearGradient>
</defs>
</svg>
