<svg width="166" height="180" viewBox="0 0 166 180" fill="none" xmlns="http://www.w3.org/2000/svg">
<path d="M38.832 161.078L41.1289 148.938H44.6328L40.8477 166H37.3086L34.5312 154.586L31.7539 166H28.2148L24.4297 148.938H27.9336L30.2422 161.055L33.0547 148.938H36.0312L38.832 161.078ZM45.418 159.543C45.418 158.285 45.6602 157.164 46.1445 156.18C46.6289 155.195 47.3242 154.434 48.2305 153.895C49.1445 153.355 50.2031 153.086 51.4062 153.086C53.1172 153.086 54.5117 153.609 55.5898 154.656C56.6758 155.703 57.2812 157.125 57.4062 158.922L57.4297 159.789C57.4297 161.734 56.8867 163.297 55.8008 164.477C54.7148 165.648 53.2578 166.234 51.4297 166.234C49.6016 166.234 48.1406 165.648 47.0469 164.477C45.9609 163.305 45.418 161.711 45.418 159.695V159.543ZM48.8047 159.789C48.8047 160.992 49.0312 161.914 49.4844 162.555C49.9375 163.188 50.5859 163.504 51.4297 163.504C52.25 163.504 52.8906 163.191 53.3516 162.566C53.8125 161.934 54.043 160.926 54.043 159.543C54.043 158.363 53.8125 157.449 53.3516 156.801C52.8906 156.152 52.2422 155.828 51.4062 155.828C50.5781 155.828 49.9375 156.152 49.4844 156.801C49.0312 157.441 48.8047 158.438 48.8047 159.789ZM66.6406 156.496C66.1797 156.434 65.7734 156.402 65.4219 156.402C64.1406 156.402 63.3008 156.836 62.9023 157.703V166H59.5156V153.32H62.7148L62.8086 154.832C63.4883 153.668 64.4297 153.086 65.6328 153.086C66.0078 153.086 66.3594 153.137 66.6875 153.238L66.6406 156.496ZM67.5195 159.566C67.5195 157.59 67.9609 156.016 68.8438 154.844C69.7344 153.672 70.9492 153.086 72.4883 153.086C73.7227 153.086 74.7422 153.547 75.5469 154.469V148H78.9453V166H75.8867L75.7227 164.652C74.8789 165.707 73.793 166.234 72.4648 166.234C70.9727 166.234 69.7734 165.648 68.8672 164.477C67.9688 163.297 67.5195 161.66 67.5195 159.566ZM70.9062 159.812C70.9062 161 71.1133 161.91 71.5273 162.543C71.9414 163.176 72.543 163.492 73.332 163.492C74.3789 163.492 75.1172 163.051 75.5469 162.168V157.164C75.125 156.281 74.3945 155.84 73.3555 155.84C71.7227 155.84 70.9062 157.164 70.9062 159.812ZM85.3086 159.988V166H81.793V148.938H88.4492C89.7305 148.938 90.8555 149.172 91.8242 149.641C92.8008 150.109 93.5508 150.777 94.0742 151.645C94.5977 152.504 94.8594 153.484 94.8594 154.586C94.8594 156.258 94.2852 157.578 93.1367 158.547C91.9961 159.508 90.4141 159.988 88.3906 159.988H85.3086ZM85.3086 157.141H88.4492C89.3789 157.141 90.0859 156.922 90.5703 156.484C91.0625 156.047 91.3086 155.422 91.3086 154.609C91.3086 153.773 91.0625 153.098 90.5703 152.582C90.0781 152.066 89.3984 151.801 88.5312 151.785H85.3086V157.141ZM104.188 156.496C103.727 156.434 103.32 156.402 102.969 156.402C101.688 156.402 100.848 156.836 100.449 157.703V166H97.0625V153.32H100.262L100.355 154.832C101.035 153.668 101.977 153.086 103.18 153.086C103.555 153.086 103.906 153.137 104.234 153.238L104.188 156.496ZM111.43 166.234C109.57 166.234 108.055 165.664 106.883 164.523C105.719 163.383 105.137 161.863 105.137 159.965V159.637C105.137 158.363 105.383 157.227 105.875 156.227C106.367 155.219 107.062 154.445 107.961 153.906C108.867 153.359 109.898 153.086 111.055 153.086C112.789 153.086 114.152 153.633 115.145 154.727C116.145 155.82 116.645 157.371 116.645 159.379V160.762H108.57C108.68 161.59 109.008 162.254 109.555 162.754C110.109 163.254 110.809 163.504 111.652 163.504C112.957 163.504 113.977 163.031 114.711 162.086L116.375 163.949C115.867 164.668 115.18 165.23 114.312 165.637C113.445 166.035 112.484 166.234 111.43 166.234ZM111.043 155.828C110.371 155.828 109.824 156.055 109.402 156.508C108.988 156.961 108.723 157.609 108.605 158.453H113.316V158.184C113.301 157.434 113.098 156.855 112.707 156.449C112.316 156.035 111.762 155.828 111.043 155.828ZM125.445 162.496C125.445 162.082 125.238 161.758 124.824 161.523C124.418 161.281 123.762 161.066 122.855 160.879C119.84 160.246 118.332 158.965 118.332 157.035C118.332 155.91 118.797 154.973 119.727 154.223C120.664 153.465 121.887 153.086 123.395 153.086C125.004 153.086 126.289 153.465 127.25 154.223C128.219 154.98 128.703 155.965 128.703 157.176H125.316C125.316 156.691 125.16 156.293 124.848 155.98C124.535 155.66 124.047 155.5 123.383 155.5C122.812 155.5 122.371 155.629 122.059 155.887C121.746 156.145 121.59 156.473 121.59 156.871C121.59 157.246 121.766 157.551 122.117 157.785C122.477 158.012 123.078 158.211 123.922 158.383C124.766 158.547 125.477 158.734 126.055 158.945C127.844 159.602 128.738 160.738 128.738 162.355C128.738 163.512 128.242 164.449 127.25 165.168C126.258 165.879 124.977 166.234 123.406 166.234C122.344 166.234 121.398 166.047 120.57 165.672C119.75 165.289 119.105 164.77 118.637 164.113C118.168 163.449 117.934 162.734 117.934 161.969H121.145C121.176 162.57 121.398 163.031 121.812 163.352C122.227 163.672 122.781 163.832 123.477 163.832C124.125 163.832 124.613 163.711 124.941 163.469C125.277 163.219 125.445 162.895 125.445 162.496ZM137.797 162.496C137.797 162.082 137.59 161.758 137.176 161.523C136.77 161.281 136.113 161.066 135.207 160.879C132.191 160.246 130.684 158.965 130.684 157.035C130.684 155.91 131.148 154.973 132.078 154.223C133.016 153.465 134.238 153.086 135.746 153.086C137.355 153.086 138.641 153.465 139.602 154.223C140.57 154.98 141.055 155.965 141.055 157.176H137.668C137.668 156.691 137.512 156.293 137.199 155.98C136.887 155.66 136.398 155.5 135.734 155.5C135.164 155.5 134.723 155.629 134.41 155.887C134.098 156.145 133.941 156.473 133.941 156.871C133.941 157.246 134.117 157.551 134.469 157.785C134.828 158.012 135.43 158.211 136.273 158.383C137.117 158.547 137.828 158.734 138.406 158.945C140.195 159.602 141.09 160.738 141.09 162.355C141.09 163.512 140.594 164.449 139.602 165.168C138.609 165.879 137.328 166.234 135.758 166.234C134.695 166.234 133.75 166.047 132.922 165.672C132.102 165.289 131.457 164.77 130.988 164.113C130.52 163.449 130.285 162.734 130.285 161.969H133.496C133.527 162.57 133.75 163.031 134.164 163.352C134.578 163.672 135.133 163.832 135.828 163.832C136.477 163.832 136.965 163.711 137.293 163.469C137.629 163.219 137.797 162.895 137.797 162.496Z" fill="#00749A"/>
<path d="M32.3862 77.498C32.3862 97.7027 44.0286 115.162 60.9109 123.437L36.7681 56.7252C33.874 63.2612 32.3808 70.3399 32.3862 77.498ZM117.166 74.9223C117.166 68.6141 114.919 64.2455 112.992 60.8452C110.426 56.6407 108.022 53.0801 108.022 48.8756C108.022 44.1836 111.55 39.8159 116.52 39.8159C116.745 39.8159 116.958 39.8441 117.177 39.8567C108.172 31.5371 96.175 26.4575 82.9985 26.4575C65.3168 26.4575 49.7607 35.6066 40.7109 49.4642C41.8983 49.5001 43.0183 49.5244 43.9679 49.5244C49.2618 49.5244 57.4564 48.8766 57.4564 48.8766C60.1847 48.7144 60.5064 52.7557 57.7819 53.0811C57.7819 53.0811 55.0392 53.4065 51.9882 53.5677L70.4191 108.855L81.4961 75.3545L73.6097 53.5667C70.8843 53.4055 68.3023 53.0801 68.3023 53.0801C65.5749 52.9189 65.8947 48.7134 68.622 48.8756C68.622 48.8756 76.9804 49.5235 81.9536 49.5235C87.2465 49.5235 95.4421 48.8756 95.4421 48.8756C98.1723 48.7134 98.493 52.7548 95.7666 53.0801C95.7666 53.0801 93.019 53.4055 89.9739 53.5667L108.264 108.436L113.312 91.4227C115.501 84.3627 117.166 79.2919 117.166 74.9223Z" fill="#00749A"/>
<path d="M83.8862 81.9629L68.7008 126.463C73.3434 127.843 78.1583 128.543 82.9983 128.543C88.8922 128.543 94.5443 127.515 99.8055 125.65C99.6644 125.427 99.5438 125.192 99.4453 124.947L83.8862 81.9629ZM127.409 53.0093C127.626 54.6351 127.749 56.3814 127.749 58.2578C127.749 63.4375 126.79 69.26 123.901 76.5404L108.441 121.618C123.488 112.77 133.609 96.3294 133.609 77.4981C133.622 68.9385 131.489 60.5145 127.409 53.0093Z" fill="#00749A"/>
<path d="M82.9986 18C50.4676 18 24 44.6906 24 77.4981C24 110.309 50.4666 137 82.9986 137C115.529 137 142 110.31 142 77.4981C141.999 44.6906 115.529 18 82.9986 18ZM82.9986 134.272C51.9594 134.272 26.7052 108.803 26.7052 77.4981C26.7052 46.196 51.9584 20.7292 82.9986 20.7292C114.037 20.7292 139.289 46.196 139.289 77.4981C139.289 108.803 114.036 134.272 82.9986 134.272Z" fill="#00749A"/>
</svg>
