<svg width="154" height="146" viewBox="0 0 154 146" fill="none" xmlns="http://www.w3.org/2000/svg">
<path d="M27.207 132.078L29.5039 119.938H33.0078L29.2227 137H25.6836L22.9062 125.586L20.1289 137H16.5898L12.8047 119.938H16.3086L18.6172 132.055L21.4297 119.938H24.4062L27.207 132.078ZM40.1562 137.234C38.2969 137.234 36.7812 136.664 35.6094 135.523C34.4453 134.383 33.8633 132.863 33.8633 130.965V130.637C33.8633 129.363 34.1094 128.227 34.6016 127.227C35.0938 126.219 35.7891 125.445 36.6875 124.906C37.5938 124.359 38.625 124.086 39.7812 124.086C41.5156 124.086 42.8789 124.633 43.8711 125.727C44.8711 126.82 45.3711 128.371 45.3711 130.379V131.762H37.2969C37.4062 132.59 37.7344 133.254 38.2812 133.754C38.8359 134.254 39.5352 134.504 40.3789 134.504C41.6836 134.504 42.7031 134.031 43.4375 133.086L45.1016 134.949C44.5938 135.668 43.9062 136.23 43.0391 136.637C42.1719 137.035 41.2109 137.234 40.1562 137.234ZM39.7695 126.828C39.0977 126.828 38.5508 127.055 38.1289 127.508C37.7148 127.961 37.4492 128.609 37.332 129.453H42.043V129.184C42.0273 128.434 41.8242 127.855 41.4336 127.449C41.043 127.035 40.4883 126.828 39.7695 126.828ZM58.7305 130.777C58.7305 132.809 58.2969 134.395 57.4297 135.535C56.5625 136.668 55.3516 137.234 53.7969 137.234C52.4219 137.234 51.3242 136.707 50.5039 135.652L50.3516 137H47.3047V119H50.6914V125.457C51.4727 124.543 52.5 124.086 53.7734 124.086C55.3203 124.086 56.5312 124.656 57.4062 125.797C58.2891 126.93 58.7305 128.527 58.7305 130.59V130.777ZM55.3438 130.531C55.3438 129.25 55.1406 128.316 54.7344 127.73C54.3281 127.137 53.7227 126.84 52.918 126.84C51.8398 126.84 51.0977 127.281 50.6914 128.164V133.168C51.1055 134.059 51.8555 134.504 52.9414 134.504C54.0352 134.504 54.7539 133.965 55.0977 132.887C55.2617 132.371 55.3438 131.586 55.3438 130.531ZM71.6211 119.938L76.0039 132.312L80.3633 119.938H84.9805V137H81.4531V132.336L81.8047 124.285L77.1992 137H74.7852L70.1914 124.297L70.543 132.336V137H67.0273V119.938H71.6211ZM95.1758 137C95.0195 136.695 94.9062 136.316 94.8359 135.863C94.0156 136.777 92.9492 137.234 91.6367 137.234C90.3945 137.234 89.3633 136.875 88.543 136.156C87.7305 135.438 87.3242 134.531 87.3242 133.438C87.3242 132.094 87.8203 131.062 88.8125 130.344C89.8125 129.625 91.2539 129.262 93.1367 129.254H94.6953V128.527C94.6953 127.941 94.543 127.473 94.2383 127.121C93.9414 126.77 93.4688 126.594 92.8203 126.594C92.25 126.594 91.8008 126.73 91.4727 127.004C91.1523 127.277 90.9922 127.652 90.9922 128.129H87.6055C87.6055 127.395 87.832 126.715 88.2852 126.09C88.7383 125.465 89.3789 124.977 90.207 124.625C91.0352 124.266 91.9648 124.086 92.9961 124.086C94.5586 124.086 95.7969 124.48 96.7109 125.27C97.6328 126.051 98.0938 127.152 98.0938 128.574V134.07C98.1016 135.273 98.2695 136.184 98.5977 136.801V137H95.1758ZM92.375 134.645C92.875 134.645 93.3359 134.535 93.7578 134.316C94.1797 134.09 94.4922 133.789 94.6953 133.414V131.234H93.4297C91.7344 131.234 90.832 131.82 90.7227 132.992L90.7109 133.191C90.7109 133.613 90.8594 133.961 91.1562 134.234C91.4531 134.508 91.8594 134.645 92.375 134.645ZM107.562 133.496C107.562 133.082 107.355 132.758 106.941 132.523C106.535 132.281 105.879 132.066 104.973 131.879C101.957 131.246 100.449 129.965 100.449 128.035C100.449 126.91 100.914 125.973 101.844 125.223C102.781 124.465 104.004 124.086 105.512 124.086C107.121 124.086 108.406 124.465 109.367 125.223C110.336 125.98 110.82 126.965 110.82 128.176H107.434C107.434 127.691 107.277 127.293 106.965 126.98C106.652 126.66 106.164 126.5 105.5 126.5C104.93 126.5 104.488 126.629 104.176 126.887C103.863 127.145 103.707 127.473 103.707 127.871C103.707 128.246 103.883 128.551 104.234 128.785C104.594 129.012 105.195 129.211 106.039 129.383C106.883 129.547 107.594 129.734 108.172 129.945C109.961 130.602 110.855 131.738 110.855 133.355C110.855 134.512 110.359 135.449 109.367 136.168C108.375 136.879 107.094 137.234 105.523 137.234C104.461 137.234 103.516 137.047 102.688 136.672C101.867 136.289 101.223 135.77 100.754 135.113C100.285 134.449 100.051 133.734 100.051 132.969H103.262C103.293 133.57 103.516 134.031 103.93 134.352C104.344 134.672 104.898 134.832 105.594 134.832C106.242 134.832 106.73 134.711 107.059 134.469C107.395 134.219 107.562 133.895 107.562 133.496ZM117.102 121.203V124.32H119.27V126.805H117.102V133.133C117.102 133.602 117.191 133.938 117.371 134.141C117.551 134.344 117.895 134.445 118.402 134.445C118.777 134.445 119.109 134.418 119.398 134.363V136.93C118.734 137.133 118.051 137.234 117.348 137.234C114.973 137.234 113.762 136.035 113.715 133.637V126.805H111.863V124.32H113.715V121.203H117.102ZM126.992 137.234C125.133 137.234 123.617 136.664 122.445 135.523C121.281 134.383 120.699 132.863 120.699 130.965V130.637C120.699 129.363 120.945 128.227 121.438 127.227C121.93 126.219 122.625 125.445 123.523 124.906C124.43 124.359 125.461 124.086 126.617 124.086C128.352 124.086 129.715 124.633 130.707 125.727C131.707 126.82 132.207 128.371 132.207 130.379V131.762H124.133C124.242 132.59 124.57 133.254 125.117 133.754C125.672 134.254 126.371 134.504 127.215 134.504C128.52 134.504 129.539 134.031 130.273 133.086L131.938 134.949C131.43 135.668 130.742 136.23 129.875 136.637C129.008 137.035 128.047 137.234 126.992 137.234ZM126.605 126.828C125.934 126.828 125.387 127.055 124.965 127.508C124.551 127.961 124.285 128.609 124.168 129.453H128.879V129.184C128.863 128.434 128.66 127.855 128.27 127.449C127.879 127.035 127.324 126.828 126.605 126.828ZM141.266 127.496C140.805 127.434 140.398 127.402 140.047 127.402C138.766 127.402 137.926 127.836 137.527 128.703V137H134.141V124.32H137.34L137.434 125.832C138.113 124.668 139.055 124.086 140.258 124.086C140.633 124.086 140.984 124.137 141.312 124.238L141.266 127.496Z" fill="#00749A"/>
<path d="M51.063 16.9128H59.5567V0L51.063 8.45634V16.9128ZM102.851 16.9128H94.3572V0L102.851 8.45634V16.9128Z" fill="#7B7B7B"/>
<path d="M59.5569 0H94.3573V8.45648H59.5569V0Z" fill="#5A5A5A"/>
<path d="M136 50.5024V95.6028C136 100.771 131.753 104.999 126.562 104.999H26.8806C21.6898 104.999 17.4427 100.771 17.4427 95.6028V50.5024" fill="#E6E7E8"/>
<path d="M119.072 16.7358H34.0165L17.2656 32.944V50.5615H135.823V32.944L119.072 16.7358Z" fill="#D0D1D2"/>
<path d="M122.198 50.7379V38.3472C122.198 35.7632 120.074 33.6489 117.479 33.6489H35.9637C33.3684 33.6489 31.2448 35.7631 31.2448 38.3472V50.7379" fill="#458CF5"/>
<path d="M40.7412 44.5571C42.6224 44.5571 44.1474 43.0387 44.1474 41.1657C44.1474 39.2928 42.6224 37.7744 40.7412 37.7744C38.86 37.7744 37.335 39.2928 37.335 41.1657C37.335 43.0387 38.86 44.5571 40.7412 44.5571Z" fill="#E6E7E8"/>
<path d="M51.2993 44.5571C53.1805 44.5571 54.7055 43.0387 54.7055 41.1657C54.7055 39.2928 53.1805 37.7744 51.2993 37.7744C49.4181 37.7744 47.8931 39.2928 47.8931 41.1657C47.8931 43.0387 49.4181 44.5571 51.2993 44.5571Z" fill="#E6E7E8"/>
<path d="M31.2448 50.7378H122.198V105H31.2448V50.7378Z" fill="white"/>
<path d="M37.335 97.9529H76.5443V105H37.335V97.9529ZM37.335 57.1675H67.6968V90.906H37.335V57.1675ZM85.9522 57.3642L108.002 79.3176V60.725L122.021 74.6823V105H103.058L83.5338 85.5619L85.9522 57.3642Z" fill="#D2D3D4"/>
<path d="M114.324 75.167C114.324 67.2391 109.625 60.4073 102.851 57.2705V75.8718L94.4018 80.6872L85.9522 75.8718V57.3635C79.2887 60.5423 74.6864 67.3193 74.6864 75.1672C74.6864 83.015 79.2887 89.792 85.9522 92.9708V104.999H103.058V92.9708C109.721 89.7919 114.324 83.015 114.324 75.167Z" fill="#505050"/>
</svg>
