<svg width="200" height="200" viewBox="0 0 200 200" fill="none" xmlns="http://www.w3.org/2000/svg">
<path d="M142.885 50.7404L52.1205 141.505L57.9588 147.343L148.723 56.5787L142.885 50.7404Z" fill="#00CACA" fill-opacity="0.35"/>
<ellipse cx="144.371" cy="54.9864" rx="7.50644" ry="7.50597" transform="rotate(-45 144.371 54.9864)" fill="#00CACA"/>
<ellipse cx="55.8356" cy="145.22" rx="7.50644" ry="7.50597" transform="rotate(-45 55.8356 145.22)" fill="#00CACA"/>
<path d="M150.957 141.186L60.2474 50.3776L54.4056 56.213L145.115 147.021L150.957 141.186Z" fill="#00CACA" fill-opacity="0.35"/>
<ellipse cx="146.71" cy="142.67" rx="7.50597" ry="7.50644" transform="rotate(45.0313 146.71 142.67)" fill="#00CACA"/>
<ellipse cx="56.5298" cy="54.091" rx="7.50597" ry="7.50644" transform="rotate(45.0313 56.5298 54.091)" fill="#00CACA"/>
<path d="M163.955 93.3906L35.5947 93.3906V101.647H163.955V93.3906Z" fill="#00CACA" fill-opacity="0.35"/>
<ellipse cx="162.003" cy="97.4436" rx="7.50644" ry="7.50597" fill="#00CACA"/>
<ellipse cx="35.5947" cy="98.6446" rx="7.50644" ry="7.50597" fill="#00CACA"/>
<path d="M105.708 163.053L105.778 34.7006L97.5208 34.6961L97.4508 163.048L105.708 163.053Z" fill="#00CACA" fill-opacity="0.35"/>
<ellipse rx="7.50597" ry="7.50644" transform="matrix(-0.00056719 1 -1 -0.000503359 101.655 161.099)" fill="#00CACA"/>
<ellipse cx="100.523" cy="34.6977" rx="7.50597" ry="7.50644" transform="rotate(90.0313 100.523 34.6977)" fill="#00CACA"/>
<path d="M109.848 99.1134H109.171L108.559 99.4044C105.963 100.64 103.087 101.337 100.065 101.337C97.0463 101.337 94.182 100.641 91.5671 99.4022L90.9574 99.1134H90.2829H82.8889C71.6467 99.1134 62.7123 108.519 62.7123 119.901V122.124C62.7123 127.364 66.8426 131.795 72.1535 131.795H127.977C133.288 131.795 137.419 127.364 137.419 122.124V119.901C137.419 108.519 128.484 99.1134 117.242 99.1134H109.848ZM100.065 100.666C112.489 100.666 122.389 90.2604 122.389 77.6554C122.389 65.0505 112.489 54.6444 100.065 54.6444C87.6424 54.6444 77.7418 65.0505 77.7418 77.6554C77.7418 90.2604 87.6424 100.666 100.065 100.666Z" fill="#00CACA" stroke="#FEFEFE" stroke-width="6"/>
</svg>
