<svg width="133" height="117" viewBox="0 0 133 117" fill="none" xmlns="http://www.w3.org/2000/svg">
<path d="M86.45 29.25H34.2163L53.2582 65.8125H53.2C50.8753 65.8199 48.5931 66.4994 46.5826 67.7829C44.5721 69.0664 42.9039 70.9087 41.7454 73.125L11.384 14.625H86.45V29.25Z" fill="#00CACA" fill-opacity="0.35"/>
<path d="M79.8 73.125H53.2C51.4363 73.125 49.7449 73.8954 48.4977 75.2668C47.2506 76.6381 46.55 78.4981 46.55 80.4375V109.688C46.55 111.627 47.2506 113.487 48.4977 114.858C49.7449 116.23 51.4363 117 53.2 117H79.8C81.5637 117 83.2551 116.23 84.5023 114.858C85.7494 113.487 86.45 111.627 86.45 109.688V80.4375C86.45 78.4981 85.7494 76.6381 84.5023 75.2668C83.2551 73.8954 81.5637 73.125 79.8 73.125ZM33.25 0H6.65C4.88631 0 3.19486 0.770422 1.94774 2.14178C0.700623 3.51314 0 5.3731 0 7.3125L0 36.5625C0 38.5019 0.700623 40.3619 1.94774 41.7332C3.19486 43.1046 4.88631 43.875 6.65 43.875H33.25C35.0137 43.875 36.7051 43.1046 37.9523 41.7332C39.1994 40.3619 39.9 38.5019 39.9 36.5625V7.3125C39.9 5.3731 39.1994 3.51314 37.9523 2.14178C36.7051 0.770422 35.0137 0 33.25 0ZM126.35 0H99.75C97.9863 0 96.2949 0.770422 95.0478 2.14178C93.8006 3.51314 93.1 5.3731 93.1 7.3125V36.5625C93.1 38.5019 93.8006 40.3619 95.0478 41.7332C96.2949 43.1046 97.9863 43.875 99.75 43.875H126.35C128.114 43.875 129.805 43.1046 131.052 41.7332C132.299 40.3619 133 38.5019 133 36.5625V7.3125C133 5.3731 132.299 3.51314 131.052 2.14178C129.805 0.770422 128.114 0 126.35 0Z" fill="#00CACA"/>
</svg>
