<svg width="32" height="23" viewBox="0 0 32 23" fill="none" xmlns="http://www.w3.org/2000/svg">
<path d="M17.1875 7.1875C17.1875 8.41127 16.8246 9.60756 16.1447 10.6251C15.4648 11.6426 14.4985 12.4357 13.3679 12.904C12.2372 13.3723 10.9931 13.4949 9.79288 13.2561C8.59262 13.0174 7.49012 12.4281 6.62478 11.5627C5.75944 10.6974 5.17014 9.59488 4.93139 8.39462C4.69265 7.19436 4.81518 5.95026 5.2835 4.81965C5.75182 3.68903 6.54488 2.72267 7.56241 2.04278C8.57994 1.36289 9.77623 1 11 1C12.641 1 14.2148 1.6519 15.3752 2.81228C16.5356 3.97266 17.1875 5.54647 17.1875 7.1875Z" fill="#00CACA"/>
<path d="M16.5 14.75H14.1324C13.1502 15.2029 12.0816 15.4374 11 15.4374C9.91845 15.4374 8.84975 15.2029 7.86758 14.75H5.5C4.04131 14.75 2.64236 15.3295 1.61091 16.3609C0.579463 17.3924 0 18.7913 0 20.25L0 20.9375C0 21.4845 0.217298 22.0091 0.604092 22.3959C0.990886 22.7827 1.51549 23 2.0625 23H19.9375C20.4845 23 21.0091 22.7827 21.3959 22.3959C21.7827 22.0091 22 21.4845 22 20.9375V20.25C22 18.7913 21.4205 17.3924 20.3891 16.3609C19.3576 15.3295 17.9587 14.75 16.5 14.75Z" fill="#00CACA"/>
<path d="M26 0C22.6859 0 20 2.49375 20 5.57143C20 6.9 20.5016 8.11607 21.3359 9.07232C21.043 10.4223 20.0633 11.625 20.0516 11.6384C20 11.7 19.9859 11.7911 20.0164 11.8714C20.0469 11.9518 20.1125 12 20.1875 12C21.7414 12 22.9062 11.1482 23.4828 10.6232C24.2492 10.9527 25.1 11.1429 26 11.1429C29.3141 11.1429 32 8.64911 32 5.57143C32 2.49375 29.3141 0 26 0Z" fill="#00CACA"/>
<path d="M25.755 3.46853C25.7249 3.42575 25.687 3.39044 25.6438 3.36486C25.6007 3.33929 25.5531 3.32402 25.5042 3.32006C25.4554 3.31609 25.4063 3.32351 25.3602 3.34183C25.3141 3.36015 25.272 3.38897 25.2366 3.42643L25.0676 3.60576C25.0057 3.67119 24.9677 3.75953 24.9609 3.85395C24.9541 3.94837 24.9789 4.04226 25.0307 4.11771C25.4056 4.65752 25.6088 5.31924 25.6088 6.00003C25.6088 6.68082 25.4056 7.34254 25.0307 7.88234C24.979 7.95787 24.9543 8.05181 24.9612 8.14623C24.9681 8.24065 25.0062 8.32895 25.0681 8.3943L25.2372 8.57363C25.2726 8.61108 25.3147 8.6399 25.3608 8.65823C25.4069 8.67655 25.456 8.68397 25.5048 8.68C25.5537 8.67603 25.6012 8.66077 25.6444 8.63519C25.6876 8.60962 25.7255 8.5743 25.7556 8.53153C26.2648 7.80795 26.5412 6.91703 26.5411 5.99992C26.541 5.08281 26.2644 4.19196 25.755 3.46853ZM27.0909 2.02425C27.0602 1.98357 27.0223 1.95032 26.9794 1.92658C26.9366 1.90284 26.8898 1.88913 26.842 1.88629C26.7942 1.88346 26.7463 1.89156 26.7015 1.9101C26.6566 1.92864 26.6157 1.95722 26.5812 1.99404L26.4128 2.17273C26.3487 2.24029 26.3103 2.33227 26.3053 2.43003C26.3003 2.52779 26.329 2.624 26.3858 2.69915C27.0847 3.62519 27.4676 4.79345 27.4676 6.00003C27.4676 7.20661 27.0847 8.37487 26.3858 9.30091C26.329 9.37605 26.3003 9.47226 26.3053 9.57002C26.3103 9.66778 26.3487 9.75977 26.4128 9.82733L26.5812 10.006C26.6157 10.0428 26.6566 10.0714 26.7015 10.09C26.7463 10.1085 26.7942 10.1166 26.842 10.1138C26.8898 10.1109 26.9366 10.0972 26.9794 10.0735C27.0223 10.0497 27.0602 10.0165 27.0909 9.9758C27.9366 8.86232 28.4001 7.45437 28.4 5.99985C28.3998 4.54534 27.9359 3.13751 27.09 2.02425H27.0909ZM23.8818 4.87167L23.7075 5.05582C23.6527 5.11447 23.6166 5.1913 23.6047 5.27468C23.5928 5.35806 23.6057 5.44346 23.6416 5.51796C23.7125 5.66619 23.7496 5.83135 23.7496 5.99906C23.7496 6.16677 23.7125 6.33194 23.6416 6.48017C23.6055 6.55474 23.5924 6.64032 23.6042 6.72391C23.6161 6.80749 23.6522 6.88452 23.7073 6.94327L23.8815 7.12742C23.9196 7.16785 23.9655 7.19821 24.0157 7.21624C24.0659 7.23426 24.1192 7.23948 24.1715 7.23151C24.2238 7.22353 24.2737 7.20257 24.3177 7.17018C24.3616 7.1378 24.3984 7.09483 24.4252 7.04451C24.5939 6.72774 24.6828 6.36675 24.6828 5.99906C24.6828 5.63137 24.5939 5.27039 24.4252 4.95362C24.3983 4.90325 24.3615 4.86027 24.3174 4.82791C24.2734 4.79555 24.2234 4.77464 24.171 4.76675C24.1186 4.75887 24.0653 4.76421 24.0151 4.78238C23.9648 4.80055 23.919 4.83108 23.8809 4.87167H23.8818Z" fill="#D2FFFF"/>
</svg>
