<svg width="20" height="20" viewBox="0 0 20 20" fill="none" xmlns="http://www.w3.org/2000/svg">
<path d="M12.5 0.937503V7.5H15.9258C16.6211 7.5 16.9688 8.33985 16.4766 8.83203L10.5352 14.7773C10.3934 14.9181 10.2017 14.9971 10.002 14.9971C9.80218 14.9971 9.6105 14.9181 9.46875 14.7773L3.51954 8.83203C3.02735 8.33985 3.375 7.5 4.07032 7.5H7.5V0.937503C7.4997 0.814302 7.52373 0.692254 7.57074 0.578372C7.61774 0.464489 7.68679 0.361017 7.7739 0.273901C7.86102 0.186784 7.96449 0.11774 8.07837 0.0707362C8.19226 0.0237319 8.3143 -0.000306219 8.4375 2.94468e-06H11.5625C11.6857 -0.000306219 11.8078 0.0237319 11.9216 0.0707362C12.0355 0.11774 12.139 0.186784 12.2261 0.273901C12.3132 0.361017 12.3823 0.464489 12.4293 0.578372C12.4763 0.692254 12.5003 0.814302 12.5 0.937503Z" fill="#00CACA"/>
<path d="M19.0625 13.75H13.332L11.418 15.6641C11.232 15.8507 11.011 15.9988 10.7677 16.0999C10.5244 16.2009 10.2635 16.253 10 16.253C9.73652 16.253 9.47564 16.2009 9.23231 16.0999C8.98898 15.9988 8.768 15.8507 8.58204 15.6641L6.66797 13.75H0.937503C0.814302 13.7497 0.692254 13.7737 0.578372 13.8207C0.46449 13.8677 0.361018 13.9368 0.273901 14.0239C0.186784 14.111 0.117741 14.2145 0.0707362 14.3284C0.0237319 14.4423 -0.000306219 14.5643 2.94468e-06 14.6875V19.0625C-0.000306219 19.1857 0.0237319 19.3078 0.0707362 19.4216C0.117741 19.5355 0.186784 19.639 0.273901 19.7261C0.361018 19.8132 0.46449 19.8823 0.578372 19.9293C0.692254 19.9763 0.814302 20.0003 0.937503 20H19.0625C19.1857 20.0003 19.3078 19.9763 19.4216 19.9293C19.5355 19.8823 19.639 19.8132 19.7261 19.7261C19.8132 19.639 19.8823 19.5355 19.9293 19.4216C19.9763 19.3078 20.0003 19.1857 20 19.0625V14.6875C20.0003 14.5643 19.9763 14.4423 19.9293 14.3284C19.8823 14.2145 19.8132 14.111 19.7261 14.0239C19.639 13.9368 19.5355 13.8677 19.4216 13.8207C19.3078 13.7737 19.1857 13.7497 19.0625 13.75ZM14.375 17.5C14.2514 17.5 14.1306 17.4634 14.0278 17.3947C13.925 17.326 13.8449 17.2284 13.7976 17.1142C13.7503 17 13.7379 16.8743 13.762 16.7531C13.7861 16.6318 13.8457 16.5205 13.9331 16.4331C14.0205 16.3457 14.1318 16.2861 14.2531 16.262C14.3743 16.2379 14.5 16.2503 14.6142 16.2976C14.7284 16.3449 14.826 16.425 14.8947 16.5278C14.9634 16.6306 15 16.7514 15 16.875C15 17.0408 14.9342 17.1997 14.8169 17.3169C14.6997 17.4342 14.5408 17.5 14.375 17.5ZM16.875 17.5C16.7514 17.5 16.6306 17.4634 16.5278 17.3947C16.425 17.326 16.3449 17.2284 16.2976 17.1142C16.2503 17 16.2379 16.8743 16.262 16.7531C16.2861 16.6318 16.3457 16.5205 16.4331 16.4331C16.5205 16.3457 16.6318 16.2861 16.7531 16.262C16.8743 16.2379 17 16.2503 17.1142 16.2976C17.2284 16.3449 17.326 16.425 17.3947 16.5278C17.4634 16.6306 17.5 16.7514 17.5 16.875C17.5 17.0408 17.4342 17.1997 17.3169 17.3169C17.1997 17.4342 17.0408 17.5 16.875 17.5Z" fill="#00CACA"/>
</svg>
