<svg width="12" height="6" viewBox="0 0 12 6" fill="none" xmlns="http://www.w3.org/2000/svg">
<path d="M8.33116 0.0823885L8.14176 0.248091C8.01624 0.357919 8.01624 0.535997 8.14176 0.645848L10.3898 2.60156H0.321429C0.14392 2.60156 0 2.72749 0 2.88281V3.11719C0 3.27251 0.14392 3.39843 0.321429 3.39843H10.3898L8.14176 5.35415C8.01624 5.46398 8.01624 5.64205 8.14176 5.75191L8.33116 5.91761C8.45668 6.02744 8.6602 6.02744 8.78571 5.91761L11.9058 3.19886C12.0314 3.08904 12.0314 2.91096 11.9058 2.80111L8.78571 0.0823885C8.6602 -0.0274628 8.45668 -0.0274628 8.33116 0.0823885Z" fill="#00CACA"/>
</svg>
