<svg width="630" height="310" viewBox="0 0 630 310" fill="none" xmlns="http://www.w3.org/2000/svg">
<path d="M598.548 65.691L419.689 196.146C409.946 203.253 396.455 200.995 389.557 191.103C382.659 181.21 384.965 167.43 394.709 160.323L573.568 29.8678C583.311 22.7611 596.802 25.0192 603.7 34.9116C610.598 44.8039 608.291 58.5843 598.548 65.691Z" fill="url(#paint0_linear_338:5)"/>
<path d="M481.215 48.691L302.356 179.146C292.612 186.253 279.122 183.995 272.224 174.103C265.325 164.21 267.632 150.43 277.376 143.323L456.234 12.8678C465.978 5.76107 479.469 8.01925 486.367 17.9116C493.265 27.8039 490.958 41.5843 481.215 48.691Z" fill="url(#paint1_linear_338:5)"/>
<path d="M612.237 165.691L433.378 296.146C423.635 303.253 410.144 300.995 403.246 291.103C396.348 281.21 398.654 267.43 408.398 260.323L587.257 129.868C597 122.761 610.491 125.019 617.389 134.912C624.287 144.804 621.98 158.584 612.237 165.691Z" fill="url(#paint2_linear_338:5)"/>
<path d="M584.862 212H533.583C529.421 212 525.695 214.577 524.226 218.471L505.369 268.471C502.902 275.012 507.736 282 514.726 282H565.307C569.424 282 573.12 279.477 574.62 275.642L594.175 225.642C596.74 219.084 591.904 212 584.862 212Z" fill="#0D50FC" fill-opacity="0.05"/>
<ellipse cx="541.822" cy="228.5" rx="2.44444" ry="2.5" fill="#0D50FC" fill-opacity="0.1"/>
<ellipse cx="551.6" cy="228.5" rx="2.44444" ry="2.5" fill="#0D50FC" fill-opacity="0.1"/>
<ellipse cx="561.378" cy="228.5" rx="2.44444" ry="2.5" fill="#0D50FC" fill-opacity="0.1"/>
<ellipse cx="571.156" cy="228.5" rx="2.44444" ry="2.5" fill="#0D50FC" fill-opacity="0.1"/>
<ellipse cx="580.933" cy="228.5" rx="2.44444" ry="2.5" fill="#0D50FC" fill-opacity="0.1"/>
<ellipse cx="590.711" cy="228.5" rx="2.44444" ry="2.5" fill="#0D50FC" fill-opacity="0.1"/>
<ellipse cx="535.955" cy="242.5" rx="2.44444" ry="2.5" fill="#0D50FC" fill-opacity="0.1"/>
<ellipse cx="545.733" cy="242.5" rx="2.44444" ry="2.5" fill="#0D50FC" fill-opacity="0.1"/>
<ellipse cx="555.511" cy="242.5" rx="2.44444" ry="2.5" fill="#0D50FC" fill-opacity="0.1"/>
<ellipse cx="565.289" cy="242.5" rx="2.44444" ry="2.5" fill="#0D50FC" fill-opacity="0.1"/>
<ellipse cx="575.067" cy="242.5" rx="2.44444" ry="2.5" fill="#0D50FC" fill-opacity="0.1"/>
<ellipse cx="584.844" cy="242.5" rx="2.44444" ry="2.5" fill="#0D50FC" fill-opacity="0.1"/>
<ellipse cx="594.622" cy="242.5" rx="2.44444" ry="2.5" fill="#0D50FC" fill-opacity="0.1"/>
<ellipse cx="533.022" cy="249.5" rx="2.44444" ry="2.5" fill="#0D50FC" fill-opacity="0.1"/>
<ellipse cx="542.8" cy="249.5" rx="2.44444" ry="2.5" fill="#0D50FC" fill-opacity="0.1"/>
<ellipse cx="552.578" cy="249.5" rx="2.44444" ry="2.5" fill="#0D50FC" fill-opacity="0.1"/>
<ellipse cx="562.356" cy="249.5" rx="2.44444" ry="2.5" fill="#0D50FC" fill-opacity="0.1"/>
<ellipse cx="572.133" cy="249.5" rx="2.44444" ry="2.5" fill="#0D50FC" fill-opacity="0.1"/>
<ellipse cx="581.911" cy="249.5" rx="2.44444" ry="2.5" fill="#0D50FC" fill-opacity="0.1"/>
<ellipse cx="591.689" cy="249.5" rx="2.44444" ry="2.5" fill="#0D50FC" fill-opacity="0.1"/>
<ellipse cx="530.089" cy="256.5" rx="2.44444" ry="2.5" fill="#0D50FC" fill-opacity="0.1"/>
<ellipse cx="539.867" cy="256.5" rx="2.44444" ry="2.5" fill="#0D50FC" fill-opacity="0.1"/>
<ellipse cx="549.644" cy="256.5" rx="2.44444" ry="2.5" fill="#0D50FC" fill-opacity="0.1"/>
<ellipse cx="559.422" cy="256.5" rx="2.44444" ry="2.5" fill="#0D50FC" fill-opacity="0.1"/>
<ellipse cx="569.2" cy="256.5" rx="2.44444" ry="2.5" fill="#0D50FC" fill-opacity="0.1"/>
<ellipse cx="578.978" cy="256.5" rx="2.44444" ry="2.5" fill="#0D50FC" fill-opacity="0.1"/>
<ellipse cx="588.755" cy="256.5" rx="2.44444" ry="2.5" fill="#0D50FC" fill-opacity="0.1"/>
<ellipse cx="527.156" cy="263.5" rx="2.44444" ry="2.5" fill="#0D50FC" fill-opacity="0.1"/>
<ellipse cx="536.933" cy="263.5" rx="2.44444" ry="2.5" fill="#0D50FC" fill-opacity="0.1"/>
<ellipse cx="546.711" cy="263.5" rx="2.44444" ry="2.5" fill="#0D50FC" fill-opacity="0.1"/>
<ellipse cx="556.489" cy="263.5" rx="2.44444" ry="2.5" fill="#0D50FC" fill-opacity="0.1"/>
<ellipse cx="566.267" cy="263.5" rx="2.44444" ry="2.5" fill="#0D50FC" fill-opacity="0.1"/>
<ellipse cx="576.044" cy="263.5" rx="2.44444" ry="2.5" fill="#0D50FC" fill-opacity="0.1"/>
<ellipse cx="585.822" cy="263.5" rx="2.44444" ry="2.5" fill="#0D50FC" fill-opacity="0.1"/>
<ellipse cx="525.2" cy="270.5" rx="2.44444" ry="2.5" fill="#0D50FC" fill-opacity="0.1"/>
<ellipse cx="534.978" cy="270.5" rx="2.44444" ry="2.5" fill="#0D50FC" fill-opacity="0.1"/>
<ellipse cx="544.755" cy="270.5" rx="2.44444" ry="2.5" fill="#0D50FC" fill-opacity="0.1"/>
<ellipse cx="554.533" cy="270.5" rx="2.44444" ry="2.5" fill="#0D50FC" fill-opacity="0.1"/>
<ellipse cx="564.311" cy="270.5" rx="2.44444" ry="2.5" fill="#0D50FC" fill-opacity="0.1"/>
<ellipse cx="574.089" cy="270.5" rx="2.44444" ry="2.5" fill="#0D50FC" fill-opacity="0.1"/>
<ellipse cx="583.867" cy="270.5" rx="2.44444" ry="2.5" fill="#0D50FC" fill-opacity="0.1"/>
<ellipse cx="522.267" cy="277.5" rx="2.44444" ry="2.5" fill="#0D50FC" fill-opacity="0.1"/>
<ellipse cx="532.044" cy="277.5" rx="2.44444" ry="2.5" fill="#0D50FC" fill-opacity="0.1"/>
<ellipse cx="541.822" cy="277.5" rx="2.44444" ry="2.5" fill="#0D50FC" fill-opacity="0.1"/>
<ellipse cx="551.6" cy="277.5" rx="2.44444" ry="2.5" fill="#0D50FC" fill-opacity="0.1"/>
<ellipse cx="561.378" cy="277.5" rx="2.44444" ry="2.5" fill="#0D50FC" fill-opacity="0.1"/>
<ellipse cx="571.156" cy="277.5" rx="2.44444" ry="2.5" fill="#0D50FC" fill-opacity="0.1"/>
<ellipse cx="580.933" cy="277.5" rx="2.44444" ry="2.5" fill="#0D50FC" fill-opacity="0.1"/>
<ellipse cx="529.111" cy="284.5" rx="2.44444" ry="2.5" fill="#0D50FC" fill-opacity="0.1"/>
<ellipse cx="538.889" cy="284.5" rx="2.44444" ry="2.5" fill="#0D50FC" fill-opacity="0.1"/>
<ellipse cx="548.667" cy="284.5" rx="2.44444" ry="2.5" fill="#0D50FC" fill-opacity="0.1"/>
<ellipse cx="558.444" cy="284.5" rx="2.44444" ry="2.5" fill="#0D50FC" fill-opacity="0.1"/>
<ellipse cx="568.222" cy="284.5" rx="2.44444" ry="2.5" fill="#0D50FC" fill-opacity="0.1"/>
<ellipse cx="578" cy="284.5" rx="2.44444" ry="2.5" fill="#0D50FC" fill-opacity="0.1"/>
<ellipse cx="538.889" cy="235.5" rx="2.44444" ry="2.5" fill="#0D50FC" fill-opacity="0.1"/>
<ellipse cx="548.667" cy="235.5" rx="2.44444" ry="2.5" fill="#0D50FC" fill-opacity="0.1"/>
<ellipse cx="558.444" cy="235.5" rx="2.44444" ry="2.5" fill="#0D50FC" fill-opacity="0.1"/>
<ellipse cx="568.222" cy="235.5" rx="2.44444" ry="2.5" fill="#0D50FC" fill-opacity="0.1"/>
<ellipse cx="578" cy="235.5" rx="2.44444" ry="2.5" fill="#0D50FC" fill-opacity="0.1"/>
<ellipse cx="587.778" cy="235.5" rx="2.44444" ry="2.5" fill="#0D50FC" fill-opacity="0.1"/>
<ellipse cx="597.555" cy="235.5" rx="2.44444" ry="2.5" fill="#0D50FC" fill-opacity="0.1"/>
<path d="M85.2179 22H33.9383C29.7767 22 26.0502 24.5773 24.5816 28.4712L5.72448 78.4712C3.25784 85.0116 8.09113 92 15.0812 92H65.6623C69.7794 92 73.4758 89.4767 74.9754 85.6424L94.5309 35.6424C97.0959 29.0843 92.2598 22 85.2179 22Z" fill="#0D50FC" fill-opacity="0.05"/>
<ellipse cx="42.1777" cy="38.5" rx="2.44444" ry="2.5" fill="#0D50FC" fill-opacity="0.1"/>
<ellipse cx="51.9556" cy="38.5" rx="2.44444" ry="2.5" fill="#0D50FC" fill-opacity="0.1"/>
<ellipse cx="61.7333" cy="38.5" rx="2.44444" ry="2.5" fill="#0D50FC" fill-opacity="0.1"/>
<ellipse cx="71.5111" cy="38.5" rx="2.44444" ry="2.5" fill="#0D50FC" fill-opacity="0.1"/>
<ellipse cx="81.2888" cy="38.5" rx="2.44444" ry="2.5" fill="#0D50FC" fill-opacity="0.1"/>
<ellipse cx="91.0666" cy="38.5" rx="2.44444" ry="2.5" fill="#0D50FC" fill-opacity="0.1"/>
<ellipse cx="36.311" cy="52.5" rx="2.44444" ry="2.5" fill="#0D50FC" fill-opacity="0.1"/>
<ellipse cx="46.0889" cy="52.5" rx="2.44444" ry="2.5" fill="#0D50FC" fill-opacity="0.1"/>
<ellipse cx="55.8666" cy="52.5" rx="2.44444" ry="2.5" fill="#0D50FC" fill-opacity="0.1"/>
<ellipse cx="65.6444" cy="52.5" rx="2.44444" ry="2.5" fill="#0D50FC" fill-opacity="0.1"/>
<ellipse cx="75.4221" cy="52.5" rx="2.44444" ry="2.5" fill="#0D50FC" fill-opacity="0.1"/>
<ellipse cx="85.1999" cy="52.5" rx="2.44444" ry="2.5" fill="#0D50FC" fill-opacity="0.1"/>
<ellipse cx="94.9778" cy="52.5" rx="2.44444" ry="2.5" fill="#0D50FC" fill-opacity="0.1"/>
<ellipse cx="33.3777" cy="59.5" rx="2.44444" ry="2.5" fill="#0D50FC" fill-opacity="0.1"/>
<ellipse cx="43.1554" cy="59.5" rx="2.44444" ry="2.5" fill="#0D50FC" fill-opacity="0.1"/>
<ellipse cx="52.9332" cy="59.5" rx="2.44444" ry="2.5" fill="#0D50FC" fill-opacity="0.1"/>
<ellipse cx="62.711" cy="59.5" rx="2.44444" ry="2.5" fill="#0D50FC" fill-opacity="0.1"/>
<ellipse cx="72.4888" cy="59.5" rx="2.44444" ry="2.5" fill="#0D50FC" fill-opacity="0.1"/>
<ellipse cx="82.2666" cy="59.5" rx="2.44444" ry="2.5" fill="#0D50FC" fill-opacity="0.1"/>
<ellipse cx="92.0443" cy="59.5" rx="2.44444" ry="2.5" fill="#0D50FC" fill-opacity="0.1"/>
<ellipse cx="30.4444" cy="66.5" rx="2.44444" ry="2.5" fill="#0D50FC" fill-opacity="0.1"/>
<ellipse cx="40.2223" cy="66.5" rx="2.44444" ry="2.5" fill="#0D50FC" fill-opacity="0.1"/>
<ellipse cx="50" cy="66.5" rx="2.44444" ry="2.5" fill="#0D50FC" fill-opacity="0.1"/>
<ellipse cx="59.7778" cy="66.5" rx="2.44444" ry="2.5" fill="#0D50FC" fill-opacity="0.1"/>
<ellipse cx="69.5555" cy="66.5" rx="2.44444" ry="2.5" fill="#0D50FC" fill-opacity="0.1"/>
<ellipse cx="79.3334" cy="66.5" rx="2.44444" ry="2.5" fill="#0D50FC" fill-opacity="0.1"/>
<ellipse cx="89.1111" cy="66.5" rx="2.44444" ry="2.5" fill="#0D50FC" fill-opacity="0.1"/>
<ellipse cx="27.5111" cy="73.5" rx="2.44444" ry="2.5" fill="#0D50FC" fill-opacity="0.1"/>
<ellipse cx="37.2889" cy="73.5" rx="2.44444" ry="2.5" fill="#0D50FC" fill-opacity="0.1"/>
<ellipse cx="47.0666" cy="73.5" rx="2.44444" ry="2.5" fill="#0D50FC" fill-opacity="0.1"/>
<ellipse cx="56.8445" cy="73.5" rx="2.44444" ry="2.5" fill="#0D50FC" fill-opacity="0.1"/>
<ellipse cx="66.6222" cy="73.5" rx="2.44444" ry="2.5" fill="#0D50FC" fill-opacity="0.1"/>
<ellipse cx="76.4" cy="73.5" rx="2.44444" ry="2.5" fill="#0D50FC" fill-opacity="0.1"/>
<ellipse cx="86.1777" cy="73.5" rx="2.44444" ry="2.5" fill="#0D50FC" fill-opacity="0.1"/>
<ellipse cx="25.5555" cy="80.5" rx="2.44444" ry="2.5" fill="#0D50FC" fill-opacity="0.1"/>
<ellipse cx="35.3334" cy="80.5" rx="2.44444" ry="2.5" fill="#0D50FC" fill-opacity="0.1"/>
<ellipse cx="45.1111" cy="80.5" rx="2.44444" ry="2.5" fill="#0D50FC" fill-opacity="0.1"/>
<ellipse cx="54.8889" cy="80.5" rx="2.44444" ry="2.5" fill="#0D50FC" fill-opacity="0.1"/>
<ellipse cx="64.6666" cy="80.5" rx="2.44444" ry="2.5" fill="#0D50FC" fill-opacity="0.1"/>
<ellipse cx="74.4444" cy="80.5" rx="2.44444" ry="2.5" fill="#0D50FC" fill-opacity="0.1"/>
<ellipse cx="84.2223" cy="80.5" rx="2.44444" ry="2.5" fill="#0D50FC" fill-opacity="0.1"/>
<ellipse cx="22.6222" cy="87.5" rx="2.44444" ry="2.5" fill="#0D50FC" fill-opacity="0.1"/>
<ellipse cx="32.3999" cy="87.5" rx="2.44444" ry="2.5" fill="#0D50FC" fill-opacity="0.1"/>
<ellipse cx="42.1777" cy="87.5" rx="2.44444" ry="2.5" fill="#0D50FC" fill-opacity="0.1"/>
<ellipse cx="51.9556" cy="87.5" rx="2.44444" ry="2.5" fill="#0D50FC" fill-opacity="0.1"/>
<ellipse cx="61.7333" cy="87.5" rx="2.44444" ry="2.5" fill="#0D50FC" fill-opacity="0.1"/>
<ellipse cx="71.5111" cy="87.5" rx="2.44444" ry="2.5" fill="#0D50FC" fill-opacity="0.1"/>
<ellipse cx="81.2888" cy="87.5" rx="2.44444" ry="2.5" fill="#0D50FC" fill-opacity="0.1"/>
<ellipse cx="29.4667" cy="94.5" rx="2.44444" ry="2.5" fill="#0D50FC" fill-opacity="0.1"/>
<ellipse cx="39.2445" cy="94.5" rx="2.44444" ry="2.5" fill="#0D50FC" fill-opacity="0.1"/>
<ellipse cx="49.0222" cy="94.5" rx="2.44444" ry="2.5" fill="#0D50FC" fill-opacity="0.1"/>
<ellipse cx="58.8" cy="94.5" rx="2.44444" ry="2.5" fill="#0D50FC" fill-opacity="0.1"/>
<ellipse cx="68.5777" cy="94.5" rx="2.44444" ry="2.5" fill="#0D50FC" fill-opacity="0.1"/>
<ellipse cx="78.3556" cy="94.5" rx="2.44444" ry="2.5" fill="#0D50FC" fill-opacity="0.1"/>
<ellipse cx="39.2444" cy="45.5" rx="2.44444" ry="2.5" fill="#0D50FC" fill-opacity="0.1"/>
<ellipse cx="49.0222" cy="45.5" rx="2.44444" ry="2.5" fill="#0D50FC" fill-opacity="0.1"/>
<ellipse cx="58.7999" cy="45.5" rx="2.44444" ry="2.5" fill="#0D50FC" fill-opacity="0.1"/>
<ellipse cx="68.5777" cy="45.5" rx="2.44444" ry="2.5" fill="#0D50FC" fill-opacity="0.1"/>
<ellipse cx="78.3555" cy="45.5" rx="2.44444" ry="2.5" fill="#0D50FC" fill-opacity="0.1"/>
<ellipse cx="88.1333" cy="45.5" rx="2.44444" ry="2.5" fill="#0D50FC" fill-opacity="0.1"/>
<ellipse cx="97.911" cy="45.5" rx="2.44444" ry="2.5" fill="#0D50FC" fill-opacity="0.1"/>
<defs>
<linearGradient id="paint0_linear_338:5" x1="389.557" y1="191.102" x2="605.453" y2="45.3187" gradientUnits="userSpaceOnUse">
<stop stop-color="#00CACA" stop-opacity="0.15"/>
<stop offset="0.0001" stop-color="#00CACA" stop-opacity="0.1"/>
<stop offset="1" stop-color="#0D50FC" stop-opacity="0.1"/>
</linearGradient>
<linearGradient id="paint1_linear_338:5" x1="272.224" y1="174.102" x2="488.119" y2="28.3187" gradientUnits="userSpaceOnUse">
<stop stop-color="#00CACA" stop-opacity="0.15"/>
<stop offset="0.0001" stop-color="#00CACA" stop-opacity="0.1"/>
<stop offset="1" stop-color="#0D50FC" stop-opacity="0.1"/>
</linearGradient>
<linearGradient id="paint2_linear_338:5" x1="403.246" y1="291.102" x2="619.141" y2="145.319" gradientUnits="userSpaceOnUse">
<stop stop-color="#00CACA" stop-opacity="0.15"/>
<stop offset="0.0001" stop-color="#00CACA" stop-opacity="0.1"/>
<stop offset="1" stop-color="#0D50FC" stop-opacity="0.1"/>
</linearGradient>
</defs>
</svg>
