<svg width="601" height="265" viewBox="0 0 601 265" fill="none" xmlns="http://www.w3.org/2000/svg">
<path d="M585.015 190H533.735C529.574 190 525.847 192.577 524.379 196.471L505.521 246.471C503.055 253.012 507.888 260 514.878 260H565.459C569.576 260 573.273 257.477 574.772 253.642L594.328 203.642C596.893 197.084 592.057 190 585.015 190Z" fill="#0D50FC" fill-opacity="0.05"/>
<ellipse cx="541.975" cy="206.5" rx="2.44444" ry="2.5" fill="#0D50FC" fill-opacity="0.1"/>
<ellipse cx="551.752" cy="206.5" rx="2.44444" ry="2.5" fill="#0D50FC" fill-opacity="0.1"/>
<ellipse cx="561.53" cy="206.5" rx="2.44444" ry="2.5" fill="#0D50FC" fill-opacity="0.1"/>
<ellipse cx="571.308" cy="206.5" rx="2.44444" ry="2.5" fill="#0D50FC" fill-opacity="0.1"/>
<ellipse cx="581.086" cy="206.5" rx="2.44444" ry="2.5" fill="#0D50FC" fill-opacity="0.1"/>
<ellipse cx="590.863" cy="206.5" rx="2.44444" ry="2.5" fill="#0D50FC" fill-opacity="0.1"/>
<ellipse cx="536.108" cy="220.5" rx="2.44444" ry="2.5" fill="#0D50FC" fill-opacity="0.1"/>
<ellipse cx="545.886" cy="220.5" rx="2.44444" ry="2.5" fill="#0D50FC" fill-opacity="0.1"/>
<ellipse cx="555.664" cy="220.5" rx="2.44444" ry="2.5" fill="#0D50FC" fill-opacity="0.1"/>
<ellipse cx="565.441" cy="220.5" rx="2.44444" ry="2.5" fill="#0D50FC" fill-opacity="0.1"/>
<ellipse cx="575.219" cy="220.5" rx="2.44444" ry="2.5" fill="#0D50FC" fill-opacity="0.1"/>
<ellipse cx="584.997" cy="220.5" rx="2.44444" ry="2.5" fill="#0D50FC" fill-opacity="0.1"/>
<ellipse cx="594.775" cy="220.5" rx="2.44444" ry="2.5" fill="#0D50FC" fill-opacity="0.1"/>
<ellipse cx="533.175" cy="227.5" rx="2.44444" ry="2.5" fill="#0D50FC" fill-opacity="0.1"/>
<ellipse cx="542.952" cy="227.5" rx="2.44444" ry="2.5" fill="#0D50FC" fill-opacity="0.1"/>
<ellipse cx="552.73" cy="227.5" rx="2.44444" ry="2.5" fill="#0D50FC" fill-opacity="0.1"/>
<ellipse cx="562.508" cy="227.5" rx="2.44444" ry="2.5" fill="#0D50FC" fill-opacity="0.1"/>
<ellipse cx="572.286" cy="227.5" rx="2.44444" ry="2.5" fill="#0D50FC" fill-opacity="0.1"/>
<ellipse cx="582.064" cy="227.5" rx="2.44444" ry="2.5" fill="#0D50FC" fill-opacity="0.1"/>
<ellipse cx="591.841" cy="227.5" rx="2.44444" ry="2.5" fill="#0D50FC" fill-opacity="0.1"/>
<ellipse cx="530.241" cy="234.5" rx="2.44444" ry="2.5" fill="#0D50FC" fill-opacity="0.1"/>
<ellipse cx="540.019" cy="234.5" rx="2.44444" ry="2.5" fill="#0D50FC" fill-opacity="0.1"/>
<ellipse cx="549.797" cy="234.5" rx="2.44444" ry="2.5" fill="#0D50FC" fill-opacity="0.1"/>
<ellipse cx="559.575" cy="234.5" rx="2.44444" ry="2.5" fill="#0D50FC" fill-opacity="0.1"/>
<ellipse cx="569.352" cy="234.5" rx="2.44444" ry="2.5" fill="#0D50FC" fill-opacity="0.1"/>
<ellipse cx="579.13" cy="234.5" rx="2.44444" ry="2.5" fill="#0D50FC" fill-opacity="0.1"/>
<ellipse cx="588.908" cy="234.5" rx="2.44444" ry="2.5" fill="#0D50FC" fill-opacity="0.1"/>
<ellipse cx="527.308" cy="241.5" rx="2.44444" ry="2.5" fill="#0D50FC" fill-opacity="0.1"/>
<ellipse cx="537.086" cy="241.5" rx="2.44444" ry="2.5" fill="#0D50FC" fill-opacity="0.1"/>
<ellipse cx="546.863" cy="241.5" rx="2.44444" ry="2.5" fill="#0D50FC" fill-opacity="0.1"/>
<ellipse cx="556.641" cy="241.5" rx="2.44444" ry="2.5" fill="#0D50FC" fill-opacity="0.1"/>
<ellipse cx="566.419" cy="241.5" rx="2.44444" ry="2.5" fill="#0D50FC" fill-opacity="0.1"/>
<ellipse cx="576.197" cy="241.5" rx="2.44444" ry="2.5" fill="#0D50FC" fill-opacity="0.1"/>
<ellipse cx="585.975" cy="241.5" rx="2.44444" ry="2.5" fill="#0D50FC" fill-opacity="0.1"/>
<ellipse cx="525.352" cy="248.5" rx="2.44444" ry="2.5" fill="#0D50FC" fill-opacity="0.1"/>
<ellipse cx="535.13" cy="248.5" rx="2.44444" ry="2.5" fill="#0D50FC" fill-opacity="0.1"/>
<ellipse cx="544.908" cy="248.5" rx="2.44444" ry="2.5" fill="#0D50FC" fill-opacity="0.1"/>
<ellipse cx="554.686" cy="248.5" rx="2.44444" ry="2.5" fill="#0D50FC" fill-opacity="0.1"/>
<ellipse cx="564.464" cy="248.5" rx="2.44444" ry="2.5" fill="#0D50FC" fill-opacity="0.1"/>
<ellipse cx="574.241" cy="248.5" rx="2.44444" ry="2.5" fill="#0D50FC" fill-opacity="0.1"/>
<ellipse cx="584.019" cy="248.5" rx="2.44444" ry="2.5" fill="#0D50FC" fill-opacity="0.1"/>
<ellipse cx="522.419" cy="255.5" rx="2.44444" ry="2.5" fill="#0D50FC" fill-opacity="0.1"/>
<ellipse cx="532.197" cy="255.5" rx="2.44444" ry="2.5" fill="#0D50FC" fill-opacity="0.1"/>
<ellipse cx="541.975" cy="255.5" rx="2.44444" ry="2.5" fill="#0D50FC" fill-opacity="0.1"/>
<ellipse cx="551.752" cy="255.5" rx="2.44444" ry="2.5" fill="#0D50FC" fill-opacity="0.1"/>
<ellipse cx="561.53" cy="255.5" rx="2.44444" ry="2.5" fill="#0D50FC" fill-opacity="0.1"/>
<ellipse cx="571.308" cy="255.5" rx="2.44444" ry="2.5" fill="#0D50FC" fill-opacity="0.1"/>
<ellipse cx="581.086" cy="255.5" rx="2.44444" ry="2.5" fill="#0D50FC" fill-opacity="0.1"/>
<ellipse cx="529.264" cy="262.5" rx="2.44444" ry="2.5" fill="#0D50FC" fill-opacity="0.1"/>
<ellipse cx="539.041" cy="262.5" rx="2.44444" ry="2.5" fill="#0D50FC" fill-opacity="0.1"/>
<ellipse cx="548.819" cy="262.5" rx="2.44444" ry="2.5" fill="#0D50FC" fill-opacity="0.1"/>
<ellipse cx="558.597" cy="262.5" rx="2.44444" ry="2.5" fill="#0D50FC" fill-opacity="0.1"/>
<ellipse cx="568.375" cy="262.5" rx="2.44444" ry="2.5" fill="#0D50FC" fill-opacity="0.1"/>
<ellipse cx="578.152" cy="262.5" rx="2.44444" ry="2.5" fill="#0D50FC" fill-opacity="0.1"/>
<ellipse cx="539.041" cy="213.5" rx="2.44444" ry="2.5" fill="#0D50FC" fill-opacity="0.1"/>
<ellipse cx="548.819" cy="213.5" rx="2.44444" ry="2.5" fill="#0D50FC" fill-opacity="0.1"/>
<ellipse cx="558.597" cy="213.5" rx="2.44444" ry="2.5" fill="#0D50FC" fill-opacity="0.1"/>
<ellipse cx="568.375" cy="213.5" rx="2.44444" ry="2.5" fill="#0D50FC" fill-opacity="0.1"/>
<ellipse cx="578.152" cy="213.5" rx="2.44444" ry="2.5" fill="#0D50FC" fill-opacity="0.1"/>
<ellipse cx="587.93" cy="213.5" rx="2.44444" ry="2.5" fill="#0D50FC" fill-opacity="0.1"/>
<ellipse cx="597.708" cy="213.5" rx="2.44444" ry="2.5" fill="#0D50FC" fill-opacity="0.1"/>
<path d="M85.3704 0H34.0908C29.9292 0 26.2026 2.57734 24.7341 6.4712L5.87695 56.4712C3.4103 63.0116 8.2436 70 15.2336 70H65.8148C69.9319 70 73.6282 67.4767 75.1278 63.6424L94.6834 13.6424C97.2483 7.08433 92.4122 0 85.3704 0Z" fill="#0D50FC" fill-opacity="0.05"/>
<ellipse cx="42.3302" cy="16.5" rx="2.44444" ry="2.5" fill="#0D50FC" fill-opacity="0.1"/>
<ellipse cx="52.108" cy="16.5" rx="2.44444" ry="2.5" fill="#0D50FC" fill-opacity="0.1"/>
<ellipse cx="61.8857" cy="16.5" rx="2.44444" ry="2.5" fill="#0D50FC" fill-opacity="0.1"/>
<ellipse cx="71.6635" cy="16.5" rx="2.44444" ry="2.5" fill="#0D50FC" fill-opacity="0.1"/>
<ellipse cx="81.4413" cy="16.5" rx="2.44444" ry="2.5" fill="#0D50FC" fill-opacity="0.1"/>
<ellipse cx="91.219" cy="16.5" rx="2.44444" ry="2.5" fill="#0D50FC" fill-opacity="0.1"/>
<ellipse cx="36.4635" cy="30.5" rx="2.44444" ry="2.5" fill="#0D50FC" fill-opacity="0.1"/>
<ellipse cx="46.2413" cy="30.5" rx="2.44444" ry="2.5" fill="#0D50FC" fill-opacity="0.1"/>
<ellipse cx="56.0191" cy="30.5" rx="2.44444" ry="2.5" fill="#0D50FC" fill-opacity="0.1"/>
<ellipse cx="65.7969" cy="30.5" rx="2.44444" ry="2.5" fill="#0D50FC" fill-opacity="0.1"/>
<ellipse cx="75.5747" cy="30.5" rx="2.44444" ry="2.5" fill="#0D50FC" fill-opacity="0.1"/>
<ellipse cx="85.3524" cy="30.5" rx="2.44444" ry="2.5" fill="#0D50FC" fill-opacity="0.1"/>
<ellipse cx="95.1302" cy="30.5" rx="2.44444" ry="2.5" fill="#0D50FC" fill-opacity="0.1"/>
<ellipse cx="33.5302" cy="37.5" rx="2.44444" ry="2.5" fill="#0D50FC" fill-opacity="0.1"/>
<ellipse cx="43.308" cy="37.5" rx="2.44444" ry="2.5" fill="#0D50FC" fill-opacity="0.1"/>
<ellipse cx="53.0857" cy="37.5" rx="2.44444" ry="2.5" fill="#0D50FC" fill-opacity="0.1"/>
<ellipse cx="62.8635" cy="37.5" rx="2.44444" ry="2.5" fill="#0D50FC" fill-opacity="0.1"/>
<ellipse cx="72.6413" cy="37.5" rx="2.44444" ry="2.5" fill="#0D50FC" fill-opacity="0.1"/>
<ellipse cx="82.4191" cy="37.5" rx="2.44444" ry="2.5" fill="#0D50FC" fill-opacity="0.1"/>
<ellipse cx="92.1968" cy="37.5" rx="2.44444" ry="2.5" fill="#0D50FC" fill-opacity="0.1"/>
<ellipse cx="30.5968" cy="44.5" rx="2.44444" ry="2.5" fill="#0D50FC" fill-opacity="0.1"/>
<ellipse cx="40.3746" cy="44.5" rx="2.44444" ry="2.5" fill="#0D50FC" fill-opacity="0.1"/>
<ellipse cx="50.1524" cy="44.5" rx="2.44444" ry="2.5" fill="#0D50FC" fill-opacity="0.1"/>
<ellipse cx="59.9302" cy="44.5" rx="2.44444" ry="2.5" fill="#0D50FC" fill-opacity="0.1"/>
<ellipse cx="69.708" cy="44.5" rx="2.44444" ry="2.5" fill="#0D50FC" fill-opacity="0.1"/>
<ellipse cx="79.4858" cy="44.5" rx="2.44444" ry="2.5" fill="#0D50FC" fill-opacity="0.1"/>
<ellipse cx="89.2635" cy="44.5" rx="2.44444" ry="2.5" fill="#0D50FC" fill-opacity="0.1"/>
<ellipse cx="27.6636" cy="51.5" rx="2.44444" ry="2.5" fill="#0D50FC" fill-opacity="0.1"/>
<ellipse cx="37.4413" cy="51.5" rx="2.44444" ry="2.5" fill="#0D50FC" fill-opacity="0.1"/>
<ellipse cx="47.2191" cy="51.5" rx="2.44444" ry="2.5" fill="#0D50FC" fill-opacity="0.1"/>
<ellipse cx="56.9969" cy="51.5" rx="2.44444" ry="2.5" fill="#0D50FC" fill-opacity="0.1"/>
<ellipse cx="66.7746" cy="51.5" rx="2.44444" ry="2.5" fill="#0D50FC" fill-opacity="0.1"/>
<ellipse cx="76.5525" cy="51.5" rx="2.44444" ry="2.5" fill="#0D50FC" fill-opacity="0.1"/>
<ellipse cx="86.3302" cy="51.5" rx="2.44444" ry="2.5" fill="#0D50FC" fill-opacity="0.1"/>
<ellipse cx="25.708" cy="58.5" rx="2.44444" ry="2.5" fill="#0D50FC" fill-opacity="0.1"/>
<ellipse cx="35.4858" cy="58.5" rx="2.44444" ry="2.5" fill="#0D50FC" fill-opacity="0.1"/>
<ellipse cx="45.2635" cy="58.5" rx="2.44444" ry="2.5" fill="#0D50FC" fill-opacity="0.1"/>
<ellipse cx="55.0413" cy="58.5" rx="2.44444" ry="2.5" fill="#0D50FC" fill-opacity="0.1"/>
<ellipse cx="64.8191" cy="58.5" rx="2.44444" ry="2.5" fill="#0D50FC" fill-opacity="0.1"/>
<ellipse cx="74.5969" cy="58.5" rx="2.44444" ry="2.5" fill="#0D50FC" fill-opacity="0.1"/>
<ellipse cx="84.3747" cy="58.5" rx="2.44444" ry="2.5" fill="#0D50FC" fill-opacity="0.1"/>
<ellipse cx="22.7746" cy="65.5" rx="2.44444" ry="2.5" fill="#0D50FC" fill-opacity="0.1"/>
<ellipse cx="32.5524" cy="65.5" rx="2.44444" ry="2.5" fill="#0D50FC" fill-opacity="0.1"/>
<ellipse cx="42.3302" cy="65.5" rx="2.44444" ry="2.5" fill="#0D50FC" fill-opacity="0.1"/>
<ellipse cx="52.108" cy="65.5" rx="2.44444" ry="2.5" fill="#0D50FC" fill-opacity="0.1"/>
<ellipse cx="61.8858" cy="65.5" rx="2.44444" ry="2.5" fill="#0D50FC" fill-opacity="0.1"/>
<ellipse cx="71.6636" cy="65.5" rx="2.44444" ry="2.5" fill="#0D50FC" fill-opacity="0.1"/>
<ellipse cx="81.4413" cy="65.5" rx="2.44444" ry="2.5" fill="#0D50FC" fill-opacity="0.1"/>
<ellipse cx="29.6191" cy="72.5" rx="2.44444" ry="2.5" fill="#0D50FC" fill-opacity="0.1"/>
<ellipse cx="39.3968" cy="72.5" rx="2.44444" ry="2.5" fill="#0D50FC" fill-opacity="0.1"/>
<ellipse cx="49.1746" cy="72.5" rx="2.44444" ry="2.5" fill="#0D50FC" fill-opacity="0.1"/>
<ellipse cx="58.9524" cy="72.5" rx="2.44444" ry="2.5" fill="#0D50FC" fill-opacity="0.1"/>
<ellipse cx="68.7302" cy="72.5" rx="2.44444" ry="2.5" fill="#0D50FC" fill-opacity="0.1"/>
<ellipse cx="78.5079" cy="72.5" rx="2.44444" ry="2.5" fill="#0D50FC" fill-opacity="0.1"/>
<ellipse cx="39.3968" cy="23.5" rx="2.44444" ry="2.5" fill="#0D50FC" fill-opacity="0.1"/>
<ellipse cx="49.1746" cy="23.5" rx="2.44444" ry="2.5" fill="#0D50FC" fill-opacity="0.1"/>
<ellipse cx="58.9524" cy="23.5" rx="2.44444" ry="2.5" fill="#0D50FC" fill-opacity="0.1"/>
<ellipse cx="68.7301" cy="23.5" rx="2.44444" ry="2.5" fill="#0D50FC" fill-opacity="0.1"/>
<ellipse cx="78.5079" cy="23.5" rx="2.44444" ry="2.5" fill="#0D50FC" fill-opacity="0.1"/>
<ellipse cx="88.2858" cy="23.5" rx="2.44444" ry="2.5" fill="#0D50FC" fill-opacity="0.1"/>
<ellipse cx="98.0635" cy="23.5" rx="2.44444" ry="2.5" fill="#0D50FC" fill-opacity="0.1"/>
<path d="M561.652 21.5V219.5C561.652 223.876 559.259 228.073 555 231.167C550.74 234.262 544.963 236 538.939 236H459.442C456.43 236 453.541 235.131 451.412 233.584C449.282 232.036 448.085 229.938 448.085 227.75V211.25C448.085 209.062 449.282 206.964 451.412 205.416C453.541 203.869 456.43 203 459.442 203H516.226V38H459.442C456.43 38 453.541 37.1308 451.412 35.5836C449.282 34.0365 448.085 31.938 448.085 29.75V13.25C448.085 11.062 449.282 8.96354 451.412 7.41637C453.541 5.86919 456.43 5 459.442 5H538.939C544.963 5 550.74 6.73839 555 9.83274C559.259 12.9271 561.652 17.1239 561.652 21.5Z" fill="url(#paint0_linear_338:6)"/>
<path d="M345.875 5H266.378C260.354 5 254.577 6.73839 250.317 9.83274C246.058 12.9271 243.665 17.1239 243.665 21.5V219.5C243.665 223.876 246.058 228.073 250.317 231.167C254.577 234.262 260.354 236 266.378 236H345.875C348.887 236 351.776 235.131 353.905 233.584C356.035 232.036 357.232 229.938 357.232 227.75V211.25C357.232 209.062 356.035 206.964 353.905 205.416C351.776 203.869 348.887 203 345.875 203H289.091V38H345.875C348.887 38 351.776 37.1308 353.905 35.5836C356.035 34.0365 357.232 31.938 357.232 29.75V13.25C357.232 11.062 356.035 8.96354 353.905 7.41637C351.776 5.86919 348.887 5 345.875 5Z" fill="url(#paint1_linear_338:6)"/>
<defs>
<linearGradient id="paint0_linear_338:6" x1="504.869" y1="5" x2="504.869" y2="236" gradientUnits="userSpaceOnUse">
<stop stop-color="#00CACA" stop-opacity="0.1"/>
<stop offset="1" stop-color="#0D50FC" stop-opacity="0.1"/>
</linearGradient>
<linearGradient id="paint1_linear_338:6" x1="300.448" y1="5" x2="300.448" y2="236" gradientUnits="userSpaceOnUse">
<stop stop-color="#00CACA" stop-opacity="0.1"/>
<stop offset="1" stop-color="#0D50FC" stop-opacity="0.1"/>
</linearGradient>
</defs>
</svg>
