<svg width="640" height="265" viewBox="0 0 640 265" fill="none" xmlns="http://www.w3.org/2000/svg">
<path d="M584.862 190H533.583C529.421 190 525.695 192.577 524.226 196.471L505.369 246.471C502.902 253.012 507.736 260 514.726 260H565.307C569.424 260 573.12 257.477 574.62 253.642L594.175 203.642C596.74 197.084 591.904 190 584.862 190Z" fill="#0D50FC" fill-opacity="0.05"/>
<ellipse cx="541.822" cy="206.5" rx="2.44444" ry="2.5" fill="#0D50FC" fill-opacity="0.1"/>
<ellipse cx="551.6" cy="206.5" rx="2.44444" ry="2.5" fill="#0D50FC" fill-opacity="0.1"/>
<ellipse cx="561.378" cy="206.5" rx="2.44444" ry="2.5" fill="#0D50FC" fill-opacity="0.1"/>
<ellipse cx="571.156" cy="206.5" rx="2.44444" ry="2.5" fill="#0D50FC" fill-opacity="0.1"/>
<ellipse cx="580.933" cy="206.5" rx="2.44444" ry="2.5" fill="#0D50FC" fill-opacity="0.1"/>
<ellipse cx="590.711" cy="206.5" rx="2.44444" ry="2.5" fill="#0D50FC" fill-opacity="0.1"/>
<ellipse cx="535.955" cy="220.5" rx="2.44444" ry="2.5" fill="#0D50FC" fill-opacity="0.1"/>
<ellipse cx="545.733" cy="220.5" rx="2.44444" ry="2.5" fill="#0D50FC" fill-opacity="0.1"/>
<ellipse cx="555.511" cy="220.5" rx="2.44444" ry="2.5" fill="#0D50FC" fill-opacity="0.1"/>
<ellipse cx="565.289" cy="220.5" rx="2.44444" ry="2.5" fill="#0D50FC" fill-opacity="0.1"/>
<ellipse cx="575.067" cy="220.5" rx="2.44444" ry="2.5" fill="#0D50FC" fill-opacity="0.1"/>
<ellipse cx="584.844" cy="220.5" rx="2.44444" ry="2.5" fill="#0D50FC" fill-opacity="0.1"/>
<ellipse cx="594.622" cy="220.5" rx="2.44444" ry="2.5" fill="#0D50FC" fill-opacity="0.1"/>
<ellipse cx="533.022" cy="227.5" rx="2.44444" ry="2.5" fill="#0D50FC" fill-opacity="0.1"/>
<ellipse cx="542.8" cy="227.5" rx="2.44444" ry="2.5" fill="#0D50FC" fill-opacity="0.1"/>
<ellipse cx="552.578" cy="227.5" rx="2.44444" ry="2.5" fill="#0D50FC" fill-opacity="0.1"/>
<ellipse cx="562.356" cy="227.5" rx="2.44444" ry="2.5" fill="#0D50FC" fill-opacity="0.1"/>
<ellipse cx="572.133" cy="227.5" rx="2.44444" ry="2.5" fill="#0D50FC" fill-opacity="0.1"/>
<ellipse cx="581.911" cy="227.5" rx="2.44444" ry="2.5" fill="#0D50FC" fill-opacity="0.1"/>
<ellipse cx="591.689" cy="227.5" rx="2.44444" ry="2.5" fill="#0D50FC" fill-opacity="0.1"/>
<ellipse cx="530.089" cy="234.5" rx="2.44444" ry="2.5" fill="#0D50FC" fill-opacity="0.1"/>
<ellipse cx="539.867" cy="234.5" rx="2.44444" ry="2.5" fill="#0D50FC" fill-opacity="0.1"/>
<ellipse cx="549.644" cy="234.5" rx="2.44444" ry="2.5" fill="#0D50FC" fill-opacity="0.1"/>
<ellipse cx="559.422" cy="234.5" rx="2.44444" ry="2.5" fill="#0D50FC" fill-opacity="0.1"/>
<ellipse cx="569.2" cy="234.5" rx="2.44444" ry="2.5" fill="#0D50FC" fill-opacity="0.1"/>
<ellipse cx="578.978" cy="234.5" rx="2.44444" ry="2.5" fill="#0D50FC" fill-opacity="0.1"/>
<ellipse cx="588.755" cy="234.5" rx="2.44444" ry="2.5" fill="#0D50FC" fill-opacity="0.1"/>
<ellipse cx="527.156" cy="241.5" rx="2.44444" ry="2.5" fill="#0D50FC" fill-opacity="0.1"/>
<ellipse cx="536.933" cy="241.5" rx="2.44444" ry="2.5" fill="#0D50FC" fill-opacity="0.1"/>
<ellipse cx="546.711" cy="241.5" rx="2.44444" ry="2.5" fill="#0D50FC" fill-opacity="0.1"/>
<ellipse cx="556.489" cy="241.5" rx="2.44444" ry="2.5" fill="#0D50FC" fill-opacity="0.1"/>
<ellipse cx="566.267" cy="241.5" rx="2.44444" ry="2.5" fill="#0D50FC" fill-opacity="0.1"/>
<ellipse cx="576.044" cy="241.5" rx="2.44444" ry="2.5" fill="#0D50FC" fill-opacity="0.1"/>
<ellipse cx="585.822" cy="241.5" rx="2.44444" ry="2.5" fill="#0D50FC" fill-opacity="0.1"/>
<ellipse cx="525.2" cy="248.5" rx="2.44444" ry="2.5" fill="#0D50FC" fill-opacity="0.1"/>
<ellipse cx="534.978" cy="248.5" rx="2.44444" ry="2.5" fill="#0D50FC" fill-opacity="0.1"/>
<ellipse cx="544.755" cy="248.5" rx="2.44444" ry="2.5" fill="#0D50FC" fill-opacity="0.1"/>
<ellipse cx="554.533" cy="248.5" rx="2.44444" ry="2.5" fill="#0D50FC" fill-opacity="0.1"/>
<ellipse cx="564.311" cy="248.5" rx="2.44444" ry="2.5" fill="#0D50FC" fill-opacity="0.1"/>
<ellipse cx="574.089" cy="248.5" rx="2.44444" ry="2.5" fill="#0D50FC" fill-opacity="0.1"/>
<ellipse cx="583.867" cy="248.5" rx="2.44444" ry="2.5" fill="#0D50FC" fill-opacity="0.1"/>
<ellipse cx="522.267" cy="255.5" rx="2.44444" ry="2.5" fill="#0D50FC" fill-opacity="0.1"/>
<ellipse cx="532.044" cy="255.5" rx="2.44444" ry="2.5" fill="#0D50FC" fill-opacity="0.1"/>
<ellipse cx="541.822" cy="255.5" rx="2.44444" ry="2.5" fill="#0D50FC" fill-opacity="0.1"/>
<ellipse cx="551.6" cy="255.5" rx="2.44444" ry="2.5" fill="#0D50FC" fill-opacity="0.1"/>
<ellipse cx="561.378" cy="255.5" rx="2.44444" ry="2.5" fill="#0D50FC" fill-opacity="0.1"/>
<ellipse cx="571.156" cy="255.5" rx="2.44444" ry="2.5" fill="#0D50FC" fill-opacity="0.1"/>
<ellipse cx="580.933" cy="255.5" rx="2.44444" ry="2.5" fill="#0D50FC" fill-opacity="0.1"/>
<ellipse cx="529.111" cy="262.5" rx="2.44444" ry="2.5" fill="#0D50FC" fill-opacity="0.1"/>
<ellipse cx="538.889" cy="262.5" rx="2.44444" ry="2.5" fill="#0D50FC" fill-opacity="0.1"/>
<ellipse cx="548.667" cy="262.5" rx="2.44444" ry="2.5" fill="#0D50FC" fill-opacity="0.1"/>
<ellipse cx="558.444" cy="262.5" rx="2.44444" ry="2.5" fill="#0D50FC" fill-opacity="0.1"/>
<ellipse cx="568.222" cy="262.5" rx="2.44444" ry="2.5" fill="#0D50FC" fill-opacity="0.1"/>
<ellipse cx="578" cy="262.5" rx="2.44444" ry="2.5" fill="#0D50FC" fill-opacity="0.1"/>
<ellipse cx="538.889" cy="213.5" rx="2.44444" ry="2.5" fill="#0D50FC" fill-opacity="0.1"/>
<ellipse cx="548.667" cy="213.5" rx="2.44444" ry="2.5" fill="#0D50FC" fill-opacity="0.1"/>
<ellipse cx="558.444" cy="213.5" rx="2.44444" ry="2.5" fill="#0D50FC" fill-opacity="0.1"/>
<ellipse cx="568.222" cy="213.5" rx="2.44444" ry="2.5" fill="#0D50FC" fill-opacity="0.1"/>
<ellipse cx="578" cy="213.5" rx="2.44444" ry="2.5" fill="#0D50FC" fill-opacity="0.1"/>
<ellipse cx="587.778" cy="213.5" rx="2.44444" ry="2.5" fill="#0D50FC" fill-opacity="0.1"/>
<ellipse cx="597.555" cy="213.5" rx="2.44444" ry="2.5" fill="#0D50FC" fill-opacity="0.1"/>
<path d="M85.2179 0H33.9383C29.7767 0 26.0502 2.57734 24.5816 6.4712L5.72448 56.4712C3.25784 63.0116 8.09113 70 15.0812 70H65.6623C69.7794 70 73.4758 67.4767 74.9754 63.6424L94.5309 13.6424C97.0959 7.08433 92.2598 0 85.2179 0Z" fill="#0D50FC" fill-opacity="0.05"/>
<ellipse cx="42.1777" cy="16.5" rx="2.44444" ry="2.5" fill="#0D50FC" fill-opacity="0.1"/>
<ellipse cx="51.9556" cy="16.5" rx="2.44444" ry="2.5" fill="#0D50FC" fill-opacity="0.1"/>
<ellipse cx="61.7333" cy="16.5" rx="2.44444" ry="2.5" fill="#0D50FC" fill-opacity="0.1"/>
<ellipse cx="71.5111" cy="16.5" rx="2.44444" ry="2.5" fill="#0D50FC" fill-opacity="0.1"/>
<ellipse cx="81.2888" cy="16.5" rx="2.44444" ry="2.5" fill="#0D50FC" fill-opacity="0.1"/>
<ellipse cx="91.0666" cy="16.5" rx="2.44444" ry="2.5" fill="#0D50FC" fill-opacity="0.1"/>
<ellipse cx="36.311" cy="30.5" rx="2.44444" ry="2.5" fill="#0D50FC" fill-opacity="0.1"/>
<ellipse cx="46.0889" cy="30.5" rx="2.44444" ry="2.5" fill="#0D50FC" fill-opacity="0.1"/>
<ellipse cx="55.8666" cy="30.5" rx="2.44444" ry="2.5" fill="#0D50FC" fill-opacity="0.1"/>
<ellipse cx="65.6444" cy="30.5" rx="2.44444" ry="2.5" fill="#0D50FC" fill-opacity="0.1"/>
<ellipse cx="75.4221" cy="30.5" rx="2.44444" ry="2.5" fill="#0D50FC" fill-opacity="0.1"/>
<ellipse cx="85.1999" cy="30.5" rx="2.44444" ry="2.5" fill="#0D50FC" fill-opacity="0.1"/>
<ellipse cx="94.9778" cy="30.5" rx="2.44444" ry="2.5" fill="#0D50FC" fill-opacity="0.1"/>
<ellipse cx="33.3777" cy="37.5" rx="2.44444" ry="2.5" fill="#0D50FC" fill-opacity="0.1"/>
<ellipse cx="43.1554" cy="37.5" rx="2.44444" ry="2.5" fill="#0D50FC" fill-opacity="0.1"/>
<ellipse cx="52.9332" cy="37.5" rx="2.44444" ry="2.5" fill="#0D50FC" fill-opacity="0.1"/>
<ellipse cx="62.711" cy="37.5" rx="2.44444" ry="2.5" fill="#0D50FC" fill-opacity="0.1"/>
<ellipse cx="72.4888" cy="37.5" rx="2.44444" ry="2.5" fill="#0D50FC" fill-opacity="0.1"/>
<ellipse cx="82.2666" cy="37.5" rx="2.44444" ry="2.5" fill="#0D50FC" fill-opacity="0.1"/>
<ellipse cx="92.0443" cy="37.5" rx="2.44444" ry="2.5" fill="#0D50FC" fill-opacity="0.1"/>
<ellipse cx="30.4444" cy="44.5" rx="2.44444" ry="2.5" fill="#0D50FC" fill-opacity="0.1"/>
<ellipse cx="40.2223" cy="44.5" rx="2.44444" ry="2.5" fill="#0D50FC" fill-opacity="0.1"/>
<ellipse cx="50" cy="44.5" rx="2.44444" ry="2.5" fill="#0D50FC" fill-opacity="0.1"/>
<ellipse cx="59.7778" cy="44.5" rx="2.44444" ry="2.5" fill="#0D50FC" fill-opacity="0.1"/>
<ellipse cx="69.5555" cy="44.5" rx="2.44444" ry="2.5" fill="#0D50FC" fill-opacity="0.1"/>
<ellipse cx="79.3334" cy="44.5" rx="2.44444" ry="2.5" fill="#0D50FC" fill-opacity="0.1"/>
<ellipse cx="89.1111" cy="44.5" rx="2.44444" ry="2.5" fill="#0D50FC" fill-opacity="0.1"/>
<ellipse cx="27.5111" cy="51.5" rx="2.44444" ry="2.5" fill="#0D50FC" fill-opacity="0.1"/>
<ellipse cx="37.2889" cy="51.5" rx="2.44444" ry="2.5" fill="#0D50FC" fill-opacity="0.1"/>
<ellipse cx="47.0666" cy="51.5" rx="2.44444" ry="2.5" fill="#0D50FC" fill-opacity="0.1"/>
<ellipse cx="56.8445" cy="51.5" rx="2.44444" ry="2.5" fill="#0D50FC" fill-opacity="0.1"/>
<ellipse cx="66.6222" cy="51.5" rx="2.44444" ry="2.5" fill="#0D50FC" fill-opacity="0.1"/>
<ellipse cx="76.4" cy="51.5" rx="2.44444" ry="2.5" fill="#0D50FC" fill-opacity="0.1"/>
<ellipse cx="86.1777" cy="51.5" rx="2.44444" ry="2.5" fill="#0D50FC" fill-opacity="0.1"/>
<ellipse cx="25.5555" cy="58.5" rx="2.44444" ry="2.5" fill="#0D50FC" fill-opacity="0.1"/>
<ellipse cx="35.3334" cy="58.5" rx="2.44444" ry="2.5" fill="#0D50FC" fill-opacity="0.1"/>
<ellipse cx="45.1111" cy="58.5" rx="2.44444" ry="2.5" fill="#0D50FC" fill-opacity="0.1"/>
<ellipse cx="54.8889" cy="58.5" rx="2.44444" ry="2.5" fill="#0D50FC" fill-opacity="0.1"/>
<ellipse cx="64.6666" cy="58.5" rx="2.44444" ry="2.5" fill="#0D50FC" fill-opacity="0.1"/>
<ellipse cx="74.4444" cy="58.5" rx="2.44444" ry="2.5" fill="#0D50FC" fill-opacity="0.1"/>
<ellipse cx="84.2223" cy="58.5" rx="2.44444" ry="2.5" fill="#0D50FC" fill-opacity="0.1"/>
<ellipse cx="22.6222" cy="65.5" rx="2.44444" ry="2.5" fill="#0D50FC" fill-opacity="0.1"/>
<ellipse cx="32.3999" cy="65.5" rx="2.44444" ry="2.5" fill="#0D50FC" fill-opacity="0.1"/>
<ellipse cx="42.1777" cy="65.5" rx="2.44444" ry="2.5" fill="#0D50FC" fill-opacity="0.1"/>
<ellipse cx="51.9556" cy="65.5" rx="2.44444" ry="2.5" fill="#0D50FC" fill-opacity="0.1"/>
<ellipse cx="61.7333" cy="65.5" rx="2.44444" ry="2.5" fill="#0D50FC" fill-opacity="0.1"/>
<ellipse cx="71.5111" cy="65.5" rx="2.44444" ry="2.5" fill="#0D50FC" fill-opacity="0.1"/>
<ellipse cx="81.2888" cy="65.5" rx="2.44444" ry="2.5" fill="#0D50FC" fill-opacity="0.1"/>
<ellipse cx="29.4667" cy="72.5" rx="2.44444" ry="2.5" fill="#0D50FC" fill-opacity="0.1"/>
<ellipse cx="39.2445" cy="72.5" rx="2.44444" ry="2.5" fill="#0D50FC" fill-opacity="0.1"/>
<ellipse cx="49.0222" cy="72.5" rx="2.44444" ry="2.5" fill="#0D50FC" fill-opacity="0.1"/>
<ellipse cx="58.8" cy="72.5" rx="2.44444" ry="2.5" fill="#0D50FC" fill-opacity="0.1"/>
<ellipse cx="68.5777" cy="72.5" rx="2.44444" ry="2.5" fill="#0D50FC" fill-opacity="0.1"/>
<ellipse cx="78.3556" cy="72.5" rx="2.44444" ry="2.5" fill="#0D50FC" fill-opacity="0.1"/>
<ellipse cx="39.2444" cy="23.5" rx="2.44444" ry="2.5" fill="#0D50FC" fill-opacity="0.1"/>
<ellipse cx="49.0222" cy="23.5" rx="2.44444" ry="2.5" fill="#0D50FC" fill-opacity="0.1"/>
<ellipse cx="58.7999" cy="23.5" rx="2.44444" ry="2.5" fill="#0D50FC" fill-opacity="0.1"/>
<ellipse cx="68.5777" cy="23.5" rx="2.44444" ry="2.5" fill="#0D50FC" fill-opacity="0.1"/>
<ellipse cx="78.3555" cy="23.5" rx="2.44444" ry="2.5" fill="#0D50FC" fill-opacity="0.1"/>
<ellipse cx="88.1333" cy="23.5" rx="2.44444" ry="2.5" fill="#0D50FC" fill-opacity="0.1"/>
<ellipse cx="97.911" cy="23.5" rx="2.44444" ry="2.5" fill="#0D50FC" fill-opacity="0.1"/>
<path d="M271 146.554L337.18 218.296L474.493 69.4403L560.845 25.3208L565.8 55.629L474.493 111.642L337.18 244L271 164.969V146.554Z" fill="url(#paint0_linear_338:7)"/>
<path d="M544.289 0L559.805 25.7044L565.8 57.9308V85.1698L639.5 2.30189L544.289 0Z" fill="url(#paint1_linear_338:7)"/>
<defs>
<linearGradient id="paint0_linear_338:7" x1="418.4" y1="25.3208" x2="418.4" y2="244" gradientUnits="userSpaceOnUse">
<stop stop-color="#00CACA" stop-opacity="0.1"/>
<stop offset="1" stop-color="#0D50FC" stop-opacity="0.1"/>
</linearGradient>
<linearGradient id="paint1_linear_338:7" x1="591.895" y1="0" x2="591.895" y2="85.1698" gradientUnits="userSpaceOnUse">
<stop stop-color="#00CACA" stop-opacity="0.1"/>
<stop offset="1" stop-color="#0D50FC" stop-opacity="0.1"/>
</linearGradient>
</defs>
</svg>
