<svg width="600" height="265" viewBox="0 0 600 265" fill="none" xmlns="http://www.w3.org/2000/svg">
<path d="M584.862 190H533.583C529.421 190 525.695 192.577 524.226 196.471L505.369 246.471C502.902 253.012 507.736 260 514.726 260H565.307C569.424 260 573.12 257.477 574.62 253.642L594.175 203.642C596.74 197.084 591.904 190 584.862 190Z" fill="#0D50FC" fill-opacity="0.05"/>
<ellipse cx="541.822" cy="206.5" rx="2.44444" ry="2.5" fill="#0D50FC" fill-opacity="0.1"/>
<ellipse cx="551.6" cy="206.5" rx="2.44444" ry="2.5" fill="#0D50FC" fill-opacity="0.1"/>
<ellipse cx="561.378" cy="206.5" rx="2.44444" ry="2.5" fill="#0D50FC" fill-opacity="0.1"/>
<ellipse cx="571.156" cy="206.5" rx="2.44444" ry="2.5" fill="#0D50FC" fill-opacity="0.1"/>
<ellipse cx="580.933" cy="206.5" rx="2.44444" ry="2.5" fill="#0D50FC" fill-opacity="0.1"/>
<ellipse cx="590.711" cy="206.5" rx="2.44444" ry="2.5" fill="#0D50FC" fill-opacity="0.1"/>
<ellipse cx="535.956" cy="220.5" rx="2.44444" ry="2.5" fill="#0D50FC" fill-opacity="0.1"/>
<ellipse cx="545.733" cy="220.5" rx="2.44444" ry="2.5" fill="#0D50FC" fill-opacity="0.1"/>
<ellipse cx="555.511" cy="220.5" rx="2.44444" ry="2.5" fill="#0D50FC" fill-opacity="0.1"/>
<ellipse cx="565.289" cy="220.5" rx="2.44444" ry="2.5" fill="#0D50FC" fill-opacity="0.1"/>
<ellipse cx="575.067" cy="220.5" rx="2.44444" ry="2.5" fill="#0D50FC" fill-opacity="0.1"/>
<ellipse cx="584.844" cy="220.5" rx="2.44444" ry="2.5" fill="#0D50FC" fill-opacity="0.1"/>
<ellipse cx="594.622" cy="220.5" rx="2.44444" ry="2.5" fill="#0D50FC" fill-opacity="0.1"/>
<ellipse cx="533.022" cy="227.5" rx="2.44444" ry="2.5" fill="#0D50FC" fill-opacity="0.1"/>
<ellipse cx="542.8" cy="227.5" rx="2.44444" ry="2.5" fill="#0D50FC" fill-opacity="0.1"/>
<ellipse cx="552.578" cy="227.5" rx="2.44444" ry="2.5" fill="#0D50FC" fill-opacity="0.1"/>
<ellipse cx="562.356" cy="227.5" rx="2.44444" ry="2.5" fill="#0D50FC" fill-opacity="0.1"/>
<ellipse cx="572.133" cy="227.5" rx="2.44444" ry="2.5" fill="#0D50FC" fill-opacity="0.1"/>
<ellipse cx="581.911" cy="227.5" rx="2.44444" ry="2.5" fill="#0D50FC" fill-opacity="0.1"/>
<ellipse cx="591.689" cy="227.5" rx="2.44444" ry="2.5" fill="#0D50FC" fill-opacity="0.1"/>
<ellipse cx="530.089" cy="234.5" rx="2.44444" ry="2.5" fill="#0D50FC" fill-opacity="0.1"/>
<ellipse cx="539.867" cy="234.5" rx="2.44444" ry="2.5" fill="#0D50FC" fill-opacity="0.1"/>
<ellipse cx="549.644" cy="234.5" rx="2.44444" ry="2.5" fill="#0D50FC" fill-opacity="0.1"/>
<ellipse cx="559.422" cy="234.5" rx="2.44444" ry="2.5" fill="#0D50FC" fill-opacity="0.1"/>
<ellipse cx="569.2" cy="234.5" rx="2.44444" ry="2.5" fill="#0D50FC" fill-opacity="0.1"/>
<ellipse cx="578.978" cy="234.5" rx="2.44444" ry="2.5" fill="#0D50FC" fill-opacity="0.1"/>
<ellipse cx="588.756" cy="234.5" rx="2.44444" ry="2.5" fill="#0D50FC" fill-opacity="0.1"/>
<ellipse cx="527.156" cy="241.5" rx="2.44444" ry="2.5" fill="#0D50FC" fill-opacity="0.1"/>
<ellipse cx="536.933" cy="241.5" rx="2.44444" ry="2.5" fill="#0D50FC" fill-opacity="0.1"/>
<ellipse cx="546.711" cy="241.5" rx="2.44444" ry="2.5" fill="#0D50FC" fill-opacity="0.1"/>
<ellipse cx="556.489" cy="241.5" rx="2.44444" ry="2.5" fill="#0D50FC" fill-opacity="0.1"/>
<ellipse cx="566.267" cy="241.5" rx="2.44444" ry="2.5" fill="#0D50FC" fill-opacity="0.1"/>
<ellipse cx="576.044" cy="241.5" rx="2.44444" ry="2.5" fill="#0D50FC" fill-opacity="0.1"/>
<ellipse cx="585.822" cy="241.5" rx="2.44444" ry="2.5" fill="#0D50FC" fill-opacity="0.1"/>
<ellipse cx="525.2" cy="248.5" rx="2.44444" ry="2.5" fill="#0D50FC" fill-opacity="0.1"/>
<ellipse cx="534.978" cy="248.5" rx="2.44444" ry="2.5" fill="#0D50FC" fill-opacity="0.1"/>
<ellipse cx="544.756" cy="248.5" rx="2.44444" ry="2.5" fill="#0D50FC" fill-opacity="0.1"/>
<ellipse cx="554.533" cy="248.5" rx="2.44444" ry="2.5" fill="#0D50FC" fill-opacity="0.1"/>
<ellipse cx="564.311" cy="248.5" rx="2.44444" ry="2.5" fill="#0D50FC" fill-opacity="0.1"/>
<ellipse cx="574.089" cy="248.5" rx="2.44444" ry="2.5" fill="#0D50FC" fill-opacity="0.1"/>
<ellipse cx="583.867" cy="248.5" rx="2.44444" ry="2.5" fill="#0D50FC" fill-opacity="0.1"/>
<ellipse cx="522.267" cy="255.5" rx="2.44444" ry="2.5" fill="#0D50FC" fill-opacity="0.1"/>
<ellipse cx="532.044" cy="255.5" rx="2.44444" ry="2.5" fill="#0D50FC" fill-opacity="0.1"/>
<ellipse cx="541.822" cy="255.5" rx="2.44444" ry="2.5" fill="#0D50FC" fill-opacity="0.1"/>
<ellipse cx="551.6" cy="255.5" rx="2.44444" ry="2.5" fill="#0D50FC" fill-opacity="0.1"/>
<ellipse cx="561.378" cy="255.5" rx="2.44444" ry="2.5" fill="#0D50FC" fill-opacity="0.1"/>
<ellipse cx="571.156" cy="255.5" rx="2.44444" ry="2.5" fill="#0D50FC" fill-opacity="0.1"/>
<ellipse cx="580.933" cy="255.5" rx="2.44444" ry="2.5" fill="#0D50FC" fill-opacity="0.1"/>
<ellipse cx="529.111" cy="262.5" rx="2.44444" ry="2.5" fill="#0D50FC" fill-opacity="0.1"/>
<ellipse cx="538.889" cy="262.5" rx="2.44444" ry="2.5" fill="#0D50FC" fill-opacity="0.1"/>
<ellipse cx="548.667" cy="262.5" rx="2.44444" ry="2.5" fill="#0D50FC" fill-opacity="0.1"/>
<ellipse cx="558.444" cy="262.5" rx="2.44444" ry="2.5" fill="#0D50FC" fill-opacity="0.1"/>
<ellipse cx="568.222" cy="262.5" rx="2.44444" ry="2.5" fill="#0D50FC" fill-opacity="0.1"/>
<ellipse cx="578" cy="262.5" rx="2.44444" ry="2.5" fill="#0D50FC" fill-opacity="0.1"/>
<ellipse cx="538.889" cy="213.5" rx="2.44444" ry="2.5" fill="#0D50FC" fill-opacity="0.1"/>
<ellipse cx="548.667" cy="213.5" rx="2.44444" ry="2.5" fill="#0D50FC" fill-opacity="0.1"/>
<ellipse cx="558.444" cy="213.5" rx="2.44444" ry="2.5" fill="#0D50FC" fill-opacity="0.1"/>
<ellipse cx="568.222" cy="213.5" rx="2.44444" ry="2.5" fill="#0D50FC" fill-opacity="0.1"/>
<ellipse cx="578" cy="213.5" rx="2.44444" ry="2.5" fill="#0D50FC" fill-opacity="0.1"/>
<ellipse cx="587.778" cy="213.5" rx="2.44444" ry="2.5" fill="#0D50FC" fill-opacity="0.1"/>
<ellipse cx="597.556" cy="213.5" rx="2.44444" ry="2.5" fill="#0D50FC" fill-opacity="0.1"/>
<path d="M85.2179 0H33.9383C29.7767 0 26.0502 2.57734 24.5816 6.4712L5.72448 56.4712C3.25784 63.0116 8.09113 70 15.0812 70H65.6623C69.7794 70 73.4758 67.4767 74.9754 63.6424L94.5309 13.6424C97.0959 7.08433 92.2598 0 85.2179 0Z" fill="#0D50FC" fill-opacity="0.05"/>
<ellipse cx="42.1778" cy="16.5" rx="2.44444" ry="2.5" fill="#0D50FC" fill-opacity="0.1"/>
<ellipse cx="51.9556" cy="16.5" rx="2.44444" ry="2.5" fill="#0D50FC" fill-opacity="0.1"/>
<ellipse cx="61.7333" cy="16.5" rx="2.44444" ry="2.5" fill="#0D50FC" fill-opacity="0.1"/>
<ellipse cx="71.5111" cy="16.5" rx="2.44444" ry="2.5" fill="#0D50FC" fill-opacity="0.1"/>
<ellipse cx="81.2889" cy="16.5" rx="2.44444" ry="2.5" fill="#0D50FC" fill-opacity="0.1"/>
<ellipse cx="91.0666" cy="16.5" rx="2.44444" ry="2.5" fill="#0D50FC" fill-opacity="0.1"/>
<ellipse cx="36.3111" cy="30.5" rx="2.44444" ry="2.5" fill="#0D50FC" fill-opacity="0.1"/>
<ellipse cx="46.0889" cy="30.5" rx="2.44444" ry="2.5" fill="#0D50FC" fill-opacity="0.1"/>
<ellipse cx="55.8667" cy="30.5" rx="2.44444" ry="2.5" fill="#0D50FC" fill-opacity="0.1"/>
<ellipse cx="65.6445" cy="30.5" rx="2.44444" ry="2.5" fill="#0D50FC" fill-opacity="0.1"/>
<ellipse cx="75.4222" cy="30.5" rx="2.44444" ry="2.5" fill="#0D50FC" fill-opacity="0.1"/>
<ellipse cx="85.2" cy="30.5" rx="2.44444" ry="2.5" fill="#0D50FC" fill-opacity="0.1"/>
<ellipse cx="94.9778" cy="30.5" rx="2.44444" ry="2.5" fill="#0D50FC" fill-opacity="0.1"/>
<ellipse cx="33.3778" cy="37.5" rx="2.44444" ry="2.5" fill="#0D50FC" fill-opacity="0.1"/>
<ellipse cx="43.1556" cy="37.5" rx="2.44444" ry="2.5" fill="#0D50FC" fill-opacity="0.1"/>
<ellipse cx="52.9333" cy="37.5" rx="2.44444" ry="2.5" fill="#0D50FC" fill-opacity="0.1"/>
<ellipse cx="62.7111" cy="37.5" rx="2.44444" ry="2.5" fill="#0D50FC" fill-opacity="0.1"/>
<ellipse cx="72.4889" cy="37.5" rx="2.44444" ry="2.5" fill="#0D50FC" fill-opacity="0.1"/>
<ellipse cx="82.2666" cy="37.5" rx="2.44444" ry="2.5" fill="#0D50FC" fill-opacity="0.1"/>
<ellipse cx="92.0444" cy="37.5" rx="2.44444" ry="2.5" fill="#0D50FC" fill-opacity="0.1"/>
<ellipse cx="30.4444" cy="44.5" rx="2.44444" ry="2.5" fill="#0D50FC" fill-opacity="0.1"/>
<ellipse cx="40.2222" cy="44.5" rx="2.44444" ry="2.5" fill="#0D50FC" fill-opacity="0.1"/>
<ellipse cx="50" cy="44.5" rx="2.44444" ry="2.5" fill="#0D50FC" fill-opacity="0.1"/>
<ellipse cx="59.7778" cy="44.5" rx="2.44444" ry="2.5" fill="#0D50FC" fill-opacity="0.1"/>
<ellipse cx="69.5555" cy="44.5" rx="2.44444" ry="2.5" fill="#0D50FC" fill-opacity="0.1"/>
<ellipse cx="79.3334" cy="44.5" rx="2.44444" ry="2.5" fill="#0D50FC" fill-opacity="0.1"/>
<ellipse cx="89.1111" cy="44.5" rx="2.44444" ry="2.5" fill="#0D50FC" fill-opacity="0.1"/>
<ellipse cx="27.5111" cy="51.5" rx="2.44444" ry="2.5" fill="#0D50FC" fill-opacity="0.1"/>
<ellipse cx="37.2889" cy="51.5" rx="2.44444" ry="2.5" fill="#0D50FC" fill-opacity="0.1"/>
<ellipse cx="47.0666" cy="51.5" rx="2.44444" ry="2.5" fill="#0D50FC" fill-opacity="0.1"/>
<ellipse cx="56.8445" cy="51.5" rx="2.44444" ry="2.5" fill="#0D50FC" fill-opacity="0.1"/>
<ellipse cx="66.6222" cy="51.5" rx="2.44444" ry="2.5" fill="#0D50FC" fill-opacity="0.1"/>
<ellipse cx="76.4" cy="51.5" rx="2.44444" ry="2.5" fill="#0D50FC" fill-opacity="0.1"/>
<ellipse cx="86.1778" cy="51.5" rx="2.44444" ry="2.5" fill="#0D50FC" fill-opacity="0.1"/>
<ellipse cx="25.5555" cy="58.5" rx="2.44444" ry="2.5" fill="#0D50FC" fill-opacity="0.1"/>
<ellipse cx="35.3334" cy="58.5" rx="2.44444" ry="2.5" fill="#0D50FC" fill-opacity="0.1"/>
<ellipse cx="45.1111" cy="58.5" rx="2.44444" ry="2.5" fill="#0D50FC" fill-opacity="0.1"/>
<ellipse cx="54.8889" cy="58.5" rx="2.44444" ry="2.5" fill="#0D50FC" fill-opacity="0.1"/>
<ellipse cx="64.6667" cy="58.5" rx="2.44444" ry="2.5" fill="#0D50FC" fill-opacity="0.1"/>
<ellipse cx="74.4444" cy="58.5" rx="2.44444" ry="2.5" fill="#0D50FC" fill-opacity="0.1"/>
<ellipse cx="84.2222" cy="58.5" rx="2.44444" ry="2.5" fill="#0D50FC" fill-opacity="0.1"/>
<ellipse cx="22.6222" cy="65.5" rx="2.44444" ry="2.5" fill="#0D50FC" fill-opacity="0.1"/>
<ellipse cx="32.4" cy="65.5" rx="2.44444" ry="2.5" fill="#0D50FC" fill-opacity="0.1"/>
<ellipse cx="42.1778" cy="65.5" rx="2.44444" ry="2.5" fill="#0D50FC" fill-opacity="0.1"/>
<ellipse cx="51.9556" cy="65.5" rx="2.44444" ry="2.5" fill="#0D50FC" fill-opacity="0.1"/>
<ellipse cx="61.7333" cy="65.5" rx="2.44444" ry="2.5" fill="#0D50FC" fill-opacity="0.1"/>
<ellipse cx="71.5111" cy="65.5" rx="2.44444" ry="2.5" fill="#0D50FC" fill-opacity="0.1"/>
<ellipse cx="81.2889" cy="65.5" rx="2.44444" ry="2.5" fill="#0D50FC" fill-opacity="0.1"/>
<ellipse cx="29.4667" cy="72.5" rx="2.44444" ry="2.5" fill="#0D50FC" fill-opacity="0.1"/>
<ellipse cx="39.2444" cy="72.5" rx="2.44444" ry="2.5" fill="#0D50FC" fill-opacity="0.1"/>
<ellipse cx="49.0222" cy="72.5" rx="2.44444" ry="2.5" fill="#0D50FC" fill-opacity="0.1"/>
<ellipse cx="58.8" cy="72.5" rx="2.44444" ry="2.5" fill="#0D50FC" fill-opacity="0.1"/>
<ellipse cx="68.5778" cy="72.5" rx="2.44444" ry="2.5" fill="#0D50FC" fill-opacity="0.1"/>
<ellipse cx="78.3556" cy="72.5" rx="2.44444" ry="2.5" fill="#0D50FC" fill-opacity="0.1"/>
<ellipse cx="39.2444" cy="23.5" rx="2.44444" ry="2.5" fill="#0D50FC" fill-opacity="0.1"/>
<ellipse cx="49.0222" cy="23.5" rx="2.44444" ry="2.5" fill="#0D50FC" fill-opacity="0.1"/>
<ellipse cx="58.8" cy="23.5" rx="2.44444" ry="2.5" fill="#0D50FC" fill-opacity="0.1"/>
<ellipse cx="68.5778" cy="23.5" rx="2.44444" ry="2.5" fill="#0D50FC" fill-opacity="0.1"/>
<ellipse cx="78.3556" cy="23.5" rx="2.44444" ry="2.5" fill="#0D50FC" fill-opacity="0.1"/>
<ellipse cx="88.1333" cy="23.5" rx="2.44444" ry="2.5" fill="#0D50FC" fill-opacity="0.1"/>
<ellipse cx="97.9111" cy="23.5" rx="2.44444" ry="2.5" fill="#0D50FC" fill-opacity="0.1"/>
<path d="M318.111 75.0435C330.439 102.774 351.096 112.824 374.433 115.807L279.436 196.889C268.188 206.489 268.194 222.05 279.436 231.65L306.569 254.805C312.193 259.6 319.568 262 326.938 262C334.307 262 341.682 259.6 347.306 254.8L433.962 180.857L483.172 243.655C493.851 256.658 507.924 262 521.948 262C560.779 262 599.25 221.052 564.311 188.287L498.096 126.134L566.553 67.7209L577.79 12.7367C579.421 4.73853 571.062 -1.02856 563.046 0.168854L498.624 9.80966L442.434 57.7679C438.831 34.7867 421.946 0 357.344 0C296.585 0 271 41.6642 271 89.0749C277.602 85.2268 300.777 69.297 308.266 69.297C312.715 69.297 316.522 71.4666 318.111 75.0435ZM333.743 243.22C331.291 245.313 322.584 245.313 320.132 243.22L293 220.07C289.252 216.872 289.252 211.667 293 208.469L320.6 184.915L361.337 219.681L333.743 243.22ZM550.112 199.304C559.01 207.65 561.103 216.539 556.342 225.729C550.466 237.074 535.679 245.625 521.948 245.625C512.834 245.625 505.075 241.802 498.881 234.255L447.795 169.051L484.509 137.724L550.112 199.304ZM507.912 25.0435L557.313 17.6543L548.691 59.8046L374.906 208.101L334.169 173.334L507.912 25.0435ZM357.344 16.375C380.896 16.375 398.441 21.6815 409.486 32.1462C421.004 43.0611 425.201 59.5129 423.72 73.7387L413.605 82.3714L389.603 100.583C346.617 98.2244 340.165 78.4925 336.052 69.2355C331.656 59.3338 320.75 52.9271 308.272 52.9271C304.332 52.9271 300.375 53.7202 295.848 55.414C303.289 35.5491 320.12 16.375 357.344 16.375Z" fill="url(#paint0_linear_338:8)"/>
<defs>
<linearGradient id="paint0_linear_338:8" x1="239.806" y1="-23.58" x2="581.231" y2="288.678" gradientUnits="userSpaceOnUse">
<stop stop-color="#07C5D0" stop-opacity="0.1"/>
<stop offset="1" stop-color="#0D50FC" stop-opacity="0.1"/>
</linearGradient>
</defs>
</svg>
