<svg width="199" height="163" viewBox="0 0 199 163" fill="none" xmlns="http://www.w3.org/2000/svg">
<path d="M61.7275 23.9993L61.6822 24.3392L61.983 24.5039L65.0205 26.1669C65.7177 26.5486 66.0297 27.3144 65.8124 28.0079C64.7929 31.2621 62.9774 34.1945 60.5764 36.6015L60.9304 36.9546L60.5764 36.6015C60.0258 37.1535 59.1339 37.2805 58.4285 36.8944L58.1884 37.3329L58.4285 36.8943L55.3955 35.2339L55.1187 35.0824L54.8628 35.2671C53.6833 36.1183 52.3943 36.8251 51.0266 37.3703L50.7117 37.4958V37.8347V41.1572C50.7117 41.8893 50.1782 42.5543 49.3805 42.7333L49.49 43.2211L49.3805 42.7333C45.9455 43.5041 42.3435 43.504 38.9092 42.7333C38.1114 42.5543 37.578 41.8893 37.578 41.1572V37.8347V37.4958L37.2631 37.3703C35.8953 36.8251 34.6064 36.1183 33.4269 35.2671L33.171 35.0824L32.8942 35.2339L29.8612 36.8943C29.1558 37.2805 28.2639 37.1534 27.7133 36.6015C25.3123 34.1945 23.4967 31.2621 22.4773 28.008L22.0002 28.1574L22.4773 28.0079C22.26 27.3144 22.572 26.5485 23.2692 26.1669L23.2692 26.1669L26.3067 24.5039L26.6074 24.3392L26.5622 23.9993C26.3771 22.6091 26.3771 21.2023 26.5622 19.8121L26.6074 19.4722L26.3067 19.3075L23.2692 17.6445C22.572 17.2628 22.26 16.497 22.4773 15.8034L22.4773 15.8034C23.4967 12.5493 25.3123 9.61692 27.7133 7.20988L27.7133 7.20986C28.2638 6.65797 29.1556 6.5309 29.8612 6.91712C29.8612 6.91712 29.8612 6.91712 29.8612 6.91712L32.8942 8.57754L33.171 8.72908L33.4269 8.5444C34.6064 7.69311 35.8953 6.9863 37.2631 6.44111L37.578 6.31561V5.97665V2.65423C37.578 1.92204 38.1115 1.25709 38.9091 1.0781C42.3442 0.307257 45.9462 0.307346 49.3805 1.07809L49.3805 1.0781C50.1782 1.25708 50.7117 1.9221 50.7117 2.65423V5.97665V6.3156L51.0266 6.44111C52.3943 6.98632 53.6833 7.69313 54.8628 8.5444L55.1187 8.72908L55.3955 8.57754L58.4285 6.91712L58.1884 6.47854L58.4285 6.91711C59.1339 6.53092 60.0258 6.65794 60.5764 7.20988C62.9774 9.61693 64.7929 12.5492 65.8124 15.8034C66.0297 16.497 65.7177 17.2629 65.0205 17.6445L65.2606 18.0831L65.0205 17.6445L61.983 19.3075L61.6822 19.4722L61.7275 19.8121C61.9126 21.2023 61.9126 22.6091 61.7275 23.9993ZM58.9214 35.0405L59.2606 35.2263L59.5257 34.9446C61.4085 32.9436 62.8412 30.5955 63.7255 28.0572L63.8648 27.6574L63.4934 27.4541L59.4977 25.2672C59.7584 23.8889 59.8947 22.9019 59.8946 21.9055C59.8946 20.909 59.7583 19.9223 59.4977 18.5444L63.4934 16.3574L63.8648 16.1542L63.7255 15.7544C62.8412 13.2158 61.4084 10.8678 59.5257 8.86599L59.2606 8.58409L58.9212 8.77006L54.9017 10.9727C53.7597 10.0539 52.924 9.44259 52.0107 8.94157C51.1015 8.44277 50.1312 8.06192 48.7311 7.58567V3.22086V2.80932L48.3272 2.73019C45.568 2.18954 42.7216 2.18954 39.9625 2.73019L39.5586 2.80932V3.22086V7.58558C38.1586 8.06178 37.1883 8.4426 36.2792 8.94138C35.3659 9.44239 34.5301 10.0537 33.388 10.9726L29.3684 8.76997L29.0291 8.58399L28.7639 8.86591C26.8813 10.8678 25.4485 13.2158 24.5642 15.7543L24.4249 16.1541L24.7963 16.3574L28.792 18.5443C28.5313 19.9226 28.395 20.9098 28.3951 21.9063C28.3951 22.9028 28.5314 23.8895 28.792 25.2671L24.7963 27.454L24.4249 27.6573L24.5642 28.0571C25.4485 30.5955 26.8812 32.9435 28.764 34.9446L29.0291 35.2263L29.3683 35.0405L33.3881 32.8394C34.5446 33.7684 35.3883 34.3823 36.3029 34.8824C37.2117 35.3794 38.175 35.7553 39.5586 36.2257V40.5905V41.0022L39.9626 41.0812C42.7218 41.621 45.5679 41.621 48.327 41.0812L48.7311 41.0022V40.5905V36.2257C50.1544 35.7411 51.1336 35.3531 52.0426 34.8519C52.9534 34.3498 53.7781 33.7427 54.9016 32.8394L58.9214 35.0405ZM35.7028 21.9057C35.7028 17.5308 39.465 13.9261 44.1448 13.9261C48.8247 13.9261 52.5868 17.5308 52.5868 21.9057C52.5868 26.2806 48.8247 29.8854 44.1448 29.8854C39.465 29.8854 35.7028 26.2806 35.7028 21.9057ZM37.6835 21.9057C37.6835 25.3237 40.6069 28.0588 44.1448 28.0588C47.6828 28.0588 50.6062 25.3237 50.6062 21.9057C50.6062 18.4878 47.6828 15.7526 44.1448 15.7526C40.6069 15.7526 37.6835 18.4878 37.6835 21.9057Z" stroke="#07C5D0"/>
<path d="M34.716 128.438C34.716 130.033 33.3284 131.461 31.4469 131.461C29.5654 131.461 28.1779 130.033 28.1779 128.438C28.1779 126.843 29.5654 125.416 31.4469 125.416C33.3284 125.416 34.716 126.843 34.716 128.438Z" stroke="#07C5D0" stroke-width="3"/>
<path d="M15.2322 76.8822V59.6968H49.5694V76.8822H15.2322Z" stroke="#07C5D0" stroke-width="3"/>
<path d="M13.3245 84.1182H40.0312" stroke="#07C5D0" stroke-width="3"/>
<path d="M13.3245 89.5449H40.0312" stroke="#07C5D0" stroke-width="3"/>
<path d="M62.9227 126.126V53.4158C62.9227 47.8929 58.4455 43.4158 52.9227 43.4158H12.3556C6.83274 43.4158 2.35559 47.8929 2.35559 53.4158V126.126C2.35559 131.649 6.83274 136.126 12.3556 136.126H52.9227C58.4455 136.126 62.9227 131.649 62.9227 126.126Z" stroke="#07C5D0" stroke-width="3"/>
<path d="M54.3384 54.27H9.50916V121.203H54.3384V54.27Z" stroke="#07C5D0" stroke-width="3"/>
<path d="M22.3856 48.8428H40.5081" stroke="#07C5D0" stroke-width="3"/>
<path d="M186.933 29.8484H57.6616C52.1388 29.8484 47.6616 34.3256 47.6616 39.8484V124.317C47.6616 129.84 52.1388 134.317 57.6616 134.317H186.933C192.456 134.317 196.933 129.84 196.933 124.317V39.8484C196.933 34.3255 192.456 29.8484 186.933 29.8484Z" fill="white" stroke="#07C5D0" stroke-width="3"/>
<path d="M176.918 38.8933H66.246C60.7231 38.8933 56.246 43.3705 56.246 48.8933V98.5394C56.246 104.062 60.7231 108.539 66.246 108.539H176.918C182.441 108.539 186.918 104.062 186.918 98.5394V48.8933C186.918 43.3705 182.441 38.8933 176.918 38.8933Z" fill="white" stroke="#07C5D0" stroke-width="3"/>
<path d="M127.236 121.655C127.236 124.499 124.78 126.938 121.582 126.938C118.384 126.938 115.928 124.499 115.928 121.655C115.928 118.81 118.384 116.371 121.582 116.371C124.78 116.371 127.236 118.81 127.236 121.655Z" fill="white" stroke="#07C5D0" stroke-width="3"/>
<path d="M134.459 151.955V134.77H109.659V151.955H134.459Z" fill="white" stroke="#07C5D0" stroke-width="3"/>
<path d="M144.72 151.955H100.352C97.5909 151.955 95.3523 154.194 95.3523 156.955V161H149.72V156.955C149.72 154.194 147.481 151.955 144.72 151.955Z" fill="white" stroke="#07C5D0" stroke-width="3"/>
<path d="M154.012 50.1995H92.4908V66.4804H154.012V50.1995Z" fill="white" stroke="#07C5D0" stroke-width="3"/>
<path d="M159.258 91.806V74.6206H177.38V91.806H159.258Z" fill="white" stroke="#07C5D0" stroke-width="3"/>
<path d="M81.0452 84.1179H122.536" stroke="#07C5D0" stroke-width="3"/>
<path d="M176.903 97.2332H166.411" stroke="#07C5D0" stroke-width="3"/>
<path d="M162.119 97.6855H151.627" stroke="#07C5D0" stroke-width="3"/>
<path d="M145.904 97.6855H135.412" stroke="#07C5D0" stroke-width="3"/>
</svg>
