<svg width="161" height="149" viewBox="0 0 161 149" fill="none" xmlns="http://www.w3.org/2000/svg">
<path d="M149.21 2H11.7553C6.23246 2 1.75531 6.47715 1.75531 12V107.5C1.75531 113.023 6.23248 117.5 11.7553 117.5H149.21C154.732 117.5 159.21 113.023 159.21 107.5V12C159.21 6.47715 154.732 2 149.21 2Z" fill="#FEFEFE" stroke="#07C5D0" stroke-width="3"/>
<path d="M138.646 12H20.8102C15.2873 12 10.8102 16.4772 10.8102 22V79C10.8102 84.5229 15.2873 89 20.8102 89H138.646C144.168 89 148.646 84.5229 148.646 79V22C148.646 16.4772 144.168 12 138.646 12Z" stroke="#07C5D0" stroke-width="3"/>
<path d="M85.7736 103.5C85.7736 106.805 83.0754 109.5 79.7279 109.5C76.3803 109.5 73.6821 106.805 73.6821 103.5C73.6821 100.195 76.3803 97.5 79.7279 97.5C83.0754 97.5 85.7736 100.195 85.7736 103.5Z" stroke="#07C5D0" stroke-width="3"/>
<path d="M93.3102 137V118H67.1517V137H93.3102Z" stroke="#07C5D0" stroke-width="3"/>
<path d="M104.408 137H57.0602C54.2988 137 52.0602 139.239 52.0602 142V147H109.408V142C109.408 139.239 107.169 137 104.408 137Z" stroke="#07C5D0" stroke-width="3"/>
<path d="M133.5 35.5H46.5V77H133.5V35.5Z" fill="#FCF8F8"/>
<path d="M134.56 23H25.9017V78H134.56V50.5V23Z" fill="white" stroke="#07C5D0" stroke-width="3"/>
<path d="M27.4108 34H134.057V24H27.4108V34Z" fill="url(#paint0_linear_80:5)" stroke="#07C5D0" stroke-width="3"/>
<path d="M45.0175 78V36H26.4047V78H45.0175Z" stroke="#07C5D0" stroke-width="3"/>
<path d="M80.734 49.5C82.7462 49.5 97.3346 49.5 104.377 49.5" stroke="#07C5D0"/>
<path d="M85.2614 62H105.886" stroke="#07C5D0"/>
<path d="M51.0541 67H64.1334" stroke="#07C5D0"/>
<path d="M51.0541 62H72.1822" stroke="#07C5D0"/>
<path d="M85.2614 67H106.389" stroke="#07C5D0"/>
<path d="M66.1456 67H82.2431" stroke="#07C5D0"/>
<path d="M75.2004 62H82.2431" stroke="#07C5D0"/>
<path d="M59.4192 58.9908L58.284 58.6996C58.1387 58.6627 58.0569 58.5273 58.0978 58.396L64.487 38.1777C64.5279 38.0464 64.6777 37.9726 64.823 38.0095L65.9583 38.3007C66.1036 38.3376 66.1853 38.473 66.1445 38.6043L59.7553 58.8185C59.7144 58.9498 59.56 59.0277 59.4192 58.9908ZM55.9862 53.8511L56.8263 52.9938C56.9126 52.9077 56.899 52.7764 56.8036 52.7026L51.309 48.4981L56.8036 44.2936C56.899 44.2198 56.9126 44.0885 56.8263 44.0024L55.9862 43.1451C55.9045 43.059 55.7592 43.0508 55.6638 43.1287L49.1202 48.3463C49.0158 48.4284 49.0158 48.5719 49.1202 48.654L55.6638 53.8716C55.7592 53.9455 55.9045 53.9373 55.9862 53.8511ZM68.5785 53.8675L75.1221 48.6499C75.2265 48.5678 75.2265 48.4243 75.1221 48.3422L68.5785 43.1287C68.4831 43.0549 68.3423 43.0631 68.2561 43.1451L67.416 44.0024C67.3297 44.0885 67.3433 44.2198 67.4387 44.2936L72.9333 48.4981L67.4387 52.7026C67.3433 52.7764 67.3297 52.9077 67.416 52.9938L68.2561 53.8511C68.3378 53.9373 68.4831 53.9455 68.5785 53.8675Z" fill="#07C5D0"/>
<path d="M117.981 58.9913L116.933 58.7139C116.799 58.6787 116.723 58.5498 116.761 58.4248L122.659 39.1692C122.696 39.0442 122.835 38.9739 122.969 39.009L124.017 39.2864C124.151 39.3216 124.226 39.4505 124.189 39.5755L118.291 58.8272C118.253 58.9522 118.111 59.0264 117.981 58.9913ZM114.812 54.0963L115.587 53.2798C115.667 53.1978 115.654 53.0728 115.566 53.0025L110.494 48.9982L115.566 44.9939C115.654 44.9236 115.667 44.7986 115.587 44.7166L114.812 43.9001C114.736 43.8181 114.602 43.8102 114.514 43.8845L108.474 48.8537C108.378 48.9318 108.378 49.0685 108.474 49.1466L114.514 54.1158C114.602 54.1862 114.736 54.1783 114.812 54.0963ZM126.435 54.1119L132.476 49.1427C132.572 49.0646 132.572 48.9279 132.476 48.8497L126.435 43.8845C126.347 43.8141 126.217 43.822 126.138 43.9001L125.362 44.7166C125.283 44.7986 125.295 44.9236 125.383 44.9939L130.455 48.9982L125.383 53.0025C125.295 53.0728 125.283 53.1978 125.362 53.2798L126.138 54.0963C126.213 54.1783 126.347 54.1862 126.435 54.1119Z" fill="#07C5D0"/>
<path d="M146.538 74.094L144.889 73.183C144.992 72.3975 144.992 71.6025 144.889 70.817L146.538 69.906C147.022 69.6385 147.256 69.0881 147.097 68.5753C146.53 66.7487 145.52 65.1046 144.187 63.7562C143.801 63.3657 143.185 63.2802 142.698 63.549L141.051 64.4585C140.393 63.9789 139.673 63.5809 138.91 63.274V61.454C138.91 60.9154 138.523 60.4473 137.975 60.3233C136.072 59.8922 134.075 59.8922 132.171 60.3233C131.623 60.4473 131.236 60.9154 131.236 61.454V63.274C130.473 63.5809 129.754 63.9789 129.095 64.4585L127.448 63.549C126.962 63.2802 126.345 63.3657 125.959 63.7562C124.626 65.1046 123.617 66.7488 123.05 68.5753C122.89 69.0881 123.124 69.6384 123.608 69.906L125.258 70.817C125.154 71.6025 125.154 72.3975 125.258 73.183L123.608 74.094C123.124 74.3615 122.89 74.9119 123.05 75.4247C123.617 77.2512 124.626 78.8954 125.959 80.2438C126.346 80.6343 126.962 80.7198 127.448 80.4511L129.095 79.5415C129.754 80.0211 130.473 80.4191 131.236 80.726V82.546C131.236 83.0846 131.623 83.5527 132.171 83.6767C134.075 84.1078 136.071 84.1078 137.975 83.6767C138.523 83.5527 138.91 83.0846 138.91 82.546V80.726C139.673 80.4191 140.393 80.0211 141.051 79.5415L142.698 80.4511C143.185 80.7198 143.801 80.6344 144.187 80.2438C145.52 78.8954 146.53 77.2512 147.097 75.4247C147.256 74.9119 147.022 74.3616 146.538 74.094ZM143.227 78.9551L140.884 77.6612C139.52 78.7775 139.036 79.0584 137.292 79.6479V82.2356C135.828 82.5245 134.318 82.5245 132.855 82.2356V79.6479C131.154 79.0731 130.662 78.8062 129.262 77.6612L126.92 78.9551C125.923 77.8862 125.165 76.633 124.698 75.2797L127.041 73.9858C126.711 72.2721 126.711 71.7288 127.041 70.0142L124.698 68.7203C125.165 67.367 125.923 66.1138 126.92 65.0444L129.262 66.3393C130.646 65.2054 131.136 64.9329 132.855 64.352V61.7644C134.318 61.475 135.828 61.475 137.292 61.7644V64.3521C139.01 64.933 139.5 65.2055 140.884 66.3393L143.227 65.0445C144.223 66.1138 144.981 67.367 145.448 68.7204L143.105 70.0143C143.436 71.7284 143.436 72.2712 143.105 73.9858L145.448 75.2797C144.981 76.633 144.223 77.8862 143.227 78.9551ZM135.073 67.3549C132.396 67.3549 130.218 69.4386 130.218 72C130.218 74.5614 132.396 76.6452 135.073 76.6452C137.75 76.6452 139.928 74.5614 139.928 72C139.928 69.4386 137.75 67.3549 135.073 67.3549ZM135.073 75.0968C133.288 75.0968 131.836 73.7076 131.836 72C131.836 70.2924 133.288 68.9032 135.073 68.9032C136.858 68.9032 138.31 70.2924 138.31 72C138.31 73.7076 136.858 75.0968 135.073 75.0968Z" fill="#07C5D0"/>
<rect x="33.9504" y="55" width="3.01829" height="3" fill="#07C5D0"/>
<rect x="33.9504" y="48" width="3.01829" height="3" fill="#07C5D0"/>
<rect x="33.9504" y="62" width="3.01829" height="3" fill="#07C5D0"/>
<rect x="33.9504" y="69" width="3.01829" height="3" fill="#07C5D0"/>
<rect x="33.9504" y="41" width="3.01829" height="3" fill="#07C5D0"/>
<ellipse cx="105.383" cy="29" rx="4.02439" ry="4" fill="white"/>
<ellipse cx="116.45" cy="29" rx="4.02439" ry="4" fill="white"/>
<ellipse cx="127.518" cy="29" rx="4.02439" ry="4" fill="white"/>
<defs>
<linearGradient id="paint0_linear_80:5" x1="31" y1="30.5" x2="134" y2="31" gradientUnits="userSpaceOnUse">
<stop stop-color="#CE2E6C" stop-opacity="0.21"/>
<stop offset="1" stop-color="#0D50FC" stop-opacity="0.45"/>
</linearGradient>
</defs>
</svg>
