<svg width="163" height="191" viewBox="0 0 163 191" fill="none" xmlns="http://www.w3.org/2000/svg">
<path d="M74.615 173.493C74.615 177.519 70.8094 181.115 65.6763 181.115C60.5432 181.115 56.7375 177.519 56.7375 173.493C56.7375 169.467 60.5432 165.871 65.6763 165.871C70.8094 165.871 74.615 169.467 74.615 173.493Z" stroke="#07C5D0" stroke-width="3"/>
<path d="M30.1846 69.5025V34.8391H105.344V69.5025H30.1846Z" stroke="#07C5D0" stroke-width="3"/>
<path d="M26.009 84.0974H84.466" stroke="#07C5D0" stroke-width="3"/>
<path d="M26.009 95.0439H84.466" stroke="#07C5D0" stroke-width="3"/>
<path d="M134.572 179V12C134.572 6.47715 130.095 2 124.572 2H12C6.47715 2 2 6.47715 2 12V179C2 184.523 6.47715 189 12 189H124.572C130.095 189 134.572 184.523 134.572 179Z" stroke="#07C5D0" stroke-width="3"/>
<path d="M115.782 23.8926H17.6582V158.897H115.782V23.8926Z" stroke="#07C5D0" stroke-width="3"/>
<path d="M45.8428 12.9463H85.51" stroke="#07C5D0" stroke-width="3"/>
<path d="M68.35 145.925C67.8457 146.01 67.3775 146.128 66.9455 146.279C66.5146 146.425 66.1626 146.588 65.8896 146.77C65.6015 146.963 65.4172 147.127 65.3367 147.262C65.2535 147.394 65.2609 147.526 65.3589 147.658C65.446 147.775 65.6045 147.809 65.8344 147.759C66.0616 147.706 66.3803 147.608 66.7907 147.466C67.201 147.324 67.5821 147.214 67.934 147.138C68.2859 147.062 68.6152 147.039 68.9218 147.07C69.2322 147.098 69.5183 147.189 69.7802 147.343C70.0459 147.494 70.2971 147.728 70.5339 148.046C70.7462 148.331 70.884 148.631 70.9472 148.944C71.0077 149.254 70.9849 149.57 70.8788 149.892C70.7728 150.215 70.5775 150.539 70.2929 150.866C70.0084 151.192 69.6273 151.515 69.1496 151.834C68.725 152.117 68.2753 152.37 67.8007 152.594C67.3287 152.821 66.8176 153.004 66.2673 153.141L65.0056 151.447C65.5186 151.351 66.009 151.221 66.4768 151.056C66.9445 150.892 67.3566 150.691 67.713 150.453C68.3537 150.026 68.5788 149.684 68.3883 149.428C68.3556 149.385 68.3105 149.354 68.2529 149.338C68.1954 149.322 68.1127 149.325 68.0048 149.348C67.8979 149.364 67.757 149.404 67.5819 149.466C67.4079 149.522 67.1867 149.598 66.9184 149.695C66.5493 149.832 66.1823 149.937 65.8174 150.011C65.4535 150.079 65.1061 150.1 64.7751 150.074C64.4451 150.043 64.1365 149.956 63.8491 149.814C63.5656 149.669 63.3176 149.454 63.1053 149.169C62.9148 148.913 62.7942 148.641 62.7435 148.352C62.6967 148.061 62.7279 147.763 62.8373 147.461C62.9504 147.155 63.1425 146.85 63.4135 146.543C63.6856 146.23 64.0434 145.926 64.487 145.63C64.7448 145.458 64.9994 145.304 65.2508 145.17C65.506 145.032 65.752 144.909 65.9888 144.8C66.2228 144.688 66.4445 144.589 66.6537 144.505C66.864 144.414 67.0577 144.331 67.2349 144.256L68.35 145.925ZM78.745 144.842C78.473 145.193 78.1576 145.543 77.7988 145.892C77.4427 146.244 77.041 146.57 76.5936 146.868C76.1046 147.194 75.592 147.443 75.0559 147.615C74.5197 147.786 73.985 147.853 73.4516 147.815C72.9182 147.777 72.4013 147.624 71.901 147.356C71.4017 147.082 70.9438 146.665 70.5273 146.106C70.2905 145.788 70.1226 145.459 70.0235 145.121C69.9217 144.778 69.875 144.437 69.8834 144.098C69.8955 143.756 69.9552 143.421 70.0623 143.093C70.1732 142.761 70.3197 142.448 70.5018 142.151C70.6876 141.852 70.9028 141.577 71.1474 141.326C71.3893 141.072 71.6486 140.853 71.9253 140.668C72.3613 140.377 72.7815 140.168 73.1859 140.041C73.5876 139.909 73.9569 139.849 74.2938 139.859C74.6346 139.867 74.9394 139.938 75.2083 140.07C75.4771 140.203 75.6987 140.386 75.8729 140.62C76.0852 140.905 76.215 141.182 76.2624 141.451C76.3135 141.718 76.3055 141.978 76.2383 142.231C76.1722 142.477 76.0573 142.715 75.8935 142.945C75.7308 143.168 75.5425 143.384 75.3288 143.592C75.1123 143.797 74.8792 143.991 74.6296 144.174C74.3837 144.354 74.1452 144.521 73.9139 144.676C73.8343 144.729 73.7566 144.781 73.6808 144.831C73.606 144.876 73.5326 144.922 73.4606 144.97C73.6461 145.158 73.8355 145.294 74.0288 145.379C74.226 145.46 74.4249 145.503 74.6257 145.506C74.8275 145.502 75.0305 145.463 75.2349 145.386C75.4403 145.304 75.6435 145.196 75.8444 145.062C75.996 144.961 76.149 144.842 76.3033 144.707C76.4613 144.568 76.614 144.423 76.7611 144.27C76.9094 144.111 77.053 143.949 77.192 143.785C77.3321 143.615 77.4632 143.449 77.5854 143.285L78.745 144.842ZM72.7806 144.16C72.8689 144.095 72.9804 144.013 73.1153 143.912C73.2539 143.808 73.396 143.694 73.5416 143.57C73.6872 143.445 73.8274 143.314 73.9622 143.174C74.0969 143.035 74.2097 142.897 74.3004 142.76C74.3912 142.623 74.4479 142.489 74.4703 142.36C74.4928 142.23 74.4632 142.11 74.3815 142C74.2427 141.814 74.0547 141.718 73.8176 141.712C73.5816 141.7 73.3271 141.785 73.0541 141.967C72.929 142.05 72.808 142.158 72.6912 142.291C72.5716 142.42 72.486 142.575 72.4344 142.757C72.3828 142.94 72.3787 143.148 72.4222 143.381C72.4656 143.615 72.5851 143.874 72.7806 144.16ZM83.85 142.028C83.4026 142.326 82.9746 142.551 82.5659 142.704C82.1573 142.856 81.769 142.948 81.4013 142.98C81.0335 143.012 80.6847 142.993 80.3546 142.923C80.0257 142.847 79.7186 142.732 79.4333 142.578C79.1481 142.423 78.8837 142.236 78.6401 142.015C78.4003 141.792 78.1824 141.549 77.9864 141.286C77.7931 141.027 77.6272 140.754 77.4887 140.469C77.3512 140.178 77.2536 139.879 77.1959 139.573C77.1354 139.263 77.124 138.951 77.1617 138.636C77.1967 138.317 77.292 137.999 77.4474 137.682C77.6039 137.359 77.8266 137.041 78.1155 136.728C78.4017 136.411 78.7685 136.103 79.2158 135.805C79.6632 135.506 80.0926 135.283 80.504 135.134C80.9126 134.982 81.3022 134.892 81.6727 134.863C82.0442 134.829 82.3945 134.85 82.7234 134.926C83.0497 134.998 83.3568 135.113 83.6447 135.271C83.9299 135.426 84.1925 135.614 84.4323 135.837C84.6732 136.054 84.8903 136.292 85.0835 136.552C85.2795 136.815 85.4462 137.092 85.5837 137.383C85.7249 137.672 85.8244 137.97 85.8822 138.276C85.9399 138.582 85.9494 138.896 85.9106 139.217C85.8729 139.532 85.7763 139.848 85.6209 140.165C85.4655 140.482 85.2433 140.797 84.9544 141.11C84.6655 141.423 84.2974 141.729 83.85 142.028ZM80.4431 139.647C80.5901 139.845 80.7533 140.026 80.9327 140.191C81.1095 140.352 81.2953 140.479 81.4904 140.574C81.6864 140.662 81.8867 140.706 82.0913 140.706C82.2969 140.7 82.502 140.629 82.7068 140.492C82.9115 140.356 83.0494 140.198 83.1206 140.019C83.1928 139.835 83.2162 139.641 83.1907 139.439C83.1663 139.231 83.1036 139.021 83.0027 138.81C82.8991 138.594 82.7738 138.388 82.6268 138.191C82.4798 137.993 82.318 137.814 82.1412 137.653C81.9618 137.488 81.774 137.362 81.5779 137.274C81.3829 137.179 81.1813 137.133 80.9729 137.136C80.7684 137.135 80.5638 137.203 80.3591 137.34C80.1543 137.477 80.0159 137.637 79.9436 137.822C79.8752 138.005 79.8532 138.2 79.8776 138.408C79.9031 138.61 79.9676 138.818 80.0712 139.034C80.1721 139.245 80.2961 139.45 80.4431 139.647Z" fill="#07C5D0"/>
<path d="M112.259 94.5892L110.518 93.6734C110.627 92.8836 110.627 92.0843 110.518 91.2945L112.259 90.3787C112.771 90.1097 113.017 89.5564 112.849 89.0408C112.25 87.2044 111.184 85.5514 109.777 84.1958C109.369 83.8032 108.719 83.7173 108.205 83.9875L106.466 84.9019C105.771 84.4197 105.011 84.0196 104.206 83.7111V81.8812C104.206 81.3398 103.797 80.8692 103.219 80.7445C101.208 80.3111 99.1006 80.3111 97.0901 80.7445C96.5117 80.8692 96.1031 81.3397 96.1031 81.8812V83.7111C95.2974 84.0196 94.5377 84.4197 93.8423 84.9019L92.1035 83.9875C91.5898 83.7173 90.9392 83.8032 90.5317 84.1958C89.1241 85.5514 88.0582 87.2045 87.4594 89.0408C87.2913 89.5564 87.5379 90.1097 88.0493 90.3787L89.7906 91.2945C89.6811 92.0843 89.6811 92.8836 89.7906 93.6734L88.0493 94.5892C87.5379 94.8582 87.2913 95.4115 87.4594 95.9271C88.0582 97.7634 89.1241 99.4165 90.5317 100.772C90.9393 101.165 91.5898 101.251 92.1035 100.98L93.8423 100.066C94.5377 100.548 95.2974 100.948 96.1031 101.257V103.087C96.1031 103.628 96.5117 104.099 97.0901 104.223C99.1002 104.657 101.208 104.657 103.219 104.223C103.797 104.099 104.206 103.628 104.206 103.087V101.257C105.011 100.948 105.771 100.548 106.466 100.066L108.205 100.98C108.719 101.251 109.369 101.165 109.777 100.772C111.184 99.4165 112.25 97.7634 112.849 95.9271C113.017 95.4115 112.771 94.8582 112.259 94.5892ZM108.763 99.4764L106.29 98.1756C104.849 99.2979 104.338 99.5803 102.497 100.173V102.775C100.951 103.065 99.3572 103.065 97.8118 102.775V100.173C96.0165 99.5951 95.4967 99.3268 94.0185 98.1756L91.5457 99.4764C90.4932 98.4018 89.6934 97.1419 89.2 95.7812L91.6738 94.4804C91.3249 92.7575 91.3247 92.2113 91.6738 90.4875L89.2 89.1867C89.6934 87.826 90.4933 86.5661 91.5457 85.491L94.0185 86.7928C95.4803 85.6528 95.9976 85.3788 97.8118 84.7949V82.1933C99.3571 81.9024 100.951 81.9024 102.497 82.1933V84.7949C104.311 85.3789 104.828 85.6529 106.29 86.7928L108.763 85.491C109.815 86.5661 110.615 87.826 111.109 89.1867L108.635 90.4875C108.984 92.2109 108.984 92.7566 108.635 94.4805L111.109 95.7813C110.615 97.1419 109.815 98.4018 108.763 99.4764ZM100.154 87.8138C97.3277 87.8138 95.0281 89.9088 95.0281 92.484C95.0281 95.0591 97.3277 97.1541 100.154 97.1541C102.981 97.1541 105.28 95.0591 105.28 92.484C105.28 89.9088 102.981 87.8138 100.154 87.8138ZM100.154 95.5974C98.2699 95.5974 96.7368 94.2007 96.7368 92.484C96.7368 90.7672 98.2699 89.3705 100.154 89.3705C102.039 89.3705 103.572 90.7672 103.572 92.484C103.572 94.2007 102.039 95.5974 100.154 95.5974Z" fill="#07C5D0" fill-opacity="0.86"/>
<ellipse cx="114.814" cy="114.2" rx="24.8573" ry="22.9226" fill="white"/>
<path d="M138.171 114.2C138.171 125.919 127.83 135.623 114.814 135.623C101.797 135.623 91.4564 125.919 91.4564 114.2C91.4564 102.481 101.797 92.7776 114.814 92.7776C127.83 92.7776 138.171 102.481 138.171 114.2Z" stroke="#07C5D0" stroke-opacity="0.86" stroke-width="3"/>
<path d="M157.295 136.822L136.973 123.636L130.517 130.96L151.535 145.362C153.863 146.957 157.064 146.352 158.683 144.012C160.33 141.632 159.703 138.384 157.295 136.822Z" fill="#07C5D0" fill-opacity="0.86" stroke="#07C5D0" stroke-opacity="0.86"/>
<path d="M107.165 122.042V132.297L112.264 133.504V122.042H107.165Z" fill="#86D800" fill-opacity="0.86" stroke="#07C5D0" stroke-opacity="0.86"/>
<path d="M128.198 113.597V130.487L122.462 132.297V113.597H128.198Z" fill="#D00767" fill-opacity="0.86" stroke="#07C5D0" stroke-opacity="0.86"/>
<path d="M119.913 133.503V119.629H114.814V133.503H119.913Z" fill="#FC840D" fill-opacity="0.86" stroke="#07C5D0" stroke-opacity="0.86"/>
<path d="M108.376 116.008L99.5838 121.934L99.3242 110.444L108.376 116.008Z" fill="#07C5D0" fill-opacity="0.86"/>
<path d="M46.1341 150.951L26.22 133.188V135.638L46.1341 154.013L78.9655 125.838L98.8797 119.1V114.2L76.8126 120.938L46.1341 150.951Z" fill="#07C5D0" fill-opacity="0.86" stroke="#07C5D0" stroke-opacity="0.86"/>
</svg>
