<svg width="181" height="128" viewBox="0 0 181 128" fill="none" xmlns="http://www.w3.org/2000/svg">
<path d="M11.2018 9V113.5C-0.165164 113.5 0.376134 126 11.2018 126H179V9H11.2018ZM11.2018 9V2H9C5.13401 2 2 5.13401 2 9V9L2.88008 119.5" stroke="#07C5D0" stroke-width="4"/>
<path d="M37.7248 28H57.211C59.0044 28 60.4587 30.0152 60.4587 32.5V95.5C60.4587 97.9848 59.0044 100 57.211 100H37.7248C35.9315 100 34.4771 97.9848 34.4771 95.5V32.5C34.4771 30.0152 35.9315 28 37.7248 28ZM55.5872 95.5V32.5H39.3486V41.5H45.0321C45.4807 41.5 45.8441 42.0034 45.8441 42.625V44.875C45.8441 45.4966 45.4807 46 45.0321 46H39.3486V55H45.0321C45.4807 55 45.8441 55.5034 45.8441 56.125V58.375C45.8441 58.9966 45.4807 59.5 45.0321 59.5H39.3486V68.5H45.0321C45.4807 68.5 45.8441 69.0034 45.8441 69.625V71.875C45.8441 72.4966 45.4807 73 45.0321 73H39.3486V82H45.0321C45.4807 82 45.8441 82.5034 45.8441 83.125V85.375C45.8441 85.9966 45.4807 86.5 45.0321 86.5H39.3486V95.5H55.5872Z" fill="#07C5D0"/>
<path d="M135.122 105.861L87.4879 53.2331C86.7169 52.3813 85.769 52 84.8395 52C82.8941 52 81.0275 53.6692 81.0275 56.1902V108.818C81.0275 111.128 82.7216 113 84.8125 113H132.446C135.818 113 137.507 108.496 135.122 105.861ZM132.754 108.96C132.669 109.188 132.534 109.188 132.446 109.188H84.8125C84.6281 109.188 84.4782 109.022 84.4782 108.818V56.1902C84.4782 55.8173 84.8244 55.8125 84.8405 55.8125C84.8923 55.8125 84.9516 55.822 85.0487 55.9293L93.0057 64.7206L91.1758 66.7425C90.8393 67.1142 90.8393 67.7182 91.1758 68.0899L92.3965 69.4374C92.4766 69.526 92.5717 69.5962 92.6765 69.6441C92.7812 69.6919 92.8935 69.7164 93.0068 69.7162C93.2279 69.7162 93.4479 69.6233 93.6172 69.4374L95.4471 67.4156L100.328 72.8079L98.4977 74.8297C98.1613 75.2014 98.1613 75.8055 98.4977 76.1772L99.7173 77.5247C99.7974 77.6133 99.8926 77.6835 99.9973 77.7314C100.102 77.7792 100.214 77.8037 100.328 77.8035C100.549 77.8035 100.77 77.7105 100.938 77.5247L102.768 75.5029L107.649 80.8952L105.819 82.917C105.482 83.2887 105.482 83.8928 105.819 84.2645L107.038 85.612C107.118 85.7005 107.213 85.7708 107.318 85.8186C107.423 85.8665 107.535 85.891 107.649 85.8907C107.87 85.8907 108.091 85.7978 108.259 85.612L110.089 83.5901L114.968 88.9813L113.138 91.0031C112.802 91.3748 112.802 91.9788 113.138 92.3505L114.358 93.698C114.526 93.8839 114.747 93.9768 114.968 93.9768C115.189 93.9768 115.409 93.8839 115.579 93.698L117.409 91.6762L122.288 97.0673L120.458 99.0891C120.122 99.4609 120.122 100.065 120.458 100.437L121.678 101.784C121.846 101.97 122.067 102.063 122.288 102.063C122.509 102.063 122.729 101.97 122.898 101.784L124.728 99.7623L132.685 108.554C132.745 108.626 132.841 108.732 132.754 108.96ZM94.3245 79.2451C93.8328 78.7018 93.0845 78.5362 92.4439 78.8317C92.1288 78.976 91.8595 79.2204 91.6701 79.5338C91.4807 79.8472 91.3796 80.2157 91.3796 80.5926V99.6551C91.3796 100.708 92.1517 101.561 93.1049 101.561H110.358C111.056 101.561 111.686 101.098 111.952 100.384C112.082 100.036 112.116 99.6525 112.049 99.2828C111.983 98.9131 111.819 98.5734 111.578 98.3064L94.3245 79.2451ZM94.8303 97.7488V85.195L106.193 97.75H94.8303V97.7488Z" fill="#07C5D0"/>
<path d="M122.893 57.6787C125.067 52.3867 128.709 50.4687 132.824 49.8994L116.075 34.4258C114.091 32.5937 114.092 29.624 116.075 27.792L120.858 23.373C121.85 22.458 123.15 22 124.45 22C125.749 22 127.049 22.458 128.041 23.374L143.32 37.4854L151.996 25.501C153.879 23.0195 156.36 22 158.833 22C165.679 22 172.462 29.8145 166.302 36.0674L154.627 47.9287L166.697 59.0762L168.679 69.5693C168.966 71.0957 167.492 72.1963 166.079 71.9678L154.72 70.1279L144.813 60.9756C144.178 65.3613 141.201 72 129.811 72C119.098 72 114.587 64.0488 114.587 55.001C115.751 55.7354 119.837 58.7754 121.158 58.7754C121.942 58.7754 122.613 58.3613 122.893 57.6787ZM125.65 25.584C125.217 25.1846 123.682 25.1846 123.25 25.584L118.466 30.002C117.805 30.6123 117.805 31.6055 118.466 32.2158L123.332 36.7109L130.515 30.0762L125.65 25.584ZM163.799 33.9648C165.367 32.3721 165.736 30.6758 164.897 28.9219C163.861 26.7568 161.254 25.125 158.833 25.125C157.226 25.125 155.858 25.8545 154.766 27.2949L145.759 39.7383L152.232 45.7168L163.799 33.9648ZM156.358 67.2207L165.068 68.6309L163.548 60.5869L132.907 32.2861L125.725 38.9209L156.358 67.2207ZM129.811 68.875C133.963 68.875 137.057 67.8623 139.004 65.8652C141.035 63.7822 141.775 60.6426 141.514 57.9277L139.73 56.2803L135.498 52.8047C127.919 53.2549 126.782 57.0205 126.057 58.7871C125.282 60.6768 123.359 61.8994 121.159 61.8994C120.464 61.8994 119.766 61.748 118.968 61.4248C120.28 65.2158 123.248 68.875 129.811 68.875Z" fill="#07C5D0"/>
</svg>
