<svg width="1380" height="512" viewBox="0 0 1380 512" fill="none" xmlns="http://www.w3.org/2000/svg">
<path d="M538.5 77L138 478.5" stroke="#00CACA" stroke-opacity="0.1" stroke-width="3"/>
<path d="M1074.5 48L674 449.5" stroke="#CE2E6C" stroke-opacity="0.1" stroke-width="3"/>
<path d="M992.613 369.277C993.66 367.995 995.275 367.314 996.925 367.46L1021.55 369.637C1025.52 369.988 1027.5 374.619 1025.02 377.736L977.423 437.377C976.377 438.687 974.744 439.386 973.074 439.239L947.405 436.969C943.407 436.616 941.434 431.934 943.973 428.825L992.613 369.277Z" fill="#D72F70" fill-opacity="0.1"/>
<path d="M693.613 114.277C694.66 112.995 696.275 112.314 697.925 112.46L722.548 114.637C726.52 114.988 728.503 119.619 726.016 122.736L678.423 182.377C677.377 183.687 675.744 184.386 674.074 184.239L648.405 181.969C644.407 181.616 642.434 176.934 644.973 173.825L693.613 114.277Z" fill="#FC840D" fill-opacity="0.1"/>
<path d="M54.6125 422.277C55.6603 420.995 57.2754 420.314 58.9252 420.46L83.548 422.637C87.52 422.988 89.503 427.619 87.0158 430.736L39.4227 490.377C38.377 491.687 36.7442 492.386 35.0742 492.239L9.40466 489.969C5.40699 489.616 3.43381 484.934 5.97262 481.825L54.6125 422.277Z" fill="#45AAF2" fill-opacity="0.1"/>
<path d="M577.5 334L644 400.328" stroke="url(#paint0_linear_342:80)" stroke-opacity="0.63"/>
<path d="M511 399.672L577.5 466" stroke="url(#paint1_linear_342:80)" stroke-opacity="0.63"/>
<path d="M572.233 334L643.342 404.925" stroke="url(#paint2_linear_342:80)" stroke-opacity="0.63"/>
<path d="M511.658 394.415L582.767 465.34" stroke="url(#paint3_linear_342:80)" stroke-opacity="0.63"/>
<path d="M568.282 335.31L642.683 409.518" stroke="url(#paint4_linear_342:80)" stroke-opacity="0.63"/>
<path d="M513.634 390.475L588.035 464.683" stroke="url(#paint5_linear_342:80)" stroke-opacity="0.63"/>
<path d="M563.015 335.31L642.025 414.115" stroke="url(#paint6_linear_342:80)" stroke-opacity="0.63"/>
<path d="M512.975 385.226L591.985 464.031" stroke="url(#paint7_linear_342:80)" stroke-opacity="0.63"/>
<path d="M559.064 336.629L640.708 418.062" stroke="url(#paint8_linear_342:80)" stroke-opacity="0.63"/>
<path d="M514.292 381.286L595.936 462.718" stroke="url(#paint9_linear_342:80)" stroke-opacity="0.63"/>
<path d="M555.114 337.939L639.391 421.998" stroke="url(#paint10_linear_342:80)" stroke-opacity="0.63"/>
<path d="M515.609 377.347L599.886 461.406" stroke="url(#paint11_linear_342:80)" stroke-opacity="0.63"/>
<path d="M551.163 339.258L638.074 425.944" stroke="url(#paint12_linear_342:80)" stroke-opacity="0.63"/>
<path d="M547.871 341.223L636.757 429.879" stroke="url(#paint13_linear_342:80)" stroke-opacity="0.63"/>
<path d="M544.579 343.197L634.124 432.51" stroke="url(#paint14_linear_342:80)" stroke-opacity="0.63"/>
<path d="M516.926 373.4L602.52 460.086" stroke="url(#paint15_linear_342:80)" stroke-opacity="0.63"/>
<path d="M541.287 345.162L632.807 436.445" stroke="url(#paint16_linear_342:80)" stroke-opacity="0.63"/>
<path d="M520.876 365.521L610.421 456.148" stroke="url(#paint17_linear_342:80)" stroke-opacity="0.63"/>
<path d="M518.243 369.461L606.47 458.774" stroke="url(#paint18_linear_342:80)" stroke-opacity="0.63"/>
<path d="M538.654 347.136L630.173 438.419" stroke="url(#paint19_linear_342:80)" stroke-opacity="0.63"/>
<path d="M523.51 362.893L614.371 454.832" stroke="url(#paint20_linear_342:80)" stroke-opacity="0.63"/>
<path d="M535.361 348.446L628.856 441.699" stroke="url(#paint21_linear_342:80)" stroke-opacity="0.63"/>
<path d="M532.728 351.076L626.223 444.329" stroke="url(#paint22_linear_342:80)" stroke-opacity="0.63"/>
<path d="M530.094 353.704L623.589 446.957" stroke="url(#paint23_linear_342:80)" stroke-opacity="0.63"/>
<path d="M527.46 356.325L620.955 449.578" stroke="url(#paint24_linear_342:80)" stroke-opacity="0.63"/>
<path d="M524.827 358.953L617.005 452.206" stroke="url(#paint25_linear_342:80)" stroke-opacity="0.63"/>
<path d="M615.03 346.481L631.49 362.899" stroke="url(#paint26_linear_342:80)" stroke-opacity="0.63"/>
<path d="M521.535 435.132L537.995 451.55" stroke="url(#paint27_linear_342:80)" stroke-opacity="0.63"/>
<path d="M605.812 341.223L636.757 372.089" stroke="url(#paint28_linear_342:80)" stroke-opacity="0.63"/>
<path d="M517.584 427.255L548.53 458.12" stroke="url(#paint29_linear_342:80)" stroke-opacity="0.63"/>
<path d="M595.936 337.939L639.391 379.968" stroke="url(#paint30_linear_342:80)" stroke-opacity="0.63"/>
<path d="M514.292 419.374L557.748 461.403" stroke="url(#paint31_linear_342:80)" stroke-opacity="0.63"/>
<path d="M587.376 334L642.683 388.507" stroke="url(#paint32_linear_342:80)" stroke-opacity="0.63"/>
<path d="M512.975 411.49L565.648 464.027" stroke="url(#paint33_linear_342:80)" stroke-opacity="0.63"/>
<path d="M582.767 334L643.342 394.417" stroke="url(#paint34_linear_342:80)" stroke-opacity="0.63"/>
<path d="M511.658 404.923L572.233 465.34" stroke="url(#paint35_linear_342:80)" stroke-opacity="0.63"/>
<mask id="path-42-inside-1_342:80" fill="white">
<path d="M1416.23 65.2729C1422.59 57.9008 1421.8 46.7058 1413.93 40.9776C1385.73 20.4502 1352.86 7.07332 1318.15 2.13418C1277.6 -3.63486 1236.26 2.34986 1199.02 19.3779C1161.77 36.406 1130.2 63.7624 1108.04 98.2C1085.88 132.638 1074.07 172.71 1074 213.661C1073.94 254.612 1085.62 294.722 1107.67 329.229C1129.72 363.737 1161.21 391.193 1198.4 408.339C1235.59 425.485 1276.92 431.601 1317.48 425.96C1352.2 421.131 1385.12 407.858 1413.39 387.42C1421.27 381.717 1422.09 370.525 1415.76 363.133C1409.43 355.74 1398.35 354.963 1390.37 360.537C1367.29 376.656 1340.66 387.147 1312.62 391.047C1278.74 395.758 1244.22 390.65 1213.16 376.328C1182.09 362.006 1155.79 339.073 1137.38 310.249C1118.96 281.426 1109.2 247.923 1109.25 213.717C1109.3 179.511 1119.17 146.039 1137.68 117.274C1156.19 88.5091 1182.56 65.6588 1213.67 51.4355C1244.78 37.2122 1279.32 32.2133 1313.18 37.0321C1341.21 41.0206 1367.81 51.5964 1390.83 67.7881C1398.79 73.3877 1409.88 72.6449 1416.23 65.2729Z"/>
</mask>
<path d="M1416.23 65.2729C1422.59 57.9008 1421.8 46.7058 1413.93 40.9776C1385.73 20.4502 1352.86 7.07332 1318.15 2.13418C1277.6 -3.63486 1236.26 2.34986 1199.02 19.3779C1161.77 36.406 1130.2 63.7624 1108.04 98.2C1085.88 132.638 1074.07 172.71 1074 213.661C1073.94 254.612 1085.62 294.722 1107.67 329.229C1129.72 363.737 1161.21 391.193 1198.4 408.339C1235.59 425.485 1276.92 431.601 1317.48 425.96C1352.2 421.131 1385.12 407.858 1413.39 387.42C1421.27 381.717 1422.09 370.525 1415.76 363.133C1409.43 355.74 1398.35 354.963 1390.37 360.537C1367.29 376.656 1340.66 387.147 1312.62 391.047C1278.74 395.758 1244.22 390.65 1213.16 376.328C1182.09 362.006 1155.79 339.073 1137.38 310.249C1118.96 281.426 1109.2 247.923 1109.25 213.717C1109.3 179.511 1119.17 146.039 1137.68 117.274C1156.19 88.5091 1182.56 65.6588 1213.67 51.4355C1244.78 37.2122 1279.32 32.2133 1313.18 37.0321C1341.21 41.0206 1367.81 51.5964 1390.83 67.7881C1398.79 73.3877 1409.88 72.6449 1416.23 65.2729Z" stroke="#45AAF2" stroke-opacity="0.2" stroke-width="6" stroke-linejoin="round" stroke-dasharray="5 5" mask="url(#path-42-inside-1_342:80)"/>
<mask id="path-43-inside-2_342:80" fill="white">
<path d="M1330.46 341.484C1333.16 350.215 1328.28 359.58 1319.31 361.305C1301.5 364.727 1283.17 364.9 1265.22 361.768C1241.82 357.685 1219.72 348.102 1200.74 333.807C1181.77 319.513 1166.46 300.916 1156.08 279.548C1145.7 258.18 1140.54 234.652 1141.03 210.901C1141.52 187.149 1147.65 163.854 1158.9 142.934C1170.16 122.013 1186.22 104.064 1205.77 90.566C1225.32 77.0678 1247.79 68.4058 1271.35 65.2931C1289.41 62.9052 1307.72 63.8357 1325.37 67.9907C1334.27 70.0848 1338.75 79.6433 1335.69 88.2547C1332.63 96.8661 1323.18 101.24 1314.22 99.4251C1301.57 96.8621 1288.55 96.403 1275.68 98.1037C1257.33 100.53 1239.81 107.28 1224.58 117.8C1209.34 128.32 1196.82 142.309 1188.05 158.614C1179.28 174.919 1174.5 193.074 1174.12 211.584C1173.74 230.095 1177.76 248.432 1185.85 265.086C1193.94 281.739 1205.87 296.233 1220.66 307.373C1235.45 318.514 1252.67 325.982 1270.91 329.164C1283.69 331.395 1296.72 331.475 1309.47 329.436C1318.49 327.993 1327.76 332.754 1330.46 341.484Z"/>
</mask>
<path d="M1330.46 341.484C1333.16 350.215 1328.28 359.58 1319.31 361.305C1301.5 364.727 1283.17 364.9 1265.22 361.768C1241.82 357.685 1219.72 348.102 1200.74 333.807C1181.77 319.513 1166.46 300.916 1156.08 279.548C1145.7 258.18 1140.54 234.652 1141.03 210.901C1141.52 187.149 1147.65 163.854 1158.9 142.934C1170.16 122.013 1186.22 104.064 1205.77 90.566C1225.32 77.0678 1247.79 68.4058 1271.35 65.2931C1289.41 62.9052 1307.72 63.8357 1325.37 67.9907C1334.27 70.0848 1338.75 79.6433 1335.69 88.2547C1332.63 96.8661 1323.18 101.24 1314.22 99.4251C1301.57 96.8621 1288.55 96.403 1275.68 98.1037C1257.33 100.53 1239.81 107.28 1224.58 117.8C1209.34 128.32 1196.82 142.309 1188.05 158.614C1179.28 174.919 1174.5 193.074 1174.12 211.584C1173.74 230.095 1177.76 248.432 1185.85 265.086C1193.94 281.739 1205.87 296.233 1220.66 307.373C1235.45 318.514 1252.67 325.982 1270.91 329.164C1283.69 331.395 1296.72 331.475 1309.47 329.436C1318.49 327.993 1327.76 332.754 1330.46 341.484Z" stroke="#45AAF2" stroke-opacity="0.2" stroke-width="6" stroke-linejoin="round" stroke-dasharray="5 5" mask="url(#path-43-inside-2_342:80)"/>
<path d="M1356.4 229.078L1352.74 226.981C1352.92 225.105 1352.92 223.207 1352.74 221.331L1356.43 219.235C1358.53 218.021 1359.49 215.549 1358.76 213.276C1357.16 208.111 1354.34 203.256 1350.61 199.261C1348.97 197.473 1346.33 197.076 1344.25 198.29L1340.58 200.387C1339.03 199.283 1337.39 198.334 1335.66 197.562V193.368C1335.66 190.94 1333.99 188.888 1331.62 188.358C1326.32 187.166 1320.68 187.166 1315.38 188.358C1313.01 188.888 1311.34 190.963 1311.34 193.368V197.562C1309.61 198.334 1307.97 199.283 1306.42 200.387L1302.75 198.29C1300.65 197.076 1298.03 197.473 1296.39 199.261C1292.68 203.256 1289.86 208.111 1288.24 213.254C1287.51 215.549 1288.51 218.065 1290.6 219.257L1294.26 221.353C1294.08 223.229 1294.08 225.127 1294.26 227.003L1290.57 229.1C1288.51 230.292 1287.51 232.83 1288.24 235.081C1289.84 240.246 1292.66 245.101 1296.39 249.096C1298.03 250.861 1300.65 251.259 1302.75 250.067L1306.42 247.97C1307.97 249.074 1309.61 250.023 1311.34 250.795V254.988C1311.34 257.416 1313.01 259.469 1315.38 259.998C1318.04 260.594 1320.77 260.881 1323.5 260.881C1326.23 260.881 1328.98 260.594 1331.62 259.998C1333.99 259.469 1335.66 257.394 1335.66 254.988V250.795C1337.39 250.023 1339.03 249.074 1340.58 247.97L1344.25 250.067C1346.33 251.259 1348.97 250.861 1350.61 249.096C1354.32 245.101 1357.14 240.246 1358.76 235.103C1359.49 232.808 1358.49 230.27 1356.4 229.078ZM1344.96 230.667L1351.48 234.419C1350.32 237.575 1348.59 240.554 1346.42 243.137L1339.9 239.385C1335.15 243.424 1334.46 243.821 1328.56 245.896V253.399C1325.21 253.973 1321.77 253.973 1318.44 253.399V245.896C1312.47 243.799 1311.74 243.313 1307.1 239.385L1300.58 243.137C1298.41 240.532 1296.68 237.575 1295.52 234.419L1302.04 230.667C1300.96 224.752 1300.89 223.913 1302.04 217.646L1295.52 213.894C1296.68 210.738 1298.41 207.78 1300.58 205.176L1307.1 208.928C1311.85 204.889 1312.54 204.492 1318.44 202.417V194.913C1321.79 194.361 1325.25 194.361 1328.56 194.913V202.417C1334.5 204.514 1335.26 204.977 1339.9 208.928L1346.42 205.176C1348.59 207.78 1350.32 210.738 1351.48 213.894L1344.96 217.646C1346.04 223.56 1346.11 224.399 1344.96 230.667ZM1323.5 209.921C1315.6 209.921 1309.19 216.321 1309.19 224.156C1309.19 231.991 1315.6 238.392 1323.5 238.392C1331.4 238.392 1337.81 231.991 1337.81 224.156C1337.81 216.321 1331.4 209.921 1323.5 209.921ZM1323.5 231.329C1319.53 231.329 1316.29 228.107 1316.29 224.156C1316.29 220.206 1319.53 216.983 1323.5 216.983C1327.47 216.983 1330.71 220.206 1330.71 224.156C1330.71 228.107 1327.47 231.329 1323.5 231.329ZM1266.7 206.5C1282.39 206.5 1295.1 193.854 1295.1 178.25C1295.1 162.646 1282.39 150 1266.7 150C1251.01 150 1238.3 162.646 1238.3 178.25C1238.3 193.854 1251.01 206.5 1266.7 206.5ZM1266.7 157.062C1278.44 157.062 1288 166.575 1288 178.25C1288 189.925 1278.44 199.438 1266.7 199.438C1254.96 199.438 1245.4 189.925 1245.4 178.25C1245.4 166.575 1254.96 157.062 1266.7 157.062ZM1227.65 255.938C1225.7 255.938 1224.1 254.348 1224.1 252.406V243.225C1224.1 230.755 1234.28 220.625 1246.82 220.625C1251.17 220.625 1255.5 224.156 1266.7 224.156C1270.96 224.156 1275.13 223.428 1279.24 222.236C1279.35 219.676 1279.64 217.16 1280.17 214.732C1278.19 215.328 1273.49 217.094 1266.7 217.094C1256.25 217.094 1253.21 213.563 1246.82 213.563C1230.36 213.563 1217 226.849 1217 243.225V252.406C1217 258.255 1221.77 263 1227.65 263H1302.42C1298.87 261.102 1295.63 258.696 1292.77 255.938H1227.65Z" fill="#45AAF2" fill-opacity="0.1"/>
<defs>
<linearGradient id="paint0_linear_342:80" x1="610.75" y1="334" x2="610.75" y2="400.328" gradientUnits="userSpaceOnUse">
<stop offset="0.359375" stop-color="#45AAF2" stop-opacity="0.4"/>
<stop offset="1" stop-color="#45AAF2" stop-opacity="0.25"/>
</linearGradient>
<linearGradient id="paint1_linear_342:80" x1="544.25" y1="399.672" x2="544.25" y2="466" gradientUnits="userSpaceOnUse">
<stop offset="0.359375" stop-color="#45AAF2" stop-opacity="0.4"/>
<stop offset="1" stop-color="#45AAF2" stop-opacity="0.25"/>
</linearGradient>
<linearGradient id="paint2_linear_342:80" x1="607.787" y1="334" x2="607.787" y2="404.925" gradientUnits="userSpaceOnUse">
<stop offset="0.359375" stop-color="#45AAF2" stop-opacity="0.4"/>
<stop offset="1" stop-color="#45AAF2" stop-opacity="0.25"/>
</linearGradient>
<linearGradient id="paint3_linear_342:80" x1="547.213" y1="394.415" x2="547.213" y2="465.34" gradientUnits="userSpaceOnUse">
<stop offset="0.359375" stop-color="#45AAF2" stop-opacity="0.4"/>
<stop offset="1" stop-color="#45AAF2" stop-opacity="0.25"/>
</linearGradient>
<linearGradient id="paint4_linear_342:80" x1="605.483" y1="335.31" x2="605.483" y2="409.518" gradientUnits="userSpaceOnUse">
<stop offset="0.359375" stop-color="#45AAF2" stop-opacity="0.4"/>
<stop offset="1" stop-color="#45AAF2" stop-opacity="0.25"/>
</linearGradient>
<linearGradient id="paint5_linear_342:80" x1="550.834" y1="390.475" x2="550.834" y2="464.683" gradientUnits="userSpaceOnUse">
<stop offset="0.359375" stop-color="#45AAF2" stop-opacity="0.4"/>
<stop offset="1" stop-color="#45AAF2" stop-opacity="0.25"/>
</linearGradient>
<linearGradient id="paint6_linear_342:80" x1="602.52" y1="335.31" x2="602.52" y2="414.115" gradientUnits="userSpaceOnUse">
<stop offset="0.359375" stop-color="#45AAF2" stop-opacity="0.4"/>
<stop offset="1" stop-color="#45AAF2" stop-opacity="0.25"/>
</linearGradient>
<linearGradient id="paint7_linear_342:80" x1="552.48" y1="385.226" x2="552.48" y2="464.031" gradientUnits="userSpaceOnUse">
<stop offset="0.359375" stop-color="#45AAF2" stop-opacity="0.4"/>
<stop offset="1" stop-color="#45AAF2" stop-opacity="0.25"/>
</linearGradient>
<linearGradient id="paint8_linear_342:80" x1="599.886" y1="336.629" x2="599.886" y2="418.062" gradientUnits="userSpaceOnUse">
<stop offset="0.359375" stop-color="#45AAF2" stop-opacity="0.4"/>
<stop offset="1" stop-color="#45AAF2" stop-opacity="0.25"/>
</linearGradient>
<linearGradient id="paint9_linear_342:80" x1="555.114" y1="381.286" x2="555.114" y2="462.718" gradientUnits="userSpaceOnUse">
<stop offset="0.359375" stop-color="#45AAF2" stop-opacity="0.4"/>
<stop offset="1" stop-color="#45AAF2" stop-opacity="0.25"/>
</linearGradient>
<linearGradient id="paint10_linear_342:80" x1="597.252" y1="337.939" x2="597.252" y2="421.998" gradientUnits="userSpaceOnUse">
<stop offset="0.359375" stop-color="#45AAF2" stop-opacity="0.4"/>
<stop offset="1" stop-color="#45AAF2" stop-opacity="0.25"/>
</linearGradient>
<linearGradient id="paint11_linear_342:80" x1="557.747" y1="377.347" x2="557.747" y2="461.406" gradientUnits="userSpaceOnUse">
<stop offset="0.359375" stop-color="#45AAF2" stop-opacity="0.4"/>
<stop offset="1" stop-color="#45AAF2" stop-opacity="0.25"/>
</linearGradient>
<linearGradient id="paint12_linear_342:80" x1="594.619" y1="339.258" x2="594.619" y2="425.944" gradientUnits="userSpaceOnUse">
<stop offset="0.359375" stop-color="#45AAF2" stop-opacity="0.4"/>
<stop offset="1" stop-color="#45AAF2" stop-opacity="0.25"/>
</linearGradient>
<linearGradient id="paint13_linear_342:80" x1="592.314" y1="341.223" x2="592.314" y2="429.879" gradientUnits="userSpaceOnUse">
<stop offset="0.359375" stop-color="#45AAF2" stop-opacity="0.4"/>
<stop offset="1" stop-color="#45AAF2" stop-opacity="0.25"/>
</linearGradient>
<linearGradient id="paint14_linear_342:80" x1="589.352" y1="343.197" x2="589.352" y2="432.51" gradientUnits="userSpaceOnUse">
<stop offset="0.359375" stop-color="#45AAF2" stop-opacity="0.4"/>
<stop offset="1" stop-color="#45AAF2" stop-opacity="0.25"/>
</linearGradient>
<linearGradient id="paint15_linear_342:80" x1="559.723" y1="373.4" x2="559.723" y2="460.086" gradientUnits="userSpaceOnUse">
<stop offset="0.359375" stop-color="#45AAF2" stop-opacity="0.4"/>
<stop offset="1" stop-color="#45AAF2" stop-opacity="0.25"/>
</linearGradient>
<linearGradient id="paint16_linear_342:80" x1="587.047" y1="345.162" x2="587.047" y2="436.445" gradientUnits="userSpaceOnUse">
<stop offset="0.359375" stop-color="#45AAF2" stop-opacity="0.4"/>
<stop offset="1" stop-color="#45AAF2" stop-opacity="0.25"/>
</linearGradient>
<linearGradient id="paint17_linear_342:80" x1="565.648" y1="365.521" x2="565.648" y2="456.148" gradientUnits="userSpaceOnUse">
<stop offset="0.359375" stop-color="#45AAF2" stop-opacity="0.4"/>
<stop offset="1" stop-color="#45AAF2" stop-opacity="0.25"/>
</linearGradient>
<linearGradient id="paint18_linear_342:80" x1="562.356" y1="369.461" x2="562.356" y2="458.774" gradientUnits="userSpaceOnUse">
<stop offset="0.359375" stop-color="#45AAF2" stop-opacity="0.4"/>
<stop offset="1" stop-color="#45AAF2" stop-opacity="0.25"/>
</linearGradient>
<linearGradient id="paint19_linear_342:80" x1="584.413" y1="347.136" x2="584.413" y2="438.419" gradientUnits="userSpaceOnUse">
<stop offset="0.359375" stop-color="#45AAF2" stop-opacity="0.4"/>
<stop offset="1" stop-color="#45AAF2" stop-opacity="0.25"/>
</linearGradient>
<linearGradient id="paint20_linear_342:80" x1="568.941" y1="362.893" x2="568.941" y2="454.832" gradientUnits="userSpaceOnUse">
<stop offset="0.359375" stop-color="#45AAF2" stop-opacity="0.4"/>
<stop offset="1" stop-color="#45AAF2" stop-opacity="0.25"/>
</linearGradient>
<linearGradient id="paint21_linear_342:80" x1="582.109" y1="348.446" x2="582.109" y2="441.699" gradientUnits="userSpaceOnUse">
<stop offset="0.359375" stop-color="#45AAF2" stop-opacity="0.4"/>
<stop offset="1" stop-color="#45AAF2" stop-opacity="0.25"/>
</linearGradient>
<linearGradient id="paint22_linear_342:80" x1="579.475" y1="351.076" x2="579.475" y2="444.329" gradientUnits="userSpaceOnUse">
<stop offset="0.359375" stop-color="#45AAF2" stop-opacity="0.4"/>
<stop offset="1" stop-color="#45AAF2" stop-opacity="0.25"/>
</linearGradient>
<linearGradient id="paint23_linear_342:80" x1="576.842" y1="353.704" x2="576.842" y2="446.957" gradientUnits="userSpaceOnUse">
<stop offset="0.359375" stop-color="#45AAF2" stop-opacity="0.4"/>
<stop offset="1" stop-color="#45AAF2" stop-opacity="0.25"/>
</linearGradient>
<linearGradient id="paint24_linear_342:80" x1="574.208" y1="356.325" x2="574.208" y2="449.578" gradientUnits="userSpaceOnUse">
<stop offset="0.359375" stop-color="#45AAF2" stop-opacity="0.4"/>
<stop offset="1" stop-color="#45AAF2" stop-opacity="0.25"/>
</linearGradient>
<linearGradient id="paint25_linear_342:80" x1="570.916" y1="358.953" x2="570.916" y2="452.206" gradientUnits="userSpaceOnUse">
<stop offset="0.359375" stop-color="#45AAF2" stop-opacity="0.4"/>
<stop offset="1" stop-color="#45AAF2" stop-opacity="0.25"/>
</linearGradient>
<linearGradient id="paint26_linear_342:80" x1="623.26" y1="346.481" x2="623.26" y2="362.899" gradientUnits="userSpaceOnUse">
<stop offset="0.359375" stop-color="#45AAF2" stop-opacity="0.4"/>
<stop offset="1" stop-color="#45AAF2" stop-opacity="0.25"/>
</linearGradient>
<linearGradient id="paint27_linear_342:80" x1="529.765" y1="435.132" x2="529.765" y2="451.55" gradientUnits="userSpaceOnUse">
<stop offset="0.359375" stop-color="#45AAF2" stop-opacity="0.4"/>
<stop offset="1" stop-color="#45AAF2" stop-opacity="0.25"/>
</linearGradient>
<linearGradient id="paint28_linear_342:80" x1="621.285" y1="341.223" x2="621.285" y2="372.089" gradientUnits="userSpaceOnUse">
<stop offset="0.359375" stop-color="#45AAF2" stop-opacity="0.4"/>
<stop offset="1" stop-color="#45AAF2" stop-opacity="0.25"/>
</linearGradient>
<linearGradient id="paint29_linear_342:80" x1="533.057" y1="427.255" x2="533.057" y2="458.12" gradientUnits="userSpaceOnUse">
<stop offset="0.359375" stop-color="#45AAF2" stop-opacity="0.4"/>
<stop offset="1" stop-color="#45AAF2" stop-opacity="0.25"/>
</linearGradient>
<linearGradient id="paint30_linear_342:80" x1="617.663" y1="337.939" x2="617.663" y2="379.968" gradientUnits="userSpaceOnUse">
<stop offset="0.359375" stop-color="#45AAF2" stop-opacity="0.4"/>
<stop offset="1" stop-color="#45AAF2" stop-opacity="0.25"/>
</linearGradient>
<linearGradient id="paint31_linear_342:80" x1="536.02" y1="419.374" x2="536.02" y2="461.403" gradientUnits="userSpaceOnUse">
<stop offset="0.359375" stop-color="#45AAF2" stop-opacity="0.4"/>
<stop offset="1" stop-color="#45AAF2" stop-opacity="0.25"/>
</linearGradient>
<linearGradient id="paint32_linear_342:80" x1="615.03" y1="334" x2="615.03" y2="388.507" gradientUnits="userSpaceOnUse">
<stop offset="0.359375" stop-color="#45AAF2" stop-opacity="0.4"/>
<stop offset="1" stop-color="#45AAF2" stop-opacity="0.25"/>
</linearGradient>
<linearGradient id="paint33_linear_342:80" x1="539.312" y1="411.49" x2="539.312" y2="464.027" gradientUnits="userSpaceOnUse">
<stop offset="0.359375" stop-color="#45AAF2" stop-opacity="0.4"/>
<stop offset="1" stop-color="#45AAF2" stop-opacity="0.25"/>
</linearGradient>
<linearGradient id="paint34_linear_342:80" x1="613.054" y1="334" x2="613.054" y2="394.417" gradientUnits="userSpaceOnUse">
<stop offset="0.359375" stop-color="#45AAF2" stop-opacity="0.4"/>
<stop offset="1" stop-color="#45AAF2" stop-opacity="0.25"/>
</linearGradient>
<linearGradient id="paint35_linear_342:80" x1="541.946" y1="404.923" x2="541.946" y2="465.34" gradientUnits="userSpaceOnUse">
<stop offset="0.359375" stop-color="#45AAF2" stop-opacity="0.4"/>
<stop offset="1" stop-color="#45AAF2" stop-opacity="0.25"/>
</linearGradient>
</defs>
</svg>
