<svg width="483" height="263" viewBox="0 0 483 263" fill="none" xmlns="http://www.w3.org/2000/svg">
<path d="M362.437 255.489C401.749 197.998 456.785 78.7355 362.437 61.6171C324.166 54.5703 247.625 69.1451 247.625 183.818C253.092 207.709 272.462 255.489 306.202 255.489H362.437Z" fill="#EDF5FD"/>
<path d="M108.341 261.419C49.2289 191.009 -33.5279 44.9493 108.341 23.9844C165.887 15.3543 262.204 93.0686 280.979 173.644C288.382 205.413 243.633 261.419 192.898 261.419H108.341Z" fill="#EDF5FD"/>
<path d="M356.449 153.654C424.138 137.412 387.95 -18.91 296.236 24.7493C231.02 55.7949 95.9944 103.169 77.6205 44.3029" stroke="#0067B0" stroke-dasharray="2 2"/>
<path d="M1.98282 122.717L15.0999 114.852C14.103 111.029 9.73725 109.208 6.3191 111.189L4.78211 112.08C1.95148 113.721 0.55138 117.039 1.35116 120.211L1.98282 122.717Z" fill="#DCE4F6"/>
<path d="M42.3875 232.083L36.7937 172.767H16.1496L18.4138 185.1L11.8876 232.083H23.3417L25.5985 218.815C25.9475 216.763 28.8081 216.542 29.4672 218.517L33.9967 232.083H42.3875Z" fill="#175EF6"/>
<path d="M13.3572 172.767L7.60252 152.296C4.49006 141.225 9.0214 129.424 18.744 123.28L21.3297 121.646L25.2646 128.243C27.6969 132.32 33.6769 132.091 35.7903 127.84L38.8691 121.646C44.1568 123.21 47.4698 128.447 46.6175 133.895L42.9278 157.481L42.8166 157.9C40.4893 166.665 32.5554 172.767 23.4864 172.767H13.3572Z" fill="#3CD278"/>
<path d="M15.2236 115.013L40.1636 186.426L36.1923 199.303L25.2314 193.45L1.56213 120.866L15.2236 115.013Z" fill="#FF5353"/>
<path d="M20.6245 172.376L22.6103 177.828C22.9576 178.782 22.2514 179.791 21.2364 179.791C20.845 179.791 20.4698 179.634 20.195 179.355L13.3173 172.376H20.6245Z" fill="#FFC6B2"/>
<path d="M40.1636 186.425L25.5491 193.645L36.3511 199.888L40.1636 186.425Z" fill="#FBC8B4"/>
<path d="M36.6688 199.498C36.6688 200.864 36.8609 201.059 36.5099 201.059C36.159 201.059 35.3979 200.037 35.3979 199.498C35.3979 198.959 35.6824 198.522 36.0334 198.522C36.3843 198.522 36.6688 198.959 36.6688 199.498Z" fill="#060606"/>
<path d="M33.1511 128.706C32.3917 131.079 29.2375 131.546 27.8235 129.494L21.4736 120.28L19.1948 106.037L37.7753 104.085V112.476C38.7584 113.46 38.8 115.042 37.87 116.077L37.7753 116.183L38.7907 118.556C39.1399 119.373 38.5411 120.28 37.6533 120.28C36.5773 120.28 35.6246 120.976 35.2967 122L33.1511 128.706Z" fill="#FCC4AE"/>
<path d="M21.0351 118.778C18.208 112.76 14.25 100.963 21.0351 101.913L37.9976 99.5375C40.2102 97.3205 43.7133 94.9769 40.0258 103.338C41.8081 103.259 44.3033 103.861 40.0258 106.901L27.3038 109.514C27.0766 110.831 25.2042 110.905 23.9637 110.406C23.1008 110.06 22.3102 110.785 21.9569 113.789C21.2194 120.06 21.0351 119.728 21.0351 118.778Z" fill="#020202"/>
<path d="M47.3826 129.162L49.4653 153.138H43.4774L47.3826 129.162Z" fill="#3CD278"/>
<path d="M43.217 153.138L47.1222 128.131" stroke="#F2F2F2" stroke-opacity="0.55"/>
<path d="M40.6401 229.742H35.239L21.7365 189.547" stroke="#FFF4F4" stroke-dasharray="2 2"/>
<path d="M22.0543 230.326H13.9528L18.8772 194.425" stroke="#FFF4F4" stroke-dasharray="2 2"/>
<path d="M34.1271 232.083V235.277C34.1271 238.039 36.3657 240.277 39.1271 240.277H46.5177C46.5177 240.277 47.0896 232.083 40.4812 232.083H34.1271Z" fill="#252424"/>
<path d="M34.2861 236.766C35.3981 236.506 37.4632 236.844 36.8278 240.278" stroke="#B7B2B2" stroke-dasharray="2 2"/>
<path d="M62.7538 144.981C64.5069 142.078 62.078 138.447 58.7254 138.96L47.0567 140.743C45.9596 140.91 44.9815 141.526 44.3562 142.443L33.9437 157.712C32.1331 160.368 34.0346 163.966 37.2485 163.966H49.0334C50.4345 163.966 51.7334 163.233 52.4576 162.033L62.7538 144.981Z" fill="#1158FE"/>
<path d="M59.098 151.076C55.4973 151.271 49.144 152.714 55.6253 157.24L59.098 151.076Z" fill="#EFCAC4"/>
<path d="M12.8407 232.083V235.277C12.8407 238.039 15.0793 240.277 17.8407 240.277H25.2313C25.2313 240.277 25.8032 232.083 19.1949 232.083H12.8407Z" fill="#252424"/>
<path d="M12.9996 236.766C14.1116 236.506 16.1767 236.844 15.5413 240.278" stroke="#B7B2B2" stroke-dasharray="2 2"/>
<path d="M439.076 191.119C439.104 190.589 439.543 190.173 440.074 190.173H470.296C470.876 190.173 471.334 190.664 471.294 191.242L466.895 255.143C466.859 255.668 466.423 256.075 465.898 256.075H459.179C458.653 256.075 458.217 255.667 458.181 255.142L455.779 219.571C455.623 217.266 452.331 217.017 451.831 219.273L443.837 255.291C443.736 255.749 443.33 256.075 442.861 256.075H436.618C436.045 256.075 435.589 255.593 435.62 255.021L439.076 191.119Z" fill="#175EF6"/>
<path d="M471.206 190.383C472.114 190.383 472.864 189.673 472.912 188.766L474.932 151.119L482.028 148.198C474.932 131.408 441.946 132.037 434.979 151.118L440.618 151.119L437.766 189.091C437.714 189.788 438.265 190.383 438.965 190.383H471.206Z" fill="#F1CB47"/>
<path d="M414.108 159.544C416.886 159.093 426.009 162.936 433.036 166.969C435.816 168.563 439.588 166.864 439.838 163.687L440.229 158.731L431.48 158.731L413.607 152.182L408.269 148.752C407.732 148.643 407.391 149.291 407.773 149.693L410.424 152.488C410.825 152.911 411.005 153.498 410.906 154.065L410.438 156.761C410.249 157.849 410.973 158.909 412.055 159.128L414.108 159.544Z" fill="#FFC6B2"/>
<path d="M470.363 201.507C468.289 199.688 464.453 194.833 465.697 189.963" stroke="#B7B2B2" stroke-dasharray="2 2"/>
<path d="M438.479 202.136C440.45 200.284 444.096 195.34 442.914 190.383" stroke="#B7B2B2" stroke-dasharray="2 2"/>
<path d="M474.057 162.889L474.835 150.506L482.028 148.198L482.859 160.757C482.935 161.911 482.02 162.889 480.863 162.889H474.057Z" fill="#F1CB47"/>
<path d="M441.201 158.902V150.926H436.979C435.875 150.926 434.979 151.822 434.979 152.926V158.902H441.201Z" fill="#F1CB47"/>
<path d="M460.709 136.654V132.181L461.061 132.085C464.853 131.055 467.713 127.357 466.78 123.54C465.468 118.17 461.56 113.628 447.377 117.583L448.728 128.049L448.567 128.824C447.953 131.781 450.211 134.556 453.231 134.556L454.309 136.654H460.709Z" fill="#FFC6B2"/>
<path d="M466.966 122.173C466.59 117.136 462.778 108.153 450.529 112.518C448.653 111.399 444.495 109.496 442.873 110.839C441.252 112.183 442.198 115.177 442.873 116.506C446.851 116.996 454.987 118.395 455.708 120.074V123.222C457.809 120.144 461.021 117.304 462.462 122.173L466.74 123.642L466.966 122.173Z" fill="#280054" stroke="black"/>
<path d="M452.36 152.647C452.103 151.003 450.558 149.883 448.916 150.149L443.559 151.016C441.786 151.303 440.661 153.073 441.153 154.8L444.121 165.211C444.556 166.736 446.102 167.66 447.651 167.318L451.667 166.434C453.215 166.093 454.23 164.607 453.985 163.041L452.36 152.647Z" fill="#1511EC"/>
<path d="M482.028 162.679L481.059 172.842C480.865 174.87 478.749 176.12 476.88 175.309L454.427 165.58C453.541 165.196 452.552 165.118 451.617 165.359L451.479 165.394C449.949 165.787 448.329 165.271 447.309 164.065L446.954 163.645C445.978 162.491 446.498 160.715 447.942 160.27C448.617 160.062 449.338 160.062 450.013 160.27L453.06 161.21L474.057 166.037V162.679H482.028Z" fill="#FFC6B2"/>
<path d="M465.697 255.865V263.001H453.643C453.643 260.298 455.899 259.437 457.516 258.614C458.915 257.902 460.777 255.865 462.347 255.865H465.697Z" fill="#1F1F1F"/>
<path d="M442.756 255.865V263.001H430.702C430.702 260.298 432.958 259.437 434.575 258.614C435.974 257.902 437.836 255.865 439.406 255.865H442.756Z" fill="#1F1F1F"/>
<path d="M468.419 211.791L466.086 237.605" stroke="#B7B2B2"/>
<path d="M465.308 252.087C464.207 253.066 461.537 254.438 459.67 252.087" stroke="#B7B2B2"/>
<path d="M442.173 252.087C441.071 253.066 438.401 254.438 436.535 252.087" stroke="#B7B2B2"/>
<path d="M437.701 232.568L438.868 214.519" stroke="#B7B2B2"/>
<path d="M454.032 201.926C453.19 203.186 452.01 206.628 454.032 210.321" stroke="#B7B2B2"/>
<path d="M472.696 151.555C471.918 148.967 471.18 143.034 474.446 140.012" stroke="#ECECEC"/>
<path d="M440.229 150.926C440.099 149.177 439.412 145.805 437.701 146.309" stroke="#ECECEC"/>
<g filter="url(#filter0_d_257:121)">
<path d="M337.252 238.326C327.436 213.971 304.858 149.643 312.711 93.356L293.999 238.326H337.252Z" fill="#D7E7FF"/>
</g>
<g filter="url(#filter1_d_257:121)">
<path d="M300.7 238.326C290.884 213.971 268.306 149.643 276.159 93.356L257.447 238.326H300.7Z" fill="#D7E7FF"/>
</g>
<g filter="url(#filter2_d_257:121)">
<path d="M130.735 235.805C139.802 211.45 160.656 147.122 153.402 90.835L170.686 235.805H130.735Z" fill="#D7E7FF"/>
</g>
<g filter="url(#filter3_d_257:121)">
<path d="M164.497 235.806C173.563 211.451 194.417 147.123 187.164 90.8354L204.448 235.806H164.497Z" fill="#D7E7FF"/>
</g>
<g filter="url(#filter4_d_257:121)">
<path d="M248.919 238.957L232.03 93.356L211.149 238.957H248.919Z" fill="#D7E7FF"/>
</g>
<path d="M346.872 86.1079H126.902C124.14 86.1079 121.902 88.3465 121.902 91.1079V241.206C121.902 243.967 124.14 246.206 126.902 246.206H346.872C349.634 246.206 351.872 243.967 351.872 241.206V91.1079C351.872 88.3465 349.634 86.1079 346.872 86.1079Z" stroke="#819ED8" stroke-width="7"/>
<path d="M374.413 240.849H98.4479C98.4479 248.508 104.656 254.716 112.315 254.716H360.546C368.204 254.716 374.413 248.508 374.413 240.849Z" fill="#819ED8" stroke="#819ED8" stroke-width="7"/>
<path d="M270.545 249.988L276.332 238.958H197.746L202.924 249.988H270.545Z" fill="#5D82BF"/>
<path d="M350.045 176.385C333.565 166.167 300.729 158.624 301.22 210.201C295.898 209.674 285.682 210.707 287.402 219.05C281.567 201.458 263.634 175.564 238.577 212.729C227.523 194.715 201.667 170.76 186.682 219.05C184.839 211.571 177.777 200.151 164.266 214.31C164.266 201.141 156.097 176.449 123.425 183.022V237.696H350.045V176.385Z" fill="#E4F0FE"/>
<path d="M350.045 184.217C324.154 161.429 301.13 180.023 301.13 219.025C301.13 212.686 292.115 213.589 289.054 219.195C288.522 220.168 286.152 220.623 285.642 219.639C277.986 204.873 267.813 187.301 239.505 212.162C239.16 212.465 238.641 212.52 238.267 212.254C224.337 202.352 208.818 178.524 188.874 220.085C188.406 221.061 186.456 220.759 186.09 219.741C183.198 211.702 173.082 208.04 165.868 216.823C165.279 217.541 164.003 217.271 163.811 216.362C160.814 202.178 149.471 180.72 123.425 191.179V238.327H350.045V184.217Z" fill="#D7E7FF"/>
<path d="M248.492 147.563C248.512 151.476 244.818 157.745 239.596 163.272C234.348 158.856 230.57 153.363 230.55 149.434C230.518 143.315 234.187 138.652 239.467 138.101C244.747 137.551 248.46 141.442 248.492 147.563ZM186.384 117.569L195.084 143.7C195.405 144.561 195.89 145.331 196.512 145.965C197.621 147.01 199.121 147.506 200.68 147.343C202.24 147.18 203.733 146.373 204.83 145.097L220.937 126.368C216.717 113.883 209.957 93.8778 206.951 84.9183C206.881 84.6641 206.815 84.4276 206.748 84.1742L189.159 104.626C186.345 107.904 185.105 113.697 186.384 117.569ZM271.392 78.1801C268.502 87.7793 261.95 109.217 257.879 122.533L274.18 137.9C275.295 138.92 276.785 139.397 278.332 139.23C279.879 139.063 281.359 138.264 282.454 137.006C283.063 136.247 283.536 135.383 283.844 134.461L292.254 106.564C293.501 102.432 292.204 96.9013 289.354 94.2143L271.668 77.541C271.672 77.521 271.674 77.5015 271.677 77.4823L271.586 77.3957C271.52 77.6626 271.459 77.9101 271.392 78.1801Z" fill="#0139B2"/>
<path d="M240.978 4.57584C240.324 4.2137 239.569 4.06362 238.8 4.14274C238.031 4.22186 237.278 4.52699 236.627 5.02329C229.834 10.3752 225.378 15.5559 221.089 20.5439C205.724 38.4093 201.163 58.6126 206.733 84.1239C206.808 84.3965 206.876 84.6467 206.951 84.9182C209.957 93.8777 216.717 113.883 220.937 126.368L222.753 124.256C224.926 121.729 227.51 119.635 230.358 118.094C233.206 116.552 236.262 115.592 239.351 115.27C242.441 114.948 245.503 115.269 248.364 116.215C251.225 117.161 253.828 118.714 256.024 120.785L257.879 122.533C261.95 109.217 268.502 87.7792 271.392 78.18C271.462 77.8972 271.525 77.6406 271.594 77.3586C276.862 50.6693 272.111 31.4496 256.646 16.8703C252.288 12.7338 247.854 8.5291 240.978 4.57584Z" fill="#719BFF"/>
<path d="M238.108 126.211C244.418 125.577 255.426 129.045 259.278 140.738C261.271 146.785 259.94 153.379 257.644 159.285C256.842 161.347 255.92 163.522 254.877 165.732C248.329 179.616 232.942 178.857 225.882 165.181C224.888 163.254 223.954 161.357 223.117 159.563C220.295 153.519 218.841 146.681 220.394 140.174C222.491 131.389 228.083 128.229 238.108 126.211Z" fill="#FF4F4E"/>
<path d="M249.904 149.453L249.905 149.443L249.907 149.432C250.597 144.319 249.214 140.781 246.947 138.581C244.755 136.454 241.908 135.748 239.884 135.886L239.829 135.889L239.774 135.898C236.929 136.318 234.725 137.337 233.074 138.787C231.423 140.237 230.402 142.049 229.818 143.928C228.668 147.629 229.183 151.663 229.912 154.175L229.915 154.184L229.918 154.193C230.432 155.888 231.726 157.699 233.066 159.269C234.446 160.884 236.032 162.421 237.331 163.578C238.675 164.775 240.658 164.656 241.86 163.335C247.426 157.216 249.558 151.785 249.904 149.453Z" fill="#FC221F" stroke="#F8F8F8" stroke-width="3"/>
<path d="M249.393 49.0415C249.393 54.3263 245.323 58.4521 240.494 58.4521C235.665 58.4521 231.596 54.3263 231.596 49.0415C231.596 43.7566 235.665 39.6309 240.494 39.6309C245.323 39.6309 249.393 43.7566 249.393 49.0415Z" fill="#3471FF" stroke="#F1EFEF" stroke-width="4"/>
<path d="M246.123 81.3712C246.123 84.5555 243.68 86.9783 240.858 86.9783C238.035 86.9783 235.592 84.5555 235.592 81.3712C235.592 78.187 238.035 75.7642 240.858 75.7642C243.68 75.7642 246.123 78.187 246.123 81.3712Z" fill="#3471FF" stroke="#F1EFEF" stroke-width="4"/>
<path d="M217.971 24.6987H263.2C261.558 20.7871 253.618 11.0239 241.31 4.67231C239.705 3.844 237.775 4.0537 236.362 5.1792C230.145 10.1322 220.272 19.2111 217.971 24.6987Z" fill="#F6C646"/>
<path d="M394.98 113.343C394.98 111.686 393.637 110.343 391.98 110.343H314.93C313.273 110.343 311.93 111.686 311.93 113.343V161.225C311.93 162.882 313.273 164.225 314.93 164.225H391.98C393.637 164.225 394.98 162.882 394.98 161.225V113.343Z" fill="#F9F9F9" stroke="#00CACA" stroke-width="3"/>
<path d="M392.116 122.459C385.52 120.999 370.82 121.119 364.78 133.287C358.792 131.483 345.618 129.781 340.828 137.412C333.538 133.889 318.126 129.884 314.794 142.053V159.842H392.116V122.459Z" fill="#FFC837"/>
<path d="M392.116 131.439C392.116 130.059 391.176 128.844 389.808 128.658C383.855 127.847 373.764 128.517 366.617 135.733C365.7 136.659 364.337 137.021 363.088 136.652C357.784 135.087 349.451 134.351 344.511 139.502C343.128 140.945 340.767 141.453 339.101 140.349C331.87 135.557 320.365 132.751 314.699 148.766C314.59 149.074 314.533 149.411 314.533 149.739V157.873C314.533 159.53 315.876 160.873 317.533 160.873H389.116C390.773 160.873 392.116 159.53 392.116 157.873V131.439Z" fill="#FF784B"/>
<path d="M394.719 117.561H312.451V110.343H394.719V117.561Z" fill="#00CACA"/>
<ellipse cx="316.876" cy="113.694" rx="1.30172" ry="1.28904" fill="#FAF9F9"/>
<ellipse cx="321.042" cy="113.694" rx="1.30172" ry="1.28904" fill="#FAF9F9"/>
<ellipse cx="325.207" cy="113.694" rx="1.30172" ry="1.28904" fill="#FAF9F9"/>
<path d="M85.9513 79.7647C85.9513 77.0032 88.1899 74.7646 90.9513 74.7646H167.906C170.668 74.7646 172.906 77.0032 172.906 79.7646V146.592C172.906 149.353 170.668 151.592 167.906 151.592H90.9513C88.1899 151.592 85.9513 149.353 85.9513 146.592V79.7647Z" fill="#07C5D0"/>
<path d="M99.7315 124.553L126.305 90.8182L152.878 124.553H99.7315Z" stroke="#FFFBFB" stroke-width="2"/>
<ellipse cx="126.305" cy="96.4202" rx="15.881" ry="14.9529" fill="white"/>
<path d="M126.305 95.1317C129.509 95.1317 132.107 92.8812 132.107 90.1044C132.107 87.3276 129.509 85.0771 126.305 85.0771C123.1 85.0771 120.503 87.3276 120.503 90.1044C120.503 92.8812 123.1 95.1317 126.305 95.1317ZM130.366 96.3885H129.609C128.603 96.7891 127.483 97.0169 126.305 97.0169C125.126 97.0169 124.011 96.7891 123 96.3885H122.243C118.88 96.3885 116.151 98.7529 116.151 101.667V103.301C116.151 104.342 117.126 105.186 118.327 105.186H134.282C135.484 105.186 136.458 104.342 136.458 103.301V101.667C136.458 98.7529 133.729 96.3885 130.366 96.3885Z" fill="#FF784B"/>
<ellipse cx="101.832" cy="126.326" rx="15.881" ry="14.9529" fill="white"/>
<path d="M101.832 125.037C105.037 125.037 107.634 122.787 107.634 120.01C107.634 117.233 105.037 114.983 101.832 114.983C98.6277 114.983 96.0304 117.233 96.0304 120.01C96.0304 122.787 98.6277 125.037 101.832 125.037ZM105.894 126.294H105.137C104.13 126.695 103.011 126.923 101.832 126.923C100.654 126.923 99.5388 126.695 98.528 126.294H97.771C94.4077 126.294 91.679 128.659 91.679 131.573V133.207C91.679 134.248 92.6535 135.092 93.8547 135.092H109.81C111.011 135.092 111.986 134.248 111.986 133.207V131.573C111.986 128.659 109.257 126.294 105.894 126.294Z" fill="#FF784B"/>
<ellipse cx="148.694" cy="127.358" rx="15.881" ry="14.9529" fill="white"/>
<path d="M148.694 126.068C151.899 126.068 154.496 123.818 154.496 121.041C154.496 118.264 151.899 116.014 148.694 116.014C145.49 116.014 142.892 118.264 142.892 121.041C142.892 123.818 145.49 126.068 148.694 126.068ZM152.756 127.325H151.999C150.992 127.726 149.873 127.953 148.694 127.953C147.516 127.953 146.401 127.726 145.39 127.325H144.633C141.27 127.325 138.541 129.689 138.541 132.604V134.238C138.541 135.278 139.515 136.123 140.717 136.123H156.672C157.873 136.123 158.848 135.278 158.848 134.238V132.604C158.848 129.689 156.119 127.325 152.756 127.325Z" fill="#FF784B"/>
<path d="M60.4857 14.4892L99.8272 35.5082C103.08 37.2517 102.768 41.7114 99.2881 43.0343L88.4787 47.1786V54.5733C88.4787 58.6387 82.8801 60.3121 80.2889 57.0791L76.1467 51.901L65.5642 55.9489C65.0062 56.1592 64.4199 56.2643 63.8335 56.2643C63.0581 56.2643 62.292 56.0803 61.6017 55.7211C60.3912 55.0902 59.5589 53.9688 59.3414 52.6983L53.7239 18.7736C53.147 15.2602 57.2136 12.7457 60.4857 14.4892ZM83.9393 54.5733V48.9133L80.478 50.2363L83.9393 54.5733ZM63.8335 52.0588L78.3785 46.4952L65.1197 28.7705C64.1078 27.4125 66.0181 25.8354 67.361 26.9131L87.3628 43.0606L97.5575 39.153L58.216 18.1253L63.8335 52.0588Z" fill="#729CFC"/>
<ellipse cx="382.223" cy="68.3196" rx="17.7034" ry="17.7888" fill="#D450DA"/>
<path d="M371.956 76.6805L377.018 71.9127C377.113 71.8224 377.239 71.7753 377.372 71.7753H377.922C376.609 70.3418 375.813 68.4763 375.813 66.4341C375.813 61.9215 379.694 58.2651 384.485 58.2651C389.276 58.2651 393.157 61.9215 393.157 66.4341C393.157 70.9466 389.276 74.603 384.485 74.603C382.317 74.603 380.336 73.8528 378.815 72.6157V73.1341C378.815 73.2598 378.76 73.3776 378.669 73.468L373.607 78.2358C373.411 78.4204 373.094 78.4204 372.898 78.2358L371.956 77.3482C371.76 77.1636 371.76 76.8651 371.956 76.6805ZM384.485 72.7178C388.171 72.7178 391.156 69.9058 391.156 66.4341C391.156 62.9623 388.171 60.1503 384.485 60.1503C380.799 60.1503 377.814 62.9623 377.814 66.4341C377.814 69.9058 380.799 72.7178 384.485 72.7178Z" fill="white"/>
<defs>
<filter id="filter0_d_257:121" x="293.999" y="93.356" width="57.2527" height="144.97" filterUnits="userSpaceOnUse" color-interpolation-filters="sRGB">
<feFlood flood-opacity="0" result="BackgroundImageFix"/>
<feColorMatrix in="SourceAlpha" type="matrix" values="0 0 0 0 0 0 0 0 0 0 0 0 0 0 0 0 0 0 127 0" result="hardAlpha"/>
<feOffset dx="14"/>
<feComposite in2="hardAlpha" operator="out"/>
<feColorMatrix type="matrix" values="0 0 0 0 0.960784 0 0 0 0 0.960784 0 0 0 0 0.960784 0 0 0 1 0"/>
<feBlend mode="normal" in2="BackgroundImageFix" result="effect1_dropShadow_257:121"/>
<feBlend mode="normal" in="SourceGraphic" in2="effect1_dropShadow_257:121" result="shape"/>
</filter>
<filter id="filter1_d_257:121" x="257.447" y="93.356" width="57.2527" height="144.97" filterUnits="userSpaceOnUse" color-interpolation-filters="sRGB">
<feFlood flood-opacity="0" result="BackgroundImageFix"/>
<feColorMatrix in="SourceAlpha" type="matrix" values="0 0 0 0 0 0 0 0 0 0 0 0 0 0 0 0 0 0 127 0" result="hardAlpha"/>
<feOffset dx="14"/>
<feComposite in2="hardAlpha" operator="out"/>
<feColorMatrix type="matrix" values="0 0 0 0 0.960784 0 0 0 0 0.960784 0 0 0 0 0.960784 0 0 0 1 0"/>
<feBlend mode="normal" in2="BackgroundImageFix" result="effect1_dropShadow_257:121"/>
<feBlend mode="normal" in="SourceGraphic" in2="effect1_dropShadow_257:121" result="shape"/>
</filter>
<filter id="filter2_d_257:121" x="130.735" y="90.835" width="53.951" height="144.97" filterUnits="userSpaceOnUse" color-interpolation-filters="sRGB">
<feFlood flood-opacity="0" result="BackgroundImageFix"/>
<feColorMatrix in="SourceAlpha" type="matrix" values="0 0 0 0 0 0 0 0 0 0 0 0 0 0 0 0 0 0 127 0" result="hardAlpha"/>
<feOffset dx="14"/>
<feComposite in2="hardAlpha" operator="out"/>
<feColorMatrix type="matrix" values="0 0 0 0 0.960784 0 0 0 0 0.960784 0 0 0 0 0.960784 0 0 0 1 0"/>
<feBlend mode="normal" in2="BackgroundImageFix" result="effect1_dropShadow_257:121"/>
<feBlend mode="normal" in="SourceGraphic" in2="effect1_dropShadow_257:121" result="shape"/>
</filter>
<filter id="filter3_d_257:121" x="164.496" y="90.8354" width="53.951" height="144.97" filterUnits="userSpaceOnUse" color-interpolation-filters="sRGB">
<feFlood flood-opacity="0" result="BackgroundImageFix"/>
<feColorMatrix in="SourceAlpha" type="matrix" values="0 0 0 0 0 0 0 0 0 0 0 0 0 0 0 0 0 0 127 0" result="hardAlpha"/>
<feOffset dx="14"/>
<feComposite in2="hardAlpha" operator="out"/>
<feColorMatrix type="matrix" values="0 0 0 0 0.960784 0 0 0 0 0.960784 0 0 0 0 0.960784 0 0 0 1 0"/>
<feBlend mode="normal" in2="BackgroundImageFix" result="effect1_dropShadow_257:121"/>
<feBlend mode="normal" in="SourceGraphic" in2="effect1_dropShadow_257:121" result="shape"/>
</filter>
<filter id="filter4_d_257:121" x="211.149" y="93.356" width="49.77" height="145.601" filterUnits="userSpaceOnUse" color-interpolation-filters="sRGB">
<feFlood flood-opacity="0" result="BackgroundImageFix"/>
<feColorMatrix in="SourceAlpha" type="matrix" values="0 0 0 0 0 0 0 0 0 0 0 0 0 0 0 0 0 0 127 0" result="hardAlpha"/>
<feOffset dx="12"/>
<feComposite in2="hardAlpha" operator="out"/>
<feColorMatrix type="matrix" values="0 0 0 0 0.960784 0 0 0 0 0.960784 0 0 0 0 0.960784 0 0 0 1 0"/>
<feBlend mode="normal" in2="BackgroundImageFix" result="effect1_dropShadow_257:121"/>
<feBlend mode="normal" in="SourceGraphic" in2="effect1_dropShadow_257:121" result="shape"/>
</filter>
</defs>
</svg>
